<?xml version="1.0" encoding="iso-8859-1"?>
<!-- Generator: Adobe Illustrator 18.0.0, SVG Export Plug-In . SVG Version: 6.00 Build 0)  -->
<!DOCTYPE svg PUBLIC "-//W3C//DTD SVG 1.1//EN" "http://www.w3.org/Graphics/SVG/1.1/DTD/svg11.dtd">
<svg xmlns="http://www.w3.org/2000/svg" xmlns:xlink="http://www.w3.org/1999/xlink" version="1.1" id="Capa_1" x="0px" y="0px" viewBox="0 0 451.478 451.478" style="enable-background:new 0 0 451.478 451.478;" xml:space="preserve" width="512px" height="512px">
<path d="M451.478,148.49V98.992h-47.998V88.498c0-2.485-2.015-4.5-4.5-4.5s-4.5,2.015-4.5,4.5v10.494H56.998  V88.498c0-2.485-2.015-4.5-4.5-4.5s-4.5,2.015-4.5,4.5v10.494H0v49.498h47.998v13.499H0v49.498h47.998v26.998H0v29.249h23.999  v95.245c0,2.485,2.015,4.5,4.5,4.5s4.5-2.015,4.5-4.5v-95.245h14.999v66.747c0,2.485,2.015,4.5,4.5,4.5s4.5-2.015,4.5-4.5v-66.747  h337.482v66.747c0,2.485,2.015,4.5,4.5,4.5s4.5-2.015,4.5-4.5v-66.747h14.999v95.245c0,2.485,2.015,4.5,4.5,4.5s4.5-2.015,4.5-4.5  v-95.245h23.999v-29.249h-47.998v-26.998h47.998v-49.498h-47.998V148.49H451.478z M9,107.992h433.478v31.498H9V107.992z   M442.478,258.734H9v-11.249h433.478V258.734z M394.479,238.485H56.998v-26.998h337.482V238.485z M442.478,202.487H9v-31.498  h433.478V202.487z M394.479,161.989H56.998V148.49h337.482V161.989z" fill="#FFFFFF"/>
<g>
</g>
<g>
</g>
<g>
</g>
<g>
</g>
<g>
</g>
<g>
</g>
<g>
</g>
<g>
</g>
<g>
</g>
<g>
</g>
<g>
</g>
<g>
</g>
<g>
</g>
<g>
</g>
<g>
</g>
</svg>
