<svg id="Layer_1" data-name="Layer 1" xmlns="http://www.w3.org/2000/svg" viewBox="0 0 381.76 74.54"><defs><style>.cls-1{fill:#fff;}.cls-2{fill:#ff4d4d;}</style></defs><title>erdve</title><path class="cls-1" d="M495.11,850.76a21.74,21.74,0,0,1,.68-5.35,16.61,16.61,0,0,1,2-4.85,11.44,11.44,0,0,1,3.38-3.49,8.28,8.28,0,0,1,4.67-1.33,8.58,8.58,0,0,1,3.27.58,7,7,0,0,1,2.34,1.51,6.19,6.19,0,0,1,1.4,2.12,6.7,6.7,0,0,1,.47,2.48,8.61,8.61,0,0,1-5.21,7.94,10.18,10.18,0,0,1-3.84.83,6.06,6.06,0,0,1-1.65-.07,16.84,16.84,0,0,1-1.65-.43,3.22,3.22,0,0,0-.07.61v0.4a9.62,9.62,0,0,0,.86,4.17,7.09,7.09,0,0,0,1.72,2.26,4.75,4.75,0,0,0,1.8,1,6.07,6.07,0,0,0,1.15.22,6.42,6.42,0,0,0,3.7-1l3.27-2.23,0.79,0.32a1.91,1.91,0,0,1,.79.68,6.21,6.21,0,0,0,.14.68,3,3,0,0,1,.07.75,3.36,3.36,0,0,1-.54,1.69,6.21,6.21,0,0,1-1,1.19,9.84,9.84,0,0,1-3.49,2,15.59,15.59,0,0,1-4.21.47,10.3,10.3,0,0,1-2.84-.5,17.82,17.82,0,0,1-2.84-1.08,13.38,13.38,0,0,1-2.7-2.59,11,11,0,0,1-1.51-2.73,12.57,12.57,0,0,1-.72-3Q495.18,852.49,495.11,850.76Zm6.25-3.88a5.32,5.32,0,0,0,.9.11c0.41,0,.73,0,1,0A5.37,5.37,0,0,0,507,845.8a3.86,3.86,0,0,0,1.33-2.95,3.31,3.31,0,0,0-.58-1.87,1.8,1.8,0,0,0-1.58-.86,6.79,6.79,0,0,0-1.4.14,1.56,1.56,0,0,0-1,.72,8.79,8.79,0,0,1-.65.72,3.87,3.87,0,0,0-.68,1,10,10,0,0,0-.61,1.62A13.55,13.55,0,0,0,501.36,846.88Z" transform="translate(-495.11 -814.76)"/><path class="cls-1" d="M519.47,861.69a4.59,4.59,0,0,0,.18-1.33q0-1,0-2.41t0-2.95q0-1.58-.07-2.91t-0.07-2.3c0-.65,0-1,0-1.11v-2.37q0-1.58-.11-3.16T519.19,840V839.7a2.93,2.93,0,0,0-.29-1.26,3.07,3.07,0,0,1-.29-1.33,3.41,3.41,0,0,1,.79-1.44,2.52,2.52,0,0,1,1.8-.5,3.52,3.52,0,0,1,1.94.47,3.1,3.1,0,0,1,1.08,1.15,4.49,4.49,0,0,1,.47,1.54q0.11,0.86.18,1.65l0.21,3.81a8.38,8.38,0,0,0,1.51-1.69q0.79-1.11,1.65-2.41t1.8-2.52a11.16,11.16,0,0,1,1.94-2,3.2,3.2,0,0,1,1.44-.29,5.2,5.2,0,0,1,2.77.65,4.17,4.17,0,0,1,1.62,2.08,3.9,3.9,0,0,1-.79,1.47q-0.65.83-1.47,1.72l-1.73,1.87a17.52,17.52,0,0,0-1.54,1.91,20.38,20.38,0,0,0-2.16,2.8,34.13,34.13,0,0,0-1.94,3.38,33.26,33.26,0,0,0-1.44,3.27,7.57,7.57,0,0,0-.58,2.48q0,0.58,0,1.62t0,1.62a11.27,11.27,0,0,1-.14,1.76,4.86,4.86,0,0,1-.58,1.65,3.52,3.52,0,0,1-1.15,1.22,3.38,3.38,0,0,1-1.87.47,3,3,0,0,1-2.19-.83,2.78,2.78,0,0,1-.83-2v-0.29Z" transform="translate(-495.11 -814.76)"/><path class="cls-1" d="M561.52,849.25a8.33,8.33,0,0,0,.25,1.37q0.25,1.08.65,2.3t0.75,2.37a12.23,12.23,0,0,0,.58,1.58,7,7,0,0,1,.65,1.65,12,12,0,0,0,.58,1.73,2.44,2.44,0,0,1-.72,2,2.3,2.3,0,0,1-1.44.58h-0.9a3.06,3.06,0,0,1-.9-0.07,11.71,11.71,0,0,1-1.37-.65,4.28,4.28,0,0,1-1.37-2,6.18,6.18,0,0,1-.72-1.83q-0.36-1.33-.68-2.84t-0.65-2.84a9.94,9.94,0,0,0-.61-1.91A21.08,21.08,0,0,1,553.9,856a17,17,0,0,1-2.66,4,11.57,11.57,0,0,1-3.16,2.52,7,7,0,0,1-3.23.86,5.91,5.91,0,0,1-5.25-2.41,10.35,10.35,0,0,1-1.65-6,19.64,19.64,0,0,1,.61-4.6,27.63,27.63,0,0,1,1.73-5,26,26,0,0,1,2.69-4.6,14.69,14.69,0,0,1,3.45-3.45,7.18,7.18,0,0,0,1-.72,3.4,3.4,0,0,1,2.16-.58,7,7,0,0,1,2,.29l1.91,0.58q0-2.52-.22-5T553,827.19q0-.22,0-1.83t0-3.77v-1.47q0-.75-0.07-1.54a3.63,3.63,0,0,0,.07-1.26,1.4,1.4,0,0,1,.43-1.19,3.25,3.25,0,0,1,1.47-1,5.17,5.17,0,0,1,1.76-.32,2.36,2.36,0,0,1,2,1,3.49,3.49,0,0,1,.72,2.12q0,2.44-.18,4.64T559,827.33q0,1.65.22,3.92t0.43,4.13q0.14,1.51.29,3.31t0.36,3.63q0.22,1.83.5,3.56a22.67,22.67,0,0,0,.72,3.09v0.29Zm-17.11,8.62A3.53,3.53,0,0,0,547,856.8a10.55,10.55,0,0,0,1.87-2.59,23.41,23.41,0,0,0,1.37-3.16,29.6,29.6,0,0,1,1.15-2.87q0.29-1.08.65-2.16a7.24,7.24,0,0,0,.36-2.3,0.25,0.25,0,0,0-.25-0.25l-0.61-.07a7.25,7.25,0,0,1-.72-0.11,0.65,0.65,0,0,1-.5-0.43,7.13,7.13,0,0,1,0-.72c0-.24,0-0.48,0-0.72a2,2,0,0,1-.4,0,2.51,2.51,0,0,0-.47,0,26,26,0,0,1-2.26,2.91,9.36,9.36,0,0,0-1.9,3.34l-0.75,2.26a16.39,16.39,0,0,0-.5,1.83q-0.18.86-.29,1.76a16.58,16.58,0,0,0-.11,2,3,3,0,0,0,.29,1.22A7.71,7.71,0,0,1,544.41,857.88Z" transform="translate(-495.11 -814.76)"/><path class="cls-1" d="M572.8,861.4a14.78,14.78,0,0,1-1.51-3,34,34,0,0,1-1.11-3.56q-0.47-1.83-.75-3.56a27.73,27.73,0,0,1-.36-3,18.91,18.91,0,0,0-1.11-4.82,13.87,13.87,0,0,1-.9-4.82,1.33,1.33,0,0,1,1.08-1.47,8.87,8.87,0,0,1,2-.25,4.62,4.62,0,0,1,.83.11,4.81,4.81,0,0,1,1.08.36,5.45,5.45,0,0,1,1,.61,1.66,1.66,0,0,1,.61.86,22,22,0,0,0,.29,3.31q0.29,1.87.68,3.7t0.75,3.45q0.36,1.62.5,2.62a16,16,0,0,0,2.26-4.13q1-2.62,2.16-5.17a27.09,27.09,0,0,1,2.44-4.49A4.49,4.49,0,0,1,586,836a12.28,12.28,0,0,1,2.37.18,3,3,0,0,1,1.29.54,1.73,1.73,0,0,1,.58.93q0.14,0.58.29,1.37a31.1,31.1,0,0,0-2.12,2.62q-0.9,1.26-1.69,2.55t-1.51,2.73q-0.72,1.44-1.58,3.09c-0.1.24-.2,0.49-0.32,0.75a7.55,7.55,0,0,1-.4.75,11.28,11.28,0,0,0-1.62,3.27q-0.61,1.9-1.37,3.7a13.48,13.48,0,0,1-1.83,3.16,4.26,4.26,0,0,1-3,1.58Z" transform="translate(-495.11 -814.76)"/><path class="cls-1" d="M591.13,850.76a21.74,21.74,0,0,1,.68-5.35,16.61,16.61,0,0,1,2-4.85,11.44,11.44,0,0,1,3.38-3.49,8.28,8.28,0,0,1,4.67-1.33,8.58,8.58,0,0,1,3.27.58,7,7,0,0,1,2.34,1.51,6.19,6.19,0,0,1,1.4,2.12,6.7,6.7,0,0,1,.47,2.48,8.61,8.61,0,0,1-5.21,7.94,10.18,10.18,0,0,1-3.84.83,6.06,6.06,0,0,1-1.65-.07,16.84,16.84,0,0,1-1.65-.43,3.22,3.22,0,0,0-.07.61v0.4a9.62,9.62,0,0,0,.86,4.17,7.09,7.09,0,0,0,1.72,2.26,4.75,4.75,0,0,0,1.8,1,6.07,6.07,0,0,0,1.15.22,6.42,6.42,0,0,0,3.7-1l3.27-2.23,0.79,0.32a1.91,1.91,0,0,1,.79.68,6.21,6.21,0,0,0,.14.68,3,3,0,0,1,.07.75,3.36,3.36,0,0,1-.54,1.69,6.21,6.21,0,0,1-1,1.19,9.84,9.84,0,0,1-3.49,2,15.59,15.59,0,0,1-4.21.47,10.3,10.3,0,0,1-2.84-.5,17.82,17.82,0,0,1-2.84-1.08,13.38,13.38,0,0,1-2.7-2.59A11,11,0,0,1,592.1,857a12.57,12.57,0,0,1-.72-3Q591.2,852.49,591.13,850.76Zm6.68-30.26a1.81,1.81,0,0,1,1.29-.36,4.64,4.64,0,0,1,1.47.25,5.17,5.17,0,0,1,1.4.72,4.31,4.31,0,0,1,1,1,2.12,2.12,0,0,1,.4,1.22,2.08,2.08,0,0,1-.68,1.83,3.34,3.34,0,0,1-1.9.47,5.49,5.49,0,0,1-1.62-.25,7.47,7.47,0,0,1-1.47-.61,4.66,4.66,0,0,1-1-.75,1.11,1.11,0,0,1-.4-0.75,5.65,5.65,0,0,1,.18-1.51A2.54,2.54,0,0,1,597.81,820.51Zm-0.43,26.38a5.32,5.32,0,0,0,.9.11c0.41,0,.73,0,1,0A5.37,5.37,0,0,0,603,845.8a3.86,3.86,0,0,0,1.33-2.95,3.31,3.31,0,0,0-.58-1.87,1.8,1.8,0,0,0-1.58-.86,6.79,6.79,0,0,0-1.4.14,1.56,1.56,0,0,0-1,.72,8.79,8.79,0,0,1-.65.72,3.87,3.87,0,0,0-.68,1,10,10,0,0,0-.61,1.62A13.55,13.55,0,0,0,597.38,846.88Z" transform="translate(-495.11 -814.76)"/><path class="cls-2" d="M649.29,836.47a4.85,4.85,0,0,1,.73-0.23,4.67,4.67,0,0,0,.73-0.23,12,12,0,0,0,1.49.23,10.68,10.68,0,0,1,1.87.38q0.15,1.76.42,3.36a21.52,21.52,0,0,1,.27,3.52q0,5.43.34,11.39t0.34,13.61a50.06,50.06,0,0,1-.54,7.3,19.36,19.36,0,0,1-2.37,6.84,8.37,8.37,0,0,0-1.15,1.72,10.24,10.24,0,0,1-1.45,2.06,9.09,9.09,0,0,1-2.33,1.83,9.43,9.43,0,0,1-3.71,1l-1.91-.65a2.39,2.39,0,0,1-1.15-1.87,5.67,5.67,0,0,1,1.95-2.33,13.63,13.63,0,0,0,2.71-2.71,16,16,0,0,0,2.41-5.08,33.78,33.78,0,0,0,1-9.52v-3.25q0-1.57-.08-3.1t-0.19-3.13q-0.11-1.61-.34-3.52a31.2,31.2,0,0,1-1.64,3,12,12,0,0,1-2.14,2.56,11.83,11.83,0,0,1-3,1.95,13.85,13.85,0,0,1-4.09,1.11q-1.07-.53-2.18-1.22a11.23,11.23,0,0,1-2-1.61,7.93,7.93,0,0,1-1.49-2.06,5.74,5.74,0,0,1-.57-2.6,2.32,2.32,0,0,1,.08-0.69q0.53-1.84,1.76-5.12a45.68,45.68,0,0,1,3.06-6.54,23.48,23.48,0,0,1,4.36-5.62,8.15,8.15,0,0,1,5.73-2.37,5,5,0,0,1,1.22.15,11.61,11.61,0,0,1,1.22.38ZM638.89,857a4.13,4.13,0,0,0,2.33-1.38,15.71,15.71,0,0,0,2.29-3.17,36.29,36.29,0,0,0,2.1-4.43q1-2.48,1.83-5.24a11.68,11.68,0,0,1,.27-1.64,7.1,7.1,0,0,0,.19-1.64,4.9,4.9,0,0,0-2.06.54,5.94,5.94,0,0,0-1.49,1.15,11.23,11.23,0,0,0-1.19,1.49q-0.53.8-1.15,1.57-0.61,1.3-1.41,2.71t-1.53,2.87a23.52,23.52,0,0,0-1.22,2.91,8.69,8.69,0,0,0-.5,2.83A1.47,1.47,0,0,0,638.89,857Z" transform="translate(-495.11 -814.76)"/><path class="cls-2" d="M668.25,847.56q0,1.07,0,2.6a25.9,25.9,0,0,0,.27,3.1,16.47,16.47,0,0,0,.65,2.83,3.41,3.41,0,0,0,1.18,1.8,5.24,5.24,0,0,0,2.6-2.1,18.05,18.05,0,0,0,1.83-3.48,36.45,36.45,0,0,0,1.3-3.86q0.53-1.95.92-3.25a32.61,32.61,0,0,0,.31-3.55,34.58,34.58,0,0,1,.34-3.82,10.08,10.08,0,0,1,.88-3,2,2,0,0,1,1.91-1.22,4.68,4.68,0,0,1,2.45.69,2.79,2.79,0,0,1,1.38,2q-0.31,4.36-.42,7.53T683.77,849q0,0.69,0,1.83t0.12,2.48q0.07,1.34.11,2.75t0,2.64a50,50,0,0,1-1.95,14.53A32.45,32.45,0,0,1,675.59,885l-1.45,1.15a11.32,11.32,0,0,1-4.09,2.06,11.35,11.35,0,0,1-3.1.38,4.09,4.09,0,0,1-1.11-.19,4.49,4.49,0,0,1-1.22-.57,3.43,3.43,0,0,1-1-1,2.22,2.22,0,0,1-.38-1.26,1.43,1.43,0,0,1,1-1q1-.5,2.37-1.11t2.79-1.38a8.11,8.11,0,0,0,2.33-1.83,29,29,0,0,0,4.82-9.37A37,37,0,0,0,678,860.71V859.6a7.19,7.19,0,0,1,.08-1,0.61,0.61,0,0,0-.38-0.08,8.18,8.18,0,0,1-1.3,2.06,14.17,14.17,0,0,1-1.87,1.83,10.05,10.05,0,0,1-2.1,1.34,4.76,4.76,0,0,1-2,.5,5.82,5.82,0,0,1-4.51-1.83,12.28,12.28,0,0,1-2.56-4.43,23.8,23.8,0,0,1-1.15-5.43q-0.27-2.83-.27-4.82c0-.31,0-0.61,0-0.92s0-.61,0-0.92q0-1.3-.08-2.48t-0.08-2.48q0-.92.08-2.1a10.61,10.61,0,0,1,.38-2.25,6.15,6.15,0,0,1,.8-1.8,1.54,1.54,0,0,1,1.34-.73,3.73,3.73,0,0,1,2.52.69,3.18,3.18,0,0,1,1,1.72,10.39,10.39,0,0,1,.23,2.26,9.85,9.85,0,0,0,.23,2.22q-0.08,1.07-.12,2.71t0,2.64v1.3Z" transform="translate(-495.11 -814.76)"/><path class="cls-2" d="M696.07,861.32a15.79,15.79,0,0,1-1.61-3.21,36.44,36.44,0,0,1-1.18-3.78q-0.5-1.95-.8-3.78a29.64,29.64,0,0,1-.38-3.21,20.14,20.14,0,0,0-1.19-5.12,14.76,14.76,0,0,1-1-5.12,1.42,1.42,0,0,1,1.15-1.57,9.49,9.49,0,0,1,2.14-.27,4.87,4.87,0,0,1,.88.11,5.1,5.1,0,0,1,1.15.38,5.78,5.78,0,0,1,1.07.65,1.77,1.77,0,0,1,.65.92,23.41,23.41,0,0,0,.31,3.52q0.3,2,.73,3.94t0.8,3.67q0.38,1.72.54,2.79a17,17,0,0,0,2.41-4.4q1.11-2.79,2.29-5.5a28.83,28.83,0,0,1,2.6-4.78,4.78,4.78,0,0,1,3.4-2.29,13,13,0,0,1,2.52.19A3.17,3.17,0,0,1,714,835a1.85,1.85,0,0,1,.61,1q0.15,0.61.31,1.45a32.78,32.78,0,0,0-2.25,2.79q-1,1.34-1.8,2.71t-1.61,2.9q-0.76,1.53-1.68,3.29c-0.1.25-.22,0.52-0.34,0.8a8,8,0,0,1-.42.8,12,12,0,0,0-1.72,3.48q-0.65,2-1.45,3.94a14.36,14.36,0,0,1-1.95,3.36,4.54,4.54,0,0,1-3.21,1.68Z" transform="translate(-495.11 -814.76)"/><path class="cls-2" d="M715.57,850a23.11,23.11,0,0,1,.73-5.7,17.69,17.69,0,0,1,2.18-5.16,12.19,12.19,0,0,1,3.59-3.71,8.81,8.81,0,0,1,5-1.42,9.13,9.13,0,0,1,3.48.61,7.48,7.48,0,0,1,2.48,1.61,6.59,6.59,0,0,1,1.49,2.25,7.13,7.13,0,0,1,.5,2.64,9.26,9.26,0,0,1-2.52,6.34,9.28,9.28,0,0,1-3,2.1,10.83,10.83,0,0,1-4.09.88,6.46,6.46,0,0,1-1.76-.08,18,18,0,0,1-1.76-.46,3.34,3.34,0,0,0-.08.65V851a10.25,10.25,0,0,0,.92,4.43,7.54,7.54,0,0,0,1.83,2.41,5.07,5.07,0,0,0,1.91,1,6.46,6.46,0,0,0,1.22.23,6.82,6.82,0,0,0,3.94-1.07l3.48-2.37L735.9,856a2,2,0,0,1,.84.73,6.66,6.66,0,0,0,.15.73,3.19,3.19,0,0,1,.08.8,3.57,3.57,0,0,1-.57,1.8,6.66,6.66,0,0,1-1.11,1.26,10.48,10.48,0,0,1-3.71,2.18,16.55,16.55,0,0,1-4.47.5,11,11,0,0,1-3-.54,19,19,0,0,1-3-1.15,14.23,14.23,0,0,1-2.87-2.75,11.63,11.63,0,0,1-1.6-2.9,13.31,13.31,0,0,1-.76-3.17Q715.64,851.84,715.57,850Zm6.65-4.13a5.58,5.58,0,0,0,1,.12c0.43,0,.78,0,1,0a5.72,5.72,0,0,0,4-1.3,4.11,4.11,0,0,0,1.41-3.13,3.52,3.52,0,0,0-.61-2,1.92,1.92,0,0,0-1.68-.92,7.23,7.23,0,0,0-1.49.15,1.65,1.65,0,0,0-1.11.76,9.19,9.19,0,0,1-.69.76,4.07,4.07,0,0,0-.73,1.07,10.63,10.63,0,0,0-.65,1.72A14.44,14.44,0,0,0,722.22,845.88Z" transform="translate(-495.11 -814.76)"/><path class="cls-2" d="M747.91,851.84a7.82,7.82,0,0,0,1.72-2.75q0.65-1.68,1.26-3.21l0.15-.46a30.41,30.41,0,0,1,1.38-3,24.12,24.12,0,0,1,2.14-3.44,14.69,14.69,0,0,1,2.68-2.79,4.77,4.77,0,0,1,3-1.15,3.69,3.69,0,0,1,1.95,1.22,6.32,6.32,0,0,1,1,1.87q0.34,1,.61,2.14a11.28,11.28,0,0,0,.73,2.1A22,22,0,0,1,766,847.1q0.5,2.52.84,5.12t0.8,5.12A21.61,21.61,0,0,0,769,862a2.22,2.22,0,0,1-1.34,1.8,4.93,4.93,0,0,1-2.1.57,2.51,2.51,0,0,1-2.14-1,7.7,7.7,0,0,1-1.19-2.52,20.12,20.12,0,0,1-.61-3.1,17.63,17.63,0,0,0-.5-2.68,20.56,20.56,0,0,1-.61-2.94q-0.23-1.64-.54-3.33a31.82,31.82,0,0,0-.73-3.13,6.48,6.48,0,0,0-1.18-2.37,31.27,31.27,0,0,0-2.1,3.86q-0.8,1.8-1.45,3.44l-1.26,3.21a30.88,30.88,0,0,1-3.75,6.61,9.14,9.14,0,0,1-1.83,1.8,3.94,3.94,0,0,1-1.61.69,9.83,9.83,0,0,1-1.45.11,3.54,3.54,0,0,1-1.87-.76,2.2,2.2,0,0,1-1.11-1.83q0-4.81,0-8.94t0-8.71q0-1.3-.08-2.64t-0.08-2.64a4.89,4.89,0,0,1,.34-1.8,2.22,2.22,0,0,1,1.18-1.26c0.31,0,.61,0,0.92,0s0.58,0,.84,0a2.12,2.12,0,0,1,1.57.57,3.45,3.45,0,0,1,.84,1.41,8.05,8.05,0,0,1,.34,1.76c0,0.61.08,1.12,0.08,1.53a6.56,6.56,0,0,0,.19,1.61,6.62,6.62,0,0,1,.19,1.61q0,2.83-.08,4.82t-0.08,3.82v0.38Z" transform="translate(-495.11 -814.76)"/><path class="cls-2" d="M782.08,860.86a2.72,2.72,0,0,1-.31,1.22,6.12,6.12,0,0,1-1.15,1.45,11.85,11.85,0,0,1-2.41-.23,4.17,4.17,0,0,1-1.91-.92,4.53,4.53,0,0,1-1.26-2,10.87,10.87,0,0,1-.46-3.52,12.91,12.91,0,0,0-.27-2.6,12.83,12.83,0,0,1-.27-2.6,57.4,57.4,0,0,0-.46-7.42,57.18,57.18,0,0,1-.46-7.42,2.73,2.73,0,0,1,1.3-2.45,11.67,11.67,0,0,1,1.45-.34l1.53-.27a3.44,3.44,0,0,1,1.61.88q0.53,0.57,1,1.11c-0.05.51-.09,1-0.11,1.53s0,1,0,1.61q0,2.91.31,6.19t0.69,6.27q0.38,3,.73,5.43t0.5,3.75v0.31Zm-6.73-43a1.94,1.94,0,0,1,1.38-.38,4.94,4.94,0,0,1,1.57.27,5.53,5.53,0,0,1,1.49.76,4.63,4.63,0,0,1,1.11,1.11,2.26,2.26,0,0,1,.42,1.3,2.22,2.22,0,0,1-.73,2,3.55,3.55,0,0,1-2,.5,5.87,5.87,0,0,1-1.72-.27,8,8,0,0,1-1.57-.65,4.89,4.89,0,0,1-1.11-.8,1.18,1.18,0,0,1-.42-0.8,6,6,0,0,1,.19-1.61A2.7,2.7,0,0,1,775.35,817.82Z" transform="translate(-495.11 -814.76)"/><path class="cls-2" d="M828.56,842.51a29.74,29.74,0,0,0,.54,5.77q0.53,2.72.92,5.77a10,10,0,0,0,.88,3.13,7.73,7.73,0,0,1,.73,3.21,3.39,3.39,0,0,1-1,2.68,3.61,3.61,0,0,1-2.48.92,2.74,2.74,0,0,1-2.48-1.49,11.44,11.44,0,0,1-1.3-3.44,29.24,29.24,0,0,1-.57-3.82,14.57,14.57,0,0,0-.38-2.64,10.71,10.71,0,0,1-.61-2.48q-0.15-1.26-.27-2.48l-0.23-2.45a13.36,13.36,0,0,0-.5-2.52l-1.49,2.79q-0.8,1.49-1.61,3.06l-1.57,3.06q-0.76,1.49-1.3,2.71a16.86,16.86,0,0,0-1,2.48q-0.34,1.19-.65,2.33t-0.69,2.29a16.48,16.48,0,0,1-1.07,2.45,4.39,4.39,0,0,1-2,.46,2.66,2.66,0,0,1-2.25-1.07,7.63,7.63,0,0,1-1.22-2.68,23,23,0,0,1-.61-3.36q-0.19-1.76-.42-3.13t-0.42-3.13q-0.27-1.68-.69-3.33t-0.92-3.1a10.39,10.39,0,0,0-1.11-2.37,7.21,7.21,0,0,0-1.87,2.37,32.62,32.62,0,0,0-1.45,3.17q-0.65,1.65-1.11,3.21a24.87,24.87,0,0,1-.84,2.48,11.68,11.68,0,0,0-1.34,3.56q-0.34,1.8-.76,3.29a5.93,5.93,0,0,1-1.3,2.45,3.86,3.86,0,0,1-2.94,1,2,2,0,0,1-1.19-.42,3.69,3.69,0,0,1-1-1,6,6,0,0,1-.61-1.3,4.12,4.12,0,0,1-.23-1.3,10.73,10.73,0,0,0,.19-1.53q0-.76,0-1.61,0-.23.08-1.15t0.15-1.95q0.08-1,.15-1.95c0-.61.08-1,0.08-1.15q0-4.28-.08-6.15t-0.15-2.56a1.72,1.72,0,0,0-.15-0.73,1.24,1.24,0,0,1-.08-0.65,4.82,4.82,0,0,0-.27-1.61,4.81,4.81,0,0,1-.27-1.61,2.32,2.32,0,0,1,.92-1.83,3,3,0,0,1,2-.76,3.09,3.09,0,0,1,2.14.69,4,4,0,0,1,1.11,1.72,8.81,8.81,0,0,1,.42,2.22q0.07,1.19.08,2.1a18.21,18.21,0,0,1-.11,1.91,18.57,18.57,0,0,0-.12,2,6.53,6.53,0,0,0,.15,1.22l1-2.22q0.57-1.22,1.22-2.48t1.34-2.41a16.94,16.94,0,0,1,1.38-2q0.92-1.15,2.14-2.41a3.75,3.75,0,0,1,2.75-1.26,4,4,0,0,1,2.6.76,4.73,4.73,0,0,1,1.38,1.91,10.79,10.79,0,0,1,.65,2.56,23.61,23.61,0,0,0,.5,2.64q0.69,2.22,1.26,5t1.11,5q0.15-.53.5-1.41L813,848q0.38-1,.76-1.76t0.61-1.26q0.69-1.45,1.57-3.17a19,19,0,0,1,2.06-3.21A12.48,12.48,0,0,1,820.8,836a7.27,7.27,0,0,1,3.63-1.22,14.47,14.47,0,0,0,1.68.73,3.2,3.2,0,0,1,1.3.84,4,4,0,0,1,.84,1.72,13.54,13.54,0,0,1,.31,3.29v1.15Z" transform="translate(-495.11 -814.76)"/><path class="cls-2" d="M837.27,841.29q0-2.06.15-4a15.75,15.75,0,0,1,.76-3.75,1,1,0,0,1,.42-0.34,4.93,4.93,0,0,1,.8-0.34l0.5-.15,0.65-.15a6,6,0,0,1,2.45.92,2.47,2.47,0,0,1,1.22,2.22,9.4,9.4,0,0,1-.23,2.18,9.73,9.73,0,0,0-.23,2.25,23.72,23.72,0,0,1-.19,3.44,14.83,14.83,0,0,0-.19,2.29q0,3.67.23,6.77t0.38,4.7q1.22-.15,2.71-2.1a33.51,33.51,0,0,0,2.94-4.7,61.24,61.24,0,0,0,2.68-5.81q1.22-3.06,2-5.43a6,6,0,0,0,.27-2,5.69,5.69,0,0,1,.19-1.8,2.39,2.39,0,0,1,1-1.34,5.11,5.11,0,0,1,2.71-.54,0.34,0.34,0,0,1,.15,0,0.33,0.33,0,0,0,.15,0,2.63,2.63,0,0,1,1.45.61,4.65,4.65,0,0,1,1.22,1.22q0,4.51-.27,7.07A42.87,42.87,0,0,0,861,847a34.5,34.5,0,0,0,.5,6.31,10.63,10.63,0,0,0,1.64,4.24q0.46,0.54.84,1a5.86,5.86,0,0,1,.69,1.18,2.7,2.7,0,0,1-.5,1.19,2,2,0,0,1-.8.61,4,4,0,0,1-1,.27,8,8,0,0,0-1.07.23,5.61,5.61,0,0,1-2.71-1.38,7.82,7.82,0,0,1-1.68-2.41,12.83,12.83,0,0,1-1-3.13q-0.31-1.72-.54-3.55l-0.31.61q-0.61,1.3-1.64,3.44a32.62,32.62,0,0,1-2.41,4.17,16.77,16.77,0,0,1-3.17,3.52,5.94,5.94,0,0,1-3.86,1.49,6.39,6.39,0,0,1-3.55-.88,5.56,5.56,0,0,1-2.06-2.87,20.14,20.14,0,0,1-1-5.12q-0.27-3.13-.27-7.72a15.15,15.15,0,0,0,.15-2.14v-4.82Z" transform="translate(-495.11 -814.76)"/><path class="cls-2" d="M876.87,860.86a2.72,2.72,0,0,1-.31,1.22,6.12,6.12,0,0,1-1.15,1.45,11.85,11.85,0,0,1-2.41-.23,4.17,4.17,0,0,1-1.91-.92,4.53,4.53,0,0,1-1.26-2,10.87,10.87,0,0,1-.46-3.52,12.91,12.91,0,0,0-.27-2.6,12.83,12.83,0,0,1-.27-2.6,57.4,57.4,0,0,0-.46-7.42,57.18,57.18,0,0,1-.46-7.42,2.73,2.73,0,0,1,1.3-2.45,11.67,11.67,0,0,1,1.45-.34l1.53-.27a3.44,3.44,0,0,1,1.61.88q0.53,0.57,1,1.11c-0.05.51-.09,1-0.11,1.53s0,1,0,1.61q0,2.91.31,6.19t0.69,6.27q0.38,3,.73,5.43t0.5,3.75v0.31Zm-6.73-43a1.94,1.94,0,0,1,1.38-.38,4.94,4.94,0,0,1,1.57.27,5.53,5.53,0,0,1,1.49.76,4.63,4.63,0,0,1,1.11,1.11,2.26,2.26,0,0,1,.42,1.3,2.22,2.22,0,0,1-.73,2,3.55,3.55,0,0,1-2,.5,5.87,5.87,0,0,1-1.72-.27,8,8,0,0,1-1.57-.65,4.89,4.89,0,0,1-1.11-.8,1.18,1.18,0,0,1-.42-0.8,6,6,0,0,1,.19-1.61A2.7,2.7,0,0,1,870.15,817.82Z" transform="translate(-495.11 -814.76)"/></svg>