<svg id="Layer_1" data-name="Layer 1" xmlns="http://www.w3.org/2000/svg" viewBox="0 0 504.65 69.03"><defs><style>.cls-1{fill:#fff;}.cls-2{fill:#ff4d4d;}</style></defs><title>erdve-2</title><path class="cls-1" d="M547.87,1112.69c0.22,7.47,4,11.64,10.42,11.64,3.38,0,6.61-1.72,8.84-3.09l2.16,4.6a19.63,19.63,0,0,1-11,3.52c-10.28,0-16.31-6.4-16.31-17.1,0-11.43,7.4-19.12,16.39-19.12,7.83,0,12.07,5,12.07,12.72a35.37,35.37,0,0,1-.57,5.68Zm0.22-4.24,16.46-1.29a9.28,9.28,0,0,0,.07-1.29c0-4.31-2.23-7.4-6.54-7.4C552.83,1098.46,548.73,1102.7,548.08,1108.45Z" transform="translate(-541.97 -1077.2)"/><path class="cls-1" d="M598.46,1098.82c-6.32,0-10.64,3-13.51,9.92v19.91H579.2v-34.78h5.46v7.91c3.31-5.75,7.19-8.62,13.8-8.62v5.68Z" transform="translate(-541.97 -1077.2)"/><path class="cls-1" d="M626.49,1121.1c-2.66,5.46-6.61,8.26-11.36,8.26-8.26,0-13.8-6.54-13.8-16,0-11.64,7.19-20.2,19.19-20.2a39.72,39.72,0,0,1,5.61.43V1077.4h5.75v51.24h-5.39v-7.55Zm-0.36-22.64a23.2,23.2,0,0,0-4.74-.5c-8.62,0-14.23,5.75-14.23,15.45,0,6.18,3.23,10.71,8,10.71,4.17,0,7.76-2.73,11-9.77v-15.88Z" transform="translate(-541.97 -1077.2)"/><path class="cls-1" d="M650.14,1128.64l-11.93-34.78h6.11l9.7,29.83,9.92-29.83h5.68l-12.07,34.78h-7.4Z" transform="translate(-541.97 -1077.2)"/><path class="cls-1" d="M679.25,1112.69c0.22,7.47,4,11.64,10.42,11.64,3.38,0,6.61-1.72,8.84-3.09l2.16,4.6a19.63,19.63,0,0,1-11,3.52c-10.28,0-16.31-6.4-16.31-17.1,0-11.43,7.4-19.12,16.39-19.12,7.83,0,12.07,5,12.07,12.72a35.37,35.37,0,0,1-.57,5.68Zm0.22-4.24,16.46-1.29a9.28,9.28,0,0,0,.07-1.29c0-4.31-2.23-7.4-6.54-7.4C684.2,1098.46,680.11,1102.7,679.46,1108.45Zm9.7-28.17a4,4,0,0,1,3.74,4.17,3.81,3.81,0,1,1-7.62,0A4,4,0,0,1,689.16,1080.28Z" transform="translate(-541.97 -1077.2)"/><path class="cls-2" d="M749.62,1122.22c-2.83,5-6.57,7.19-11.47,7.19-8.64-.08-14.45-6.5-14.45-17.35,0-11.85,8.71-21.25,21.79-21.25a48.62,48.62,0,0,1,10.09,1v35c0,11.62-4.59,19.11-15.9,19.11a32.94,32.94,0,0,1-12.23-2.6l1.68-5.27c4.28,1.68,7.42,2.45,10.55,2.45,6.88,0,9.71-4.66,9.86-14.07Zm-0.31-25.61a16.78,16.78,0,0,0-3.9-.31c-9.86,0-15.6,6.88-15.6,15.82,0,7,3.29,11.7,8.64,11.7,4.13,0,7.11-2.37,10.86-8.33v-18.88Z" transform="translate(-541.97 -1077.2)"/><path class="cls-2" d="M766.06,1140.65c6.58-1.83,8.64-4.28,10.78-10.47l-14.37-38.53H769l11,31.19,10.32-31.19H797l-13.61,37.76c-3.82,10.7-7.57,15.52-15.75,16.82Z" transform="translate(-541.97 -1077.2)"/><path class="cls-2" d="M810.63,1128.64l-12.69-37h6.5l10.32,31.73,10.55-31.73h6l-12.84,37h-7.87Z" transform="translate(-541.97 -1077.2)"/><path class="cls-2" d="M841.59,1111.67c0.23,8,4.28,12.38,11.08,12.38,3.59,0,7-1.83,9.4-3.29l2.29,4.89a20.88,20.88,0,0,1-11.7,3.75c-10.93,0-17.35-6.8-17.35-18.19,0-12.16,7.87-20.33,17.43-20.33,8.33,0,12.84,5.35,12.84,13.53a37.58,37.58,0,0,1-.61,6Zm0.23-4.51,17.51-1.38a9.72,9.72,0,0,0,.08-1.38c0-4.59-2.37-7.87-7-7.87C846.87,1096.54,842.51,1101,841.82,1107.16Z" transform="translate(-541.97 -1077.2)"/><path class="cls-2" d="M880.81,1098.37c2.06-2.91,6.8-7.49,13.45-7.49,6.8,0,10,3.67,10,13.3v24.46h-6.12v-24.16c0-6-1.45-7.87-5.28-7.87-4.36,0-8.64,3.36-11.85,8.1v23.93h-6.12v-37h5.89v6.73Z" transform="translate(-541.97 -1077.2)"/><path class="cls-2" d="M919.57,1077.2a4.26,4.26,0,0,1,4,4.43,4.05,4.05,0,1,1-8.1,0A4.23,4.23,0,0,1,919.57,1077.2Zm-3.06,14.45h6.12v37h-6.12v-37Z" transform="translate(-541.97 -1077.2)"/><path class="cls-2" d="M941,1098.37c2.06-2.91,6-7.49,12.69-7.49,5.58,0,8.79,2.83,9.56,7.8l0.23-.31c2.06-2.91,6-7.49,12.69-7.49s10,4,10,12.77v25h-6.12v-24.16c0-6-1.45-7.87-5.27-7.87-4.36,0-7.87,3.36-11.08,8.1v23.93h-6.12v-24.16c0-6-1.45-7.87-5.28-7.87-4.36,0-7.87,3.36-11.08,8.1v23.93h-6.12v-37H941v6.73Z" transform="translate(-541.97 -1077.2)"/><path class="cls-2" d="M1021.17,1121.92c-2.06,2.91-6.35,7.49-12.77,7.49-7.11,0-10.24-4-10.24-12.84v-24.92h6.12v24.16c0,6,1.45,7.87,5.28,7.87,4.36,0,8.18-3.36,11.39-8.1v-23.93h6.12v37h-5.89v-6.73Z" transform="translate(-541.97 -1077.2)"/><path class="cls-2" d="M1042.65,1077.2a4.26,4.26,0,0,1,4,4.43,4.05,4.05,0,1,1-8.1,0A4.23,4.23,0,0,1,1042.65,1077.2Zm-3.06,14.45h6.12v37h-6.12v-37Z" transform="translate(-541.97 -1077.2)"/></svg>