<svg id="Layer_1" data-name="Layer 1" xmlns="http://www.w3.org/2000/svg" viewBox="0 0 515.82 69.57"><defs><style>.cls-1{fill:#fff;}.cls-2{fill:#ff4d4d;}</style></defs><title>erdve-3</title><path class="cls-1" d="M547.87,1112.69c0.22,7.47,4,11.64,10.42,11.64,3.38,0,6.61-1.72,8.84-3.09l2.16,4.6a19.63,19.63,0,0,1-11,3.52c-10.28,0-16.31-6.4-16.31-17.1,0-11.43,7.4-19.12,16.39-19.12,7.83,0,12.07,5,12.07,12.72a35.37,35.37,0,0,1-.57,5.68Zm0.22-4.24,16.46-1.29a9.28,9.28,0,0,0,.07-1.29c0-4.31-2.23-7.4-6.54-7.4C552.83,1098.46,548.73,1102.7,548.08,1108.45Z" transform="translate(-541.97 -1075.9)"/><path class="cls-1" d="M598.46,1098.82c-6.32,0-10.64,3-13.51,9.92v19.91H579.2v-34.78h5.46v7.91c3.31-5.75,7.19-8.62,13.8-8.62v5.68Z" transform="translate(-541.97 -1075.9)"/><path class="cls-1" d="M626.49,1121.1c-2.66,5.46-6.61,8.26-11.36,8.26-8.26,0-13.8-6.54-13.8-16,0-11.64,7.19-20.2,19.19-20.2a39.72,39.72,0,0,1,5.61.43V1077.4h5.75v51.24h-5.39v-7.55Zm-0.36-22.64a23.2,23.2,0,0,0-4.74-.5c-8.62,0-14.23,5.75-14.23,15.45,0,6.18,3.23,10.71,8,10.71,4.17,0,7.76-2.73,11-9.77v-15.88Z" transform="translate(-541.97 -1075.9)"/><path class="cls-1" d="M650.14,1128.64l-11.93-34.78h6.11l9.7,29.83,9.92-29.83h5.68l-12.07,34.78h-7.4Z" transform="translate(-541.97 -1075.9)"/><path class="cls-1" d="M679.25,1112.69c0.22,7.47,4,11.64,10.42,11.64,3.38,0,6.61-1.72,8.84-3.09l2.16,4.6a19.63,19.63,0,0,1-11,3.52c-10.28,0-16.31-6.4-16.31-17.1,0-11.43,7.4-19.12,16.39-19.12,7.83,0,12.07,5,12.07,12.72a35.37,35.37,0,0,1-.57,5.68Zm0.22-4.24,16.46-1.29a9.28,9.28,0,0,0,.07-1.29c0-4.31-2.23-7.4-6.54-7.4C684.2,1098.46,680.11,1102.7,679.46,1108.45Zm9.7-28.17a4,4,0,0,1,3.74,4.17,3.81,3.81,0,1,1-7.62,0A4,4,0,0,1,689.16,1080.28Z" transform="translate(-541.97 -1075.9)"/><path class="cls-2" d="M748.63,1125.82a10.93,10.93,0,0,1-8.71,3.59c-9.4,0-16.59-7.49-16.59-19.49,0-11.39,6.65-19.42,16.44-19.42A11,11,0,0,1,749,1095v-3.75h8.79v35.85c0,11.77-7.11,18.35-18.19,18.35a32,32,0,0,1-14.14-3.36l3.13-7.57a24.35,24.35,0,0,0,11,2.83c5.2,0,9-3.36,9-9.71v-1.83Zm-0.08-24a8.62,8.62,0,0,0-7.19-3.9c-5,0-8.87,4.43-8.87,12s3.36,12,8.87,12a9,9,0,0,0,7.19-3.67v-16.44Z" transform="translate(-541.97 -1075.9)"/><path class="cls-2" d="M799.39,1091.26l-13.15,37.38c-4.59,13.07-9.79,16.82-19.72,16.82v-8a11,11,0,0,0,11.24-8.79l-14.52-37.38h10l8.33,26.83h0.54l8.79-26.83h8.49Z" transform="translate(-541.97 -1075.9)"/><path class="cls-2" d="M814.45,1128.64l-13.3-37.38h9.71l8,26.83h0.54l8.49-26.83h8.79L823,1128.64h-8.56Z" transform="translate(-541.97 -1075.9)"/><path class="cls-2" d="M849.08,1113.13a8.58,8.58,0,0,0,8.71,8.79,13,13,0,0,0,9.4-4l4.59,6c-2.68,2.6-5.89,5.5-14,5.5-12,0-17.66-8.41-17.66-19.42,0-11.24,7.64-19.49,17.51-19.49,10.09,0,15.67,6.42,15.67,17.35a19.73,19.73,0,0,1-.38,4.36Zm0.08-6.34,15.75-1c0-4.66-2.91-7.72-7.26-7.72A8.38,8.38,0,0,0,849.16,1106.78Z" transform="translate(-541.97 -1075.9)"/><path class="cls-2" d="M889.45,1091.26v3.82A16.63,16.63,0,0,1,901,1090.5c7.34,0,12.08,4.89,12.08,14.45v23.7H903.9v-23.47c0-5-2.37-7.26-6.12-7.26a12,12,0,0,0-7.87,3.29v27.44h-9.17v-37.38h8.71Z" transform="translate(-541.97 -1075.9)"/><path class="cls-2" d="M927.44,1075.9a5.35,5.35,0,1,1-5.2,5.35A5.24,5.24,0,0,1,927.44,1075.9Zm-4.51,15.37h9.17v37.38h-9.17v-37.38Z" transform="translate(-541.97 -1075.9)"/><path class="cls-2" d="M951.22,1091.26v3.82c3.29-2.91,6.57-4.59,11-4.59a10.71,10.71,0,0,1,10,5.81c3.52-3.59,7.64-5.81,12.38-5.81,7.11,0,11.85,4.89,11.85,14.45v23.7H987.3v-23.47c0-5-2.37-7.26-5.89-7.26a11.24,11.24,0,0,0-7.64,3.52,25,25,0,0,1,.31,3.52v23.7H964.9v-23.47c0-5-2.37-7.26-5.89-7.26a11.12,11.12,0,0,0-7.34,3.29v27.44H942.5v-37.38h8.71Z" transform="translate(-541.97 -1075.9)"/><path class="cls-2" d="M1029,1128.64v-3.82a16.31,16.31,0,0,1-11.24,4.59c-7.34,0-11.93-4.89-11.93-14.45v-23.7H1015v23.47c0,5,2.22,7.26,6,7.26a11.71,11.71,0,0,0,7.57-3.29v-27.44h9.17v37.38H1029Z" transform="translate(-541.97 -1075.9)"/><path class="cls-2" d="M1052.59,1075.9a5.35,5.35,0,1,1-5.2,5.35A5.24,5.24,0,0,1,1052.59,1075.9Zm-4.51,15.37h9.17v37.38h-9.17v-37.38Z" transform="translate(-541.97 -1075.9)"/></svg>