<svg id="Layer_1" data-name="Layer 1" xmlns="http://www.w3.org/2000/svg" viewBox="0 0 353.01 84.69"><defs><style>.cls-1{fill:#ff4d4d;}</style></defs><title>logo</title><path class="cls-1" d="M1652.81,1373.92a9.77,9.77,0,0,1,.81-3.9,10.4,10.4,0,0,1,2.21-3.28,10.61,10.61,0,0,1,3.33-2.24,10.24,10.24,0,0,1,4.11-.83,7.87,7.87,0,0,1,2.6.42,13.12,13.12,0,0,1,2.08.91,7.76,7.76,0,0,1,1.4,1,1.48,1.48,0,0,1,.52.62,7.17,7.17,0,0,1,.1-1.2,7.58,7.58,0,0,0,.1-1.25h3.59v19.5h-3.8v-2.13a1.25,1.25,0,0,1-.47.57,6.72,6.72,0,0,1-1.3.86,11.19,11.19,0,0,1-2.05.81,9.77,9.77,0,0,1-2.78.36,10.53,10.53,0,0,1-4.11-.81,10.25,10.25,0,0,1-3.33-2.21,10.49,10.49,0,0,1-2.21-3.25A9.71,9.71,0,0,1,1652.81,1373.92Zm4.37-.05a5.92,5.92,0,0,0,1.69,4.29,6.41,6.41,0,0,0,8.79,0,5.92,5.92,0,0,0,1.69-4.29,5.81,5.81,0,0,0-1.69-4.29,6.56,6.56,0,0,0-8.79,0A5.81,5.81,0,0,0,1657.18,1373.87Z" transform="translate(-1559.79 -1327.22)"/><path class="cls-1" d="M1682.4,1351.46h4.32v12.22h5.1v4.21h-5.1v15.76h-4.32v-15.76H1678v-4.21h4.37v-12.22Z" transform="translate(-1559.79 -1327.22)"/><path class="cls-1" d="M1713.8,1372.31l-7,2.6-7,2.6a5.6,5.6,0,0,0,2.05,1.74,6.26,6.26,0,0,0,2.89.65,5.18,5.18,0,0,0,4-1.66l2.65,3.12a9.6,9.6,0,0,1-3,2,9,9,0,0,1-3.64.73,10.37,10.37,0,0,1-7.38-3,10.5,10.5,0,0,1-2.21-3.25,10.16,10.16,0,0,1,0-7.93,10.1,10.1,0,0,1,2.21-3.25,10.55,10.55,0,0,1,3.3-2.18,10.34,10.34,0,0,1,4.08-.81,7.64,7.64,0,0,1,3.09.65,8.89,8.89,0,0,1,2.65,1.79,11.91,11.91,0,0,1,2.05,2.73A14.08,14.08,0,0,1,1713.8,1372.31Zm-9.15-4.42a6.16,6.16,0,0,0-3.59,1,5.62,5.62,0,0,0-2.13,2.7,8.35,8.35,0,0,0-.36,1.82q2.44-.88,4.86-1.79t4.86-1.79a6.41,6.41,0,0,0-1.64-1.43A3.82,3.82,0,0,0,1704.65,1367.89Z" transform="translate(-1559.79 -1327.22)"/><path class="cls-1" d="M1718.38,1356.61a2.59,2.59,0,0,1,.83-2,2.67,2.67,0,0,1,1.87-.78,2.76,2.76,0,0,1,2.65,2.76,2.51,2.51,0,0,1-.83,2,2.66,2.66,0,0,1-1.82.75,2.72,2.72,0,0,1-1.87-.75A2.51,2.51,0,0,1,1718.38,1356.61Zm4.78,27h-4.32v-19.5h4.32v19.5Z" transform="translate(-1559.79 -1327.22)"/><path class="cls-1" d="M1731.85,1351.46h4.32v12.22h5.1v4.21h-5.1v15.76h-4.32v-15.76h-4.37v-4.21h4.37v-12.22Z" transform="translate(-1559.79 -1327.22)"/><path class="cls-1" d="M1744.38,1356.61a2.59,2.59,0,0,1,.83-2,2.67,2.67,0,0,1,1.87-.78,2.76,2.76,0,0,1,2.65,2.76,2.51,2.51,0,0,1-.83,2,2.66,2.66,0,0,1-1.82.75,2.72,2.72,0,0,1-1.87-.75A2.51,2.51,0,0,1,1744.38,1356.61Zm4.78,27h-4.32v-19.5h4.32v19.5Z" transform="translate(-1559.79 -1327.22)"/><path class="cls-1" d="M1773.66,1372.31l-7,2.6-7,2.6a5.6,5.6,0,0,0,2.05,1.74,6.26,6.26,0,0,0,2.89.65,5.18,5.18,0,0,0,4-1.66l2.65,3.12a9.6,9.6,0,0,1-3,2,9,9,0,0,1-3.64.73,10.37,10.37,0,0,1-7.38-3,10.5,10.5,0,0,1-2.21-3.25,10.16,10.16,0,0,1,0-7.93,10.1,10.1,0,0,1,2.21-3.25,10.55,10.55,0,0,1,3.3-2.18,10.34,10.34,0,0,1,4.08-.81,7.64,7.64,0,0,1,3.09.65,8.89,8.89,0,0,1,2.65,1.79,11.91,11.91,0,0,1,2.05,2.73A14.08,14.08,0,0,1,1773.66,1372.31Zm-9.15-4.42a6.16,6.16,0,0,0-3.59,1,5.62,5.62,0,0,0-2.13,2.7,8.35,8.35,0,0,0-.36,1.82q2.44-.88,4.86-1.79t4.86-1.79a6.41,6.41,0,0,0-1.64-1.43A3.82,3.82,0,0,0,1764.5,1367.89Z" transform="translate(-1559.79 -1327.22)"/><path class="cls-1" d="M1788.42,1365.86q-0.57.83-1.2,1.61t-1.2,1.61a6.31,6.31,0,0,0-1-.73,3.77,3.77,0,0,0-2-.47,2.36,2.36,0,0,0-1.66.49,1.47,1.47,0,0,0-.42,1.33,1.44,1.44,0,0,0,.78,1,12.37,12.37,0,0,0,1.59.75q0.91,0.36,2,.83a9.06,9.06,0,0,1,1.92,1.17,5.31,5.31,0,0,1,2,4.45,6.87,6.87,0,0,1-.29,1.77,6.17,6.17,0,0,1-1,2,5.76,5.76,0,0,1-2,1.66,7.33,7.33,0,0,1-3.38.68,10.6,10.6,0,0,1-3.69-.65,6.93,6.93,0,0,1-2.81-1.79q0.68-.78,1.3-1.59t1.3-1.59a14.34,14.34,0,0,0,1.92,1.07,5.14,5.14,0,0,0,2,.34l0.39,0a2.34,2.34,0,0,0,.75-0.21,2.26,2.26,0,0,0,.75-0.55,1.74,1.74,0,0,0,.39-1.09,1.66,1.66,0,0,0-.52-1.43,4.83,4.83,0,0,0-1.48-.83q-0.91-.34-2-0.68a8.74,8.74,0,0,1-2.05-.94,4.66,4.66,0,0,1-1.59-1.69,5.85,5.85,0,0,1-.62-2.91,5.38,5.38,0,0,1,.62-2.7,5.8,5.8,0,0,1,1.56-1.79,6.18,6.18,0,0,1,2-1,7.25,7.25,0,0,1,2-.31,9.74,9.74,0,0,1,1.27.1,8.69,8.69,0,0,1,1.53.36,9.34,9.34,0,0,1,1.53.68A5.22,5.22,0,0,1,1788.42,1365.86Z" transform="translate(-1559.79 -1327.22)"/><path d="M1813.9,1373.87a9.89,9.89,0,0,1-.81,4,10.4,10.4,0,0,1-2.21,3.28,10.26,10.26,0,0,1-3.33,2.21,10.53,10.53,0,0,1-4.11.81,9.77,9.77,0,0,1-2.78-.36,11.13,11.13,0,0,1-2.05-.81,6.69,6.69,0,0,1-1.3-.86,1.26,1.26,0,0,1-.47-0.57v2.13h-3.8v-39h4.32v20.18a7.92,7.92,0,0,1-.26.83,7.63,7.63,0,0,0-.26.83,1.38,1.38,0,0,1,.52-0.6,8.94,8.94,0,0,1,1.4-.94,11.69,11.69,0,0,1,2.08-.88,8.34,8.34,0,0,1,2.6-.39,10.53,10.53,0,0,1,4.11.81,10.28,10.28,0,0,1,3.33,2.21,10.49,10.49,0,0,1,2.21,3.25A9.71,9.71,0,0,1,1813.9,1373.87Zm-4.37,0a5.81,5.81,0,0,0-1.69-4.29,6.56,6.56,0,0,0-8.79,0,5.81,5.81,0,0,0-1.69,4.29,5.92,5.92,0,0,0,1.69,4.29,6.41,6.41,0,0,0,8.79,0A5.92,5.92,0,0,0,1809.54,1373.87Z" transform="translate(-1559.79 -1327.22)"/><path d="M1816.87,1373.92a9.77,9.77,0,0,1,.81-3.9,10.4,10.4,0,0,1,2.21-3.28,10.61,10.61,0,0,1,3.33-2.24,10.24,10.24,0,0,1,4.11-.83,7.87,7.87,0,0,1,2.6.42,13.12,13.12,0,0,1,2.08.91,7.76,7.76,0,0,1,1.4,1,1.48,1.48,0,0,1,.52.62,7.17,7.17,0,0,1,.1-1.2,7.58,7.58,0,0,0,.1-1.25h3.59v19.5h-3.8v-2.13a1.25,1.25,0,0,1-.47.57,6.72,6.72,0,0,1-1.3.86,11.19,11.19,0,0,1-2.05.81,9.77,9.77,0,0,1-2.78.36,10.53,10.53,0,0,1-4.11-.81,10.25,10.25,0,0,1-3.33-2.21,10.49,10.49,0,0,1-2.21-3.25A9.71,9.71,0,0,1,1816.87,1373.92Zm4.37-.05a5.92,5.92,0,0,0,1.69,4.29,6.41,6.41,0,0,0,8.79,0,5.92,5.92,0,0,0,1.69-4.29,5.81,5.81,0,0,0-1.69-4.29,6.56,6.56,0,0,0-8.79,0A5.81,5.81,0,0,0,1821.23,1373.87Z" transform="translate(-1559.79 -1327.22)"/><path d="M1848.17,1383.65h-4.32v-39h4.32v39Z" transform="translate(-1559.79 -1327.22)"/><path d="M1853.47,1373.87a9.71,9.71,0,0,1,.81-3.93,10.5,10.5,0,0,1,2.21-3.25,10.27,10.27,0,0,1,3.33-2.21,10.53,10.53,0,0,1,4.11-.81,8.35,8.35,0,0,1,2.6.39,11.72,11.72,0,0,1,2.08.88,9,9,0,0,1,1.4.94,1.39,1.39,0,0,1,.52.6,7.62,7.62,0,0,0-.26-0.83,7.7,7.7,0,0,1-.26-0.83v-20.18h4.32v39h-3.8v-2.13a1.25,1.25,0,0,1-.47.57,6.72,6.72,0,0,1-1.3.86,11.19,11.19,0,0,1-2.05.81,9.77,9.77,0,0,1-2.78.36,10.53,10.53,0,0,1-4.11-.81,10.25,10.25,0,0,1-3.33-2.21,10.4,10.4,0,0,1-2.21-3.28A9.89,9.89,0,0,1,1853.47,1373.87Zm4.37,0a5.92,5.92,0,0,0,1.69,4.29,6.41,6.41,0,0,0,8.79,0,5.92,5.92,0,0,0,1.69-4.29,5.81,5.81,0,0,0-1.69-4.29,6.56,6.56,0,0,0-8.79,0A5.81,5.81,0,0,0,1857.84,1373.87Z" transform="translate(-1559.79 -1327.22)"/><path d="M1880.93,1373.92a9.77,9.77,0,0,1,.81-3.9,10.4,10.4,0,0,1,2.21-3.28,10.61,10.61,0,0,1,3.33-2.24,10.24,10.24,0,0,1,4.11-.83,7.87,7.87,0,0,1,2.6.42,13.12,13.12,0,0,1,2.08.91,7.76,7.76,0,0,1,1.4,1,1.48,1.48,0,0,1,.52.62,7.17,7.17,0,0,1,.1-1.2,7.58,7.58,0,0,0,.1-1.25h3.59v19.5H1898v-2.13a1.25,1.25,0,0,1-.47.57,6.72,6.72,0,0,1-1.3.86,11.19,11.19,0,0,1-2.05.81,9.77,9.77,0,0,1-2.78.36,10.53,10.53,0,0,1-4.11-.81,10.25,10.25,0,0,1-3.33-2.21,10.49,10.49,0,0,1-2.21-3.25A9.71,9.71,0,0,1,1880.93,1373.92Zm4.37-.05a5.92,5.92,0,0,0,1.69,4.29,6.41,6.41,0,0,0,8.79,0,5.92,5.92,0,0,0,1.69-4.29,5.81,5.81,0,0,0-1.69-4.29,6.56,6.56,0,0,0-8.79,0A5.81,5.81,0,0,0,1885.3,1373.87Z" transform="translate(-1559.79 -1327.22)"/><path d="M1907.45,1356.61a2.59,2.59,0,0,1,.83-2,2.67,2.67,0,0,1,1.87-.78,2.76,2.76,0,0,1,2.65,2.76,2.51,2.51,0,0,1-.83,2,2.66,2.66,0,0,1-1.82.75,2.72,2.72,0,0,1-1.87-.75A2.51,2.51,0,0,1,1907.45,1356.61Zm4.78,27h-4.32v-19.5h4.32v19.5Z" transform="translate(-1559.79 -1327.22)"/><path class="cls-1" d="M1559.81,1362.73c0-7.68,0-15.36,0-23a2.77,2.77,0,0,1,1.7-2.76q9.45-4.67,18.87-9.39a2.59,2.59,0,0,1,2.52,0q23.14,11.61,46.3,23.19a2.82,2.82,0,0,1,1.6,2.84q0,9.27,0,18.54c0,9.06,0,18.11,0,27.17a3.07,3.07,0,0,1-1.93,3.09q-9.18,4.5-18.3,9.11a3.31,3.31,0,0,1-3.22,0q-22.94-11.5-45.9-23a2.69,2.69,0,0,1-1.66-2.68C1559.82,1378.15,1559.81,1370.44,1559.81,1362.73Zm49.82,43.83a2.36,2.36,0,0,0,1.2-.46c4.67-2.35,9.44-4.71,14.12-7a1.3,1.3,0,0,0,.8-1.44c0-13.64-.13-27.28-0.13-40.92v-1.09a1.34,1.34,0,0,1-.7.38c-4.72,2.37-9.35,4.76-14.09,7.1a1.48,1.48,0,0,0-1,1.4c0,9.88-.18,19.76-0.18,29.63v12.43ZM1566,1340c0.33,0.19.5,0.3,0.69,0.39q20.75,10.33,41.5,20.67a1.58,1.58,0,0,0,1.61,0c4.63-2.35,9.28-4.66,13.92-7,0.23-.12.46-0.25,0.8-0.44l-1-.55-12-6q-14.64-7.29-29.29-14.56a1.42,1.42,0,0,0-1.08-.11C1576.08,1334.95,1571.09,1337.46,1566,1340Zm41.78,24.21a1,1,0,0,0-.67-1q-7.35-3.64-14.67-7.32l-5.11-2.55c0,0.4-.05.61-0.05,0.82q0,15,0,30a1.07,1.07,0,0,0,.73,1.1q9.43,4.69,18.85,9.41c0.26,0.13.53,0.24,0.87,0.39,0-.28,0-0.45,0-0.63M1564.55,1342c0,0.38,0,.59,0,0.8q0,15,0,30a1.08,1.08,0,0,0,.71,1.11q9.47,4.73,18.92,9.48c0.22,0.11.47,0.18,0.76,0.29,0-.32,0-0.5,0-0.68q0-15,0-30a1.13,1.13,0,0,0-.76-1.17c-5.3-2.64-10.59-5.31-15.88-8Zm0,34.2c0,2.89,0,5.58,0,8.27a1.27,1.27,0,0,0,.69.8q20.84,10.45,41.7,20.86c0.23,0.11.48,0.2,0.8,0.33,0-2.69,0-5.26,0-7.83a1.17,1.17,0,0,0-.79-1.24q-19.76-9.85-39.51-19.74Z" transform="translate(-1559.79 -1327.22)"/></svg>