<svg id="Layer_1" data-name="Layer 1" xmlns="http://www.w3.org/2000/svg" viewBox="0 0 359.58 84.69"><defs><style>.cls-1{fill:#ff4d4d;}</style></defs><title>logo</title><path class="cls-1" d="M183.36,798.12c-8.7,0-15.13-5.73-16.79-7.6l6.42-5.46c2.21,2.49,6,5.25,10.36,5.25,4.77,0,7.6-2.76,7.6-6.29,0-9-22.73-7.32-22.73-22.45,0-8.08,6.42-13.68,15.89-13.68,8.29,0,14.16,5.66,14.16,5.66L192,759.1a12.43,12.43,0,0,0-7.87-3.25c-4.42,0-6.77,2.14-6.77,5.46,0,8.5,22.45,7,22.45,22.52C199.8,793.5,191.51,798.12,183.36,798.12Z" transform="translate(-72.17 -730.22)"/><path class="cls-1" d="M223.91,777.54h-7.18v19.76h-8.63V748.94h15.82c9.33,0,16.37,4.9,16.37,14.44S233.23,777.54,223.91,777.54Zm-0.14-20.72h-7v12.85h7c5.73,0,8.29-2.28,8.29-6.35S229.5,756.82,223.77,756.82Z" transform="translate(-72.17 -730.22)"/><path class="cls-1" d="M248.43,797.29V748.94h8.63v48.35h-8.63Z" transform="translate(-72.17 -730.22)"/><path class="cls-1" d="M298.23,797.29L278.33,766a19.11,19.11,0,0,1-1.73-3.25v34.54H268V748.94h8.57l19.83,31.22a23,23,0,0,1,1.8,3.45V748.94h8.57v48.35h-8.57Z" transform="translate(-72.17 -730.22)"/><path class="cls-1" d="M334.56,756.82v40.48h-8.63V756.82H313.56v-7.87H347v7.88H334.56Z" transform="translate(-72.17 -730.22)"/><path class="cls-1" d="M391.62,777.61c0,13.12-8.7,20.17-19.34,20.17s-19.27-7-19.27-20.17V748.94h8.63v29.22c0,7.87,4.77,11.67,10.64,11.67S383,786,383,778.16V748.94h8.63v28.67Z" transform="translate(-72.17 -730.22)"/><path class="cls-1" d="M415.31,798.12c-8.7,0-15.13-5.73-16.79-7.6l6.42-5.46c2.21,2.49,6,5.25,10.36,5.25,4.77,0,7.6-2.76,7.6-6.29,0-9-22.73-7.32-22.73-22.45,0-8.08,6.42-13.68,15.89-13.68,8.29,0,14.16,5.66,14.16,5.66l-6.29,5.53a12.43,12.43,0,0,0-7.87-3.25c-4.42,0-6.77,2.14-6.77,5.46,0,8.5,22.45,7,22.45,22.52C431.75,793.5,423.46,798.12,415.31,798.12Z" transform="translate(-72.17 -730.22)"/><path class="cls-1" d="M72.18,765.73c0-7.68,0-15.36,0-23a2.77,2.77,0,0,1,1.7-2.76q9.45-4.67,18.87-9.39a2.59,2.59,0,0,1,2.52,0q23.14,11.61,46.3,23.19a2.82,2.82,0,0,1,1.6,2.84q0,9.27,0,18.54c0,9.06,0,18.11,0,27.17a3.07,3.07,0,0,1-1.93,3.09q-9.18,4.5-18.3,9.11a3.31,3.31,0,0,1-3.22,0q-22.94-11.5-45.9-23a2.69,2.69,0,0,1-1.66-2.68C72.19,781.15,72.18,773.44,72.18,765.73Zm50.3,43.83,1-.46c4.67-2.35,9.32-4.71,14-7a1.38,1.38,0,0,0,.92-1.44q0-20.46,0-40.92v-1.09c-0.39.17-.64,0.26-0.87,0.38-4.72,2.37-9.43,4.76-14.17,7.1a1.31,1.31,0,0,0-.84,1.4q0,14.82,0,29.63C122.48,801.23,122.48,805.32,122.48,809.56ZM78.34,743c0.33,0.19.5,0.3,0.69,0.39q20.75,10.33,41.5,20.67a1.58,1.58,0,0,0,1.61,0c4.63-2.35,9.28-4.66,13.92-7,0.23-.12.46-0.25,0.8-0.44l-1-.55-12-6q-14.64-7.29-29.29-14.56a1.42,1.42,0,0,0-1.08-.11C88.45,737.94,83.46,740.45,78.34,743Zm41.78,24.21a1,1,0,0,0-.67-1q-7.35-3.64-14.67-7.32l-5.11-2.55c0,0.4-.05.61-0.05,0.82q0,15,0,30a1.07,1.07,0,0,0,.73,1.1q9.43,4.69,18.85,9.41c0.26,0.13.53,0.24,0.87,0.39,0-.28,0-0.45,0-0.63M76.93,745c0,0.38,0,.59,0,0.8q0,15,0,30a1.08,1.08,0,0,0,.71,1.11Q87,781.6,96.5,786.36c0.22,0.11.47,0.18,0.76,0.29,0-.32,0-0.5,0-0.68q0-15,0-30a1.13,1.13,0,0,0-.76-1.17c-5.3-2.64-10.59-5.31-15.88-8Zm0,34.2c0,2.89,0,5.58,0,8.27a1.27,1.27,0,0,0,.69.8q20.84,10.45,41.7,20.86c0.23,0.11.48,0.2,0.8,0.33,0-2.69,0-5.26,0-7.83a1.17,1.17,0,0,0-.79-1.24q-19.76-9.85-39.51-19.74Z" transform="translate(-72.17 -730.22)"/></svg>