<svg id="Layer_1" data-name="Layer 1" xmlns="http://www.w3.org/2000/svg" viewBox="0 0 265.17 50.22"><defs><style>.cls-1{fill:#ff4d4d;}</style></defs><title>logo</title><path class="cls-1" d="M532.39,421.55c-8.7,0-15.13-5.73-16.79-7.6L522,408.5c2.21,2.49,6,5.25,10.36,5.25,4.77,0,7.6-2.76,7.6-6.29,0-9-22.73-7.32-22.73-22.45,0-8.08,6.42-13.68,15.89-13.68,8.29,0,14.16,5.66,14.16,5.66L541,382.53a12.43,12.43,0,0,0-7.87-3.25c-4.42,0-6.77,2.14-6.77,5.46,0,8.5,22.45,7,22.45,22.52C548.83,416.93,540.54,421.55,532.39,421.55Z" transform="translate(-515.61 -371.34)"/><path class="cls-1" d="M572.94,401h-7.18v19.76h-8.63V372.37h15.82c9.33,0,16.37,4.9,16.37,14.44S582.26,401,572.94,401Zm-0.14-20.72h-7v12.85h7c5.73,0,8.29-2.28,8.29-6.35S578.53,380.25,572.8,380.25Z" transform="translate(-515.61 -371.34)"/><path class="cls-1" d="M597.46,420.73V372.37h8.63v48.35h-8.63Z" transform="translate(-515.61 -371.34)"/><path class="cls-1" d="M647.26,420.73l-19.89-31.29a19.11,19.11,0,0,1-1.73-3.25v34.54h-8.57V372.37h8.57l19.83,31.22a23,23,0,0,1,1.8,3.45V372.37h8.57v48.35h-8.57Z" transform="translate(-515.61 -371.34)"/><path class="cls-1" d="M683.59,380.25v40.48H675V380.25H662.59v-7.87H696v7.88H683.59Z" transform="translate(-515.61 -371.34)"/><path class="cls-1" d="M740.65,401c0,13.12-8.7,20.17-19.34,20.17S702,414.16,702,401V372.37h8.63v29.22c0,7.87,4.77,11.67,10.64,11.67S732,409.47,732,401.59V372.37h8.63V401Z" transform="translate(-515.61 -371.34)"/><path class="cls-1" d="M764.34,421.55c-8.7,0-15.13-5.73-16.79-7.6L754,408.5c2.21,2.49,6,5.25,10.36,5.25,4.77,0,7.6-2.76,7.6-6.29,0-9-22.73-7.32-22.73-22.45,0-8.08,6.42-13.68,15.89-13.68,8.29,0,14.16,5.66,14.16,5.66L773,382.53a12.43,12.43,0,0,0-7.87-3.25c-4.42,0-6.77,2.14-6.77,5.46,0,8.5,22.45,7,22.45,22.52C780.78,416.93,772.49,421.55,764.34,421.55Z" transform="translate(-515.61 -371.34)"/></svg>