<svg id="Layer_1" data-name="Layer 1" xmlns="http://www.w3.org/2000/svg" viewBox="0 0 596.11 84.69"><defs><style>.cls-1{fill:#ff4d4d;}.cls-2{fill:#2e2d59;}</style></defs><title>logo</title><path class="cls-1" d="M1683.8,1435.48v-3.67a16.44,16.44,0,0,1-4.37,4.52q-2.65,1.87-7.41,1.87a18.26,18.26,0,0,1-7.49-1.52,17.85,17.85,0,0,1-5.93-4.21,19,19,0,0,1-3.86-6.32,22.75,22.75,0,0,1,0-15.52,19.37,19.37,0,0,1,3.82-6.32,17.89,17.89,0,0,1,13.46-5.81,14.41,14.41,0,0,1,4.21.55,12.82,12.82,0,0,1,3.2,1.46,11.9,11.9,0,0,1,2.46,2.09,24.13,24.13,0,0,1,1.91,2.45l0.31-4a2.75,2.75,0,0,1,.47-1.46,1.66,1.66,0,0,1,1.4-.51h2.26a2.13,2.13,0,0,1,1.44.51,1.81,1.81,0,0,1,.58,1.44v34.63a1.52,1.52,0,0,1-.58,1.25,2.24,2.24,0,0,1-1.44.47h-2.5A1.72,1.72,0,0,1,1683.8,1435.48Zm-23.95-17a15.18,15.18,0,0,0,.86,5.13,13,13,0,0,0,2.46,4.24,11.48,11.48,0,0,0,3.86,2.88,12.62,12.62,0,0,0,10,0,10.93,10.93,0,0,0,3.71-2.76,11.79,11.79,0,0,0,2.3-4.16,17.66,17.66,0,0,0,0-10.38,13,13,0,0,0-2.26-4.28,11,11,0,0,0-3.67-2.92,11.22,11.22,0,0,0-5.07-1.09,11.9,11.9,0,0,0-5.07,1.05,11.07,11.07,0,0,0-3.82,2.88,13.33,13.33,0,0,0-2.42,4.24A15.18,15.18,0,0,0,1659.86,1418.43Z" transform="translate(-1558.02 -1376.19)"/><path class="cls-1" d="M1718.59,1438a4,4,0,0,0-.58,0,4.89,4.89,0,0,1-.66,0,23.9,23.9,0,0,1-3.64-.27,7,7,0,0,1-3.11-1.25,6.82,6.82,0,0,1-2.17-2.85,12.53,12.53,0,0,1-.83-5v-23.4h-4.68a2.51,2.51,0,0,1-1.44-.35,1.56,1.56,0,0,1-.51-1.37v-2.89a1.45,1.45,0,0,1,.51-1.33,2.77,2.77,0,0,1,1.44-.31h4.68v-11a1.5,1.5,0,0,1,1.34-1.56l4-.55a1.19,1.19,0,0,1,1.22.62,3.44,3.44,0,0,1,.28,1.4v11.08h5.77a1.55,1.55,0,0,1,1.72,1.79v2.57a1.59,1.59,0,0,1-1.72,1.87h-5.77v20.9a18.25,18.25,0,0,0,.19,3,3.17,3.17,0,0,0,.7,1.64,2.13,2.13,0,0,0,1.29.66,13.63,13.63,0,0,0,1.95.12,1.72,1.72,0,0,1,2,2v2.5A1.78,1.78,0,0,1,1718.59,1438Z" transform="translate(-1558.02 -1376.19)"/><path class="cls-1" d="M1747.14,1438.36a16.8,16.8,0,0,1-7.18-1.56,18.59,18.59,0,0,1-5.85-4.25,20,20,0,0,1-3.94-6.36,21.8,21.8,0,0,1,0-15.6,20.49,20.49,0,0,1,3.94-6.4,18.31,18.31,0,0,1,5.85-4.29,16.8,16.8,0,0,1,7.18-1.56,16.05,16.05,0,0,1,6.75,1.44,17.83,17.83,0,0,1,5.54,3.94,19.08,19.08,0,0,1,3.78,5.85,18.4,18.4,0,0,1,1.4,7.18v0.94q0,2.34-1.48,3a9.24,9.24,0,0,1-3.59.62h-23.95a12.25,12.25,0,0,0,3.94,7.55,11,11,0,0,0,7.6,2.9,13.84,13.84,0,0,0,4.72-.86,14,14,0,0,0,4.25-2.42,1.9,1.9,0,0,1,1.4-.55,1,1,0,0,1,.86.47l2.18,3.28a1,1,0,0,1,.31.71,1.56,1.56,0,0,1-.51.95,5.32,5.32,0,0,1-.82.63,33.11,33.11,0,0,1-5.69,3.12A16.9,16.9,0,0,1,1747.14,1438.36Zm-11.23-22.85H1758a14.26,14.26,0,0,0-1.4-4.1,13.14,13.14,0,0,0-2.5-3.37,11.39,11.39,0,0,0-3.32-2.25,9.29,9.29,0,0,0-7.6,0,11,11,0,0,0-3.24,2.25,14.41,14.41,0,0,0-2.5,3.37A15.3,15.3,0,0,0,1735.91,1415.51Z" transform="translate(-1558.02 -1376.19)"/><path class="cls-1" d="M1773.89,1388.4a4.67,4.67,0,0,1,1.44-3.44,4.89,4.89,0,0,1,8.38,3.44,4.61,4.61,0,0,1-1.4,3.4,5.07,5.07,0,0,1-7,0A4.55,4.55,0,0,1,1773.89,1388.4Zm8.27,12.44v34.87a1.52,1.52,0,0,1-1.72,1.72h-3.28a1.52,1.52,0,0,1-1.72-1.72v-34.87a1.52,1.52,0,0,1,1.72-1.72h3.28A1.52,1.52,0,0,1,1782.16,1400.84Z" transform="translate(-1558.02 -1376.19)"/><path class="cls-1" d="M1810.47,1438a4,4,0,0,0-.58,0,4.89,4.89,0,0,1-.66,0,23.9,23.9,0,0,1-3.64-.27,7,7,0,0,1-3.11-1.25,6.82,6.82,0,0,1-2.17-2.85,12.53,12.53,0,0,1-.83-5v-23.4h-4.68a2.51,2.51,0,0,1-1.44-.35,1.56,1.56,0,0,1-.51-1.37v-2.89a1.45,1.45,0,0,1,.51-1.33,2.77,2.77,0,0,1,1.44-.31h4.68v-11a1.5,1.5,0,0,1,1.34-1.56l4-.55a1.19,1.19,0,0,1,1.22.62,3.44,3.44,0,0,1,.28,1.4v11.08h5.77a1.55,1.55,0,0,1,1.72,1.79v2.57a1.59,1.59,0,0,1-1.72,1.87h-5.77v20.9a18.25,18.25,0,0,0,.19,3,3.17,3.17,0,0,0,.7,1.64,2.13,2.13,0,0,0,1.29.66,13.63,13.63,0,0,0,1.95.12,1.72,1.72,0,0,1,2,2v2.5A1.78,1.78,0,0,1,1810.47,1438Z" transform="translate(-1558.02 -1376.19)"/><path class="cls-1" d="M1823.5,1388.4a4.67,4.67,0,0,1,1.44-3.44,4.89,4.89,0,0,1,8.38,3.44,4.61,4.61,0,0,1-1.4,3.4,5.07,5.07,0,0,1-7,0A4.55,4.55,0,0,1,1823.5,1388.4Zm8.27,12.44v34.87a1.52,1.52,0,0,1-1.72,1.72h-3.28a1.52,1.52,0,0,1-1.72-1.72v-34.87a1.52,1.52,0,0,1,1.72-1.72H1830A1.52,1.52,0,0,1,1831.76,1400.84Z" transform="translate(-1558.02 -1376.19)"/><path class="cls-1" d="M1862.26,1438.36a16.8,16.8,0,0,1-7.18-1.56,18.59,18.59,0,0,1-5.85-4.25,20,20,0,0,1-3.94-6.36,21.8,21.8,0,0,1,0-15.6,20.49,20.49,0,0,1,3.94-6.4,18.31,18.31,0,0,1,5.85-4.29,16.8,16.8,0,0,1,7.18-1.56,16.05,16.05,0,0,1,6.75,1.44,17.83,17.83,0,0,1,5.54,3.94,19.08,19.08,0,0,1,3.78,5.85,18.4,18.4,0,0,1,1.4,7.18v0.94q0,2.34-1.48,3a9.24,9.24,0,0,1-3.59.62h-23.95a12.25,12.25,0,0,0,3.94,7.55,11,11,0,0,0,7.6,2.9,13.84,13.84,0,0,0,4.72-.86,14,14,0,0,0,4.25-2.42,1.9,1.9,0,0,1,1.4-.55,1,1,0,0,1,.86.47l2.18,3.28a1,1,0,0,1,.31.71,1.56,1.56,0,0,1-.51.95,5.32,5.32,0,0,1-.82.63,33.11,33.11,0,0,1-5.69,3.12A16.9,16.9,0,0,1,1862.26,1438.36ZM1851,1415.51h22.07a14.26,14.26,0,0,0-1.4-4.1,13.14,13.14,0,0,0-2.5-3.37,11.39,11.39,0,0,0-3.32-2.25,9.29,9.29,0,0,0-7.6,0A11,11,0,0,0,1855,1408a14.41,14.41,0,0,0-2.5,3.37A15.3,15.3,0,0,0,1851,1415.51Z" transform="translate(-1558.02 -1376.19)"/><path class="cls-1" d="M1887.3,1429.63a2,2,0,0,1-.12-0.9,0.7,0.7,0,0,1,.51-0.66l3.9-1.56a1,1,0,0,1,1.13.12,2,2,0,0,1,.66,1.05,5.56,5.56,0,0,0,1.33,2,7.4,7.4,0,0,0,1.91,1.33,9.62,9.62,0,0,0,2.11.74,8.59,8.59,0,0,0,1.83.23,9.91,9.91,0,0,0,2.61-.35,8.61,8.61,0,0,0,2.34-1,6,6,0,0,0,1.72-1.6,3.56,3.56,0,0,0,.66-2.11,3.82,3.82,0,0,0-.66-2.26,6.27,6.27,0,0,0-1.76-1.64,12.11,12.11,0,0,0-2.53-1.21q-1.44-.51-3.08-1a18.84,18.84,0,0,1-8.27-4.21,9.64,9.64,0,0,1-3.12-7.41,10.87,10.87,0,0,1,.9-4.45,9.91,9.91,0,0,1,2.54-3.47,12,12,0,0,1,3.94-2.26,15.15,15.15,0,0,1,5.11-.82,11.43,11.43,0,0,1,7.06,2,18.22,18.22,0,0,1,4.72,5.54,2.92,2.92,0,0,1,.23.66,0.66,0.66,0,0,1-.31.66l-3.2,2.26a0.73,0.73,0,0,1-1.09,0q-0.47-.51-1-1.21a11.36,11.36,0,0,0-2.65-2.69,6.08,6.08,0,0,0-3.67-1.13,6.72,6.72,0,0,0-4.56,1.52,4.44,4.44,0,0,0-1.75,3.39,3.7,3.7,0,0,0,.58,2.07,5.27,5.27,0,0,0,1.52,1.52,8.93,8.93,0,0,0,2.07,1q1.13,0.39,2.22.7a23.4,23.4,0,0,1,9.79,4.64,9.84,9.84,0,0,1,3.55,7.76,10.25,10.25,0,0,1-3.94,8.23,13.29,13.29,0,0,1-4.37,2.22,18.91,18.91,0,0,1-5.58.78,16.76,16.76,0,0,1-4.21-.55,15.81,15.81,0,0,1-3.94-1.6,11.49,11.49,0,0,1-3.16-2.65A10.31,10.31,0,0,1,1887.3,1429.63Z" transform="translate(-1558.02 -1376.19)"/><path class="cls-2" d="M1926.06,1435.48v-54a1.66,1.66,0,0,1,1.79-2h6.86a1.72,1.72,0,0,1,1.95,2v21.84a12.64,12.64,0,0,1,4-3.39,12.25,12.25,0,0,1,5.89-1.29,17.21,17.21,0,0,1,13.07,5.81,20.27,20.27,0,0,1,3.74,6.28,21.55,21.55,0,0,1,1.37,7.72,21.08,21.08,0,0,1-1.4,7.68,19.82,19.82,0,0,1-3.82,6.28,18.09,18.09,0,0,1-5.73,4.21,16.73,16.73,0,0,1-7.21,1.56,13.54,13.54,0,0,1-6.24-1.29,12.43,12.43,0,0,1-4.45-4.09q-0.16.86-.31,1.52t-0.31,1.37a1.92,1.92,0,0,1-1.72,1.56,22.38,22.38,0,0,1-2.65.16h-3A1.78,1.78,0,0,1,1926.06,1435.48Zm9.59-16.85a10.69,10.69,0,0,0,.74,4,9.91,9.91,0,0,0,5,5.42,8.35,8.35,0,0,0,7.22,0,9.4,9.4,0,0,0,2.92-2.22,11,11,0,0,0,2-3.28,10.72,10.72,0,0,0,.74-4,11.54,11.54,0,0,0-.7-4,10.65,10.65,0,0,0-1.91-3.32,9,9,0,0,0-2.89-2.22,8,8,0,0,0-3.55-.82,8.4,8.4,0,0,0-3.67.82,10.19,10.19,0,0,0-3,2.22,10.78,10.78,0,0,0-2.89,7.33v0.08Z" transform="translate(-1558.02 -1376.19)"/><path class="cls-2" d="M2001,1435.32q-0.16-.78-0.23-1.29t-0.23-1.29q-0.7,1-1.56,2a8.79,8.79,0,0,1-2,1.75,10.93,10.93,0,0,1-2.73,1.21,13.13,13.13,0,0,1-3.74.47h-0.16a18.73,18.73,0,0,1-7.61-1.52,17.75,17.75,0,0,1-6-4.21,19.64,19.64,0,0,1-3.9-6.28,21.2,21.2,0,0,1-1.4-7.8,22.05,22.05,0,0,1,1.37-7.84,18.6,18.6,0,0,1,3.86-6.28,18.06,18.06,0,0,1,6-4.17,18.94,18.94,0,0,1,7.68-1.52,11,11,0,0,1,6.43,1.64,20.11,20.11,0,0,1,4.1,3.9l0.78-3a4.26,4.26,0,0,1,.7-1.76,2,2,0,0,1,1.48-.43l4.37,0.16a2.38,2.38,0,0,1,1.56.58,1.89,1.89,0,0,1,.7,1.52v34.24a1.67,1.67,0,0,1-.7,1.44,2.6,2.6,0,0,1-1.56.51h-5a1.87,1.87,0,0,1-1.6-.58A3.51,3.51,0,0,1,2001,1435.32Zm-19.42-16.85a12.05,12.05,0,0,0,.66,4.06,9.78,9.78,0,0,0,1.91,3.28,8.74,8.74,0,0,0,3,2.18,9.12,9.12,0,0,0,3.82.78,8.66,8.66,0,0,0,6.9-2.92,10.74,10.74,0,0,0,2.53-7.29,12.86,12.86,0,0,0-.62-4,9.64,9.64,0,0,0-1.87-3.35,9,9,0,0,0-3-2.26,9.14,9.14,0,0,0-4-.82,9,9,0,0,0-3.86.82,8.5,8.5,0,0,0-3,2.26,10.63,10.63,0,0,0-1.87,3.32A11.81,11.81,0,0,0,1981.6,1418.47Z" transform="translate(-1558.02 -1376.19)"/><path class="cls-2" d="M2022.86,1435.71v-54.44a1.48,1.48,0,0,1,1.64-1.72h7.25a1.52,1.52,0,0,1,1.72,1.72v54.44a1.52,1.52,0,0,1-1.72,1.72h-7.25A1.48,1.48,0,0,1,2022.86,1435.71Z" transform="translate(-1558.02 -1376.19)"/><path class="cls-2" d="M2083.08,1381.5v54a1.77,1.77,0,0,1-2,2h-3.43a13.56,13.56,0,0,1-2.65-.23,1.84,1.84,0,0,1-1.33-1.6q-0.23-1.29-.55-2.77a12.83,12.83,0,0,1-4.33,4.09,13.4,13.4,0,0,1-6.36,1.29,17.1,17.1,0,0,1-7.37-1.56,18.08,18.08,0,0,1-5.73-4.21,18.74,18.74,0,0,1-3.74-6.28,23,23,0,0,1,0-15.4,19.65,19.65,0,0,1,3.71-6.28,17.19,17.19,0,0,1,5.77-4.25,17.82,17.82,0,0,1,7.53-1.56,12,12,0,0,1,5.93,1.25,13.5,13.5,0,0,1,3.82,3.28V1381.5a1.76,1.76,0,0,1,2-2h6.4a2.49,2.49,0,0,1,1.56.55A1.7,1.7,0,0,1,2083.08,1381.5Zm-9.67,37a11.56,11.56,0,0,0-.7-4,10.67,10.67,0,0,0-1.91-3.32,8.85,8.85,0,0,0-2.93-2.22,8.76,8.76,0,0,0-3.82-.82,9.2,9.2,0,0,0-3.94.82,8.34,8.34,0,0,0-2.92,2.22,9.92,9.92,0,0,0-1.79,3.32,12.83,12.83,0,0,0-.62,4,12.47,12.47,0,0,0,.62,4,10,10,0,0,0,1.79,3.28,8.33,8.33,0,0,0,2.92,2.22,9.19,9.19,0,0,0,3.94.82,8.57,8.57,0,0,0,3.74-.82,9.56,9.56,0,0,0,3-2.18,9.9,9.9,0,0,0,2-3.24,11.24,11.24,0,0,0,.7-4v-0.08Z" transform="translate(-1558.02 -1376.19)"/><path class="cls-2" d="M2121.53,1435.32q-0.16-.78-0.23-1.29t-0.23-1.29q-0.7,1-1.56,2a8.79,8.79,0,0,1-2,1.75,10.93,10.93,0,0,1-2.73,1.21,13.13,13.13,0,0,1-3.74.47h-0.16a18.73,18.73,0,0,1-7.61-1.52,17.75,17.75,0,0,1-6-4.21,19.64,19.64,0,0,1-3.9-6.28,21.2,21.2,0,0,1-1.4-7.8,22.05,22.05,0,0,1,1.37-7.84,18.6,18.6,0,0,1,3.86-6.28,18.06,18.06,0,0,1,6-4.17,18.94,18.94,0,0,1,7.68-1.52,11,11,0,0,1,6.43,1.64,20.11,20.11,0,0,1,4.1,3.9l0.78-3a4.26,4.26,0,0,1,.7-1.76,2,2,0,0,1,1.48-.43l4.37,0.16a2.38,2.38,0,0,1,1.56.58,1.89,1.89,0,0,1,.7,1.52v34.24a1.67,1.67,0,0,1-.7,1.44,2.6,2.6,0,0,1-1.56.51h-5a1.87,1.87,0,0,1-1.6-.58A3.51,3.51,0,0,1,2121.53,1435.32Zm-19.42-16.85a12.05,12.05,0,0,0,.66,4.06,9.78,9.78,0,0,0,1.91,3.28,8.74,8.74,0,0,0,3,2.18,9.12,9.12,0,0,0,3.82.78,8.66,8.66,0,0,0,6.9-2.92,10.74,10.74,0,0,0,2.53-7.29,12.86,12.86,0,0,0-.62-4,9.64,9.64,0,0,0-1.87-3.35,9,9,0,0,0-3-2.26,9.14,9.14,0,0,0-4-.82,9,9,0,0,0-3.86.82,8.5,8.5,0,0,0-3,2.26,10.63,10.63,0,0,0-1.87,3.32A11.81,11.81,0,0,0,2102.11,1418.47Z" transform="translate(-1558.02 -1376.19)"/><path class="cls-2" d="M2142.12,1387.74a6,6,0,0,1,10.3-4.25,5.86,5.86,0,0,1,1.72,4.25,5.73,5.73,0,0,1-1.72,4.21,6.17,6.17,0,0,1-8.54,0A5.66,5.66,0,0,1,2142.12,1387.74Zm11.54,13.26v34.63a1.66,1.66,0,0,1-2,1.79h-6.79a1.58,1.58,0,0,1-1.79-1.79V1401a1.94,1.94,0,0,1,.47-1.37,1.71,1.71,0,0,1,1.33-.51h6.79a2.07,2.07,0,0,1,1.33.51A1.67,1.67,0,0,1,2153.67,1401Z" transform="translate(-1558.02 -1376.19)"/><path class="cls-2" d="M1558,1411.69c0-7.68,0-15.36,0-23a2.77,2.77,0,0,1,1.7-2.76q9.45-4.67,18.87-9.39a2.59,2.59,0,0,1,2.52,0q23.14,11.61,46.3,23.19a2.82,2.82,0,0,1,1.6,2.84q0,9.27,0,18.54c0,9.06,0,18.11,0,27.17a3.07,3.07,0,0,1-1.93,3.09q-9.18,4.5-18.3,9.11a3.31,3.31,0,0,1-3.22,0q-22.94-11.5-45.9-23a2.69,2.69,0,0,1-1.66-2.68C1558.05,1427.11,1558,1419.4,1558,1411.69Zm49.82,43.83a2.36,2.36,0,0,0,1.2-.46c4.67-2.35,9.44-4.71,14.12-7a1.3,1.3,0,0,0,.8-1.44c0-13.64-.13-27.28-0.13-40.92v-1.09a1.34,1.34,0,0,1-.7.38c-4.72,2.37-9.35,4.76-14.09,7.1a1.48,1.48,0,0,0-1,1.4c0,9.88-.18,19.76-0.18,29.63v12.43ZM1564.2,1389c0.33,0.19.5,0.3,0.69,0.39q20.75,10.33,41.5,20.67a1.58,1.58,0,0,0,1.61,0c4.63-2.35,9.28-4.66,13.92-7,0.23-.12.46-0.25,0.8-0.44l-1-.55-12-6q-14.64-7.29-29.29-14.56a1.42,1.42,0,0,0-1.08-.11C1574.31,1383.91,1569.32,1386.42,1564.2,1389ZM1606,1413.2a1,1,0,0,0-.67-1q-7.35-3.64-14.67-7.32l-5.11-2.55c0,0.4-.05.61-0.05,0.82q0,15,0,30a1.07,1.07,0,0,0,.73,1.1q9.43,4.69,18.85,9.41c0.26,0.13.53,0.24,0.87,0.39,0-.28,0-0.45,0-0.63m-43.18-52.46c0,0.38,0,.59,0,0.8q0,15,0,30a1.08,1.08,0,0,0,.71,1.11q9.47,4.73,18.92,9.48c0.22,0.11.47,0.18,0.76,0.29,0-.32,0-0.5,0-0.68q0-15,0-30a1.13,1.13,0,0,0-.76-1.17c-5.3-2.64-10.59-5.31-15.88-8Zm0,34.2c0,2.89,0,5.58,0,8.27a1.27,1.27,0,0,0,.69.8q20.84,10.45,41.7,20.86c0.23,0.11.48,0.2,0.8,0.33,0-2.69,0-5.26,0-7.83a1.17,1.17,0,0,0-.79-1.24q-19.76-9.85-39.51-19.74Z" transform="translate(-1558.02 -1376.19)"/></svg>