<svg id="Layer_1" data-name="Layer 1" xmlns="http://www.w3.org/2000/svg" viewBox="0 0 1516.82 169.22"><defs><style>.cls-1{fill:#fff;}.cls-2{fill:#afbabd;}.cls-3{fill:#262324;}</style></defs><title>prototype</title><path d="M75.81,104.92a5.26,5.26,0,0,1,3.31,1.15l-0.7,1a4.77,4.77,0,0,0-2.62-.84c-1.32,0-2.18.62-2.18,1.61,0,1.15,1.18,1.63,2.45,2.11,1.78,0.65,3.41,1.34,3.41,3.29s-1.68,3.31-4.1,3.31a6.22,6.22,0,0,1-3.84-1.32l0.7-1.08a5.35,5.35,0,0,0,3.1,1.06c1.44,0,2.52-.65,2.52-1.8s-1.42-1.73-2.88-2.33-2.93-1.34-3-3C72,106.1,73.74,104.92,75.81,104.92Z" transform="translate(-71.53 -54.51)"/><path d="M84.11,105.16v7.06c0,2.11.6,3,2,3a5.17,5.17,0,0,0,3.34-1.7v-8.38H91V112c0,1.06,0,1.66.22,4.22l-1.32.19-0.31-1.61a5.43,5.43,0,0,1-3.86,1.85c-2.28,0-3.24-1.46-3.24-3.89v-7.56Z" transform="translate(-71.53 -54.51)"/><path d="M98.39,104.92a5.26,5.26,0,0,1,3.31,1.15l-0.7,1a4.77,4.77,0,0,0-2.62-.84c-1.32,0-2.18.62-2.18,1.61,0,1.15,1.18,1.63,2.45,2.11,1.78,0.65,3.41,1.34,3.41,3.29s-1.68,3.31-4.1,3.31a6.22,6.22,0,0,1-3.84-1.32l0.7-1.08a5.35,5.35,0,0,0,3.1,1.06c1.44,0,2.52-.65,2.52-1.8s-1.42-1.73-2.88-2.33-2.93-1.34-3-3C94.57,106.1,96.33,104.92,98.39,104.92Z" transform="translate(-71.53 -54.51)"/><path d="M106.09,100.6a1,1,0,0,1,1.08,1.1,1.15,1.15,0,0,1-1.2,1.2,1,1,0,0,1-1.1-1.08A1.17,1.17,0,0,1,106.09,100.6Zm0.7,4.56v11.16h-1.56V105.21Z" transform="translate(-71.53 -54.51)"/><path d="M112.84,101.87v3.31h3.46v1.32h-3.46v6.26c0,1.9.31,2.4,1.42,2.4a7.59,7.59,0,0,0,1.85-.29l0.34,1.2a8.28,8.28,0,0,1-2.74.5c-1.73,0-2.42-.86-2.42-3.43v-6.65h-1.7v-1.32h1.61l0.38-3.31h1.27Z" transform="translate(-71.53 -54.51)"/><path d="M119.92,100.6a1,1,0,0,1,1.08,1.1,1.15,1.15,0,0,1-1.2,1.2,1,1,0,0,1-1.1-1.08A1.17,1.17,0,0,1,119.92,100.6Zm0.7,4.56v11.16h-1.56V105.21Z" transform="translate(-71.53 -54.51)"/><path d="M133.26,105.19a2,2,0,0,1-.5.84L129,110.18l4.06,5.21a3,3,0,0,1,.55.94h-1.73l-3.89-5-1.8,1.92v3.12H124.6v-18l1.58,0v12.94l5.47-6h1.61Z" transform="translate(-71.53 -54.51)"/><path d="M137,100.6a1,1,0,0,1,1.08,1.1,1.15,1.15,0,0,1-1.2,1.2,1,1,0,0,1-1.1-1.08A1.17,1.17,0,0,1,137,100.6Zm0.7,4.56v11.16h-1.56V105.21Z" transform="translate(-71.53 -54.51)"/><path d="M142.88,105l0.29,1.63a5.42,5.42,0,0,1,3.86-1.8,2.61,2.61,0,0,1,2.76,1.9,5.51,5.51,0,0,1,4-1.9c2.18,0,3,1.42,3,4v7.46h-1.58v-6.89c0-2.23-.46-3.19-1.85-3.19a5.48,5.48,0,0,0-3.36,1.58c0,0.31,0,.65,0,1v7.46h-1.58v-6.89c0-2.23-.46-3.19-1.82-3.19a5.43,5.43,0,0,0-3.34,1.54v8.54h-1.58v-6.89c0-.84,0-1.82-0.19-4.22Z" transform="translate(-71.53 -54.51)"/><path d="M164.72,104.92c2.33,0,3.29,1.32,3.29,4.25v2.9c0,0.86,0,1.82.19,4.15l-1.32.19-0.31-1.56a6.18,6.18,0,0,1-4,1.73,2.59,2.59,0,0,1-2.83-2.76,3.11,3.11,0,0,1,1.44-2.64c1-.65,2.64-1,5.23-1.25V109.7c0-2.5-.53-3.38-2-3.38a6.65,6.65,0,0,0-3.65,1.42l-0.62-1A7.17,7.17,0,0,1,164.72,104.92Zm1.7,8.69v-2.47c-2.62.24-3.74,0.55-4.34,1a1.84,1.84,0,0,0-.79,1.54,1.48,1.48,0,0,0,1.58,1.66A5.48,5.48,0,0,0,166.43,113.61Z" transform="translate(-71.53 -54.51)"/><path d="M175.26,104.92a5.26,5.26,0,0,1,3.31,1.15l-0.7,1a4.77,4.77,0,0,0-2.62-.84c-1.32,0-2.18.62-2.18,1.61,0,1.15,1.18,1.63,2.45,2.11,1.78,0.65,3.41,1.34,3.41,3.29s-1.68,3.31-4.1,3.31a6.22,6.22,0,0,1-3.84-1.32l0.7-1.08a5.35,5.35,0,0,0,3.1,1.06c1.44,0,2.52-.65,2.52-1.8s-1.42-1.73-2.88-2.33-2.93-1.34-3-3C171.44,106.1,173.2,104.92,175.26,104.92Z" transform="translate(-71.53 -54.51)"/><path d="M75.81,133.72a5.26,5.26,0,0,1,3.31,1.15l-0.7,1a4.77,4.77,0,0,0-2.62-.84c-1.32,0-2.18.62-2.18,1.61,0,1.15,1.18,1.63,2.45,2.11,1.78,0.65,3.41,1.34,3.41,3.29s-1.68,3.31-4.1,3.31a6.22,6.22,0,0,1-3.84-1.32l0.7-1.08a5.35,5.35,0,0,0,3.1,1.06c1.44,0,2.52-.65,2.52-1.8s-1.42-1.73-2.88-2.33-2.93-1.34-3-3C72,134.9,73.74,133.72,75.81,133.72Z" transform="translate(-71.53 -54.51)"/><path d="M84.11,134V141c0,2.11.6,3,2,3a5.17,5.17,0,0,0,3.34-1.7V134H91v6.82c0,1.06,0,1.66.22,4.22l-1.32.19-0.31-1.61a5.43,5.43,0,0,1-3.86,1.85c-2.28,0-3.24-1.46-3.24-3.89V134Z" transform="translate(-71.53 -54.51)"/><path d="M102.49,134V141c0,2.11.6,3,2,3a5.17,5.17,0,0,0,3.34-1.7V134h1.56v6.82c0,1.06,0,1.66.22,4.22l-1.32.19L108,143.61a5.43,5.43,0,0,1-3.86,1.85c-2.28,0-3.24-1.46-3.24-3.89V134Z" transform="translate(-71.53 -54.51)"/><path d="M120.83,134l0.26,1.2-6.7,8.64H121l0,1.3h-8.33l-0.19-1.2,6.65-8.64h-6.26l0-1.3h8Zm-7.25-5.26,0.86-.77,2.54,2.76,2.59-2.76,0.82,0.77-2.83,3.36-1.18.1Z" transform="translate(-71.53 -54.51)"/><path d="M127.57,133.72a5.26,5.26,0,0,1,3.31,1.15l-0.7,1a4.77,4.77,0,0,0-2.62-.84c-1.32,0-2.18.62-2.18,1.61,0,1.15,1.18,1.63,2.45,2.11,1.78,0.65,3.41,1.34,3.41,3.29s-1.68,3.31-4.1,3.31a6.22,6.22,0,0,1-3.84-1.32L124,143a5.35,5.35,0,0,0,3.1,1.06c1.44,0,2.52-.65,2.52-1.8s-1.42-1.73-2.88-2.33-2.93-1.34-3-3C123.76,134.9,125.51,133.72,127.57,133.72Z" transform="translate(-71.53 -54.51)"/><path d="M138.47,133.72c2.33,0,3.29,1.32,3.29,4.25v2.9c0,0.86,0,1.82.19,4.15l-1.32.19-0.31-1.56a6.18,6.18,0,0,1-4,1.73,2.59,2.59,0,0,1-2.83-2.76,3.11,3.11,0,0,1,1.44-2.64c1-.65,2.64-1,5.23-1.25V138.5c0-2.5-.53-3.38-2-3.38a6.65,6.65,0,0,0-3.65,1.42l-0.62-1A7.17,7.17,0,0,1,138.47,133.72Zm1.7,8.69v-2.47c-2.62.24-3.74,0.55-4.34,1a1.84,1.84,0,0,0-.79,1.54,1.48,1.48,0,0,0,1.58,1.66A5.48,5.48,0,0,0,140.17,142.41Z" transform="translate(-71.53 -54.51)"/><path d="M154.33,134a2,2,0,0,1-.5.84L150.06,139l4.06,5.21a3,3,0,0,1,.55.94h-1.73l-3.89-5-1.8,1.92v3.12h-1.58v-18l1.58,0V140l5.47-6h1.61Z" transform="translate(-71.53 -54.51)"/><path d="M161,133.65c3,0,4.75,2.45,4.75,5.76,0,2.9-1.54,6-5,6-3,0-4.78-2.42-4.78-5.76C156,136.84,157.62,133.65,161,133.65ZM160.88,135a2.89,2.89,0,0,0-2.06.77,5.29,5.29,0,0,0-1.18,3.67c0,2.66,1.13,4.61,3.31,4.61a2.77,2.77,0,0,0,2.06-.82,5.19,5.19,0,0,0,1.15-3.65C164.17,137,163,135,160.88,135Z" transform="translate(-71.53 -54.51)"/><path d="M177.25,134a2.45,2.45,0,0,1-.19,1L173.2,145.1l-1.66,0-3.74-10.2a2.63,2.63,0,0,1-.19-1h1.56l2.59,7.34c0.22,0.62.43,1.3,0.6,2h0.1l3.29-9.34h1.51Z" transform="translate(-71.53 -54.51)"/><path d="M181.5,134V141c0,2.11.6,3,2,3a5.17,5.17,0,0,0,3.34-1.7V134h1.56v6.82c0,1.06,0,1.66.22,4.22l-1.32.19L187,143.61a5.43,5.43,0,0,1-3.86,1.85c-2.28,0-3.24-1.46-3.24-3.89V134Z" transform="translate(-71.53 -54.51)"/><path d="M742.9,183.71H718.4a6.75,6.75,0,0,1-7-6.57c-0.14-3.76-.08-7.53-0.08-11.3q0-14.57,0-29.14a7.07,7.07,0,0,1,4.72-6.87,6.72,6.72,0,0,1,8.31,3.93,1.17,1.17,0,0,0,1.31.84q21.13,0,42.26,0c1.31,0,1.64.32,1.64,1.61q0,22.9,0,45.81c0,1.44-.26,1.7-1.67,1.7h-25Zm-18-46.89c0,0.32,0,.56,0,0.8q0,19.28,0,38.55a1.17,1.17,0,0,1-1,1.42,1.13,1.13,0,0,1-1.2-1.24,4.52,4.52,0,0,0-6-3.9c-2.28.67-3.47,2.75-3.08,5.36a4.33,4.33,0,0,0,4.63,3.7H766.6c0.25,0,.51,0,0.74,0V136.83H724.92Zm-2.18,35.06v-1q0-11.63,0-23.26c0-3.79,0-7.58,0-11.38a4.45,4.45,0,0,0-4.6-4.64,4.34,4.34,0,0,0-4.53,4.64q0,17.39,0,34.78c0,0.22,0,.45,0,0.75C716.71,169.47,719.69,169.5,722.74,171.89Z" transform="translate(-71.53 -54.51)"/><path d="M740.5,186.19h14.91l12.89,0a1.11,1.11,0,0,1,1.3,1.34q0,5.22,0,10.43a1.16,1.16,0,0,1-1.38,1.34H712.86a1.19,1.19,0,0,1-1.43-1.44q0-5.07,0-10.14c0-1.19.31-1.51,1.49-1.52H724l14.33,0h2.17Zm11.74,2.28c0,0.23,0,.42,0,0.61,0,1.18,0,2.37,0,3.55a1.06,1.06,0,0,1-1.06,1.13,1.1,1.1,0,0,1-1.11-1.1c0-.26,0-0.53,0-0.8q0-1.69,0-3.38H748c0,0.63,0,1.21,0,1.78a1.12,1.12,0,0,1-1.12,1.3,1.08,1.08,0,0,1-1.05-1.28c0-.6,0-1.19,0-1.82h-2.09c0,0.62,0,1.2,0,1.77a1.11,1.11,0,0,1-1.09,1.32,1.13,1.13,0,0,1-1.09-1.33c0-.59,0-1.18,0-1.77h-2.07c0,0.3,0,.56,0,0.82,0,1.14,0,2.27,0,3.41a1,1,0,0,1-.84,1,1,1,0,0,1-1.2-.57,2.14,2.14,0,0,1-.14-0.84c0-1.27,0-2.55,0-3.83h-2.18c0,0.63,0,1.21,0,1.79a1.1,1.1,0,1,1-2.18,0c0-.6,0-1.19,0-1.82h-2.07c0,0.67,0,1.29,0,1.91a1.09,1.09,0,0,1-1.1,1.18,1.06,1.06,0,0,1-1.08-1.18c0-.62,0-1.25,0-1.91h-2.09c0,0.29,0,.55,0,0.81,0,1.14,0,2.27,0,3.41a1,1,0,0,1-1,1.08,1.09,1.09,0,0,1-1.12-1,7,7,0,0,1,0-.8c0-1.15,0-2.3,0-3.46h-2.18c0,0.66,0,1.26,0,1.86a1.07,1.07,0,0,1-1,1.22,1.09,1.09,0,0,1-1.13-1.22c0-.62,0-1.24,0-1.87h-2.06c0,0.68,0,1.3,0,1.92a1.09,1.09,0,0,1-1.11,1.17,1.06,1.06,0,0,1-1.07-1.2c0-.62,0-1.24,0-1.91h-2.1v8.64h53.71v-8.65h-2.28c0,0.29,0,.55,0,0.81,0,1.14.05,2.28,0,3.4a1.37,1.37,0,0,1-.68,1,1.31,1.31,0,0,1-1.1-.22,1.37,1.37,0,0,1-.35-1c0-1.32,0-2.64,0-4h-2.06c0,0.67,0,1.29,0,1.92a1.09,1.09,0,0,1-1.1,1.18,1.06,1.06,0,0,1-1.07-1.19c0-.62,0-1.24,0-1.89h-2.1c0,0.64,0,1.22,0,1.8a1.09,1.09,0,0,1-1.06,1.28,1.12,1.12,0,0,1-1.12-1.31c0-.59,0-1.19,0-1.79h-2.13Z" transform="translate(-71.53 -54.51)"/><path d="M699.69,162.38q0-14.09,0-28.19a4.76,4.76,0,0,1,3.45-4.57,4.61,4.61,0,0,1,5.52,4.6c0,5.53,0,11.06,0,16.59q0,19.82,0,39.63a3.83,3.83,0,0,1-.33,1.52c-1,2.15-2,4.28-3,6.42a1.26,1.26,0,0,1-1.16.94,1.28,1.28,0,0,1-1.14-1c-1-2.19-2.06-4.36-3.06-6.56a3.11,3.11,0,0,1-.26-1.25Q699.68,176.47,699.69,162.38Zm2.23-25v52h4.5v-52h-4.5Zm4.55-2.26c0-1.23.07-2.41-1.07-3.11a2.29,2.29,0,0,0-2.6.07c-1.1.74-.94,1.89-0.9,3h4.56Zm-4.2,56.51,1.91,4.06,1.9-4.06h-3.81Z" transform="translate(-71.53 -54.51)"/><path class="cls-1" d="M702.27,191.61h3.81l-1.9,4.06Z" transform="translate(-71.53 -54.51)"/><path d="M745.6,140.18h16c1.34,0,1.61.29,1.6,1.61,0,3.17,0,6.33,0,9.5,0,1.23-.31,1.54-1.53,1.54H729.15a1.08,1.08,0,0,1-1.17-1.17q0-5.15,0-10.29c0-.82.45-1.17,1.39-1.17H745.6Zm-15.44,10.41H761v-8.17H730.17v8.17Z" transform="translate(-71.53 -54.51)"/><path d="M756.38,165.93c-1.83,0-3.67,0-5.5,0a1.12,1.12,0,0,1-1.29-1.2,1.1,1.1,0,0,1,1.23-1c3.74,0,7.48,0,11.22,0a1.09,1.09,0,1,1,0,2.18C760.15,165.94,758.26,165.93,756.38,165.93Z" transform="translate(-71.53 -54.51)"/><path d="M734.74,165.93c-1.83,0-3.67,0-5.5,0a1.65,1.65,0,0,1-1.11-.61,1.13,1.13,0,0,1,.06-1,1.34,1.34,0,0,1,1-.49c3.71,0,7.43,0,11.14,0a1.09,1.09,0,1,1,0,2.18C738.46,165.95,736.6,165.93,734.74,165.93Z" transform="translate(-71.53 -54.51)"/><path d="M756.36,178.17c-1.83,0-3.67,0-5.5,0a1.65,1.65,0,0,1-1.11-.61,1.13,1.13,0,0,1,.05-1,1.33,1.33,0,0,1,1-.48c3.74,0,7.48,0,11.22,0a1.09,1.09,0,1,1,0,2.18c-1.88,0-3.77,0-5.65,0h0Z" transform="translate(-71.53 -54.51)"/><path d="M756.39,159.92H751a1.12,1.12,0,1,1,0-2.18h10.93a1.11,1.11,0,1,1,0,2.18h-5.5Z" transform="translate(-71.53 -54.51)"/><path d="M756.46,169.87h5.43a1.09,1.09,0,0,1,1.33,1.08,1.11,1.11,0,0,1-1.32,1.1H751a1.17,1.17,0,0,1-1.38-1.13,1.15,1.15,0,0,1,1.37-1.05h5.5Z" transform="translate(-71.53 -54.51)"/><path d="M734.75,176h5.43a1.09,1.09,0,0,1,1.31,1.09,1.13,1.13,0,0,1-1.34,1.09H729.29a1.11,1.11,0,1,1,0-2.18h5.43Z" transform="translate(-71.53 -54.51)"/><path d="M734.78,159.92h-5.5a1.1,1.1,0,1,1,0-2.18H740.2a1.1,1.1,0,1,1,0,2.18h-5.43Z" transform="translate(-71.53 -54.51)"/><path d="M734.7,169.87h5.43a1.11,1.11,0,0,1,1.36,1,1.13,1.13,0,0,1-1.36,1.14H729.35a1.16,1.16,0,0,1-1.37-1.13,1.14,1.14,0,0,1,1.37-1h5.36Z" transform="translate(-71.53 -54.51)"/><path d="M639.62,56.19c4.13,0,6.17,1.73,6.17,4.85,0,3.34-2.28,5.5-6.43,5.5a16.45,16.45,0,0,1-1.8-.1v6.1h-1.61v-16A23.93,23.93,0,0,1,639.62,56.19Zm2.52,8.38a3.42,3.42,0,0,0,1.94-3.36c0-2.45-1.51-3.55-4.37-3.55a17.07,17.07,0,0,0-2.16.17V65q0.83,0.07,1.66.07A6.65,6.65,0,0,0,642.14,64.57Z" transform="translate(-71.53 -54.51)"/><path d="M649.7,61.23l0.36,2.16c0.79-1.44,1.82-2.26,3.12-2.26a3.05,3.05,0,0,1,1.51.41L654.36,63a3.81,3.81,0,0,0-1.27-.19A3.41,3.41,0,0,0,650.16,65v7.56h-1.58V65.65c0-.84,0-1.87-0.22-4.22Z" transform="translate(-71.53 -54.51)"/><path d="M660.88,61.06c3,0,4.75,2.45,4.75,5.76,0,2.9-1.54,6-5,6-3,0-4.78-2.42-4.78-5.76C655.89,64.25,657.48,61.06,660.88,61.06Zm-0.14,1.39a2.89,2.89,0,0,0-2.06.77,5.29,5.29,0,0,0-1.18,3.67c0,2.66,1.13,4.61,3.31,4.61a2.77,2.77,0,0,0,2.06-.82A5.19,5.19,0,0,0,664,67C664,64.4,662.9,62.45,660.74,62.45Z" transform="translate(-71.53 -54.51)"/><path d="M670.87,58.09V61.4h3.46v1.32h-3.46V69c0,1.9.31,2.4,1.42,2.4a7.58,7.58,0,0,0,1.85-.29l0.34,1.2a8.28,8.28,0,0,1-2.74.5c-1.73,0-2.42-.86-2.42-3.43V62.72h-1.7V61.4h1.61l0.38-3.31h1.27Z" transform="translate(-71.53 -54.51)"/><path d="M681.4,61.06c3,0,4.75,2.45,4.75,5.76,0,2.9-1.54,6-5,6-3,0-4.78-2.42-4.78-5.76C676.41,64.25,678,61.06,681.4,61.06Zm-0.14,1.39a2.89,2.89,0,0,0-2.06.77A5.29,5.29,0,0,0,678,66.9c0,2.66,1.13,4.61,3.31,4.61a2.77,2.77,0,0,0,2.06-.82A5.19,5.19,0,0,0,684.55,67C684.55,64.4,683.42,62.45,681.26,62.45Z" transform="translate(-71.53 -54.51)"/><path d="M691.39,58.09V61.4h3.46v1.32h-3.46V69c0,1.9.31,2.4,1.42,2.4a7.58,7.58,0,0,0,1.85-.29L695,72.3a8.28,8.28,0,0,1-2.74.5c-1.73,0-2.42-.86-2.42-3.43V62.72h-1.7V61.4h1.61l0.38-3.31h1.27Z" transform="translate(-71.53 -54.51)"/><path d="M698.47,56.81a1,1,0,0,1,1.08,1.1,1.15,1.15,0,0,1-1.2,1.2,1,1,0,0,1-1.1-1.08A1.17,1.17,0,0,1,698.47,56.81Zm0.7,4.56V72.54H697.6V61.42Z" transform="translate(-71.53 -54.51)"/><path d="M704.3,61.23l0.29,1.56a4.86,4.86,0,0,1,3.53-1.73c2.59,0,4.3,2.42,4.3,5.59,0,3-1.58,6.22-5,6.22a4.68,4.68,0,0,1-2.64-.77V78.3h-1.58V65.67c0-.86,0-1.9-0.19-4.25Zm5.26,9.5a5.31,5.31,0,0,0,1.22-3.79c0-2.5-1-4.49-2.9-4.49A4.79,4.79,0,0,0,704.75,64v6.86a5.2,5.2,0,0,0,2.57.67A3,3,0,0,0,709.56,70.74Z" transform="translate(-71.53 -54.51)"/><path d="M717.19,61.4v7c0,2.14.6,3.12,2,3.12,1.1,0,2.09-.55,3.34-1.73V61.4h1.56v6.82c0,1.06,0,2.57.22,4.75-1.68.79-2.52,1.66-2.52,2.5a1.12,1.12,0,0,0,1.3,1.15,4.08,4.08,0,0,0,1.54-.36L725,77.38a5.58,5.58,0,0,1-2.3.55,2.21,2.21,0,0,1-2.5-2.16c0-1.22,1.08-2.3,2.66-3.22L722.66,71a5.2,5.2,0,0,1-3.79,1.82c-2.33,0-3.26-1.46-3.26-3.89V61.4h1.58Z" transform="translate(-71.53 -54.51)"/><path d="M737.44,61.13a5.26,5.26,0,0,1,3.31,1.15l-0.7,1a4.77,4.77,0,0,0-2.62-.84c-1.32,0-2.18.62-2.18,1.61,0,1.15,1.18,1.63,2.45,2.11,1.78,0.65,3.41,1.34,3.41,3.29s-1.68,3.31-4.1,3.31a6.22,6.22,0,0,1-3.84-1.32l0.7-1.08a5.35,5.35,0,0,0,3.1,1.06c1.44,0,2.52-.65,2.52-1.8s-1.42-1.73-2.88-2.33-2.93-1.34-3-3C733.63,62.31,735.38,61.13,737.44,61.13Z" transform="translate(-71.53 -54.51)"/><path d="M745.75,61.37v7.06c0,2.11.6,3,2,3a5.17,5.17,0,0,0,3.34-1.7V61.4h1.56v6.82c0,1.06,0,1.66.22,4.22l-1.32.19L751.27,71a5.43,5.43,0,0,1-3.86,1.85c-2.28,0-3.24-1.46-3.24-3.89V61.42Z" transform="translate(-71.53 -54.51)"/><path d="M765.36,61.4a2,2,0,0,1-.5.84l-3.77,4.15,4.06,5.21a3,3,0,0,1,.55.94H764l-3.89-5-1.8,1.92v3.12h-1.58v-18l1.58,0V67.45l5.47-6h1.61Z" transform="translate(-71.53 -54.51)"/><path d="M769.72,61.37v7.06c0,2.11.6,3,2,3a5.16,5.16,0,0,0,3.34-1.7V61.4h1.56v6.82c0,1.06,0,1.66.22,4.22l-1.32.19L775.24,71a5.43,5.43,0,0,1-3.86,1.85c-2.28,0-3.24-1.46-3.24-3.89V61.42Z" transform="translate(-71.53 -54.51)"/><path d="M781.82,61.23l0.36,2.16C783,62,784,61.13,785.3,61.13a3,3,0,0,1,1.51.41L786.47,63a3.81,3.81,0,0,0-1.27-.19A3.41,3.41,0,0,0,782.27,65v7.56h-1.58V65.65c0-.84,0-1.87-0.22-4.22Z" transform="translate(-71.53 -54.51)"/><path d="M790.05,56.81a1,1,0,0,1,1.08,1.1,1.15,1.15,0,0,1-1.2,1.2,1,1,0,0,1-1.1-1.08A1.17,1.17,0,0,1,790.05,56.81Zm0.7,4.56V72.54h-1.56V61.42Z" transform="translate(-71.53 -54.51)"/><path d="M795.91,61.23l0.29,1.63a5.42,5.42,0,0,1,3.86-1.8,2.61,2.61,0,0,1,2.76,1.9,5.51,5.51,0,0,1,4-1.9c2.18,0,3,1.42,3,4v7.46h-1.58V65.65c0-2.23-.46-3.19-1.85-3.19A5.48,5.48,0,0,0,803,64c0,0.31,0,.65,0,1v7.46H801.5V65.65c0-2.23-.46-3.19-1.82-3.19A5.43,5.43,0,0,0,796.34,64v8.54h-1.58V65.65c0-.84,0-1.82-0.19-4.22Z" transform="translate(-71.53 -54.51)"/><path d="M817.75,61.13c2.33,0,3.29,1.32,3.29,4.25v2.9c0,0.86,0,1.82.19,4.15l-1.32.19-0.31-1.56a6.18,6.18,0,0,1-4,1.73A2.59,2.59,0,0,1,812.78,70a3.11,3.11,0,0,1,1.44-2.64c1-.65,2.64-1,5.23-1.25V65.91c0-2.5-.53-3.38-2-3.38a6.64,6.64,0,0,0-3.65,1.42l-0.62-1A7.17,7.17,0,0,1,817.75,61.13Zm1.7,8.69V67.35c-2.62.24-3.74,0.55-4.34,1a1.84,1.84,0,0,0-.79,1.54,1.48,1.48,0,0,0,1.58,1.66A5.48,5.48,0,0,0,819.45,69.82Z" transform="translate(-71.53 -54.51)"/><path d="M828.28,61.13a5.26,5.26,0,0,1,3.31,1.15l-0.7,1a4.77,4.77,0,0,0-2.62-.84c-1.32,0-2.18.62-2.18,1.61,0,1.15,1.18,1.63,2.45,2.11,1.78,0.65,3.41,1.34,3.41,3.29s-1.68,3.31-4.1,3.31A6.22,6.22,0,0,1,824,71.48l0.7-1.08a5.35,5.35,0,0,0,3.1,1.06c1.44,0,2.52-.65,2.52-1.8s-1.42-1.73-2.88-2.33-2.93-1.34-3-3C824.47,62.31,826.22,61.13,828.28,61.13Z" transform="translate(-71.53 -54.51)"/><path d="M836.56,69.18a7.83,7.83,0,0,1,.19,1.68A6.16,6.16,0,0,1,834.09,76l-0.7-.62A5.94,5.94,0,0,0,835.17,71,13.08,13.08,0,0,0,835,69.3Z" transform="translate(-71.53 -54.51)"/><path d="M639.67,89.93c2.33,0,3.29,1.32,3.29,4.25v2.9c0,0.86,0,1.82.19,4.15l-1.32.19-0.31-1.56a6.18,6.18,0,0,1-4,1.73,2.59,2.59,0,0,1-2.83-2.76,3.11,3.11,0,0,1,1.44-2.64c1-.65,2.64-1,5.23-1.25V94.71c0-2.5-.53-3.38-2-3.38a6.64,6.64,0,0,0-3.65,1.42l-0.62-1A7.17,7.17,0,0,1,639.67,89.93Zm1.7,8.69V96.15c-2.62.24-3.74,0.55-4.34,1a1.84,1.84,0,0,0-.79,1.54,1.48,1.48,0,0,0,1.58,1.66A5.48,5.48,0,0,0,641.37,98.62Z" transform="translate(-71.53 -54.51)"/><path d="M648,90l0.29,1.56a4.86,4.86,0,0,1,3.53-1.73c2.59,0,4.3,2.42,4.3,5.59,0,3-1.58,6.22-5,6.22a4.68,4.68,0,0,1-2.64-.77v6.19h-1.58V94.47c0-.86,0-1.9-0.19-4.25Zm5.26,9.5a5.32,5.32,0,0,0,1.22-3.79c0-2.5-1-4.49-2.9-4.49a4.79,4.79,0,0,0-3.12,1.51v6.86a5.2,5.2,0,0,0,2.57.67A3,3,0,0,0,653.28,99.54Z" transform="translate(-71.53 -54.51)"/><path d="M661.36,86.89V90.2h3.46v1.32h-3.46v6.26c0,1.9.31,2.4,1.42,2.4a7.59,7.59,0,0,0,1.85-.29l0.34,1.2a8.28,8.28,0,0,1-2.74.5c-1.73,0-2.42-.86-2.42-3.43V91.52h-1.7V90.2h1.61l0.38-3.31h1.27Z" transform="translate(-71.53 -54.51)"/><path d="M671.64,89.93c2.33,0,3.29,1.32,3.29,4.25v2.9c0,0.86,0,1.82.19,4.15l-1.32.19-0.31-1.56a6.18,6.18,0,0,1-4,1.73,2.59,2.59,0,0,1-2.83-2.76,3.11,3.11,0,0,1,1.44-2.64c1-.65,2.64-1,5.23-1.25V94.71c0-2.5-.53-3.38-2-3.38a6.65,6.65,0,0,0-3.65,1.42l-0.62-1A7.17,7.17,0,0,1,671.64,89.93Zm1.7,8.69V96.15c-2.62.24-3.74,0.55-4.34,1a1.83,1.83,0,0,0-.79,1.54,1.48,1.48,0,0,0,1.58,1.66A5.48,5.48,0,0,0,673.34,98.62Z" transform="translate(-71.53 -54.51)"/><path d="M680,90l0.36,2.16c0.79-1.44,1.82-2.26,3.12-2.26a3.05,3.05,0,0,1,1.51.41l-0.34,1.44a3.81,3.81,0,0,0-1.27-.19,3.41,3.41,0,0,0-2.93,2.18v7.56h-1.58V94.45c0-.84,0-1.87-0.22-4.22Z" transform="translate(-71.53 -54.51)"/><path d="M688.22,85.61a1,1,0,0,1,1.08,1.1,1.15,1.15,0,0,1-1.2,1.2,1,1,0,0,1-1.1-1.08A1.17,1.17,0,0,1,688.22,85.61Zm0.7,4.56v11.16h-1.56V90.22Z" transform="translate(-71.53 -54.51)"/><path d="M694.08,90l0.29,1.63a5.42,5.42,0,0,1,3.86-1.8,2.61,2.61,0,0,1,2.76,1.9,5.51,5.51,0,0,1,4-1.9c2.18,0,3,1.42,3,4v7.46h-1.58V94.45c0-2.23-.46-3.19-1.85-3.19a5.48,5.48,0,0,0-3.36,1.58c0,0.31,0,.65,0,1v7.46h-1.58V94.45c0-2.23-.46-3.19-1.82-3.19a5.43,5.43,0,0,0-3.34,1.54v8.54h-1.58V94.45c0-.84,0-1.82-0.19-4.22Z" transform="translate(-71.53 -54.51)"/><path d="M715.92,89.93c2.33,0,3.29,1.32,3.29,4.25v2.9c0,0.86,0,1.82.19,4.15l-1.32.19-0.31-1.56a6.18,6.18,0,0,1-4,1.73,2.59,2.59,0,0,1-2.83-2.76,3.11,3.11,0,0,1,1.44-2.64c1-.65,2.64-1,5.23-1.25V94.71c0-2.5-.53-3.38-2-3.38A6.65,6.65,0,0,0,712,92.74l-0.62-1A7.17,7.17,0,0,1,715.92,89.93Zm1.7,8.69V96.15c-2.62.24-3.74,0.55-4.34,1a1.83,1.83,0,0,0-.79,1.54,1.48,1.48,0,0,0,1.58,1.66A5.48,5.48,0,0,0,717.62,98.62Z" transform="translate(-71.53 -54.51)"/><path d="M726.45,89.93a5.26,5.26,0,0,1,3.31,1.15l-0.7,1a4.77,4.77,0,0,0-2.62-.84c-1.32,0-2.18.62-2.18,1.61,0,1.15,1.18,1.63,2.45,2.11,1.78,0.65,3.41,1.34,3.41,3.29s-1.68,3.31-4.1,3.31a6.22,6.22,0,0,1-3.84-1.32l0.7-1.08a5.35,5.35,0,0,0,3.1,1.06c1.44,0,2.52-.65,2.52-1.8s-1.42-1.73-2.88-2.33-2.93-1.34-3-3C722.63,91.11,724.39,89.93,726.45,89.93Z" transform="translate(-71.53 -54.51)"/><path d="M740.13,85.61a1,1,0,0,1,1.08,1.1,1.15,1.15,0,0,1-1.2,1.2,1,1,0,0,1-1.1-1.08A1.17,1.17,0,0,1,740.13,85.61Zm0.7,4.56v11.16h-1.56V90.22Z" transform="translate(-71.53 -54.51)"/><path d="M746,90l0.36,2.16c0.79-1.44,1.82-2.26,3.12-2.26a3.05,3.05,0,0,1,1.51.41l-0.34,1.44a3.81,3.81,0,0,0-1.27-.19,3.41,3.41,0,0,0-2.93,2.18v7.56h-1.58V94.45c0-.84,0-1.87-0.22-4.22Z" transform="translate(-71.53 -54.51)"/><path d="M760.82,86.89V90.2h3.46v1.32h-3.46v6.26c0,1.9.31,2.4,1.42,2.4a7.59,7.59,0,0,0,1.85-.29l0.34,1.2a8.28,8.28,0,0,1-2.74.5c-1.73,0-2.42-.86-2.42-3.43V91.52h-1.7V90.2h1.61l0.38-3.31h1.27Z" transform="translate(-71.53 -54.51)"/><path d="M775.53,90.2a2.44,2.44,0,0,1-.19,1l-3.86,10.15-1.66,0-3.74-10.2a2.63,2.63,0,0,1-.19-1h1.56L770,97.54c0.22,0.62.43,1.3,0.6,2h0.1L774,90.2h1.51Z" transform="translate(-71.53 -54.51)"/><path d="M779.18,85.61a1,1,0,0,1,1.08,1.1,1.15,1.15,0,0,1-1.2,1.2,1,1,0,0,1-1.1-1.08A1.17,1.17,0,0,1,779.18,85.61Zm0.7,4.56v11.16h-1.56V90.22Z" transform="translate(-71.53 -54.51)"/><path d="M785,90l0.36,2.16c0.79-1.44,1.82-2.26,3.12-2.26a3.05,3.05,0,0,1,1.51.41l-0.34,1.44a3.81,3.81,0,0,0-1.27-.19,3.41,3.41,0,0,0-2.93,2.18v7.56h-1.58V94.45c0-.84,0-1.87-0.22-4.22Z" transform="translate(-71.53 -54.51)"/><path d="M794.44,86.89V90.2h3.46v1.32h-3.46v6.26c0,1.9.31,2.4,1.42,2.4a7.59,7.59,0,0,0,1.85-.29l0.34,1.2a8.28,8.28,0,0,1-2.74.5c-1.73,0-2.42-.86-2.42-3.43V91.52h-1.7V90.2h1.61l0.38-3.31h1.27Z" transform="translate(-71.53 -54.51)"/><path d="M801.52,85.61a1,1,0,0,1,1.08,1.1,1.15,1.15,0,0,1-1.2,1.2,1,1,0,0,1-1.1-1.08A1.17,1.17,0,0,1,801.52,85.61Zm0.7,4.56v11.16h-1.56V90.22Z" transform="translate(-71.53 -54.51)"/><path d="M807.35,90l0.29,1.58a5.89,5.89,0,0,1,4.06-1.75c2.45,0,3.24,1.44,3.24,3.89v7.58h-1.58v-7c0-2.09-.41-3.12-2-3.12a5.63,5.63,0,0,0-3.55,1.54v8.54h-1.58V94.45c0-.84,0-1.94-0.22-4.22Z" transform="translate(-71.53 -54.51)"/><path d="M819.67,85.61a1,1,0,0,1,1.08,1.1,1.15,1.15,0,0,1-1.2,1.2,1,1,0,0,1-1.1-1.08A1.17,1.17,0,0,1,819.67,85.61Zm0.7,4.56v11.16H818.8V90.22Z" transform="translate(-71.53 -54.51)"/><path d="M825.52,90l0.29,1.63a5.42,5.42,0,0,1,3.87-1.8,2.61,2.61,0,0,1,2.76,1.9,5.52,5.52,0,0,1,4-1.9c2.18,0,3,1.42,3,4v7.46h-1.58V94.45c0-2.23-.46-3.19-1.85-3.19a5.48,5.48,0,0,0-3.36,1.58c0,0.31,0,.65,0,1v7.46h-1.58V94.45c0-2.23-.46-3.19-1.82-3.19A5.43,5.43,0,0,0,826,92.79v8.54h-1.58V94.45c0-.84,0-1.82-0.19-4.22Z" transform="translate(-71.53 -54.51)"/><path d="M847.36,89.93c2.33,0,3.29,1.32,3.29,4.25v2.9c0,0.86,0,1.82.19,4.15l-1.32.19-0.31-1.56a6.18,6.18,0,0,1-4,1.73,2.59,2.59,0,0,1-2.83-2.76,3.11,3.11,0,0,1,1.44-2.64c1-.65,2.64-1,5.23-1.25V94.71c0-2.5-.53-3.38-2-3.38a6.64,6.64,0,0,0-3.65,1.42l-0.62-1A7.17,7.17,0,0,1,847.36,89.93Zm1.7,8.69V96.15c-2.62.24-3.74,0.55-4.34,1a1.84,1.84,0,0,0-.79,1.54,1.48,1.48,0,0,0,1.58,1.66A5.48,5.48,0,0,0,849.06,98.62Z" transform="translate(-71.53 -54.51)"/><path d="M857.9,89.93a5.26,5.26,0,0,1,3.31,1.15l-0.7,1a4.77,4.77,0,0,0-2.62-.84c-1.32,0-2.18.62-2.18,1.61,0,1.15,1.18,1.63,2.45,2.11,1.78,0.65,3.41,1.34,3.41,3.29s-1.68,3.31-4.1,3.31a6.22,6.22,0,0,1-3.84-1.32l0.7-1.08a5.35,5.35,0,0,0,3.1,1.06c1.44,0,2.52-.65,2.52-1.8s-1.42-1.73-2.88-2.33-2.93-1.34-3-3C854.08,91.11,855.83,89.93,857.9,89.93Z" transform="translate(-71.53 -54.51)"/><path d="M1104.71,85c3.26,0,5.4,1.2,5.4,3.91a4,4,0,0,1-2.42,3.84,3.81,3.81,0,0,1,3.34,4c0,2.86-2,4.82-6.1,4.82a29.7,29.7,0,0,1-4.1-.36V85.37A25.23,25.23,0,0,1,1104.71,85Zm2.38,6.74a2.73,2.73,0,0,0,1.32-2.5c0-2.11-1.49-2.83-3.74-2.83a15,15,0,0,0-2.23.19v5.59l2.42,0A4.28,4.28,0,0,0,1107.09,91.76Zm1,7.68a3.27,3.27,0,0,0,1.27-2.69c0-2-1.39-3.14-4.46-3.14-0.77,0-1.61,0-2.42,0V100c1,0.1,1.82.17,2.64,0.17A4.92,4.92,0,0,0,1108.05,99.44Z" transform="translate(-71.53 -54.51)"/><path d="M1118.37,89.93c2.33,0,3.29,1.32,3.29,4.25v2.9c0,0.86,0,1.82.19,4.15l-1.32.19-0.31-1.56a6.18,6.18,0,0,1-4,1.73,2.59,2.59,0,0,1-2.83-2.76,3.11,3.11,0,0,1,1.44-2.64c1-.65,2.64-1,5.23-1.25V94.71c0-2.5-.53-3.38-2-3.38a6.65,6.65,0,0,0-3.65,1.42l-0.62-1A7.17,7.17,0,0,1,1118.37,89.93Zm1.7,8.69V96.15c-2.62.24-3.74,0.55-4.34,1a1.83,1.83,0,0,0-.79,1.54,1.48,1.48,0,0,0,1.58,1.66A5.48,5.48,0,0,0,1120.07,98.62Z" transform="translate(-71.53 -54.51)"/><path d="M1127.11,83.31V99.13c0,0.77.22,1.08,0.72,1.08a2.84,2.84,0,0,0,.89-0.17l0.36,1.2a4.55,4.55,0,0,1-1.73.36c-1.15,0-1.8-.7-1.8-2V83.36Z" transform="translate(-71.53 -54.51)"/><path d="M1135.94,89.86a4.65,4.65,0,0,1,2.59.79v-7.3l1.58,0V97.4c0,0.77,0,1.68.19,3.84l-1.32.19-0.31-1.63a5,5,0,0,1-3.62,1.87c-2.45,0-4.18-2.4-4.18-5.57C1130.87,93.1,1132.41,89.86,1135.94,89.86Zm2.59,8.69V92a4.81,4.81,0,0,0-2.59-.72,3,3,0,0,0-2.21.77,5.22,5.22,0,0,0-1.22,3.77c0,2.57,1,4.51,2.81,4.51A5,5,0,0,0,1138.53,98.55Z" transform="translate(-71.53 -54.51)"/><path d="M1145.58,90.2v7c0,2.14.6,3.12,2,3.12,1.1,0,2.09-.55,3.34-1.73V90.2h1.56V97c0,1.06,0,2.57.22,4.75-1.68.79-2.52,1.66-2.52,2.5a1.12,1.12,0,0,0,1.3,1.15,4.08,4.08,0,0,0,1.54-.36l0.38,1.13a5.58,5.58,0,0,1-2.3.55,2.21,2.21,0,0,1-2.5-2.16c0-1.22,1.08-2.3,2.66-3.22l-0.24-1.51a5.2,5.2,0,0,1-3.79,1.82c-2.33,0-3.26-1.46-3.26-3.89V90.2h1.58Z" transform="translate(-71.53 -54.51)"/><path d="M1163.9,97.45a3.57,3.57,0,0,1-2.06-3.41,4,4,0,0,1,4.3-4.1,4.56,4.56,0,0,1,2.35.6,4.16,4.16,0,0,1,2.93-1.3l0.07,1.37a7.15,7.15,0,0,0-2.18.58,3.85,3.85,0,0,1,1,2.66,4,4,0,0,1-4.32,4,5,5,0,0,1-1.06-.1,2,2,0,0,0-.5,1.22c0,1,.94,1.13,2.45,1.15,2.66,0,4.44.84,4.44,3.1,0,2.64-2.45,4.18-5.45,4.18-2.69,0-4.63-1.25-4.61-3.38a4.07,4.07,0,0,1,2.09-3.41,1.64,1.64,0,0,1-.38-1.13A3,3,0,0,1,1163.9,97.45Zm5.09,7.8a2.32,2.32,0,0,0,.82-1.8c0-1.66-1.46-1.92-3.53-1.94a6.91,6.91,0,0,1-2-.24,3.12,3.12,0,0,0-1.58,2.59c0,1.51,1.32,2.26,3.36,2.26A4.49,4.49,0,0,0,1169,105.25Zm-3-14a2.49,2.49,0,0,0-2.69,2.66,2.71,2.71,0,0,0,5.42.1A2.5,2.5,0,0,0,1166,91.21Z" transform="translate(-71.53 -54.51)"/><path d="M1178.11,89.93c2.33,0,3.29,1.32,3.29,4.25v2.9c0,0.86,0,1.82.19,4.15l-1.32.19L1180,99.87a6.18,6.18,0,0,1-4,1.73,2.59,2.59,0,0,1-2.83-2.76,3.11,3.11,0,0,1,1.44-2.64c1-.65,2.64-1,5.23-1.25V94.71c0-2.5-.53-3.38-2-3.38a6.65,6.65,0,0,0-3.65,1.42l-0.62-1A7.17,7.17,0,0,1,1178.11,89.93Zm1.7,8.69V96.15c-2.62.24-3.74,0.55-4.34,1a1.83,1.83,0,0,0-.79,1.54,1.48,1.48,0,0,0,1.58,1.66A5.48,5.48,0,0,0,1179.81,98.62Z" transform="translate(-71.53 -54.51)"/><path d="M1186.48,90l0.29,1.63a5.42,5.42,0,0,1,3.86-1.8,2.61,2.61,0,0,1,2.76,1.9,5.51,5.51,0,0,1,4-1.9c2.18,0,3,1.42,3,4v7.46h-1.58V94.45c0-2.23-.46-3.19-1.85-3.19a5.48,5.48,0,0,0-3.36,1.58c0,0.31,0,.65,0,1v7.46h-1.58V94.45c0-2.23-.46-3.19-1.82-3.19a5.43,5.43,0,0,0-3.34,1.54v8.54h-1.58V94.45c0-.84,0-1.82-0.19-4.22Z" transform="translate(-71.53 -54.51)"/><path d="M1212.67,90.2a2.45,2.45,0,0,1-.22,1l-4.2,11.26c-1.42,3.48-2.9,4.85-4.68,4.85a7,7,0,0,1-.89-0.07v-1.27c2.06,0,3.26-1.42,4.56-4.58H1207l-3.74-10.18a2.63,2.63,0,0,1-.19-1h1.56l2.62,7.34c0.22,0.62.41,1.3,0.58,2h0.1l3.29-9.34h1.51Z" transform="translate(-71.53 -54.51)"/><path d="M1216.94,83.31v8.21a4.46,4.46,0,0,1,3.34-1.66c2.81,0,4.3,2.52,4.3,5.76,0,3-1.54,6-5.26,6a12.76,12.76,0,0,1-3.94-.62V83.36Zm4.7,16.23a4.77,4.77,0,0,0,1.3-3.77c0-2.71-1-4.54-2.88-4.54a4.71,4.71,0,0,0-3.12,1.63v7.06a9.86,9.86,0,0,0,2.5.31A3.19,3.19,0,0,0,1221.64,99.54Z" transform="translate(-71.53 -54.51)"/><path d="M1231.94,89.93c2.33,0,3.29,1.32,3.29,4.25v2.9c0,0.86,0,1.82.19,4.15l-1.32.19-0.31-1.56a6.18,6.18,0,0,1-4,1.73,2.59,2.59,0,0,1-2.83-2.76,3.11,3.11,0,0,1,1.44-2.64c1-.65,2.64-1,5.23-1.25V94.71c0-2.5-.53-3.38-2-3.38a6.64,6.64,0,0,0-3.65,1.42l-0.62-1A7.17,7.17,0,0,1,1231.94,89.93Zm1.7,8.69V96.15c-2.62.24-3.74,0.55-4.34,1a1.84,1.84,0,0,0-.79,1.54,1.48,1.48,0,0,0,1.58,1.66A5.48,5.48,0,0,0,1233.64,98.62Z" transform="translate(-71.53 -54.51)"/><path d="M1187.57,189.09c-0.21.52-.41,0.93-0.56,1.37-0.62,1.75-1.87,2.19-3.41,1.18-6-3.91-11.91-7.85-17.89-11.73-5.47-3.55-11-7-16.49-10.56-4.86-3.13-9.7-6.32-14.56-9.46-3.47-2.24-7-4.41-10.46-6.65-4.67-3-9.34-6-14-9.09-1.88-1.24-1.88-1.32-1.1-3.45,1.21-3.34,2.48-6.65,3.73-10a1.81,1.81,0,0,1,2.39-1.12c6.92,2.54,13.84,5.07,20.76,7.63,7.49,2.78,15,5.6,22.46,8.39q10.53,3.92,21.07,7.8l4.16,1.54a11.21,11.21,0,0,0,.58-1.25c0.55-1.65,1.36-2.12,3-1.52,5,1.83,9.91,3.7,14.87,5.53,3.84,1.42,7.69,2.8,11.52,4.22a2,2,0,0,1,1.52,2.51q-1.19,11.09-2.38,22.17c-0.31,2.89-.65,5.78-1,8.68a1.85,1.85,0,0,1-2.71,1.7c-4.54-1.63-9.06-3.32-13.59-5Zm-5.11-30.49-66.71-24.74c-0.8,2.18-1.51,4.34-2.39,6.43a1.26,1.26,0,0,0,.58,1.81c3.38,2.16,6.77,4.31,10.14,6.48,5.51,3.56,11,7.15,16.51,10.7,4.42,2.84,8.89,5.61,13.3,8.45,6.22,4,12.42,8.07,18.63,12.1,3.8,2.47,7.62,4.92,11.7,7.55a4.8,4.8,0,0,0-.14-1.25c-0.49-1.06-1.08-2.07-1.56-3.13-1.47-3.26-2.84-6.57-4.42-9.77a2.89,2.89,0,0,1-.16-2.53Zm25.75,34c0.3-2.79.56-5.37,0.85-7.94,0.67-6,1.34-12.06,2-18.09a1.51,1.51,0,0,0-1.25-1.94c-2.57-.82-5.07-1.85-7.61-2.8-4.67-1.73-9.34-3.45-14-5.2-0.62-.23-0.86-0.22-1.14.54-1.66,4.58-3.43,9.13-5.13,13.7a2,2,0,0,0-.06,1.33c1.67,3.77,3.36,7.53,5.15,11.25a3,3,0,0,0,1.71,2c5,1.74,9.92,3.66,14.88,5.5C1205.13,191.55,1206.63,192.05,1208.21,192.61Z" transform="translate(-71.53 -54.51)"/><path class="cls-1" d="M1182.46,158.6L1178,170.71a2.89,2.89,0,0,0,.16,2.53c1.58,3.2,2.94,6.51,4.42,9.77,0.48,1.06,1.07,2.08,1.56,3.13a4.8,4.8,0,0,1,.14,1.25c-4.08-2.63-7.9-5.09-11.7-7.55-6.21-4-12.41-8.09-18.63-12.1-4.42-2.85-8.88-5.61-13.3-8.45-5.52-3.55-11-7.14-16.51-10.7-3.37-2.18-6.76-4.32-10.14-6.48a1.26,1.26,0,0,1-.58-1.81c0.88-2.09,1.59-4.25,2.39-6.43Zm-61.13-16.43c1.24-.23,1.92-0.69,2.17-1.6a1.58,1.58,0,0,0-.79-2,22.53,22.53,0,0,0-2.59-1,1.51,1.51,0,0,0-1.95,1,2,2,0,0,0,.19,1.85A18.47,18.47,0,0,0,1121.32,142.17Z" transform="translate(-71.53 -54.51)"/><path class="cls-1" d="M1208.21,192.61c-1.58-.56-3.08-1.06-4.56-1.61-5-1.84-9.89-3.75-14.88-5.5a3,3,0,0,1-1.71-2c-1.79-3.72-3.48-7.48-5.15-11.25a2,2,0,0,1,.06-1.33c1.7-4.57,3.47-9.11,5.13-13.7,0.28-.77.52-0.77,1.14-0.54,4.66,1.74,9.33,3.46,14,5.2,2.53,0.94,5,2,7.61,2.8a1.51,1.51,0,0,1,1.25,1.94c-0.7,6-1.37,12.06-2,18.09C1208.77,187.25,1208.51,189.82,1208.21,192.61Zm-21-19.37c0.16,0.43.33,0.94,0.54,1.42,0.82,1.85,1.6,3.72,2.5,5.53,0.42,0.84.91,1.93,1.66,2.26,3,1.32,6.17,2.44,9.3,3.53a1.79,1.79,0,0,0,2.32-2.15c-0.09-.5-0.33-1-0.45-1.46a23.61,23.61,0,0,1-.93-4.17,12.8,12.8,0,0,1,2.84-8.61,2.63,2.63,0,0,0,.18-1.71c-0.16-1.28-1.36-1.34-2.26-1.68-3.17-1.22-6.35-2.42-9.54-3.58a1.91,1.91,0,0,0-2.7,1.32c-0.63,1.68-1.25,3.36-1.88,5Z" transform="translate(-71.53 -54.51)"/><path d="M1121.32,142.17a18.47,18.47,0,0,1-3-1.72,2,2,0,0,1-.19-1.85,1.51,1.51,0,0,1,1.95-1,22.53,22.53,0,0,1,2.59,1,1.58,1.58,0,0,1,.79,2C1123.25,141.48,1122.57,141.94,1121.32,142.17Z" transform="translate(-71.53 -54.51)"/><path d="M1187.25,173.24l1.58-4.26c0.62-1.68,1.25-3.36,1.88-5a1.91,1.91,0,0,1,2.7-1.32c3.19,1.16,6.37,2.36,9.54,3.58,0.9,0.34,2.09.4,2.26,1.68a2.63,2.63,0,0,1-.18,1.71,12.8,12.8,0,0,0-2.84,8.61,23.61,23.61,0,0,0,.93,4.17c0.12,0.49.36,1,.45,1.46a1.79,1.79,0,0,1-2.32,2.15c-3.13-1.09-6.26-2.21-9.3-3.53-0.74-.32-1.24-1.42-1.66-2.26-0.9-1.81-1.68-3.68-2.5-5.53C1187.58,174.18,1187.41,173.67,1187.25,173.24Zm11.42,7.7a18.72,18.72,0,0,1,1.86-11.56l-6.78-2.52c-0.75,2-1.5,4-2.21,6a1.15,1.15,0,0,0,.06.76c0.68,1.61,1.36,3.22,2.09,4.81a1.74,1.74,0,0,0,.74.87C1195.76,179.92,1197.14,180.38,1198.67,180.95Z" transform="translate(-71.53 -54.51)"/><path class="cls-1" d="M1198.67,180.95c-1.53-.56-2.91-1-4.25-1.59a1.74,1.74,0,0,1-.74-0.87c-0.73-1.59-1.41-3.2-2.09-4.81a1.15,1.15,0,0,1-.06-0.76c0.72-2,1.46-4,2.21-6l6.78,2.52A18.72,18.72,0,0,0,1198.67,180.95Z" transform="translate(-71.53 -54.51)"/><path id="Chevron_Right" data-name="Chevron Right" class="cls-2" d="M235.07,117.52l-8.89-8.89a1,1,0,1,0-1.41,1.41l8.19,8.18-8.18,8.18a1,1,0,0,0,1.41,1.41l8.89-8.89A1,1,0,0,0,235.07,117.52Z" transform="translate(-71.53 -54.51)"/><path id="Chevron_Right-2" data-name="Chevron Right" class="cls-2" d="M527.12,123.57l-8.89-8.89a1,1,0,0,0-1.41,1.41l8.19,8.18-8.18,8.18a1,1,0,1,0,1.41,1.41l8.89-8.89A1,1,0,0,0,527.12,123.57Z" transform="translate(-71.53 -54.51)"/><path id="Chevron_Right-3" data-name="Chevron Right" class="cls-2" d="M1001.06,123.57l-8.89-8.89a1,1,0,0,0-1.41,1.41l8.19,8.18-8.18,8.18a1,1,0,1,0,1.41,1.41l8.89-8.89A1,1,0,0,0,1001.06,123.57Z" transform="translate(-71.53 -54.51)"/><path id="Chevron_Right-4" data-name="Chevron Right" class="cls-2" d="M1351.17,123.57l-8.89-8.89a1,1,0,0,0-1.41,1.41l8.19,8.18-8.18,8.18a1,1,0,0,0,1.41,1.41l8.89-8.89A1,1,0,0,0,1351.17,123.57Z" transform="translate(-71.53 -54.51)"/><path class="cls-3" d="M378.51,141.47a3,3,0,1,0,4.23,0A3.21,3.21,0,0,0,378.51,141.47Zm10.83-2.11-8.19-8.19a6.15,6.15,0,0,0-8.45,0l-58.37,58.37a5.9,5.9,0,0,0,0,8.45l8.19,8.19a6.23,6.23,0,0,0,4.23,1.85,5.26,5.26,0,0,0,4.23-1.85l58.37-58.37A5.75,5.75,0,0,0,389.34,139.36Zm-2.91,5.81-58.11,58.11a2.07,2.07,0,0,1-2.91,0l-8.19-8.19a2.07,2.07,0,0,1,0-2.91l4.49-4.49,2.64,2.64a1.91,1.91,0,0,0,2.64,0,2.07,2.07,0,0,0,0-2.91l-2.64-2.64,7.66-7.66,2.64,2.64a1.91,1.91,0,0,0,2.64,0,2.07,2.07,0,0,0,0-2.91l-2.64-2.64,7.66-7.66L345,169.2a1.91,1.91,0,0,0,2.64,0,2.07,2.07,0,0,0,0-2.91L345,163.66l7.66-7.66,2.64,2.64a1.91,1.91,0,0,0,2.64,0,2.07,2.07,0,0,0,0-2.91l-2.64-2.64,7.66-7.66,2.64,2.64a1.91,1.91,0,0,0,2.64,0,2.07,2.07,0,0,0,0-2.91l-2.64-2.64,9.24-9.24a1.91,1.91,0,0,1,2.64,0l9,9a2,2,0,0,1,.53,1.32A1.94,1.94,0,0,1,386.44,145.17Z" transform="translate(-71.53 -54.51)"/><path d="M284.22,85.25l0,1.42h-7.32v5.74h6v1.42h-6v6.1h7.37l0,1.42h-9V85.25h9Z" transform="translate(-71.53 -54.51)"/><path d="M288.49,90l0.36,2.16c0.79-1.44,1.82-2.26,3.12-2.26a3,3,0,0,1,1.51.41l-0.34,1.44a3.81,3.81,0,0,0-1.27-.19,3.41,3.41,0,0,0-2.93,2.18v7.56h-1.58V94.45c0-.84,0-1.87-0.22-4.22Z" transform="translate(-71.53 -54.51)"/><path d="M299.75,89.86a4.65,4.65,0,0,1,2.59.79v-7.3l1.58,0V97.4c0,0.77,0,1.68.19,3.84l-1.32.19-0.31-1.63a5,5,0,0,1-3.62,1.87c-2.45,0-4.18-2.4-4.18-5.57C294.68,93.1,296.22,89.86,299.75,89.86Zm2.59,8.69V92a4.81,4.81,0,0,0-2.59-.72,3,3,0,0,0-2.21.77,5.22,5.22,0,0,0-1.22,3.77c0,2.57,1,4.51,2.81,4.51A5,5,0,0,0,302.34,98.55Z" transform="translate(-71.53 -54.51)"/><path d="M316.43,90.2a2.44,2.44,0,0,1-.19,1l-3.86,10.15-1.66,0L307,91.16a2.63,2.63,0,0,1-.19-1h1.56l2.59,7.34c0.22,0.62.43,1.3,0.6,2h0.1l3.29-9.34h1.51Z" transform="translate(-71.53 -54.51)"/><path d="M323.12,89.89c2.66,0,4,2,4,4.44a10.9,10.9,0,0,1-.17,1.78h-7.15c0.1,2.81,1.49,4.1,3.46,4.1a8.74,8.74,0,0,0,3.17-.62l0.43,1.13a9.17,9.17,0,0,1-3.89.89c-2.66,0-4.78-1.92-4.78-5.66C318.18,92.55,320.1,89.89,323.12,89.89Zm-3.29,5h5.64c0-.26,0-0.58,0-0.86,0-1.61-.86-2.83-2.5-2.83C321.18,91.23,320,92.62,319.83,94.93ZM323,85.61a1,1,0,0,1,1.08,1.1,1.15,1.15,0,0,1-1.2,1.2,1,1,0,0,1-1.1-1.08A1.17,1.17,0,0,1,323,85.61Z" transform="translate(-71.53 -54.51)"/><path d="M333.75,89.93a5.26,5.26,0,0,1,3.31,1.15l-0.7,1a4.77,4.77,0,0,0-2.62-.84c-1.32,0-2.18.62-2.18,1.61,0,1.15,1.18,1.63,2.45,2.11,1.78,0.65,3.41,1.34,3.41,3.29s-1.68,3.31-4.1,3.31a6.22,6.22,0,0,1-3.84-1.32l0.7-1.08a5.35,5.35,0,0,0,3.1,1.06c1.44,0,2.52-.65,2.52-1.8s-1.42-1.73-2.88-2.33-2.93-1.34-3-3C329.94,91.11,331.69,89.93,333.75,89.93Z" transform="translate(-71.53 -54.51)"/><path d="M347.74,90L348,91.66a5.42,5.42,0,0,1,3.86-1.8,2.61,2.61,0,0,1,2.76,1.9,5.51,5.51,0,0,1,4-1.9c2.18,0,3,1.42,3,4v7.46h-1.58V94.45c0-2.23-.46-3.19-1.85-3.19a5.48,5.48,0,0,0-3.36,1.58c0,0.31,0,.65,0,1v7.46h-1.58V94.45c0-2.23-.46-3.19-1.82-3.19a5.43,5.43,0,0,0-3.34,1.54v8.54h-1.58V94.45c0-.84,0-1.82-0.19-4.22Z" transform="translate(-71.53 -54.51)"/><path d="M369.58,89.93c2.33,0,3.29,1.32,3.29,4.25v2.9c0,0.86,0,1.82.19,4.15l-1.32.19-0.31-1.56a6.18,6.18,0,0,1-4,1.73,2.59,2.59,0,0,1-2.83-2.76,3.11,3.11,0,0,1,1.44-2.64c1-.65,2.64-1,5.23-1.25V94.71c0-2.5-.53-3.38-2-3.38a6.65,6.65,0,0,0-3.65,1.42l-0.62-1A7.17,7.17,0,0,1,369.58,89.93Zm1.7,8.69V96.15c-2.62.24-3.74,0.55-4.34,1a1.84,1.84,0,0,0-.79,1.54,1.48,1.48,0,0,0,1.58,1.66A5.48,5.48,0,0,0,371.29,98.62Z" transform="translate(-71.53 -54.51)"/><path d="M378.85,86.89V90.2h3.46v1.32h-3.46v6.26c0,1.9.31,2.4,1.42,2.4a7.58,7.58,0,0,0,1.85-.29l0.34,1.2a8.28,8.28,0,0,1-2.74.5c-1.73,0-2.42-.86-2.42-3.43V91.52h-1.7V90.2h1.61l0.38-3.31h1.27Z" transform="translate(-71.53 -54.51)"/><path d="M389.12,89.93c2.33,0,3.29,1.32,3.29,4.25v2.9c0,0.86,0,1.82.19,4.15l-1.32.19L391,99.87a6.18,6.18,0,0,1-4,1.73,2.59,2.59,0,0,1-2.83-2.76,3.11,3.11,0,0,1,1.44-2.64c1-.65,2.64-1,5.23-1.25V94.71c0-2.5-.53-3.38-2-3.38a6.65,6.65,0,0,0-3.65,1.42l-0.62-1A7.17,7.17,0,0,1,389.12,89.93Zm1.7,8.69V96.15c-2.62.24-3.74,0.55-4.34,1a1.84,1.84,0,0,0-.79,1.54,1.48,1.48,0,0,0,1.58,1.66A5.48,5.48,0,0,0,390.82,98.62Z" transform="translate(-71.53 -54.51)"/><path d="M404.62,90.2a2.44,2.44,0,0,1-.19,1l-3.86,10.15-1.66,0-3.74-10.2a2.63,2.63,0,0,1-.19-1h1.56l2.59,7.34c0.22,0.62.43,1.3,0.6,2h0.1l3.29-9.34h1.51Z" transform="translate(-71.53 -54.51)"/><path d="M408.27,85.61a1,1,0,0,1,1.08,1.1,1.15,1.15,0,0,1-1.2,1.2,1,1,0,0,1-1.1-1.08A1.17,1.17,0,0,1,408.27,85.61Zm0.7,4.56v11.16h-1.56V90.22Z" transform="translate(-71.53 -54.51)"/><path d="M414.13,90l0.29,1.63a5.42,5.42,0,0,1,3.86-1.8,2.61,2.61,0,0,1,2.76,1.9,5.51,5.51,0,0,1,4-1.9c2.18,0,3,1.42,3,4v7.46h-1.58V94.45c0-2.23-.46-3.19-1.85-3.19a5.48,5.48,0,0,0-3.36,1.58c0,0.31,0,.65,0,1v7.46h-1.58V94.45c0-2.23-.46-3.19-1.82-3.19a5.43,5.43,0,0,0-3.34,1.54v8.54H413V94.45c0-.84,0-1.82-0.19-4.22Z" transform="translate(-71.53 -54.51)"/><path d="M436,89.93c2.33,0,3.29,1.32,3.29,4.25v2.9c0,0.86,0,1.82.19,4.15l-1.32.19-0.31-1.56a6.18,6.18,0,0,1-4,1.73A2.59,2.59,0,0,1,431,98.84a3.11,3.11,0,0,1,1.44-2.64c1-.65,2.64-1,5.23-1.25V94.71c0-2.5-.53-3.38-2-3.38a6.65,6.65,0,0,0-3.65,1.42l-0.62-1A7.18,7.18,0,0,1,436,89.93Zm1.7,8.69V96.15c-2.62.24-3.74,0.55-4.34,1a1.84,1.84,0,0,0-.79,1.54,1.48,1.48,0,0,0,1.58,1.66A5.48,5.48,0,0,0,437.67,98.62Z" transform="translate(-71.53 -54.51)"/><path d="M446.5,89.93a5.26,5.26,0,0,1,3.31,1.15l-0.7,1a4.76,4.76,0,0,0-2.62-.84c-1.32,0-2.18.62-2.18,1.61,0,1.15,1.18,1.63,2.45,2.11,1.78,0.65,3.41,1.34,3.41,3.29s-1.68,3.31-4.1,3.31a6.23,6.23,0,0,1-3.84-1.32l0.7-1.08a5.35,5.35,0,0,0,3.1,1.06c1.44,0,2.52-.65,2.52-1.8s-1.42-1.73-2.88-2.33-2.93-1.34-3-3C442.69,91.11,444.44,89.93,446.5,89.93Z" transform="translate(-71.53 -54.51)"/><path d="M1457,129.48h42.47v27.32h51.74v66.93H1457V129.48Zm65.36,41.1h-22.78V197.9h22.78V170.58Zm3.07,27.33h22.8V170.59h-22.8V197.9Zm-65.47,22.83h88.25v-6h-88.25v6Zm36.51-88.22H1460v51.68h36.48V132.51Zm3.07,79.09h48.67V201h-48.67V211.6Zm-39.59-13.71h36.49V187.33h-36.49V197.9Zm0,3.11v10.61h36.47V201H1460Zm39.57-33.56h48.67v-7.53h-48.67v7.53Z" transform="translate(-71.53 -54.51)"/><path class="cls-1" d="M1522.35,170.58V197.9h-22.78V170.58h22.78Zm-6,15.1h2.92v-5.91h-2.92v5.91Z" transform="translate(-71.53 -54.51)"/><path class="cls-1" d="M1525.41,197.9V170.59h22.8V197.9h-22.8Zm6-12.2v-5.94h-2.87v5.94h2.87Z" transform="translate(-71.53 -54.51)"/><path class="cls-1" d="M1459.94,220.73v-6h88.25v6h-88.25Z" transform="translate(-71.53 -54.51)"/><path class="cls-1" d="M1496.46,132.51v51.68H1460V132.51h36.48Zm-3.09,3.1h-30.31v45.5h30.31v-45.5Z" transform="translate(-71.53 -54.51)"/><path class="cls-1" d="M1499.53,211.6V201h48.67V211.6h-48.67Zm19.85-3.1h9v-2.87h-9v2.87Z" transform="translate(-71.53 -54.51)"/><path class="cls-1" d="M1459.94,197.9V187.33h36.49V197.9h-36.49Zm22.77-5.95h-9v2.87h9v-2.87Z" transform="translate(-71.53 -54.51)"/><path class="cls-1" d="M1460,201h36.47v10.61H1460V201Zm22.72,7.54v-2.92h-8.95v2.92h8.95Z" transform="translate(-71.53 -54.51)"/><path class="cls-1" d="M1499.53,167.45v-7.53h48.67v7.53h-48.67Zm28.82-1.55V163h-9v2.9h9Z" transform="translate(-71.53 -54.51)"/><path d="M1516.32,185.68v-5.91h2.92v5.91h-2.92Z" transform="translate(-71.53 -54.51)"/><path d="M1531.39,185.7h-2.87v-5.94h2.87v5.94Z" transform="translate(-71.53 -54.51)"/><path d="M1493.37,135.61v45.5h-30.31v-45.5h30.31Zm-3,3h-24.31v39.5h24.31V138.6Z" transform="translate(-71.53 -54.51)"/><path d="M1519.38,208.5v-2.87h9v2.87h-9Z" transform="translate(-71.53 -54.51)"/><path d="M1482.71,191.95v2.87h-9v-2.87h9Z" transform="translate(-71.53 -54.51)"/><path d="M1482.68,208.55h-8.95v-2.92h8.95v2.92Z" transform="translate(-71.53 -54.51)"/><path d="M1528.35,165.9h-9V163h9v2.9Z" transform="translate(-71.53 -54.51)"/><path class="cls-1" d="M1490.37,138.6v39.5h-24.31V138.6h24.31Z" transform="translate(-71.53 -54.51)"/><path d="M1413.23,85c3.26,0,5.4,1.2,5.4,3.91a4,4,0,0,1-2.42,3.84,3.81,3.81,0,0,1,3.34,4c0,2.86-2,4.82-6.1,4.82a29.73,29.73,0,0,1-4.1-.36V85.37A25.1,25.1,0,0,1,1413.23,85Zm2.38,6.74a2.73,2.73,0,0,0,1.32-2.5c0-2.11-1.49-2.83-3.75-2.83a15,15,0,0,0-2.23.19v5.59l2.42,0A4.28,4.28,0,0,0,1415.61,91.76Zm1,7.68a3.26,3.26,0,0,0,1.27-2.69c0-2-1.39-3.14-4.46-3.14-0.77,0-1.61,0-2.42,0V100c1,0.1,1.82.17,2.64,0.17A4.92,4.92,0,0,0,1416.57,99.44Z" transform="translate(-71.53 -54.51)"/><path d="M1426.89,89.93c2.33,0,3.29,1.32,3.29,4.25v2.9c0,0.86,0,1.82.19,4.15l-1.32.19-0.31-1.56a6.18,6.18,0,0,1-4,1.73,2.59,2.59,0,0,1-2.83-2.76,3.12,3.12,0,0,1,1.44-2.64c1-.65,2.64-1,5.23-1.25V94.71c0-2.5-.53-3.38-2-3.38a6.64,6.64,0,0,0-3.65,1.42l-0.62-1A7.17,7.17,0,0,1,1426.89,89.93Zm1.7,8.69V96.15c-2.62.24-3.74,0.55-4.34,1a1.84,1.84,0,0,0-.79,1.54,1.48,1.48,0,0,0,1.58,1.66A5.48,5.48,0,0,0,1428.59,98.62Z" transform="translate(-71.53 -54.51)"/><path d="M1435.62,83.31V99.13c0,0.77.22,1.08,0.72,1.08a2.82,2.82,0,0,0,.89-0.17l0.36,1.2a4.57,4.57,0,0,1-1.73.36c-1.15,0-1.8-.7-1.8-2V83.36Z" transform="translate(-71.53 -54.51)"/><path d="M1444.46,89.86a4.65,4.65,0,0,1,2.59.79v-7.3l1.58,0V97.4c0,0.77,0,1.68.19,3.84l-1.32.19-0.31-1.63a5,5,0,0,1-3.62,1.87c-2.45,0-4.18-2.4-4.18-5.57C1439.39,93.1,1440.93,89.86,1444.46,89.86Zm2.59,8.69V92a4.81,4.81,0,0,0-2.59-.72,3,3,0,0,0-2.21.77,5.22,5.22,0,0,0-1.22,3.77c0,2.57,1,4.51,2.81,4.51A5,5,0,0,0,1447,98.55Z" transform="translate(-71.53 -54.51)"/><path d="M1454.1,90.2v7c0,2.14.6,3.12,2,3.12,1.1,0,2.09-.55,3.34-1.73V90.2H1461V97c0,1.06,0,2.57.22,4.75-1.68.79-2.52,1.66-2.52,2.5a1.12,1.12,0,0,0,1.3,1.15,4.09,4.09,0,0,0,1.54-.36l0.38,1.13a5.58,5.58,0,0,1-2.3.55,2.21,2.21,0,0,1-2.5-2.16c0-1.22,1.08-2.3,2.67-3.22l-0.24-1.51a5.2,5.2,0,0,1-3.79,1.82c-2.33,0-3.26-1.46-3.26-3.89V90.2h1.58Z" transform="translate(-71.53 -54.51)"/><path d="M1472.2,90l0.29,1.63a5.42,5.42,0,0,1,3.86-1.8,2.61,2.61,0,0,1,2.76,1.9,5.51,5.51,0,0,1,4-1.9c2.18,0,3,1.42,3,4v7.46h-1.58V94.45c0-2.23-.46-3.19-1.85-3.19a5.49,5.49,0,0,0-3.36,1.58c0,0.31,0,.65,0,1v7.46h-1.58V94.45c0-2.23-.46-3.19-1.82-3.19a5.43,5.43,0,0,0-3.34,1.54v8.54H1471V94.45c0-.84,0-1.82-0.19-4.22Z" transform="translate(-71.53 -54.51)"/><path d="M1494.3,89.86c3,0,4.75,2.45,4.75,5.76,0,2.9-1.54,6-5,6-3,0-4.78-2.42-4.78-5.76C1489.31,93.05,1490.89,89.86,1494.3,89.86Zm-0.14,1.39a2.88,2.88,0,0,0-2.06.77,5.29,5.29,0,0,0-1.18,3.67c0,2.66,1.13,4.61,3.31,4.61a2.77,2.77,0,0,0,2.06-.82,5.19,5.19,0,0,0,1.15-3.65C1497.45,93.2,1496.32,91.25,1494.16,91.25Z" transform="translate(-71.53 -54.51)"/><path d="M1503.52,90l0.29,1.58a5.89,5.89,0,0,1,4.06-1.75c2.45,0,3.24,1.44,3.24,3.89v7.58h-1.58v-7c0-2.09-.41-3.12-2-3.12a5.63,5.63,0,0,0-3.55,1.54v8.54h-1.58V94.45c0-.84,0-1.94-0.22-4.22Z" transform="translate(-71.53 -54.51)"/><path d="M1517,86.89V90.2h3.46v1.32H1517v6.26c0,1.9.31,2.4,1.42,2.4a7.57,7.57,0,0,0,1.85-.29l0.34,1.2a8.29,8.29,0,0,1-2.74.5c-1.73,0-2.42-.86-2.42-3.43V91.52h-1.7V90.2h1.61l0.38-3.31H1517Z" transform="translate(-71.53 -54.51)"/><path d="M1527.3,89.93c2.33,0,3.29,1.32,3.29,4.25v2.9c0,0.86,0,1.82.19,4.15l-1.32.19-0.31-1.56a6.18,6.18,0,0,1-4,1.73,2.59,2.59,0,0,1-2.83-2.76,3.12,3.12,0,0,1,1.44-2.64c1-.65,2.64-1,5.23-1.25V94.71c0-2.5-.53-3.38-2-3.38a6.65,6.65,0,0,0-3.65,1.42l-0.62-1A7.17,7.17,0,0,1,1527.3,89.93Zm1.7,8.69V96.15c-2.62.24-3.74,0.55-4.34,1a1.83,1.83,0,0,0-.79,1.54,1.48,1.48,0,0,0,1.58,1.66A5.48,5.48,0,0,0,1529,98.62Z" transform="translate(-71.53 -54.51)"/><path d="M1542.81,90.2a2.45,2.45,0,0,1-.19,1l-3.86,10.15-1.66,0-3.74-10.2a2.63,2.63,0,0,1-.19-1h1.56l2.59,7.34c0.22,0.62.43,1.3,0.6,2h0.1l3.29-9.34h1.51Z" transform="translate(-71.53 -54.51)"/><path d="M1546.45,85.61a1,1,0,0,1,1.08,1.1,1.15,1.15,0,0,1-1.2,1.2,1,1,0,0,1-1.1-1.08A1.17,1.17,0,0,1,1546.45,85.61Zm0.7,4.56v11.16h-1.56V90.22Z" transform="translate(-71.53 -54.51)"/><path d="M1552.31,90l0.29,1.63a5.41,5.41,0,0,1,3.86-1.8,2.61,2.61,0,0,1,2.76,1.9,5.52,5.52,0,0,1,4-1.9c2.18,0,3,1.42,3,4v7.46h-1.58V94.45c0-2.23-.46-3.19-1.85-3.19a5.49,5.49,0,0,0-3.36,1.58c0,0.31,0,.65,0,1v7.46h-1.58V94.45c0-2.23-.46-3.19-1.82-3.19a5.43,5.43,0,0,0-3.34,1.54v8.54h-1.58V94.45c0-.84,0-1.82-0.19-4.22Z" transform="translate(-71.53 -54.51)"/><path d="M1574.15,89.93c2.33,0,3.29,1.32,3.29,4.25v2.9c0,0.86,0,1.82.19,4.15l-1.32.19L1576,99.87a6.18,6.18,0,0,1-4,1.73,2.59,2.59,0,0,1-2.83-2.76,3.12,3.12,0,0,1,1.44-2.64c1-.65,2.64-1,5.23-1.25V94.71c0-2.5-.53-3.38-2-3.38a6.65,6.65,0,0,0-3.65,1.42l-0.62-1A7.17,7.17,0,0,1,1574.15,89.93Zm1.7,8.69V96.15c-2.62.24-3.74,0.55-4.34,1a1.83,1.83,0,0,0-.79,1.54,1.48,1.48,0,0,0,1.58,1.66A5.48,5.48,0,0,0,1575.85,98.62Z" transform="translate(-71.53 -54.51)"/><path d="M1584.68,89.93a5.26,5.26,0,0,1,3.31,1.15l-0.7,1a4.76,4.76,0,0,0-2.62-.84c-1.32,0-2.18.62-2.18,1.61,0,1.15,1.18,1.63,2.45,2.11,1.78,0.65,3.41,1.34,3.41,3.29s-1.68,3.31-4.1,3.31a6.23,6.23,0,0,1-3.84-1.32l0.7-1.08a5.35,5.35,0,0,0,3.1,1.06c1.44,0,2.52-.65,2.52-1.8s-1.42-1.73-2.88-2.33-2.93-1.34-3-3C1580.87,91.11,1582.62,89.93,1584.68,89.93Z" transform="translate(-71.53 -54.51)"/></svg>