<svg id="Layer_1" data-name="Layer 1" xmlns="http://www.w3.org/2000/svg" viewBox="0 0 1516.82 186.1"><defs><style>.cls-1{fill:#fff;}.cls-2{fill:#afbabd;}.cls-3{fill:#262324;}</style></defs><title>prototype</title><path d="M75.81,104.92a5.26,5.26,0,0,1,3.31,1.15l-0.7,1a4.77,4.77,0,0,0-2.62-.84c-1.32,0-2.18.62-2.18,1.61,0,1.15,1.18,1.63,2.45,2.11,1.78,0.65,3.41,1.34,3.41,3.29s-1.68,3.31-4.1,3.31a6.22,6.22,0,0,1-3.84-1.32l0.7-1.08a5.35,5.35,0,0,0,3.1,1.06c1.44,0,2.52-.65,2.52-1.8s-1.42-1.73-2.88-2.33-2.93-1.34-3-3C72,106.1,73.74,104.92,75.81,104.92Z" transform="translate(-71.53 -31.78)"/><path d="M84.11,105.16v7.06c0,2.11.6,3,2,3a5.17,5.17,0,0,0,3.34-1.7v-8.38H91V112c0,1.06,0,1.66.22,4.22l-1.32.19-0.31-1.61a5.43,5.43,0,0,1-3.86,1.85c-2.28,0-3.24-1.46-3.24-3.89v-7.56Z" transform="translate(-71.53 -31.78)"/><path d="M98.39,104.92a5.26,5.26,0,0,1,3.31,1.15l-0.7,1a4.77,4.77,0,0,0-2.62-.84c-1.32,0-2.18.62-2.18,1.61,0,1.15,1.18,1.63,2.45,2.11,1.78,0.65,3.41,1.34,3.41,3.29s-1.68,3.31-4.1,3.31a6.22,6.22,0,0,1-3.84-1.32l0.7-1.08a5.35,5.35,0,0,0,3.1,1.06c1.44,0,2.52-.65,2.52-1.8s-1.42-1.73-2.88-2.33-2.93-1.34-3-3C94.57,106.1,96.33,104.92,98.39,104.92Z" transform="translate(-71.53 -31.78)"/><path d="M106.09,100.6a1,1,0,0,1,1.08,1.1,1.15,1.15,0,0,1-1.2,1.2,1,1,0,0,1-1.1-1.08A1.17,1.17,0,0,1,106.09,100.6Zm0.7,4.56v11.16h-1.56V105.21Z" transform="translate(-71.53 -31.78)"/><path d="M112.84,101.87v3.31h3.46v1.32h-3.46v6.26c0,1.9.31,2.4,1.42,2.4a7.59,7.59,0,0,0,1.85-.29l0.34,1.2a8.28,8.28,0,0,1-2.74.5c-1.73,0-2.42-.86-2.42-3.43v-6.65h-1.7v-1.32h1.61l0.38-3.31h1.27Z" transform="translate(-71.53 -31.78)"/><path d="M119.92,100.6a1,1,0,0,1,1.08,1.1,1.15,1.15,0,0,1-1.2,1.2,1,1,0,0,1-1.1-1.08A1.17,1.17,0,0,1,119.92,100.6Zm0.7,4.56v11.16h-1.56V105.21Z" transform="translate(-71.53 -31.78)"/><path d="M133.26,105.19a2,2,0,0,1-.5.84L129,110.18l4.06,5.21a3,3,0,0,1,.55.94h-1.73l-3.89-5-1.8,1.92v3.12H124.6v-18l1.58,0v12.94l5.47-6h1.61Z" transform="translate(-71.53 -31.78)"/><path d="M137,100.6a1,1,0,0,1,1.08,1.1,1.15,1.15,0,0,1-1.2,1.2,1,1,0,0,1-1.1-1.08A1.17,1.17,0,0,1,137,100.6Zm0.7,4.56v11.16h-1.56V105.21Z" transform="translate(-71.53 -31.78)"/><path d="M142.88,105l0.29,1.63a5.42,5.42,0,0,1,3.86-1.8,2.61,2.61,0,0,1,2.76,1.9,5.51,5.51,0,0,1,4-1.9c2.18,0,3,1.42,3,4v7.46h-1.58v-6.89c0-2.23-.46-3.19-1.85-3.19a5.48,5.48,0,0,0-3.36,1.58c0,0.31,0,.65,0,1v7.46h-1.58v-6.89c0-2.23-.46-3.19-1.82-3.19a5.43,5.43,0,0,0-3.34,1.54v8.54h-1.58v-6.89c0-.84,0-1.82-0.19-4.22Z" transform="translate(-71.53 -31.78)"/><path d="M164.72,104.92c2.33,0,3.29,1.32,3.29,4.25v2.9c0,0.86,0,1.82.19,4.15l-1.32.19-0.31-1.56a6.18,6.18,0,0,1-4,1.73,2.59,2.59,0,0,1-2.83-2.76,3.11,3.11,0,0,1,1.44-2.64c1-.65,2.64-1,5.23-1.25V109.7c0-2.5-.53-3.38-2-3.38a6.65,6.65,0,0,0-3.65,1.42l-0.62-1A7.17,7.17,0,0,1,164.72,104.92Zm1.7,8.69v-2.47c-2.62.24-3.74,0.55-4.34,1a1.84,1.84,0,0,0-.79,1.54,1.48,1.48,0,0,0,1.58,1.66A5.48,5.48,0,0,0,166.43,113.61Z" transform="translate(-71.53 -31.78)"/><path d="M175.26,104.92a5.26,5.26,0,0,1,3.31,1.15l-0.7,1a4.77,4.77,0,0,0-2.62-.84c-1.32,0-2.18.62-2.18,1.61,0,1.15,1.18,1.63,2.45,2.11,1.78,0.65,3.41,1.34,3.41,3.29s-1.68,3.31-4.1,3.31a6.22,6.22,0,0,1-3.84-1.32l0.7-1.08a5.35,5.35,0,0,0,3.1,1.06c1.44,0,2.52-.65,2.52-1.8s-1.42-1.73-2.88-2.33-2.93-1.34-3-3C171.44,106.1,173.2,104.92,175.26,104.92Z" transform="translate(-71.53 -31.78)"/><path d="M75.81,133.72a5.26,5.26,0,0,1,3.31,1.15l-0.7,1a4.77,4.77,0,0,0-2.62-.84c-1.32,0-2.18.62-2.18,1.61,0,1.15,1.18,1.63,2.45,2.11,1.78,0.65,3.41,1.34,3.41,3.29s-1.68,3.31-4.1,3.31a6.22,6.22,0,0,1-3.84-1.32l0.7-1.08a5.35,5.35,0,0,0,3.1,1.06c1.44,0,2.52-.65,2.52-1.8s-1.42-1.73-2.88-2.33-2.93-1.34-3-3C72,134.9,73.74,133.72,75.81,133.72Z" transform="translate(-71.53 -31.78)"/><path d="M84.11,134V141c0,2.11.6,3,2,3a5.17,5.17,0,0,0,3.34-1.7V134H91v6.82c0,1.06,0,1.66.22,4.22l-1.32.19-0.31-1.61a5.43,5.43,0,0,1-3.86,1.85c-2.28,0-3.24-1.46-3.24-3.89V134Z" transform="translate(-71.53 -31.78)"/><path d="M102.49,134V141c0,2.11.6,3,2,3a5.17,5.17,0,0,0,3.34-1.7V134h1.56v6.82c0,1.06,0,1.66.22,4.22l-1.32.19L108,143.61a5.43,5.43,0,0,1-3.86,1.85c-2.28,0-3.24-1.46-3.24-3.89V134Z" transform="translate(-71.53 -31.78)"/><path d="M120.83,134l0.26,1.2-6.7,8.64H121l0,1.3h-8.33l-0.19-1.2,6.65-8.64h-6.26l0-1.3h8Zm-7.25-5.26,0.86-.77,2.54,2.76,2.59-2.76,0.82,0.77-2.83,3.36-1.18.1Z" transform="translate(-71.53 -31.78)"/><path d="M127.57,133.72a5.26,5.26,0,0,1,3.31,1.15l-0.7,1a4.77,4.77,0,0,0-2.62-.84c-1.32,0-2.18.62-2.18,1.61,0,1.15,1.18,1.63,2.45,2.11,1.78,0.65,3.41,1.34,3.41,3.29s-1.68,3.31-4.1,3.31a6.22,6.22,0,0,1-3.84-1.32L124,143a5.35,5.35,0,0,0,3.1,1.06c1.44,0,2.52-.65,2.52-1.8s-1.42-1.73-2.88-2.33-2.93-1.34-3-3C123.76,134.9,125.51,133.72,127.57,133.72Z" transform="translate(-71.53 -31.78)"/><path d="M138.47,133.72c2.33,0,3.29,1.32,3.29,4.25v2.9c0,0.86,0,1.82.19,4.15l-1.32.19-0.31-1.56a6.18,6.18,0,0,1-4,1.73,2.59,2.59,0,0,1-2.83-2.76,3.11,3.11,0,0,1,1.44-2.64c1-.65,2.64-1,5.23-1.25V138.5c0-2.5-.53-3.38-2-3.38a6.65,6.65,0,0,0-3.65,1.42l-0.62-1A7.17,7.17,0,0,1,138.47,133.72Zm1.7,8.69v-2.47c-2.62.24-3.74,0.55-4.34,1a1.84,1.84,0,0,0-.79,1.54,1.48,1.48,0,0,0,1.58,1.66A5.48,5.48,0,0,0,140.17,142.41Z" transform="translate(-71.53 -31.78)"/><path d="M154.33,134a2,2,0,0,1-.5.84L150.06,139l4.06,5.21a3,3,0,0,1,.55.94h-1.73l-3.89-5-1.8,1.92v3.12h-1.58v-18l1.58,0V140l5.47-6h1.61Z" transform="translate(-71.53 -31.78)"/><path d="M161,133.65c3,0,4.75,2.45,4.75,5.76,0,2.9-1.54,6-5,6-3,0-4.78-2.42-4.78-5.76C156,136.84,157.62,133.65,161,133.65ZM160.88,135a2.89,2.89,0,0,0-2.06.77,5.29,5.29,0,0,0-1.18,3.67c0,2.66,1.13,4.61,3.31,4.61a2.77,2.77,0,0,0,2.06-.82,5.19,5.19,0,0,0,1.15-3.65C164.17,137,163,135,160.88,135Z" transform="translate(-71.53 -31.78)"/><path d="M177.25,134a2.45,2.45,0,0,1-.19,1L173.2,145.1l-1.66,0-3.74-10.2a2.63,2.63,0,0,1-.19-1h1.56l2.59,7.34c0.22,0.62.43,1.3,0.6,2h0.1l3.29-9.34h1.51Z" transform="translate(-71.53 -31.78)"/><path d="M181.5,134V141c0,2.11.6,3,2,3a5.17,5.17,0,0,0,3.34-1.7V134h1.56v6.82c0,1.06,0,1.66.22,4.22l-1.32.19L187,143.61a5.43,5.43,0,0,1-3.86,1.85c-2.28,0-3.24-1.46-3.24-3.89V134Z" transform="translate(-71.53 -31.78)"/><path d="M626.18,149.52q-16.31,0-32.62,0a9,9,0,0,1-9.3-8.75c-0.19-5-.11-10-0.11-15q0-19.4,0-38.8a9.42,9.42,0,0,1,6.28-9.14A9,9,0,0,1,601.5,83a1.55,1.55,0,0,0,1.75,1.12q28.13,0,56.27,0c1.75,0,2.18.43,2.18,2.14q0,30.5,0,61c0,1.91-.34,2.27-2.22,2.27h-33.3ZM602.24,87.09c0,0.43,0,.75,0,1.07q0,25.67,0,51.33c0,1.18-.46,1.82-1.34,1.89s-1.45-.49-1.59-1.65a6,6,0,0,0-8-5.19c-3,.89-4.63,3.66-4.1,7.14,0.45,3,2.83,4.92,6.17,4.93h64.36c0.34,0,.67,0,1,0V87.09H602.24Zm-2.91,46.68v-1.28q0-15.48,0-31c0-5,0-10.1,0-15.15a5.92,5.92,0,0,0-6.12-6.18c-3.61,0-6,2.47-6,6.18q0,23.16,0,46.31c0,0.3,0,.6.06,1C591.3,130.56,595.28,130.6,599.34,133.77Z" transform="translate(-71.53 -31.78)"/><path d="M623,152.82h19.86q8.58,0,17.16.06c1.26,0,1.72.49,1.73,1.78q0,6.95,0,13.89c0,1.28-.53,1.78-1.84,1.78H586.18c-1.41,0-1.9-.49-1.9-1.92q0-6.75,0-13.51c0-1.58.42-2,2-2H601l19.08-.06H623Zm15.63,3c0,0.31-.06.56-0.06,0.81,0,1.58,0,3.15,0,4.73a1.4,1.4,0,0,1-1.41,1.51,1.46,1.46,0,0,1-1.48-1.47c0-.35,0-0.71,0-1.06q0-2.25,0-4.5h-2.74c0,0.84,0,1.61,0,2.38a1.5,1.5,0,0,1-1.5,1.74,1.44,1.44,0,0,1-1.4-1.71c0-.79,0-1.59,0-2.42h-2.78c0,0.83,0,1.59,0,2.36,0,1.16-.53,1.77-1.46,1.76s-1.44-.64-1.46-1.77c0-.79,0-1.57,0-2.36h-2.76c0,0.4,0,.74,0,1.09,0,1.51,0,3,0,4.54a1.33,1.33,0,0,1-1.12,1.38,1.3,1.3,0,0,1-1.59-.76,2.85,2.85,0,0,1-.18-1.12c0-1.7,0-3.39,0-5.1h-2.9c0,0.84,0,1.61,0,2.38a1.47,1.47,0,1,1-2.9,0c0-.8,0-1.59,0-2.42H610.1c0,0.89,0,1.72,0,2.55a1.45,1.45,0,0,1-1.46,1.58,1.41,1.41,0,0,1-1.44-1.58c0-.83,0-1.66,0-2.55H604.4c0,0.39,0,.73,0,1.07,0,1.51,0,3,0,4.54a1.38,1.38,0,0,1-1.38,1.43,1.45,1.45,0,0,1-1.49-1.35,9.31,9.31,0,0,1,0-1.06c0-1.53,0-3.07,0-4.61h-2.91c0,0.88,0,1.68,0,2.48a1.43,1.43,0,0,1-1.39,1.62,1.46,1.46,0,0,1-1.5-1.62c0-.83,0-1.65,0-2.49h-2.74c0,0.9,0,1.73,0,2.56a1.45,1.45,0,0,1-1.48,1.56,1.42,1.42,0,0,1-1.42-1.59c0-.83,0-1.65,0-2.54h-2.8v11.5h71.52V155.84h-3c0,0.39,0,.74,0,1.08,0,1.51.07,3,0,4.53a1.83,1.83,0,0,1-.91,1.29,1.74,1.74,0,0,1-1.47-.29,1.83,1.83,0,0,1-.47-1.28c-0.05-1.76,0-3.52,0-5.32h-2.74c0,0.89,0,1.72,0,2.55A1.45,1.45,0,0,1,648.6,160a1.41,1.41,0,0,1-1.43-1.58c0-.83,0-1.66,0-2.52h-2.79c0,0.86,0,1.62,0,2.39A1.45,1.45,0,0,1,643,160a1.5,1.5,0,0,1-1.49-1.74c0-.79,0-1.58,0-2.39h-2.84Z" transform="translate(-71.53 -31.78)"/><path d="M568.65,121.11q0-18.77,0-37.53a6.34,6.34,0,0,1,4.59-6.09c3.59-1,7.34,2.13,7.35,6.13,0,7.36,0,14.73,0,22.09q0,26.39,0,52.77a5.09,5.09,0,0,1-.44,2c-1.29,2.87-2.66,5.7-4,8.55a1.68,1.68,0,0,1-1.54,1.25,1.7,1.7,0,0,1-1.51-1.28c-1.35-2.91-2.74-5.81-4.07-8.73a4.14,4.14,0,0,1-.35-1.66Q568.64,139.88,568.65,121.11Zm3-33.31V157h6V87.8h-6Zm6.05-3c0-1.64.1-3.21-1.42-4.14a3.05,3.05,0,0,0-3.46.1c-1.46,1-1.25,2.52-1.2,4h6.08ZM572.08,160l2.54,5.4,2.54-5.4h-5.08Z" transform="translate(-71.53 -31.78)"/><path class="cls-1" d="M572.08,160h5.08l-2.54,5.4Z" transform="translate(-71.53 -31.78)"/><path d="M629.78,91.55h21.33c1.78,0,2.14.38,2.13,2.14,0,4.21,0,8.43,0,12.64,0,1.64-.41,2.05-2,2.05H608.74c-0.29,0-.58,0-0.87,0a1.43,1.43,0,0,1-1.56-1.56q0-6.85,0-13.7c0-1.1.59-1.56,1.85-1.56h21.62Zm-20.55,13.87h41V94.54h-41v10.88Z" transform="translate(-71.53 -31.78)"/><path d="M644.14,125.85c-2.44,0-4.88,0-7.33,0a1.49,1.49,0,0,1-1.72-1.6,1.47,1.47,0,0,1,1.63-1.31c5,0,10,0,14.94,0a1.45,1.45,0,1,1,0,2.9C649.15,125.86,646.64,125.85,644.14,125.85Z" transform="translate(-71.53 -31.78)"/><path d="M615.32,125.85c-2.44,0-4.88,0-7.32,0a2.2,2.2,0,0,1-1.48-.81,1.51,1.51,0,0,1,.08-1.39,1.78,1.78,0,0,1,1.28-.65c4.95,0,9.89,0,14.84,0a1.45,1.45,0,1,1,0,2.9C620.27,125.87,617.79,125.85,615.32,125.85Z" transform="translate(-71.53 -31.78)"/><path d="M644.11,142.14c-2.44,0-4.89,0-7.33,0a2.2,2.2,0,0,1-1.48-.81,1.51,1.51,0,0,1,.07-1.39,1.77,1.77,0,0,1,1.28-.64c5,0,10,0,14.95,0a1.46,1.46,0,1,1,0,2.9c-2.51,0-5,0-7.52,0h0Z" transform="translate(-71.53 -31.78)"/><path d="M644.15,117.84h-7.23c-1.14,0-1.8-.52-1.83-1.39s0.66-1.51,1.83-1.51h14.56c1.14,0,1.76.53,1.77,1.45s-0.62,1.44-1.76,1.45h-7.33Z" transform="translate(-71.53 -31.78)"/><path d="M644.23,131.09h7.23c1.16,0,1.77.5,1.77,1.43a1.48,1.48,0,0,1-1.76,1.47H636.92c-1.16,0-1.87-.6-1.84-1.51s0.69-1.4,1.83-1.4h7.33Z" transform="translate(-71.53 -31.78)"/><path d="M615.33,139.23h7.23c1.14,0,1.76.53,1.75,1.45a1.5,1.5,0,0,1-1.78,1.45H608.07a1.51,1.51,0,0,1-1.76-1.48c0-.88.67-1.42,1.8-1.42h7.23Z" transform="translate(-71.53 -31.78)"/><path d="M615.37,117.84H608a1.47,1.47,0,1,1,0-2.9h14.55a1.47,1.47,0,1,1,0,2.9h-7.23Z" transform="translate(-71.53 -31.78)"/><path d="M615.26,131.09h7.23c1.18,0,1.79.48,1.81,1.39S623.68,134,622.5,134H608.14c-1.17,0-1.86-.59-1.83-1.51s0.68-1.39,1.83-1.39h7.13Z" transform="translate(-71.53 -31.78)"/><path d="M701.32,105.65l0.29,1.56a4.86,4.86,0,0,1,3.53-1.73c2.59,0,4.3,2.42,4.3,5.59,0,3-1.58,6.22-5,6.22a4.68,4.68,0,0,1-2.64-.77v6.19h-1.58V110.09c0-.86,0-1.9-0.19-4.25Zm5.26,9.5a5.31,5.31,0,0,0,1.22-3.79c0-2.5-1-4.49-2.9-4.49a4.79,4.79,0,0,0-3.12,1.51v6.86a5.2,5.2,0,0,0,2.57.67A3,3,0,0,0,706.58,115.15Z" transform="translate(-71.53 -31.78)"/><path d="M713.9,105.65l0.36,2.16c0.79-1.44,1.82-2.26,3.12-2.26a3.05,3.05,0,0,1,1.51.41l-0.34,1.44a3.81,3.81,0,0,0-1.27-.19,3.41,3.41,0,0,0-2.93,2.18V117h-1.58v-6.89c0-.84,0-1.87-0.22-4.22Z" transform="translate(-71.53 -31.78)"/><path d="M725.08,105.48c3,0,4.75,2.45,4.75,5.76,0,2.9-1.54,6-5,6-3,0-4.78-2.42-4.78-5.76C720.09,108.67,721.67,105.48,725.08,105.48Zm-0.14,1.39a2.88,2.88,0,0,0-2.06.77,5.29,5.29,0,0,0-1.18,3.67c0,2.66,1.13,4.61,3.31,4.61a2.77,2.77,0,0,0,2.06-.82,5.19,5.19,0,0,0,1.15-3.65C728.23,108.82,727.1,106.87,724.94,106.87Z" transform="translate(-71.53 -31.78)"/><path d="M735.07,102.51v3.31h3.46v1.32h-3.46v6.26c0,1.9.31,2.4,1.42,2.4a7.58,7.58,0,0,0,1.85-.29l0.34,1.2a8.28,8.28,0,0,1-2.74.5c-1.73,0-2.42-.86-2.42-3.43v-6.65H731.8v-1.32h1.61l0.38-3.31h1.27Z" transform="translate(-71.53 -31.78)"/><path d="M745.6,105.48c3,0,4.75,2.45,4.75,5.76,0,2.9-1.54,6-5,6-3,0-4.78-2.42-4.78-5.76C740.61,108.67,742.19,105.48,745.6,105.48Zm-0.14,1.39a2.88,2.88,0,0,0-2.06.77,5.29,5.29,0,0,0-1.18,3.67c0,2.66,1.13,4.61,3.31,4.61a2.77,2.77,0,0,0,2.06-.82,5.19,5.19,0,0,0,1.15-3.65C748.75,108.82,747.62,106.87,745.46,106.87Z" transform="translate(-71.53 -31.78)"/><path d="M755.58,102.51v3.31H759v1.32h-3.46v6.26c0,1.9.31,2.4,1.42,2.4a7.58,7.58,0,0,0,1.85-.29l0.34,1.2a8.28,8.28,0,0,1-2.74.5c-1.73,0-2.42-.86-2.42-3.43v-6.65h-1.71v-1.32h1.61l0.38-3.31h1.27Z" transform="translate(-71.53 -31.78)"/><path d="M762.67,101.23a1,1,0,0,1,1.08,1.1,1.15,1.15,0,0,1-1.2,1.2,1,1,0,0,1-1.1-1.08A1.17,1.17,0,0,1,762.67,101.23Zm0.7,4.56V117H761.8V105.84Z" transform="translate(-71.53 -31.78)"/><path d="M768.5,105.65l0.29,1.56a4.86,4.86,0,0,1,3.53-1.73c2.59,0,4.3,2.42,4.3,5.59,0,3-1.58,6.22-5,6.22a4.68,4.68,0,0,1-2.64-.77v6.19h-1.58V110.09c0-.86,0-1.9-0.19-4.25Zm5.26,9.5a5.31,5.31,0,0,0,1.22-3.79c0-2.5-1-4.49-2.9-4.49a4.79,4.79,0,0,0-3.12,1.51v6.86a5.2,5.2,0,0,0,2.57.67A3,3,0,0,0,773.75,115.15Z" transform="translate(-71.53 -31.78)"/><path d="M781.38,105.82v7c0,2.14.6,3.12,2,3.12,1.1,0,2.09-.55,3.34-1.73v-8.35h1.56v6.82c0,1.06,0,2.57.22,4.75-1.68.79-2.52,1.66-2.52,2.5a1.12,1.12,0,0,0,1.3,1.15,4.08,4.08,0,0,0,1.54-.36l0.38,1.13a5.57,5.57,0,0,1-2.3.55,2.21,2.21,0,0,1-2.5-2.16c0-1.22,1.08-2.3,2.67-3.22l-0.24-1.51a5.2,5.2,0,0,1-3.79,1.82c-2.33,0-3.26-1.46-3.26-3.89v-7.58h1.58Z" transform="translate(-71.53 -31.78)"/><path d="M801.64,105.55a5.26,5.26,0,0,1,3.31,1.15l-0.7,1a4.77,4.77,0,0,0-2.62-.84c-1.32,0-2.19.62-2.19,1.61,0,1.15,1.18,1.63,2.45,2.11,1.78,0.65,3.41,1.34,3.41,3.29s-1.68,3.31-4.1,3.31a6.23,6.23,0,0,1-3.84-1.32l0.7-1.08a5.35,5.35,0,0,0,3.1,1.06c1.44,0,2.52-.65,2.52-1.8s-1.42-1.73-2.88-2.33-2.93-1.34-3-3C797.82,106.73,799.58,105.55,801.64,105.55Z" transform="translate(-71.53 -31.78)"/><path d="M809.94,105.79v7.06c0,2.11.6,3,2,3a5.17,5.17,0,0,0,3.34-1.7v-8.38h1.56v6.82c0,1.06,0,1.66.21,4.22l-1.32.19-0.31-1.61a5.43,5.43,0,0,1-3.86,1.85c-2.28,0-3.24-1.46-3.24-3.89v-7.56Z" transform="translate(-71.53 -31.78)"/><path d="M829.55,105.82a2,2,0,0,1-.5.84l-3.77,4.15,4.06,5.21a3,3,0,0,1,.55.94h-1.73l-3.89-5-1.8,1.92V117h-1.58V99l1.58,0v12.94l5.47-6h1.61Z" transform="translate(-71.53 -31.78)"/><path d="M833.92,105.79v7.06c0,2.11.6,3,2,3a5.17,5.17,0,0,0,3.34-1.7v-8.38h1.56v6.82c0,1.06,0,1.66.22,4.22l-1.32.19-0.31-1.61a5.43,5.43,0,0,1-3.86,1.85c-2.28,0-3.24-1.46-3.24-3.89v-7.56Z" transform="translate(-71.53 -31.78)"/><path d="M846,105.65l0.36,2.16c0.79-1.44,1.82-2.26,3.12-2.26A3.05,3.05,0,0,1,851,106l-0.34,1.44a3.81,3.81,0,0,0-1.27-.19,3.41,3.41,0,0,0-2.93,2.18V117h-1.58v-6.89c0-.84,0-1.87-0.21-4.22Z" transform="translate(-71.53 -31.78)"/><path d="M854.25,101.23a1,1,0,0,1,1.08,1.1,1.15,1.15,0,0,1-1.2,1.2,1,1,0,0,1-1.1-1.08A1.17,1.17,0,0,1,854.25,101.23Zm0.7,4.56V117h-1.56V105.84Z" transform="translate(-71.53 -31.78)"/><path d="M860.1,105.65l0.29,1.63a5.42,5.42,0,0,1,3.86-1.8,2.61,2.61,0,0,1,2.76,1.9,5.52,5.52,0,0,1,4-1.9c2.18,0,3,1.42,3,4V117h-1.58v-6.89c0-2.23-.46-3.19-1.85-3.19a5.48,5.48,0,0,0-3.36,1.58c0,0.31,0,.65,0,1V117H865.7v-6.89c0-2.23-.46-3.19-1.82-3.19a5.43,5.43,0,0,0-3.34,1.54V117H859v-6.89c0-.84,0-1.82-0.19-4.22Z" transform="translate(-71.53 -31.78)"/><path d="M881.94,105.55c2.33,0,3.29,1.32,3.29,4.25v2.9c0,0.86,0,1.82.19,4.15l-1.32.19-0.31-1.56a6.18,6.18,0,0,1-4,1.73,2.59,2.59,0,0,1-2.83-2.76,3.11,3.11,0,0,1,1.44-2.64c1-.65,2.64-1,5.23-1.25v-0.24c0-2.5-.53-3.38-2-3.38a6.64,6.64,0,0,0-3.65,1.42l-0.62-1A7.18,7.18,0,0,1,881.94,105.55Zm1.7,8.69v-2.47c-2.62.24-3.74,0.55-4.34,1a1.83,1.83,0,0,0-.79,1.54,1.48,1.48,0,0,0,1.58,1.66A5.48,5.48,0,0,0,883.65,114.24Z" transform="translate(-71.53 -31.78)"/><path d="M892.48,105.55a5.26,5.26,0,0,1,3.31,1.15l-0.7,1a4.77,4.77,0,0,0-2.62-.84c-1.32,0-2.18.62-2.18,1.61,0,1.15,1.18,1.63,2.45,2.11,1.78,0.65,3.41,1.34,3.41,3.29s-1.68,3.31-4.1,3.31a6.22,6.22,0,0,1-3.84-1.32l0.7-1.08a5.35,5.35,0,0,0,3.1,1.06c1.44,0,2.52-.65,2.52-1.8s-1.42-1.73-2.88-2.33-2.93-1.34-3-3C888.66,106.73,890.41,105.55,892.48,105.55Z" transform="translate(-71.53 -31.78)"/><path d="M900.76,113.59a7.83,7.83,0,0,1,.19,1.68,6.16,6.16,0,0,1-2.66,5.11l-0.7-.62a5.94,5.94,0,0,0,1.78-4.39,13.26,13.26,0,0,0-.12-1.66Z" transform="translate(-71.53 -31.78)"/><path d="M704.23,134.35c2.33,0,3.29,1.32,3.29,4.25v2.9c0,0.86,0,1.82.19,4.15l-1.32.19-0.31-1.56a6.18,6.18,0,0,1-4,1.73,2.59,2.59,0,0,1-2.83-2.76,3.11,3.11,0,0,1,1.44-2.64c1-.65,2.64-1,5.23-1.25v-0.24c0-2.5-.53-3.38-2-3.38a6.64,6.64,0,0,0-3.65,1.42l-0.62-1A7.18,7.18,0,0,1,704.23,134.35Zm1.7,8.69v-2.47c-2.62.24-3.74,0.55-4.34,1a1.83,1.83,0,0,0-.79,1.54,1.48,1.48,0,0,0,1.58,1.66A5.48,5.48,0,0,0,705.93,143Z" transform="translate(-71.53 -31.78)"/><path d="M712.58,134.45l0.29,1.56a4.86,4.86,0,0,1,3.53-1.73c2.59,0,4.3,2.42,4.3,5.59,0,3-1.58,6.22-5,6.22a4.68,4.68,0,0,1-2.64-.77v6.19h-1.58V138.89c0-.86,0-1.9-0.19-4.25Zm5.26,9.5a5.31,5.31,0,0,0,1.22-3.79c0-2.5-1-4.49-2.9-4.49a4.79,4.79,0,0,0-3.12,1.51v6.86a5.2,5.2,0,0,0,2.57.67A3,3,0,0,0,717.83,144Z" transform="translate(-71.53 -31.78)"/><path d="M725.92,131.31v3.31h3.46v1.32h-3.46v6.26c0,1.9.31,2.4,1.42,2.4a7.58,7.58,0,0,0,1.85-.29l0.34,1.2a8.28,8.28,0,0,1-2.74.5c-1.73,0-2.42-.86-2.42-3.43v-6.65h-1.7v-1.32h1.61l0.38-3.31h1.27Z" transform="translate(-71.53 -31.78)"/><path d="M736.19,134.35c2.33,0,3.29,1.32,3.29,4.25v2.9c0,0.86,0,1.82.19,4.15l-1.32.19L738,144.29a6.18,6.18,0,0,1-4,1.73,2.59,2.59,0,0,1-2.83-2.76,3.11,3.11,0,0,1,1.44-2.64c1-.65,2.64-1,5.23-1.25v-0.24c0-2.5-.53-3.38-2-3.38a6.65,6.65,0,0,0-3.65,1.42l-0.62-1A7.17,7.17,0,0,1,736.19,134.35Zm1.7,8.69v-2.47c-2.62.24-3.74,0.55-4.34,1a1.84,1.84,0,0,0-.79,1.54,1.48,1.48,0,0,0,1.58,1.66A5.48,5.48,0,0,0,737.9,143Z" transform="translate(-71.53 -31.78)"/><path d="M744.54,134.45l0.36,2.16c0.79-1.44,1.82-2.26,3.12-2.26a3,3,0,0,1,1.51.41l-0.34,1.44a3.8,3.8,0,0,0-1.27-.19,3.41,3.41,0,0,0-2.93,2.18v7.56h-1.58v-6.89c0-.84,0-1.87-0.22-4.22Z" transform="translate(-71.53 -31.78)"/><path d="M752.78,130a1,1,0,0,1,1.08,1.1,1.15,1.15,0,0,1-1.2,1.2,1,1,0,0,1-1.1-1.08A1.17,1.17,0,0,1,752.78,130Zm0.7,4.56v11.16h-1.56V134.64Z" transform="translate(-71.53 -31.78)"/><path d="M758.63,134.45l0.29,1.63a5.42,5.42,0,0,1,3.86-1.8,2.61,2.61,0,0,1,2.76,1.9,5.52,5.52,0,0,1,4-1.9c2.18,0,3,1.42,3,4v7.46H771v-6.89c0-2.23-.46-3.19-1.85-3.19a5.48,5.48,0,0,0-3.36,1.58c0,0.31,0,.65,0,1v7.46h-1.58v-6.89c0-2.23-.46-3.19-1.82-3.19a5.43,5.43,0,0,0-3.34,1.54v8.54h-1.58v-6.89c0-.84,0-1.82-0.19-4.22Z" transform="translate(-71.53 -31.78)"/><path d="M780.47,134.35c2.33,0,3.29,1.32,3.29,4.25v2.9c0,0.86,0,1.82.19,4.15l-1.32.19-0.31-1.56a6.18,6.18,0,0,1-4,1.73,2.59,2.59,0,0,1-2.83-2.76,3.11,3.11,0,0,1,1.44-2.64c1-.65,2.64-1,5.23-1.25v-0.24c0-2.5-.53-3.38-2-3.38a6.65,6.65,0,0,0-3.65,1.42l-0.62-1A7.17,7.17,0,0,1,780.47,134.35Zm1.7,8.69v-2.47c-2.62.24-3.74,0.55-4.34,1a1.84,1.84,0,0,0-.79,1.54,1.48,1.48,0,0,0,1.58,1.66A5.48,5.48,0,0,0,782.18,143Z" transform="translate(-71.53 -31.78)"/><path d="M791,134.35a5.26,5.26,0,0,1,3.31,1.15l-0.7,1a4.77,4.77,0,0,0-2.62-.84c-1.32,0-2.18.62-2.18,1.61,0,1.15,1.18,1.63,2.45,2.11,1.78,0.65,3.41,1.34,3.41,3.29S793,146,790.58,146a6.22,6.22,0,0,1-3.84-1.32l0.7-1.08a5.35,5.35,0,0,0,3.1,1.06c1.44,0,2.52-.65,2.52-1.8s-1.42-1.73-2.88-2.33-2.93-1.34-3-3C787.19,135.53,788.94,134.35,791,134.35Z" transform="translate(-71.53 -31.78)"/><path d="M804.69,130a1,1,0,0,1,1.08,1.1,1.15,1.15,0,0,1-1.2,1.2,1,1,0,0,1-1.1-1.08A1.17,1.17,0,0,1,804.69,130Zm0.7,4.56v11.16h-1.56V134.64Z" transform="translate(-71.53 -31.78)"/><path d="M810.52,134.45l0.36,2.16c0.79-1.44,1.82-2.26,3.12-2.26a3,3,0,0,1,1.51.41l-0.34,1.44a3.8,3.8,0,0,0-1.27-.19,3.41,3.41,0,0,0-2.93,2.18v7.56h-1.58v-6.89c0-.84,0-1.87-0.22-4.22Z" transform="translate(-71.53 -31.78)"/><path d="M825.38,131.31v3.31h3.46v1.32h-3.46v6.26c0,1.9.31,2.4,1.42,2.4a7.59,7.59,0,0,0,1.85-.29l0.34,1.2a8.28,8.28,0,0,1-2.74.5c-1.73,0-2.42-.86-2.42-3.43v-6.65h-1.7v-1.32h1.61l0.38-3.31h1.27Z" transform="translate(-71.53 -31.78)"/><path d="M840.09,134.62a2.46,2.46,0,0,1-.19,1L836,145.73l-1.66,0-3.74-10.2a2.65,2.65,0,0,1-.19-1H832l2.59,7.34c0.22,0.62.43,1.3,0.6,2h0.1l3.29-9.34h1.51Z" transform="translate(-71.53 -31.78)"/><path d="M843.74,130a1,1,0,0,1,1.08,1.1,1.15,1.15,0,0,1-1.2,1.2,1,1,0,0,1-1.1-1.08A1.17,1.17,0,0,1,843.74,130Zm0.7,4.56v11.16h-1.56V134.64Z" transform="translate(-71.53 -31.78)"/><path d="M849.57,134.45l0.36,2.16c0.79-1.44,1.82-2.26,3.12-2.26a3,3,0,0,1,1.51.41l-0.34,1.44A3.8,3.8,0,0,0,853,136a3.41,3.41,0,0,0-2.93,2.18v7.56h-1.58v-6.89c0-.84,0-1.87-0.22-4.22Z" transform="translate(-71.53 -31.78)"/><path d="M859,131.31v3.31h3.46v1.32H859v6.26c0,1.9.31,2.4,1.42,2.4a7.59,7.59,0,0,0,1.85-.29l0.34,1.2a8.28,8.28,0,0,1-2.74.5c-1.73,0-2.42-.86-2.42-3.43v-6.65h-1.7v-1.32h1.61l0.38-3.31H859Z" transform="translate(-71.53 -31.78)"/><path d="M866.08,130a1,1,0,0,1,1.08,1.1,1.15,1.15,0,0,1-1.2,1.2,1,1,0,0,1-1.1-1.08A1.17,1.17,0,0,1,866.08,130Zm0.7,4.56v11.16h-1.56V134.64Z" transform="translate(-71.53 -31.78)"/><path d="M871.91,134.45L872.2,136a5.89,5.89,0,0,1,4.06-1.75c2.45,0,3.24,1.44,3.24,3.89v7.58h-1.58v-7c0-2.09-.41-3.12-2-3.12a5.63,5.63,0,0,0-3.55,1.54v8.54h-1.58v-6.89c0-.84,0-1.94-0.21-4.22Z" transform="translate(-71.53 -31.78)"/><path d="M884.22,130a1,1,0,0,1,1.08,1.1,1.15,1.15,0,0,1-1.2,1.2,1,1,0,0,1-1.1-1.08A1.17,1.17,0,0,1,884.22,130Zm0.7,4.56v11.16h-1.56V134.64Z" transform="translate(-71.53 -31.78)"/><path d="M890.08,134.45l0.29,1.63a5.42,5.42,0,0,1,3.87-1.8,2.61,2.61,0,0,1,2.76,1.9,5.51,5.51,0,0,1,4-1.9c2.18,0,3,1.42,3,4v7.46h-1.58v-6.89c0-2.23-.46-3.19-1.85-3.19a5.48,5.48,0,0,0-3.36,1.58c0,0.31,0,.65,0,1v7.46h-1.58v-6.89c0-2.23-.46-3.19-1.82-3.19a5.43,5.43,0,0,0-3.34,1.54v8.54h-1.58v-6.89c0-.84,0-1.82-0.19-4.22Z" transform="translate(-71.53 -31.78)"/><path d="M911.92,134.35c2.33,0,3.29,1.32,3.29,4.25v2.9c0,0.86,0,1.82.19,4.15l-1.32.19-0.31-1.56a6.18,6.18,0,0,1-4,1.73,2.59,2.59,0,0,1-2.83-2.76,3.11,3.11,0,0,1,1.44-2.64c1-.65,2.64-1,5.23-1.25v-0.24c0-2.5-.53-3.38-2-3.38a6.64,6.64,0,0,0-3.65,1.42l-0.62-1A7.18,7.18,0,0,1,911.92,134.35Zm1.7,8.69v-2.47c-2.62.24-3.74,0.55-4.34,1a1.83,1.83,0,0,0-.79,1.54,1.48,1.48,0,0,0,1.58,1.66A5.48,5.48,0,0,0,913.62,143Z" transform="translate(-71.53 -31.78)"/><path d="M922.45,134.35a5.26,5.26,0,0,1,3.31,1.15l-0.7,1a4.77,4.77,0,0,0-2.62-.84c-1.32,0-2.18.62-2.18,1.61,0,1.15,1.18,1.63,2.45,2.11,1.78,0.65,3.41,1.34,3.41,3.29S924.45,146,922,146a6.22,6.22,0,0,1-3.84-1.32l0.7-1.08a5.35,5.35,0,0,0,3.1,1.06c1.44,0,2.52-.65,2.52-1.8s-1.42-1.73-2.88-2.33-2.93-1.34-3-3C918.64,135.53,920.39,134.35,922.45,134.35Z" transform="translate(-71.53 -31.78)"/><path d="M1102,57.77V66a4.46,4.46,0,0,1,3.34-1.66c2.81,0,4.3,2.52,4.3,5.76,0,3-1.54,6-5.26,6a12.76,12.76,0,0,1-3.94-.62V57.82Zm4.7,16.23a4.77,4.77,0,0,0,1.3-3.77c0-2.71-1-4.54-2.88-4.54a4.71,4.71,0,0,0-3.12,1.63v7.06a9.86,9.86,0,0,0,2.5.31A3.19,3.19,0,0,0,1106.71,74Z" transform="translate(-71.53 -31.78)"/><path d="M1117,64.4c2.33,0,3.29,1.32,3.29,4.25v2.9c0,0.86,0,1.82.19,4.15l-1.32.19-0.31-1.56a6.18,6.18,0,0,1-4,1.73A2.59,2.59,0,0,1,1112,73.3a3.11,3.11,0,0,1,1.44-2.64c1-.65,2.64-1,5.23-1.25V69.17c0-2.5-.53-3.38-2-3.38a6.64,6.64,0,0,0-3.65,1.42l-0.62-1A7.17,7.17,0,0,1,1117,64.4Zm1.7,8.69V70.61c-2.62.24-3.74,0.55-4.34,1a1.84,1.84,0,0,0-.79,1.54,1.48,1.48,0,0,0,1.58,1.66A5.48,5.48,0,0,0,1118.71,73.09Z" transform="translate(-71.53 -31.78)"/><path d="M1125.74,57.77V73.59c0,0.77.22,1.08,0.72,1.08a2.84,2.84,0,0,0,.89-0.17l0.36,1.2a4.55,4.55,0,0,1-1.73.36c-1.15,0-1.8-.7-1.8-2V57.82Z" transform="translate(-71.53 -31.78)"/><path d="M1134.57,64.33a4.65,4.65,0,0,1,2.59.79v-7.3l1.58,0V71.86c0,0.77,0,1.68.19,3.84l-1.32.19-0.31-1.63a5,5,0,0,1-3.62,1.87c-2.45,0-4.18-2.4-4.18-5.57C1129.51,67.57,1131,64.33,1134.57,64.33Zm2.59,8.69v-6.6a4.81,4.81,0,0,0-2.59-.72,3,3,0,0,0-2.21.77,5.22,5.22,0,0,0-1.22,3.77c0,2.57,1,4.51,2.81,4.51A5,5,0,0,0,1137.16,73Z" transform="translate(-71.53 -31.78)"/><path d="M1144.22,64.66v7c0,2.14.6,3.12,2,3.12,1.1,0,2.09-.55,3.34-1.73V64.66h1.56v6.82c0,1.06,0,2.57.22,4.75-1.68.79-2.52,1.66-2.52,2.5a1.12,1.12,0,0,0,1.3,1.15,4.08,4.08,0,0,0,1.54-.36l0.38,1.13a5.57,5.57,0,0,1-2.3.55,2.21,2.21,0,0,1-2.5-2.16c0-1.22,1.08-2.3,2.67-3.22l-0.24-1.51a5.2,5.2,0,0,1-3.79,1.82c-2.33,0-3.26-1.46-3.26-3.89V64.66h1.58Z" transform="translate(-71.53 -31.78)"/><path d="M1162.53,71.91a3.57,3.57,0,0,1-2.06-3.41,4,4,0,0,1,4.3-4.1,4.56,4.56,0,0,1,2.35.6,4.16,4.16,0,0,1,2.93-1.3l0.07,1.37a7.15,7.15,0,0,0-2.18.58,3.84,3.84,0,0,1,1,2.66,4,4,0,0,1-4.32,4,5,5,0,0,1-1.06-.1,2,2,0,0,0-.5,1.22c0,1,.94,1.13,2.45,1.15,2.67,0,4.44.84,4.44,3.1,0,2.64-2.45,4.18-5.45,4.18-2.69,0-4.63-1.25-4.61-3.38A4.07,4.07,0,0,1,1162,75.1a1.64,1.64,0,0,1-.38-1.13A3,3,0,0,1,1162.53,71.91Zm5.09,7.8a2.32,2.32,0,0,0,.82-1.8c0-1.66-1.46-1.92-3.53-1.94a6.91,6.91,0,0,1-2-.24,3.11,3.11,0,0,0-1.58,2.59c0,1.51,1.32,2.26,3.36,2.26A4.49,4.49,0,0,0,1167.62,79.71Zm-3-14a2.49,2.49,0,0,0-2.69,2.66,2.71,2.71,0,0,0,5.42.1A2.5,2.5,0,0,0,1164.67,65.67Z" transform="translate(-71.53 -31.78)"/><path d="M1176.74,64.4c2.33,0,3.29,1.32,3.29,4.25v2.9c0,0.86,0,1.82.19,4.15l-1.32.19-0.31-1.56a6.18,6.18,0,0,1-4,1.73,2.59,2.59,0,0,1-2.83-2.76,3.11,3.11,0,0,1,1.44-2.64c1-.65,2.64-1,5.23-1.25V69.17c0-2.5-.53-3.38-2-3.38a6.64,6.64,0,0,0-3.65,1.42l-0.62-1A7.17,7.17,0,0,1,1176.74,64.4Zm1.7,8.69V70.61c-2.62.24-3.74,0.55-4.34,1a1.84,1.84,0,0,0-.79,1.54,1.48,1.48,0,0,0,1.58,1.66A5.48,5.48,0,0,0,1178.44,73.09Z" transform="translate(-71.53 -31.78)"/><path d="M1185.11,64.49l0.29,1.63a5.42,5.42,0,0,1,3.87-1.8,2.61,2.61,0,0,1,2.76,1.9,5.52,5.52,0,0,1,4-1.9c2.18,0,3,1.42,3,4V75.8h-1.58V68.91c0-2.23-.46-3.19-1.85-3.19a5.48,5.48,0,0,0-3.36,1.58c0,0.31,0,.65,0,1V75.8h-1.58V68.91c0-2.23-.46-3.19-1.82-3.19a5.43,5.43,0,0,0-3.34,1.54V75.8H1184V68.91c0-.84,0-1.82-0.19-4.22Z" transform="translate(-71.53 -31.78)"/><path d="M1211.3,64.66a2.45,2.45,0,0,1-.22,1l-4.2,11.26c-1.42,3.48-2.9,4.85-4.68,4.85a6.93,6.93,0,0,1-.89-0.07V80.38c2.06,0,3.26-1.42,4.56-4.58h-0.29l-3.74-10.18a2.63,2.63,0,0,1-.19-1h1.56l2.62,7.34c0.22,0.62.41,1.3,0.58,2h0.1l3.29-9.34h1.51Z" transform="translate(-71.53 -31.78)"/><path d="M1215.57,57.77V66a4.46,4.46,0,0,1,3.34-1.66c2.81,0,4.3,2.52,4.3,5.76,0,3-1.54,6-5.26,6a12.75,12.75,0,0,1-3.94-.62V57.82Zm4.7,16.23a4.77,4.77,0,0,0,1.3-3.77c0-2.71-1-4.54-2.88-4.54a4.71,4.71,0,0,0-3.12,1.63v7.06a9.87,9.87,0,0,0,2.5.31A3.19,3.19,0,0,0,1220.27,74Z" transform="translate(-71.53 -31.78)"/><path d="M1230.57,64.4c2.33,0,3.29,1.32,3.29,4.25v2.9c0,0.86,0,1.82.19,4.15l-1.32.19-0.31-1.56a6.18,6.18,0,0,1-4,1.73,2.59,2.59,0,0,1-2.83-2.76,3.11,3.11,0,0,1,1.44-2.64c1-.65,2.64-1,5.23-1.25V69.17c0-2.5-.53-3.38-2-3.38a6.64,6.64,0,0,0-3.65,1.42l-0.62-1A7.17,7.17,0,0,1,1230.57,64.4Zm1.7,8.69V70.61c-2.62.24-3.74,0.55-4.34,1a1.84,1.84,0,0,0-.79,1.54,1.48,1.48,0,0,0,1.58,1.66A5.48,5.48,0,0,0,1232.27,73.09Z" transform="translate(-71.53 -31.78)"/><path d="M1206.07,179.6c-0.33.78-.62,1.42-0.86,2.07-0.95,2.66-2.84,3.33-5.17,1.8-9-5.93-18.07-11.91-27.15-17.8-8.31-5.39-16.69-10.65-25-16-7.38-4.76-14.71-9.59-22.09-14.35-5.27-3.4-10.6-6.69-15.87-10.09-7.09-4.57-14.16-9.14-21.19-13.8-2.85-1.89-2.85-2-1.68-5.24,1.84-5.06,3.76-10.1,5.67-15.13a2.75,2.75,0,0,1,3.63-1.7c10.5,3.86,21,7.69,31.49,11.58,11.37,4.22,22.71,8.5,34.07,12.73q16,5.94,32,11.84l6.31,2.33a17,17,0,0,0,.88-1.9c0.83-2.51,2.06-3.21,4.52-2.31,7.53,2.77,15,5.61,22.56,8.4,5.82,2.15,11.66,4.25,17.48,6.4,2,0.73,2.53,1.71,2.3,3.81q-1.8,16.82-3.62,33.64c-0.47,4.39-1,8.78-1.45,13.17-0.25,2.33-1.83,3.41-4.12,2.59-6.89-2.48-13.75-5-20.62-7.57Zm-7.75-46.26L1097.11,95.8c-1.21,3.31-2.29,6.58-3.63,9.75a1.91,1.91,0,0,0,.89,2.75c5.13,3.28,10.28,6.53,15.39,9.83,8.36,5.4,16.69,10.85,25.06,16.23,6.71,4.31,13.48,8.5,20.18,12.82,9.44,6.09,18.84,12.25,28.27,18.36C1189,169.29,1194.83,173,1201,177a7.28,7.28,0,0,0-.21-1.89c-0.74-1.61-1.63-3.14-2.36-4.76-2.24-4.94-4.3-10-6.7-14.82a4.39,4.39,0,0,1-.24-3.84C1193.74,145.7,1196,139.7,1198.32,133.34Zm39.07,51.6c0.45-4.24.86-8.14,1.29-12,1-9.15,2-18.31,3.09-27.45,0.19-1.61-.2-2.4-1.9-2.94-3.9-1.24-7.7-2.81-11.54-4.24-7.08-2.63-14.17-5.24-21.24-7.88-0.94-.35-1.31-0.34-1.73.82-2.52,7-5.2,13.85-7.78,20.78a3,3,0,0,0-.09,2c2.54,5.72,5.1,11.43,7.81,17.07,0.55,1.15.9,2.48,2.6,3.08,7.57,2.64,15.06,5.55,22.58,8.34C1232.72,183.32,1235,184.09,1237.38,184.94Z" transform="translate(-71.53 -31.78)"/><path class="cls-1" d="M1198.32,133.34c-2.36,6.36-4.58,12.37-6.81,18.37a4.39,4.39,0,0,0,.24,3.84c2.4,4.86,4.47,9.88,6.7,14.82,0.73,1.61,1.62,3.15,2.36,4.76A7.28,7.28,0,0,1,1201,177c-6.19-4-12-7.72-17.75-11.46-9.43-6.12-18.82-12.28-28.27-18.36-6.7-4.32-13.48-8.51-20.18-12.82-8.37-5.38-16.7-10.83-25.06-16.23-5.11-3.3-10.26-6.55-15.39-9.83a1.91,1.91,0,0,1-.89-2.75c1.34-3.17,2.42-6.45,3.63-9.75Zm-92.75-24.93c1.89-.35,2.92-1,3.3-2.42a2.39,2.39,0,0,0-1.2-3,34.18,34.18,0,0,0-3.93-1.51,2.29,2.29,0,0,0-3,1.51c-0.33.79-.25,2.36,0.29,2.8A28,28,0,0,0,1105.56,108.41Z" transform="translate(-71.53 -31.78)"/><path class="cls-1" d="M1237.38,184.94c-2.4-.85-4.67-1.62-6.91-2.45-7.52-2.79-15-5.7-22.58-8.34-1.7-.59-2-1.93-2.6-3.08-2.71-5.64-5.28-11.35-7.81-17.07a3,3,0,0,1,.09-2c2.58-6.93,5.27-13.83,7.78-20.78,0.42-1.16.79-1.17,1.73-.82,7.07,2.64,14.16,5.26,21.24,7.88,3.84,1.43,7.64,3,11.54,4.24,1.7,0.54,2.08,1.33,1.9,2.94-1.07,9.15-2.08,18.3-3.09,27.45C1238.24,176.8,1237.84,180.7,1237.38,184.94Zm-31.8-29.39c0.25,0.65.5,1.42,0.82,2.15,1.24,2.81,2.43,5.65,3.79,8.4,0.63,1.27,1.38,2.93,2.51,3.42,4.61,2,9.36,3.7,14.11,5.36a2.72,2.72,0,0,0,3.51-3.26c-0.14-.75-0.5-1.46-0.68-2.21a35.82,35.82,0,0,1-1.41-6.33,19.42,19.42,0,0,1,4.32-13.07,4,4,0,0,0,.27-2.6c-0.24-1.95-2.06-2-3.42-2.55-4.81-1.85-9.63-3.67-14.47-5.43-2-.71-3.35,0-4.1,2-1,2.54-1.9,5.09-2.85,7.64Z" transform="translate(-71.53 -31.78)"/><path d="M1105.56,108.41a28,28,0,0,1-4.5-2.6c-0.54-.44-0.62-2-0.29-2.8a2.29,2.29,0,0,1,3-1.51,34.18,34.18,0,0,1,3.93,1.51,2.39,2.39,0,0,1,1.2,3C1108.48,107.36,1107.45,108.05,1105.56,108.41Z" transform="translate(-71.53 -31.78)"/><path d="M1205.59,155.55l2.4-6.47c0.95-2.55,1.89-5.1,2.85-7.64,0.75-2,2.13-2.71,4.1-2,4.84,1.76,9.66,3.58,14.47,5.43,1.36,0.52,3.18.61,3.42,2.55a4,4,0,0,1-.27,2.6,19.42,19.42,0,0,0-4.32,13.07,35.82,35.82,0,0,0,1.41,6.33c0.18,0.75.54,1.46,0.68,2.21a2.72,2.72,0,0,1-3.51,3.26c-4.75-1.66-9.5-3.35-14.11-5.36-1.13-.49-1.88-2.15-2.51-3.42-1.37-2.75-2.55-5.59-3.79-8.4C1206.08,157,1205.83,156.2,1205.59,155.55Zm17.33,11.69a28.41,28.41,0,0,1,2.82-17.54l-10.29-3.82c-1.14,3.09-2.27,6.13-3.36,9.18a1.75,1.75,0,0,0,.09,1.15c1,2.45,2.07,4.89,3.17,7.3a2.63,2.63,0,0,0,1.13,1.32C1218.5,165.68,1220.59,166.38,1222.91,167.24Z" transform="translate(-71.53 -31.78)"/><path class="cls-1" d="M1222.91,167.24c-2.32-.85-4.41-1.56-6.45-2.41a2.63,2.63,0,0,1-1.13-1.32c-1.1-2.41-2.14-4.86-3.17-7.3a1.75,1.75,0,0,1-.09-1.15c1.09-3.05,2.22-6.08,3.36-9.18l10.29,3.82A28.41,28.41,0,0,0,1222.91,167.24Z" transform="translate(-71.53 -31.78)"/><path id="Chevron_Right" data-name="Chevron Right" class="cls-2" d="M235.07,117.52l-8.89-8.89a1,1,0,1,0-1.41,1.41l8.19,8.18-8.18,8.18a1,1,0,0,0,1.41,1.41l8.89-8.89A1,1,0,0,0,235.07,117.52Z" transform="translate(-71.53 -31.78)"/><path id="Chevron_Right-2" data-name="Chevron Right" class="cls-2" d="M527.12,123.57l-8.89-8.89a1,1,0,0,0-1.41,1.41l8.19,8.18-8.18,8.18a1,1,0,1,0,1.41,1.41l8.89-8.89A1,1,0,0,0,527.12,123.57Z" transform="translate(-71.53 -31.78)"/><path id="Chevron_Right-3" data-name="Chevron Right" class="cls-2" d="M1001.06,123.57l-8.89-8.89a1,1,0,0,0-1.41,1.41l8.19,8.18-8.18,8.18a1,1,0,1,0,1.41,1.41l8.89-8.89A1,1,0,0,0,1001.06,123.57Z" transform="translate(-71.53 -31.78)"/><path id="Chevron_Right-4" data-name="Chevron Right" class="cls-2" d="M1351.17,123.57l-8.89-8.89a1,1,0,0,0-1.41,1.41l8.19,8.18-8.18,8.18a1,1,0,0,0,1.41,1.41l8.89-8.89A1,1,0,0,0,1351.17,123.57Z" transform="translate(-71.53 -31.78)"/><path class="cls-3" d="M378.51,115a3,3,0,1,0,4.23,0A3.21,3.21,0,0,0,378.51,115Zm10.83-2.11-8.19-8.19a6.15,6.15,0,0,0-8.45,0l-58.37,58.37a5.9,5.9,0,0,0,0,8.45l8.19,8.19a6.23,6.23,0,0,0,4.23,1.85,5.26,5.26,0,0,0,4.23-1.85l58.37-58.37A5.75,5.75,0,0,0,389.34,112.93Zm-2.91,5.81-58.11,58.11a2.07,2.07,0,0,1-2.91,0l-8.19-8.19a2.07,2.07,0,0,1,0-2.91l4.49-4.49,2.64,2.64a1.91,1.91,0,0,0,2.64,0,2.07,2.07,0,0,0,0-2.91l-2.64-2.64L332,150.7l2.64,2.64a1.91,1.91,0,0,0,2.64,0,2.07,2.07,0,0,0,0-2.91l-2.64-2.64,7.66-7.66,2.64,2.64a1.91,1.91,0,0,0,2.64,0,2.07,2.07,0,0,0,0-2.91L345,137.23l7.66-7.66,2.64,2.64a1.91,1.91,0,0,0,2.64,0,2.07,2.07,0,0,0,0-2.91l-2.64-2.64,7.66-7.66,2.64,2.64a1.91,1.91,0,0,0,2.64,0,2.07,2.07,0,0,0,0-2.91l-2.64-2.64,9.24-9.24a1.91,1.91,0,0,1,2.64,0l9,9a2,2,0,0,1,.53,1.32A1.94,1.94,0,0,1,386.44,118.74Z" transform="translate(-71.53 -31.78)"/><path d="M279.18,74.63c2.66,0,4,2,4,4.44a10.9,10.9,0,0,1-.17,1.78h-7.15c0.1,2.81,1.49,4.1,3.46,4.1a8.74,8.74,0,0,0,3.17-.62l0.43,1.13a9.17,9.17,0,0,1-3.89.89c-2.66,0-4.78-1.92-4.78-5.66C274.23,77.29,276.15,74.63,279.18,74.63Zm-3.29,5h5.64c0-.26,0-0.58,0-0.86,0-1.61-.86-2.83-2.5-2.83C277.23,76,276.1,77.37,275.89,79.67Z" transform="translate(-71.53 -31.78)"/><path d="M287.62,74.77L288,76.93c0.79-1.44,1.82-2.26,3.12-2.26a3,3,0,0,1,1.51.41l-0.34,1.44a3.81,3.81,0,0,0-1.27-.19,3.41,3.41,0,0,0-2.93,2.18v7.56H286.5V79.19c0-.84,0-1.87-0.22-4.22Z" transform="translate(-71.53 -31.78)"/><path d="M298.88,74.61a4.65,4.65,0,0,1,2.59.79V68.1l1.58,0V82.14c0,0.77,0,1.68.19,3.84l-1.32.19-0.31-1.63A5,5,0,0,1,298,86.42c-2.45,0-4.18-2.4-4.18-5.57C293.82,77.85,295.35,74.61,298.88,74.61Zm2.59,8.69v-6.6a4.81,4.81,0,0,0-2.59-.72,3,3,0,0,0-2.21.77,5.22,5.22,0,0,0-1.22,3.77c0,2.57,1,4.51,2.81,4.51A5,5,0,0,0,301.47,83.29Z" transform="translate(-71.53 -31.78)"/><path d="M315.56,74.94a2.44,2.44,0,0,1-.19,1L311.5,86.06l-1.66,0L306.1,75.9a2.63,2.63,0,0,1-.19-1h1.56l2.59,7.34c0.22,0.62.43,1.3,0.6,2h0.1L314,74.94h1.51Z" transform="translate(-71.53 -31.78)"/><path d="M322.26,74.63c2.66,0,4,2,4,4.44a10.9,10.9,0,0,1-.17,1.78h-7.15c0.1,2.81,1.49,4.1,3.46,4.1a8.74,8.74,0,0,0,3.17-.62L326,85.46a9.17,9.17,0,0,1-3.89.89c-2.66,0-4.78-1.92-4.78-5.66C317.31,77.29,319.23,74.63,322.26,74.63Zm-3.29,5h5.64c0-.26,0-0.58,0-0.86,0-1.61-.86-2.83-2.5-2.83C320.31,76,319.18,77.37,319,79.67Zm3.12-9.31a1,1,0,0,1,1.08,1.1,1.15,1.15,0,0,1-1.2,1.2,1,1,0,0,1-1.1-1.08A1.17,1.17,0,0,1,322.09,70.36Z" transform="translate(-71.53 -31.78)"/><path d="M332.89,74.68a5.26,5.26,0,0,1,3.31,1.15l-0.7,1a4.77,4.77,0,0,0-2.62-.84c-1.32,0-2.18.62-2.18,1.61,0,1.15,1.18,1.63,2.45,2.11,1.78,0.65,3.41,1.34,3.41,3.29s-1.68,3.31-4.1,3.31A6.22,6.22,0,0,1,328.62,85l0.7-1.08a5.35,5.35,0,0,0,3.1,1.06c1.44,0,2.52-.65,2.52-1.8s-1.42-1.73-2.88-2.33-2.93-1.34-3-3C329.07,75.85,330.82,74.68,332.89,74.68Z" transform="translate(-71.53 -31.78)"/><path d="M346.88,74.77l0.29,1.63a5.42,5.42,0,0,1,3.86-1.8,2.61,2.61,0,0,1,2.76,1.9,5.51,5.51,0,0,1,4-1.9c2.18,0,3,1.42,3,4v7.46h-1.58V79.19c0-2.23-.46-3.19-1.85-3.19A5.48,5.48,0,0,0,354,77.58c0,0.31,0,.65,0,1v7.46h-1.58V79.19C352.5,77,352,76,350.65,76a5.43,5.43,0,0,0-3.34,1.54v8.54h-1.58V79.19c0-.84,0-1.82-0.19-4.22Z" transform="translate(-71.53 -31.78)"/><path d="M368.72,74.68C371,74.68,372,76,372,78.93v2.9c0,0.86,0,1.82.19,4.15l-1.32.19-0.31-1.56a6.18,6.18,0,0,1-4,1.73,2.59,2.59,0,0,1-2.83-2.76,3.11,3.11,0,0,1,1.44-2.64c1-.65,2.64-1,5.23-1.25V79.45c0-2.5-.53-3.38-2-3.38a6.65,6.65,0,0,0-3.65,1.42l-0.62-1A7.17,7.17,0,0,1,368.72,74.68Zm1.7,8.69V80.89c-2.62.24-3.74,0.55-4.34,1a1.84,1.84,0,0,0-.79,1.54A1.48,1.48,0,0,0,366.87,85,5.48,5.48,0,0,0,370.42,83.37Z" transform="translate(-71.53 -31.78)"/><path d="M378,71.63v3.31h3.46v1.32H378v6.26c0,1.9.31,2.4,1.42,2.4a7.58,7.58,0,0,0,1.85-.29l0.34,1.2a8.28,8.28,0,0,1-2.74.5c-1.73,0-2.42-.86-2.42-3.43V76.26h-1.7V74.94h1.61l0.38-3.31H378Z" transform="translate(-71.53 -31.78)"/><path d="M388.25,74.68c2.33,0,3.29,1.32,3.29,4.25v2.9c0,0.86,0,1.82.19,4.15l-1.32.19-0.31-1.56a6.18,6.18,0,0,1-4,1.73,2.59,2.59,0,0,1-2.83-2.76,3.11,3.11,0,0,1,1.44-2.64c1-.65,2.64-1,5.23-1.25V79.45c0-2.5-.53-3.38-2-3.38a6.65,6.65,0,0,0-3.65,1.42l-0.62-1A7.17,7.17,0,0,1,388.25,74.68Zm1.7,8.69V80.89c-2.62.24-3.74,0.55-4.34,1a1.84,1.84,0,0,0-.79,1.54A1.48,1.48,0,0,0,386.41,85,5.48,5.48,0,0,0,390,83.37Z" transform="translate(-71.53 -31.78)"/><path d="M403.76,74.94a2.44,2.44,0,0,1-.19,1L399.7,86.06l-1.66,0L394.3,75.9a2.63,2.63,0,0,1-.19-1h1.56l2.59,7.34c0.22,0.62.43,1.3,0.6,2H399l3.29-9.34h1.51Z" transform="translate(-71.53 -31.78)"/><path d="M407.41,70.36a1,1,0,0,1,1.08,1.1,1.15,1.15,0,0,1-1.2,1.2,1,1,0,0,1-1.1-1.08A1.17,1.17,0,0,1,407.41,70.36Zm0.7,4.56V86.08h-1.56V75Z" transform="translate(-71.53 -31.78)"/><path d="M413.26,74.77l0.29,1.63a5.42,5.42,0,0,1,3.86-1.8,2.61,2.61,0,0,1,2.76,1.9,5.51,5.51,0,0,1,4-1.9c2.18,0,3,1.42,3,4v7.46H425.6V79.19c0-2.23-.46-3.19-1.85-3.19a5.48,5.48,0,0,0-3.36,1.58c0,0.31,0,.65,0,1v7.46h-1.58V79.19C418.88,77,418.4,76,417,76a5.43,5.43,0,0,0-3.34,1.54v8.54h-1.58V79.19c0-.84,0-1.82-0.19-4.22Z" transform="translate(-71.53 -31.78)"/><path d="M435.1,74.68c2.33,0,3.29,1.32,3.29,4.25v2.9c0,0.86,0,1.82.19,4.15l-1.32.19L437,84.61a6.18,6.18,0,0,1-4,1.73,2.59,2.59,0,0,1-2.83-2.76,3.11,3.11,0,0,1,1.44-2.64c1-.65,2.64-1,5.23-1.25V79.45c0-2.5-.53-3.38-2-3.38a6.65,6.65,0,0,0-3.65,1.42l-0.62-1A7.18,7.18,0,0,1,435.1,74.68Zm1.7,8.69V80.89c-2.62.24-3.74,0.55-4.34,1a1.84,1.84,0,0,0-.79,1.54A1.48,1.48,0,0,0,433.25,85,5.48,5.48,0,0,0,436.81,83.37Z" transform="translate(-71.53 -31.78)"/><path d="M445.64,74.68A5.26,5.26,0,0,1,449,75.83l-0.7,1a4.76,4.76,0,0,0-2.62-.84c-1.32,0-2.18.62-2.18,1.61,0,1.15,1.18,1.63,2.45,2.11,1.78,0.65,3.41,1.34,3.41,3.29s-1.68,3.31-4.1,3.31A6.23,6.23,0,0,1,441.37,85l0.7-1.08a5.35,5.35,0,0,0,3.1,1.06c1.44,0,2.52-.65,2.52-1.8s-1.42-1.73-2.88-2.33-2.93-1.34-3-3C441.82,75.85,443.57,74.68,445.64,74.68Z" transform="translate(-71.53 -31.78)"/><path d="M1429.68,72.86H1495v42h79.62v103h-145v-145Zm100.57,63.23h-35.06v42h35.06v-42Zm4.72,42H1570v-42H1535v42Zm-100.74,35.12H1570v-9.21H1434.24v9.21Zm56.18-135.74h-56.13V157h56.13V77.52Zm4.73,121.69H1570V183h-74.89v16.27Zm-60.92-21.09h56.15V161.87h-56.15v16.26Zm0,4.78v16.32h56.11V182.91h-56.11Zm60.88-51.63H1570V119.69h-74.89v11.59Z" transform="translate(-71.53 -31.78)"/><path class="cls-1" d="M1530.25,136.09v42h-35.06v-42h35.06ZM1521,159.33h4.5v-9.1H1521v9.1Z" transform="translate(-71.53 -31.78)"/><path class="cls-1" d="M1535,178.14v-42H1570v42H1535Zm9.2-18.78v-9.14h-4.41v9.14h4.41Z" transform="translate(-71.53 -31.78)"/><path class="cls-1" d="M1434.24,213.26v-9.21H1570v9.21H1434.24Z" transform="translate(-71.53 -31.78)"/><path class="cls-1" d="M1490.41,77.52V157h-56.13V77.52h56.13Zm-4.75,4.77H1439v70h46.63v-70Z" transform="translate(-71.53 -31.78)"/><path class="cls-1" d="M1495.14,199.22V183H1570v16.27h-74.89Zm30.54-4.78h13.82V190h-13.82v4.41Z" transform="translate(-71.53 -31.78)"/><path class="cls-1" d="M1434.22,178.13V161.87h56.15v16.26h-56.15Zm35-9.15h-13.82v4.41h13.82V169Z" transform="translate(-71.53 -31.78)"/><path class="cls-1" d="M1434.26,182.91h56.11v16.32h-56.11V182.91Zm35,11.6V190h-13.77v4.49h13.77Z" transform="translate(-71.53 -31.78)"/><path class="cls-1" d="M1495.15,131.28V119.69H1570v11.59h-74.89Zm44.35-2.38v-4.46h-13.8v4.46h13.8Z" transform="translate(-71.53 -31.78)"/><path d="M1521,159.33v-9.1h4.5v9.1H1521Z" transform="translate(-71.53 -31.78)"/><path d="M1544.17,159.36h-4.41v-9.14h4.41v9.14Z" transform="translate(-71.53 -31.78)"/><path d="M1485.67,82.29v70H1439v-70h46.63Zm-4.62,4.6h-37.4v60.78H1481V86.89Z" transform="translate(-71.53 -31.78)"/><path d="M1525.68,194.44V190h13.82v4.41h-13.82Z" transform="translate(-71.53 -31.78)"/><path d="M1469.26,169v4.41h-13.82V169h13.82Z" transform="translate(-71.53 -31.78)"/><path d="M1469.22,194.51h-13.77V190h13.77v4.49Z" transform="translate(-71.53 -31.78)"/><path d="M1539.49,128.9h-13.8v-4.46h13.8v4.46Z" transform="translate(-71.53 -31.78)"/><path class="cls-1" d="M1481,86.89v60.78h-37.4V86.89H1481Z" transform="translate(-71.53 -31.78)"/><path d="M1413.23,33.48c3.26,0,5.4,1.2,5.4,3.91a4,4,0,0,1-2.42,3.84,3.81,3.81,0,0,1,3.34,4c0,2.86-2,4.82-6.1,4.82a29.73,29.73,0,0,1-4.1-.36V33.84A25.1,25.1,0,0,1,1413.23,33.48Zm2.38,6.74a2.73,2.73,0,0,0,1.32-2.5c0-2.11-1.49-2.83-3.75-2.83a15,15,0,0,0-2.23.19v5.59l2.42,0A4.28,4.28,0,0,0,1415.61,40.23Zm1,7.68a3.26,3.26,0,0,0,1.27-2.69c0-2-1.39-3.14-4.46-3.14-0.77,0-1.61,0-2.42,0v6.38c1,0.1,1.82.17,2.64,0.17A4.92,4.92,0,0,0,1416.57,47.91Z" transform="translate(-71.53 -31.78)"/><path d="M1426.89,38.4c2.33,0,3.29,1.32,3.29,4.25v2.9c0,0.86,0,1.82.19,4.15l-1.32.19-0.31-1.56a6.18,6.18,0,0,1-4,1.73,2.59,2.59,0,0,1-2.83-2.76,3.12,3.12,0,0,1,1.44-2.64c1-.65,2.64-1,5.23-1.25V43.18c0-2.5-.53-3.38-2-3.38a6.64,6.64,0,0,0-3.65,1.42l-0.62-1A7.17,7.17,0,0,1,1426.89,38.4Zm1.7,8.69V44.62c-2.62.24-3.74,0.55-4.34,1a1.84,1.84,0,0,0-.79,1.54,1.48,1.48,0,0,0,1.58,1.66A5.48,5.48,0,0,0,1428.59,47.09Z" transform="translate(-71.53 -31.78)"/><path d="M1435.62,31.78V47.59c0,0.77.22,1.08,0.72,1.08a2.82,2.82,0,0,0,.89-0.17l0.36,1.2a4.57,4.57,0,0,1-1.73.36c-1.15,0-1.8-.7-1.8-2V31.83Z" transform="translate(-71.53 -31.78)"/><path d="M1444.46,38.33a4.65,4.65,0,0,1,2.59.79v-7.3l1.58,0V45.87c0,0.77,0,1.68.19,3.84l-1.32.19-0.31-1.63a5,5,0,0,1-3.62,1.87c-2.45,0-4.18-2.4-4.18-5.57C1439.39,41.57,1440.93,38.33,1444.46,38.33ZM1447,47v-6.6a4.81,4.81,0,0,0-2.59-.72,3,3,0,0,0-2.21.77,5.22,5.22,0,0,0-1.22,3.77c0,2.57,1,4.51,2.81,4.51A5,5,0,0,0,1447,47Z" transform="translate(-71.53 -31.78)"/><path d="M1454.1,38.67v7c0,2.14.6,3.12,2,3.12,1.1,0,2.09-.55,3.34-1.73V38.67H1461v6.82c0,1.06,0,2.57.22,4.75-1.68.79-2.52,1.66-2.52,2.5a1.12,1.12,0,0,0,1.3,1.15,4.09,4.09,0,0,0,1.54-.36l0.38,1.13a5.58,5.58,0,0,1-2.3.55,2.21,2.21,0,0,1-2.5-2.16c0-1.22,1.08-2.3,2.67-3.22l-0.24-1.51a5.2,5.2,0,0,1-3.79,1.82c-2.33,0-3.26-1.46-3.26-3.89V38.67h1.58Z" transform="translate(-71.53 -31.78)"/><path d="M1472.2,38.5l0.29,1.63a5.42,5.42,0,0,1,3.86-1.8,2.61,2.61,0,0,1,2.76,1.9,5.51,5.51,0,0,1,4-1.9c2.18,0,3,1.42,3,4V49.8h-1.58V42.91c0-2.23-.46-3.19-1.85-3.19a5.49,5.49,0,0,0-3.36,1.58c0,0.31,0,.65,0,1V49.8h-1.58V42.91c0-2.23-.46-3.19-1.82-3.19a5.43,5.43,0,0,0-3.34,1.54V49.8H1471V42.91c0-.84,0-1.82-0.19-4.22Z" transform="translate(-71.53 -31.78)"/><path d="M1494.3,38.33c3,0,4.75,2.45,4.75,5.76,0,2.9-1.54,6-5,6-3,0-4.78-2.42-4.78-5.76C1489.31,41.52,1490.89,38.33,1494.3,38.33Zm-0.14,1.39a2.88,2.88,0,0,0-2.06.77,5.29,5.29,0,0,0-1.18,3.67c0,2.66,1.13,4.61,3.31,4.61a2.77,2.77,0,0,0,2.06-.82,5.19,5.19,0,0,0,1.15-3.65C1497.45,41.67,1496.32,39.72,1494.16,39.72Z" transform="translate(-71.53 -31.78)"/><path d="M1503.52,38.5l0.29,1.58a5.89,5.89,0,0,1,4.06-1.75c2.45,0,3.24,1.44,3.24,3.89V49.8h-1.58v-7c0-2.09-.41-3.12-2-3.12a5.63,5.63,0,0,0-3.55,1.54V49.8h-1.58V42.91c0-.84,0-1.94-0.22-4.22Z" transform="translate(-71.53 -31.78)"/><path d="M1517,35.35v3.31h3.46V40H1517v6.26c0,1.9.31,2.4,1.42,2.4a7.57,7.57,0,0,0,1.85-.29l0.34,1.2a8.29,8.29,0,0,1-2.74.5c-1.73,0-2.42-.86-2.42-3.43V40h-1.7V38.67h1.61l0.38-3.31H1517Z" transform="translate(-71.53 -31.78)"/><path d="M1527.3,38.4c2.33,0,3.29,1.32,3.29,4.25v2.9c0,0.86,0,1.82.19,4.15l-1.32.19-0.31-1.56a6.18,6.18,0,0,1-4,1.73,2.59,2.59,0,0,1-2.83-2.76,3.12,3.12,0,0,1,1.44-2.64c1-.65,2.64-1,5.23-1.25V43.18c0-2.5-.53-3.38-2-3.38a6.65,6.65,0,0,0-3.65,1.42l-0.62-1A7.17,7.17,0,0,1,1527.3,38.4Zm1.7,8.69V44.62c-2.62.24-3.74,0.55-4.34,1a1.83,1.83,0,0,0-.79,1.54,1.48,1.48,0,0,0,1.58,1.66A5.48,5.48,0,0,0,1529,47.09Z" transform="translate(-71.53 -31.78)"/><path d="M1542.81,38.67a2.45,2.45,0,0,1-.19,1l-3.86,10.15-1.66,0-3.74-10.2a2.63,2.63,0,0,1-.19-1h1.56l2.59,7.34c0.22,0.62.43,1.3,0.6,2h0.1l3.29-9.34h1.51Z" transform="translate(-71.53 -31.78)"/><path d="M1546.45,34.08a1,1,0,0,1,1.08,1.1,1.15,1.15,0,0,1-1.2,1.2,1,1,0,0,1-1.1-1.08A1.17,1.17,0,0,1,1546.45,34.08Zm0.7,4.56V49.8h-1.56V38.69Z" transform="translate(-71.53 -31.78)"/><path d="M1552.31,38.5l0.29,1.63a5.41,5.41,0,0,1,3.86-1.8,2.61,2.61,0,0,1,2.76,1.9,5.52,5.52,0,0,1,4-1.9c2.18,0,3,1.42,3,4V49.8h-1.58V42.91c0-2.23-.46-3.19-1.85-3.19a5.49,5.49,0,0,0-3.36,1.58c0,0.31,0,.65,0,1V49.8h-1.58V42.91c0-2.23-.46-3.19-1.82-3.19a5.43,5.43,0,0,0-3.34,1.54V49.8h-1.58V42.91c0-.84,0-1.82-0.19-4.22Z" transform="translate(-71.53 -31.78)"/><path d="M1574.15,38.4c2.33,0,3.29,1.32,3.29,4.25v2.9c0,0.86,0,1.82.19,4.15l-1.32.19L1576,48.34a6.18,6.18,0,0,1-4,1.73,2.59,2.59,0,0,1-2.83-2.76,3.12,3.12,0,0,1,1.44-2.64c1-.65,2.64-1,5.23-1.25V43.18c0-2.5-.53-3.38-2-3.38a6.65,6.65,0,0,0-3.65,1.42l-0.62-1A7.17,7.17,0,0,1,1574.15,38.4Zm1.7,8.69V44.62c-2.62.24-3.74,0.55-4.34,1a1.83,1.83,0,0,0-.79,1.54,1.48,1.48,0,0,0,1.58,1.66A5.48,5.48,0,0,0,1575.85,47.09Z" transform="translate(-71.53 -31.78)"/><path d="M1584.68,38.4a5.26,5.26,0,0,1,3.31,1.15l-0.7,1a4.76,4.76,0,0,0-2.62-.84c-1.32,0-2.18.62-2.18,1.61,0,1.15,1.18,1.63,2.45,2.11,1.78,0.65,3.41,1.34,3.41,3.29s-1.68,3.31-4.1,3.31a6.23,6.23,0,0,1-3.84-1.32l0.7-1.08a5.35,5.35,0,0,0,3.1,1.06c1.44,0,2.52-.65,2.52-1.8s-1.42-1.73-2.88-2.33-2.93-1.34-3-3C1580.87,39.58,1582.62,38.4,1584.68,38.4Z" transform="translate(-71.53 -31.78)"/></svg>