<svg id="Layer_1" data-name="Layer 1" xmlns="http://www.w3.org/2000/svg" viewBox="0 0 357.48 723.88"><defs><style>.cls-1{fill:#fff;}.cls-2{fill:#afbabd;}.cls-3{fill:#262324;}</style></defs><title>prototype-mobile</title><path d="M200.47,359.33a5.26,5.26,0,0,1,3.31,1.15l-0.7,1a4.76,4.76,0,0,0-2.62-.84c-1.32,0-2.18.62-2.18,1.61,0,1.15,1.18,1.63,2.45,2.11,1.78,0.65,3.41,1.34,3.41,3.29S202.46,371,200,371a6.22,6.22,0,0,1-3.84-1.32l0.7-1.08a5.35,5.35,0,0,0,3.1,1.06c1.44,0,2.52-.65,2.52-1.8s-1.42-1.73-2.88-2.33-2.93-1.34-3-3C196.65,360.5,198.4,359.33,200.47,359.33Z" transform="translate(-195.14 -352.7)"/><path d="M208.77,359.57v7.06c0,2.11.6,3,2,3a5.17,5.17,0,0,0,3.34-1.7v-8.38h1.56v6.82c0,1.06,0,1.66.22,4.22l-1.32.19-0.31-1.61a5.43,5.43,0,0,1-3.86,1.85c-2.28,0-3.24-1.46-3.24-3.89v-7.56Z" transform="translate(-195.14 -352.7)"/><path d="M223.05,359.33a5.26,5.26,0,0,1,3.31,1.15l-0.7,1a4.76,4.76,0,0,0-2.62-.84c-1.32,0-2.18.62-2.18,1.61,0,1.15,1.18,1.63,2.45,2.11,1.78,0.65,3.41,1.34,3.41,3.29S225,371,222.62,371a6.22,6.22,0,0,1-3.84-1.32l0.7-1.08a5.35,5.35,0,0,0,3.1,1.06c1.44,0,2.52-.65,2.52-1.8s-1.42-1.73-2.88-2.33-2.93-1.34-3-3C219.23,360.5,221,359.33,223.05,359.33Z" transform="translate(-195.14 -352.7)"/><path d="M230.75,355a1,1,0,0,1,1.08,1.1,1.15,1.15,0,0,1-1.2,1.2,1,1,0,0,1-1.1-1.08A1.17,1.17,0,0,1,230.75,355Zm0.7,4.56v11.16h-1.56V359.62Z" transform="translate(-195.14 -352.7)"/><path d="M237.5,356.28v3.31H241v1.32H237.5v6.26c0,1.9.31,2.4,1.42,2.4a7.56,7.56,0,0,0,1.85-.29l0.34,1.2a8.29,8.29,0,0,1-2.74.5c-1.73,0-2.42-.86-2.42-3.43v-6.65h-1.7v-1.32h1.61l0.38-3.31h1.27Z" transform="translate(-195.14 -352.7)"/><path d="M244.58,355a1,1,0,0,1,1.08,1.1,1.15,1.15,0,0,1-1.2,1.2,1,1,0,0,1-1.1-1.08A1.17,1.17,0,0,1,244.58,355Zm0.7,4.56v11.16h-1.56V359.62Z" transform="translate(-195.14 -352.7)"/><path d="M257.92,359.59a2,2,0,0,1-.5.84l-3.77,4.15,4.06,5.21a3,3,0,0,1,.55.94h-1.73l-3.89-5-1.8,1.92v3.12h-1.58v-18l1.58,0v12.94l5.47-6h1.61Z" transform="translate(-195.14 -352.7)"/><path d="M261.69,355a1,1,0,0,1,1.08,1.1,1.15,1.15,0,0,1-1.2,1.2,1,1,0,0,1-1.1-1.08A1.17,1.17,0,0,1,261.69,355Zm0.7,4.56v11.16h-1.56V359.62Z" transform="translate(-195.14 -352.7)"/><path d="M267.54,359.42l0.29,1.63a5.42,5.42,0,0,1,3.86-1.8,2.61,2.61,0,0,1,2.76,1.9,5.52,5.52,0,0,1,4-1.9c2.18,0,3,1.42,3,4v7.46h-1.58v-6.89c0-2.23-.46-3.19-1.85-3.19a5.48,5.48,0,0,0-3.36,1.58c0,0.31,0,.65,0,1v7.46h-1.58v-6.89c0-2.23-.46-3.19-1.82-3.19a5.43,5.43,0,0,0-3.34,1.54v8.54h-1.58v-6.89c0-.84,0-1.82-0.19-4.22Z" transform="translate(-195.14 -352.7)"/><path d="M289.38,359.33c2.33,0,3.29,1.32,3.29,4.25v2.9c0,0.86,0,1.82.19,4.15l-1.32.19-0.31-1.56a6.18,6.18,0,0,1-4,1.73,2.59,2.59,0,0,1-2.83-2.76,3.11,3.11,0,0,1,1.44-2.64c1-.65,2.64-1,5.23-1.25V364.1c0-2.5-.53-3.38-2-3.38a6.65,6.65,0,0,0-3.65,1.42l-0.62-1A7.17,7.17,0,0,1,289.38,359.33Zm1.7,8.69v-2.47c-2.62.24-3.74,0.55-4.34,1A1.84,1.84,0,0,0,286,368a1.48,1.48,0,0,0,1.58,1.66A5.48,5.48,0,0,0,291.09,368Z" transform="translate(-195.14 -352.7)"/><path d="M299.92,359.33a5.26,5.26,0,0,1,3.31,1.15l-0.7,1a4.76,4.76,0,0,0-2.62-.84c-1.32,0-2.18.62-2.18,1.61,0,1.15,1.18,1.63,2.45,2.11,1.78,0.65,3.41,1.34,3.41,3.29s-1.68,3.31-4.1,3.31a6.22,6.22,0,0,1-3.84-1.32l0.7-1.08a5.35,5.35,0,0,0,3.1,1.06c1.44,0,2.52-.65,2.52-1.8s-1.42-1.73-2.88-2.33-2.93-1.34-3-3C296.1,360.5,297.86,359.33,299.92,359.33Z" transform="translate(-195.14 -352.7)"/><path d="M316.07,359.33a5.26,5.26,0,0,1,3.31,1.15l-0.7,1a4.76,4.76,0,0,0-2.62-.84c-1.32,0-2.18.62-2.18,1.61,0,1.15,1.18,1.63,2.45,2.11,1.78,0.65,3.41,1.34,3.41,3.29s-1.68,3.31-4.1,3.31a6.22,6.22,0,0,1-3.84-1.32l0.7-1.08a5.35,5.35,0,0,0,3.1,1.06c1.44,0,2.52-.65,2.52-1.8s-1.42-1.73-2.88-2.33-2.93-1.34-3-3C312.26,360.5,314,359.33,316.07,359.33Z" transform="translate(-195.14 -352.7)"/><path d="M324.38,359.57v7.06c0,2.11.6,3,2,3a5.17,5.17,0,0,0,3.34-1.7v-8.38h1.56v6.82c0,1.06,0,1.66.22,4.22l-1.32.19-0.31-1.61a5.43,5.43,0,0,1-3.86,1.85c-2.28,0-3.24-1.46-3.24-3.89v-7.56Z" transform="translate(-195.14 -352.7)"/><path d="M342.76,359.57v7.06c0,2.11.6,3,2,3a5.17,5.17,0,0,0,3.34-1.7v-8.38h1.56v6.82c0,1.06,0,1.66.22,4.22l-1.32.19-0.31-1.61a5.43,5.43,0,0,1-3.86,1.85c-2.28,0-3.24-1.46-3.24-3.89v-7.56Z" transform="translate(-195.14 -352.7)"/><path d="M361.1,359.59l0.26,1.2-6.7,8.64h6.58l0,1.3H353l-0.19-1.2,6.65-8.64h-6.26l0-1.3h8Zm-7.25-5.26,0.86-.77,2.54,2.76,2.59-2.76,0.82,0.77-2.83,3.36-1.18.1Z" transform="translate(-195.14 -352.7)"/><path d="M367.84,359.33a5.26,5.26,0,0,1,3.31,1.15l-0.7,1a4.76,4.76,0,0,0-2.62-.84c-1.32,0-2.18.62-2.18,1.61,0,1.15,1.18,1.63,2.45,2.11,1.78,0.65,3.41,1.34,3.41,3.29s-1.68,3.31-4.1,3.31a6.22,6.22,0,0,1-3.84-1.32l0.7-1.08a5.35,5.35,0,0,0,3.1,1.06c1.44,0,2.52-.65,2.52-1.8s-1.42-1.73-2.88-2.33-2.93-1.34-3-3C364,360.5,365.78,359.33,367.84,359.33Z" transform="translate(-195.14 -352.7)"/><path d="M378.74,359.33c2.33,0,3.29,1.32,3.29,4.25v2.9c0,0.86,0,1.82.19,4.15l-1.32.19-0.31-1.56a6.18,6.18,0,0,1-4,1.73,2.59,2.59,0,0,1-2.83-2.76,3.11,3.11,0,0,1,1.44-2.64c1-.65,2.64-1,5.23-1.25V364.1c0-2.5-.53-3.38-2-3.38a6.65,6.65,0,0,0-3.65,1.42l-0.62-1A7.17,7.17,0,0,1,378.74,359.33Zm1.7,8.69v-2.47c-2.62.24-3.74,0.55-4.34,1a1.84,1.84,0,0,0-.79,1.54,1.48,1.48,0,0,0,1.58,1.66A5.48,5.48,0,0,0,380.44,368Z" transform="translate(-195.14 -352.7)"/><path d="M394.6,359.59a2,2,0,0,1-.5.84l-3.77,4.15,4.06,5.21a3,3,0,0,1,.55.94h-1.73l-3.89-5-1.8,1.92v3.12h-1.58v-18l1.58,0v12.94l5.47-6h1.61Z" transform="translate(-195.14 -352.7)"/><path d="M401.3,359.26c3,0,4.75,2.45,4.75,5.76,0,2.9-1.54,6-5,6-3,0-4.78-2.42-4.78-5.76C396.3,362.45,397.89,359.26,401.3,359.26Zm-0.14,1.39a2.89,2.89,0,0,0-2.06.77,5.29,5.29,0,0,0-1.18,3.67c0,2.66,1.13,4.61,3.31,4.61a2.77,2.77,0,0,0,2.06-.82,5.19,5.19,0,0,0,1.15-3.65C404.44,362.59,403.31,360.65,401.15,360.65Z" transform="translate(-195.14 -352.7)"/><path d="M417.52,359.59a2.45,2.45,0,0,1-.19,1l-3.86,10.15-1.66,0-3.74-10.2a2.63,2.63,0,0,1-.19-1h1.56l2.59,7.34c0.22,0.62.43,1.3,0.6,2h0.1l3.29-9.34h1.51Z" transform="translate(-195.14 -352.7)"/><path d="M421.77,359.57v7.06c0,2.11.6,3,2,3a5.17,5.17,0,0,0,3.34-1.7v-8.38h1.56v6.82c0,1.06,0,1.66.22,4.22l-1.32.19-0.31-1.61a5.43,5.43,0,0,1-3.86,1.85c-2.28,0-3.24-1.46-3.24-3.89v-7.56Z" transform="translate(-195.14 -352.7)"/><path d="M252.66,682.61q-16.31,0-32.62,0a9,9,0,0,1-9.3-8.75c-0.19-5-.11-10-0.11-15q0-19.4,0-38.8a9.42,9.42,0,0,1,6.28-9.14A9,9,0,0,1,228,616.1a1.55,1.55,0,0,0,1.75,1.12q28.13,0,56.27,0c1.75,0,2.18.43,2.18,2.14q0,30.5,0,61c0,1.91-.34,2.27-2.22,2.27h-33.3Zm-23.93-62.43c0,0.43,0,.75,0,1.07q0,25.67,0,51.33c0,1.18-.46,1.82-1.34,1.89s-1.45-.49-1.59-1.65a6,6,0,0,0-8-5.19c-3,.89-4.63,3.66-4.1,7.14,0.45,3,2.83,4.92,6.17,4.93h64.36c0.34,0,.67,0,1,0V620.18H228.73Zm-2.91,46.68v-1.28q0-15.48,0-31c0-5,0-10.1,0-15.15a5.92,5.92,0,0,0-6.12-6.18c-3.61,0-6,2.47-6,6.18q0,23.16,0,46.31c0,0.3,0,.6.06,1C217.79,663.65,221.77,663.69,225.82,666.86Z" transform="translate(-195.14 -352.7)"/><path d="M249.48,685.9h19.86q8.58,0,17.16.06c1.26,0,1.72.49,1.73,1.78q0,6.95,0,13.89c0,1.28-.53,1.78-1.84,1.78H212.67c-1.41,0-1.9-.49-1.9-1.92q0-6.75,0-13.51c0-1.58.42-2,2-2h14.75l19.08-.06h2.89Zm15.63,3c0,0.31-.06.56-0.06,0.81,0,1.58,0,3.15,0,4.73a1.4,1.4,0,0,1-1.41,1.51,1.46,1.46,0,0,1-1.48-1.47c0-.35,0-0.71,0-1.06q0-2.25,0-4.5H259.4c0,0.84,0,1.61,0,2.38a1.5,1.5,0,0,1-1.5,1.74,1.44,1.44,0,0,1-1.4-1.71c0-.79,0-1.59,0-2.42h-2.78c0,0.83,0,1.59,0,2.36,0,1.16-.53,1.77-1.46,1.76s-1.44-.64-1.46-1.77c0-.79,0-1.57,0-2.36H248c0,0.4,0,.74,0,1.09,0,1.51,0,3,0,4.54a1.33,1.33,0,0,1-1.12,1.38,1.3,1.3,0,0,1-1.59-.76,2.85,2.85,0,0,1-.18-1.12c0-1.7,0-3.39,0-5.1h-2.9c0,0.84,0,1.61,0,2.38a1.47,1.47,0,1,1-2.9,0c0-.8,0-1.59,0-2.42h-2.75c0,0.89,0,1.72,0,2.55a1.45,1.45,0,0,1-1.46,1.58,1.41,1.41,0,0,1-1.44-1.58c0-.83,0-1.66,0-2.55h-2.79c0,0.39,0,.73,0,1.07,0,1.51,0,3,0,4.54a1.38,1.38,0,0,1-1.38,1.43,1.45,1.45,0,0,1-1.49-1.35,9.31,9.31,0,0,1,0-1.06c0-1.53,0-3.07,0-4.61h-2.91c0,0.88,0,1.68,0,2.48a1.43,1.43,0,0,1-1.39,1.62,1.46,1.46,0,0,1-1.5-1.62c0-.83,0-1.65,0-2.49h-2.74c0,0.9,0,1.73,0,2.56a1.45,1.45,0,0,1-1.48,1.56,1.42,1.42,0,0,1-1.42-1.59c0-.83,0-1.65,0-2.54h-2.8v11.5h71.52V688.93h-3c0,0.39,0,.74,0,1.08,0,1.51.07,3,0,4.53a1.83,1.83,0,0,1-.91,1.29,1.74,1.74,0,0,1-1.47-.29,1.83,1.83,0,0,1-.47-1.28c-0.05-1.76,0-3.52,0-5.32h-2.74c0,0.89,0,1.72,0,2.55a1.45,1.45,0,0,1-1.47,1.57,1.41,1.41,0,0,1-1.43-1.58c0-.83,0-1.66,0-2.52h-2.79c0,0.86,0,1.62,0,2.39a1.45,1.45,0,0,1-1.41,1.71,1.5,1.5,0,0,1-1.49-1.74c0-.79,0-1.58,0-2.39h-2.84Z" transform="translate(-195.14 -352.7)"/><path d="M195.14,654.2q0-18.77,0-37.53a6.34,6.34,0,0,1,4.59-6.09c3.59-1,7.34,2.13,7.35,6.13,0,7.36,0,14.73,0,22.09q0,26.39,0,52.77a5.09,5.09,0,0,1-.44,2c-1.29,2.87-2.66,5.7-4,8.55a1.68,1.68,0,0,1-1.54,1.25,1.7,1.7,0,0,1-1.51-1.28c-1.35-2.91-2.74-5.81-4.07-8.73a4.14,4.14,0,0,1-.35-1.66Q195.12,673,195.14,654.2Zm3-33.31V690.1h6V620.88h-6Zm6.05-3c0-1.64.1-3.21-1.42-4.14a3.05,3.05,0,0,0-3.46.1c-1.46,1-1.25,2.52-1.2,4h6.08Zm-5.59,75.25,2.54,5.4,2.54-5.4h-5.08Z" transform="translate(-195.14 -352.7)"/><path class="cls-1" d="M198.57,693.12h5.08l-2.54,5.4Z" transform="translate(-195.14 -352.7)"/><path d="M256.27,624.64H277.6c1.78,0,2.14.38,2.13,2.14,0,4.21,0,8.43,0,12.64,0,1.64-.41,2.05-2,2.05H235.22c-0.29,0-.58,0-0.87,0a1.43,1.43,0,0,1-1.56-1.56q0-6.85,0-13.7c0-1.1.59-1.56,1.85-1.56h21.62ZM235.71,638.5h41V627.63h-41V638.5Z" transform="translate(-195.14 -352.7)"/><path d="M270.62,658.93c-2.44,0-4.88,0-7.33,0a1.49,1.49,0,0,1-1.72-1.6,1.47,1.47,0,0,1,1.63-1.31c5,0,10,0,14.94,0a1.45,1.45,0,1,1,0,2.9C275.64,658.95,273.13,658.93,270.62,658.93Z" transform="translate(-195.14 -352.7)"/><path d="M241.81,658.93c-2.44,0-4.88,0-7.32,0a2.2,2.2,0,0,1-1.48-.81,1.51,1.51,0,0,1,.08-1.39,1.78,1.78,0,0,1,1.28-.65c4.95,0,9.89,0,14.84,0a1.45,1.45,0,1,1,0,2.9C246.75,659,244.28,658.93,241.81,658.93Z" transform="translate(-195.14 -352.7)"/><path d="M270.59,675.22c-2.44,0-4.89,0-7.33,0a2.2,2.2,0,0,1-1.48-.81,1.51,1.51,0,0,1,.07-1.39,1.77,1.77,0,0,1,1.28-.64c5,0,10,0,14.95,0a1.46,1.46,0,1,1,0,2.9c-2.51,0-5,0-7.52,0h0Z" transform="translate(-195.14 -352.7)"/><path d="M270.63,650.92H263.4c-1.14,0-1.8-.52-1.83-1.39s0.66-1.51,1.83-1.51H278c1.14,0,1.76.53,1.77,1.45s-0.62,1.44-1.76,1.45h-7.33Z" transform="translate(-195.14 -352.7)"/><path d="M270.72,664.17H278c1.16,0,1.77.5,1.77,1.43a1.48,1.48,0,0,1-1.76,1.47H263.41c-1.16,0-1.87-.6-1.84-1.51s0.69-1.4,1.83-1.4h7.33Z" transform="translate(-195.14 -352.7)"/><path d="M241.82,672.31H249c1.14,0,1.76.53,1.75,1.45a1.5,1.5,0,0,1-1.78,1.45H234.55a1.51,1.51,0,0,1-1.76-1.48c0-.88.67-1.42,1.8-1.42h7.23Z" transform="translate(-195.14 -352.7)"/><path d="M241.86,650.92h-7.33a1.47,1.47,0,1,1,0-2.9h14.55a1.47,1.47,0,1,1,0,2.9h-7.23Z" transform="translate(-195.14 -352.7)"/><path d="M241.75,664.18H249c1.18,0,1.79.48,1.81,1.39s-0.62,1.51-1.81,1.52H234.62c-1.17,0-1.86-.59-1.83-1.51s0.68-1.39,1.83-1.39h7.13Z" transform="translate(-195.14 -352.7)"/><path d="M327.81,638.73l0.29,1.56a4.86,4.86,0,0,1,3.53-1.73c2.59,0,4.3,2.42,4.3,5.59,0,3-1.58,6.22-5,6.22a4.68,4.68,0,0,1-2.64-.77v6.19h-1.58V643.17c0-.86,0-1.9-0.19-4.25Zm5.26,9.5a5.32,5.32,0,0,0,1.22-3.79c0-2.5-1-4.49-2.9-4.49a4.79,4.79,0,0,0-3.12,1.51v6.86a5.2,5.2,0,0,0,2.57.67A3,3,0,0,0,333.07,648.24Z" transform="translate(-195.14 -352.7)"/><path d="M340.38,638.73l0.36,2.16c0.79-1.44,1.82-2.26,3.12-2.26a3,3,0,0,1,1.51.41L345,640.49a3.82,3.82,0,0,0-1.27-.19,3.41,3.41,0,0,0-2.93,2.18V650h-1.58v-6.89c0-.84,0-1.87-0.22-4.22Z" transform="translate(-195.14 -352.7)"/><path d="M351.57,638.57c3,0,4.75,2.45,4.75,5.76,0,2.9-1.54,6-5,6-3,0-4.78-2.42-4.78-5.76C346.58,641.76,348.16,638.57,351.57,638.57ZM351.42,640a2.89,2.89,0,0,0-2.06.77,5.29,5.29,0,0,0-1.18,3.67c0,2.67,1.13,4.61,3.31,4.61a2.77,2.77,0,0,0,2.06-.82,5.19,5.19,0,0,0,1.15-3.65C354.71,641.9,353.58,640,351.42,640Z" transform="translate(-195.14 -352.7)"/><path d="M361.55,635.59v3.31H365v1.32h-3.46v6.26c0,1.9.31,2.4,1.42,2.4a7.61,7.61,0,0,0,1.85-.29l0.34,1.2a8.27,8.27,0,0,1-2.74.5c-1.73,0-2.42-.86-2.42-3.43v-6.65h-1.7V638.9h1.61l0.38-3.31h1.27Z" transform="translate(-195.14 -352.7)"/><path d="M372.09,638.57c3,0,4.75,2.45,4.75,5.76,0,2.9-1.54,6-5,6-3,0-4.78-2.42-4.78-5.76C367.1,641.76,368.68,638.57,372.09,638.57ZM371.94,640a2.89,2.89,0,0,0-2.06.77,5.29,5.29,0,0,0-1.18,3.67c0,2.67,1.13,4.61,3.31,4.61a2.77,2.77,0,0,0,2.06-.82,5.19,5.19,0,0,0,1.15-3.65C375.23,641.9,374.1,640,371.94,640Z" transform="translate(-195.14 -352.7)"/><path d="M382.07,635.59v3.31h3.46v1.32h-3.46v6.26c0,1.9.31,2.4,1.42,2.4a7.61,7.61,0,0,0,1.85-.29l0.34,1.2a8.27,8.27,0,0,1-2.74.5c-1.73,0-2.42-.86-2.42-3.43v-6.65h-1.7V638.9h1.61l0.38-3.31h1.27Z" transform="translate(-195.14 -352.7)"/><path d="M389.15,634.32a1,1,0,0,1,1.08,1.1,1.15,1.15,0,0,1-1.2,1.2,1,1,0,0,1-1.1-1.08A1.17,1.17,0,0,1,389.15,634.32Zm0.7,4.56V650h-1.56V638.93Z" transform="translate(-195.14 -352.7)"/><path d="M395,638.73l0.29,1.56a4.86,4.86,0,0,1,3.53-1.73c2.59,0,4.3,2.42,4.3,5.59,0,3-1.58,6.22-5,6.22a4.68,4.68,0,0,1-2.64-.77v6.19h-1.58V643.17c0-.86,0-1.9-0.19-4.25Zm5.26,9.5a5.32,5.32,0,0,0,1.22-3.79c0-2.5-1-4.49-2.9-4.49a4.79,4.79,0,0,0-3.12,1.51v6.86A5.2,5.2,0,0,0,398,649,3,3,0,0,0,400.24,648.24Z" transform="translate(-195.14 -352.7)"/><path d="M407.87,638.9v7c0,2.14.6,3.12,2,3.12,1.1,0,2.09-.55,3.34-1.73V638.9h1.56v6.82c0,1.06,0,2.57.22,4.75-1.68.79-2.52,1.66-2.52,2.5a1.12,1.12,0,0,0,1.3,1.15,4.09,4.09,0,0,0,1.54-.36l0.38,1.13a5.57,5.57,0,0,1-2.3.55,2.21,2.21,0,0,1-2.5-2.16c0-1.22,1.08-2.3,2.66-3.22l-0.24-1.51a5.2,5.2,0,0,1-3.79,1.82c-2.33,0-3.26-1.46-3.26-3.89V638.9h1.58Z" transform="translate(-195.14 -352.7)"/><path d="M428.13,638.64a5.26,5.26,0,0,1,3.31,1.15l-0.7,1a4.77,4.77,0,0,0-2.62-.84c-1.32,0-2.18.62-2.18,1.61,0,1.15,1.18,1.63,2.45,2.11,1.78,0.65,3.41,1.34,3.41,3.29s-1.68,3.31-4.1,3.31a6.23,6.23,0,0,1-3.84-1.32l0.7-1.08a5.35,5.35,0,0,0,3.1,1.06c1.44,0,2.52-.65,2.52-1.8s-1.42-1.73-2.88-2.33-2.93-1.34-3-3C424.31,639.81,426.06,638.64,428.13,638.64Z" transform="translate(-195.14 -352.7)"/><path d="M436.43,638.88v7.06c0,2.11.6,3,2,3a5.17,5.17,0,0,0,3.34-1.7V638.9h1.56v6.82c0,1.06,0,1.66.22,4.22l-1.32.19L442,648.53a5.43,5.43,0,0,1-3.86,1.85c-2.28,0-3.24-1.46-3.24-3.89v-7.56Z" transform="translate(-195.14 -352.7)"/><path d="M456,638.9a2,2,0,0,1-.5.84l-3.77,4.15,4.06,5.21a3,3,0,0,1,.55.94h-1.73l-3.89-5-1.8,1.92V650h-1.58v-18l1.58,0V645l5.47-6H456Z" transform="translate(-195.14 -352.7)"/><path d="M460.41,638.88v7.06c0,2.11.6,3,2,3a5.17,5.17,0,0,0,3.34-1.7V638.9h1.56v6.82c0,1.06,0,1.66.22,4.22l-1.32.19-0.31-1.61a5.43,5.43,0,0,1-3.86,1.85c-2.28,0-3.24-1.46-3.24-3.89v-7.56Z" transform="translate(-195.14 -352.7)"/><path d="M472.5,638.73l0.36,2.16c0.79-1.44,1.82-2.26,3.12-2.26a3,3,0,0,1,1.51.41l-0.34,1.44a3.82,3.82,0,0,0-1.27-.19,3.41,3.41,0,0,0-2.93,2.18V650h-1.58v-6.89c0-.84,0-1.87-0.22-4.22Z" transform="translate(-195.14 -352.7)"/><path d="M480.73,634.32a1,1,0,0,1,1.08,1.1,1.15,1.15,0,0,1-1.2,1.2,1,1,0,0,1-1.1-1.08A1.17,1.17,0,0,1,480.73,634.32Zm0.7,4.56V650h-1.56V638.93Z" transform="translate(-195.14 -352.7)"/><path d="M486.59,638.73l0.29,1.63a5.41,5.41,0,0,1,3.86-1.8,2.61,2.61,0,0,1,2.76,1.9,5.51,5.51,0,0,1,4-1.9c2.18,0,3,1.42,3,4V650h-1.58v-6.89c0-2.23-.46-3.19-1.85-3.19a5.48,5.48,0,0,0-3.36,1.58c0,0.31,0,.65,0,1V650h-1.58v-6.89c0-2.23-.46-3.19-1.82-3.19a5.43,5.43,0,0,0-3.34,1.54V650h-1.58v-6.89c0-.84,0-1.82-0.19-4.22Z" transform="translate(-195.14 -352.7)"/><path d="M508.43,638.64c2.33,0,3.29,1.32,3.29,4.25v2.9c0,0.86,0,1.82.19,4.15l-1.32.19-0.31-1.56a6.18,6.18,0,0,1-4,1.73,2.59,2.59,0,0,1-2.83-2.76,3.11,3.11,0,0,1,1.44-2.64c1-.65,2.64-1,5.23-1.25v-0.24c0-2.5-.53-3.38-2-3.38a6.65,6.65,0,0,0-3.65,1.42l-0.62-1A7.17,7.17,0,0,1,508.43,638.64Zm1.7,8.69v-2.47c-2.62.24-3.74,0.55-4.34,1a1.83,1.83,0,0,0-.79,1.54,1.48,1.48,0,0,0,1.58,1.66A5.48,5.48,0,0,0,510.13,647.33Z" transform="translate(-195.14 -352.7)"/><path d="M519,638.64a5.26,5.26,0,0,1,3.31,1.15l-0.7,1A4.77,4.77,0,0,0,519,640c-1.32,0-2.18.62-2.18,1.61,0,1.15,1.18,1.63,2.45,2.11,1.78,0.65,3.41,1.34,3.41,3.29s-1.68,3.31-4.1,3.31a6.23,6.23,0,0,1-3.84-1.32l0.7-1.08a5.35,5.35,0,0,0,3.1,1.06c1.44,0,2.52-.65,2.52-1.8s-1.42-1.73-2.88-2.33-2.93-1.34-3-3C515.15,639.81,516.9,638.64,519,638.64Z" transform="translate(-195.14 -352.7)"/><path d="M527.25,646.68a7.83,7.83,0,0,1,.19,1.68,6.16,6.16,0,0,1-2.67,5.11l-0.7-.62a5.94,5.94,0,0,0,1.78-4.39,13.26,13.26,0,0,0-.12-1.66Z" transform="translate(-195.14 -352.7)"/><path d="M330.71,667.44c2.33,0,3.29,1.32,3.29,4.25v2.9c0,0.86,0,1.82.19,4.15l-1.32.19-0.31-1.56a6.18,6.18,0,0,1-4,1.73,2.59,2.59,0,0,1-2.83-2.76,3.11,3.11,0,0,1,1.44-2.64c1-.65,2.64-1,5.23-1.25v-0.24c0-2.5-.53-3.38-2-3.38a6.65,6.65,0,0,0-3.65,1.42l-0.62-1A7.17,7.17,0,0,1,330.71,667.44Zm1.7,8.69v-2.47c-2.62.24-3.74,0.55-4.34,1a1.83,1.83,0,0,0-.79,1.54,1.48,1.48,0,0,0,1.58,1.66A5.48,5.48,0,0,0,332.42,676.13Z" transform="translate(-195.14 -352.7)"/><path d="M339.06,667.53l0.29,1.56a4.86,4.86,0,0,1,3.53-1.73c2.59,0,4.3,2.42,4.3,5.59,0,3-1.58,6.22-5,6.22a4.68,4.68,0,0,1-2.64-.77v6.19h-1.58V672c0-.86,0-1.9-0.19-4.25Zm5.26,9.5a5.32,5.32,0,0,0,1.22-3.79c0-2.5-1-4.49-2.9-4.49a4.79,4.79,0,0,0-3.12,1.51v6.86a5.2,5.2,0,0,0,2.57.67A3,3,0,0,0,344.32,677Z" transform="translate(-195.14 -352.7)"/><path d="M352.41,664.39v3.31h3.46V669h-3.46v6.26c0,1.9.31,2.4,1.42,2.4a7.61,7.61,0,0,0,1.85-.29l0.34,1.2a8.27,8.27,0,0,1-2.74.5c-1.73,0-2.42-.86-2.42-3.43V669h-1.7V667.7h1.61l0.38-3.31h1.27Z" transform="translate(-195.14 -352.7)"/><path d="M362.68,667.44c2.33,0,3.29,1.32,3.29,4.25v2.9c0,0.86,0,1.82.19,4.15l-1.32.19-0.31-1.56a6.18,6.18,0,0,1-4,1.73,2.59,2.59,0,0,1-2.83-2.76,3.11,3.11,0,0,1,1.44-2.64c1-.65,2.64-1,5.23-1.25v-0.24c0-2.5-.53-3.38-2-3.38a6.65,6.65,0,0,0-3.65,1.42l-0.62-1A7.17,7.17,0,0,1,362.68,667.44Zm1.7,8.69v-2.47c-2.62.24-3.74,0.55-4.34,1a1.83,1.83,0,0,0-.79,1.54,1.48,1.48,0,0,0,1.58,1.66A5.48,5.48,0,0,0,364.38,676.13Z" transform="translate(-195.14 -352.7)"/><path d="M371,667.53l0.36,2.16c0.79-1.44,1.82-2.26,3.12-2.26a3,3,0,0,1,1.51.41l-0.34,1.44a3.82,3.82,0,0,0-1.27-.19,3.41,3.41,0,0,0-2.93,2.18v7.56H369.9V672c0-.84,0-1.87-0.22-4.22Z" transform="translate(-195.14 -352.7)"/><path d="M379.26,663.12a1,1,0,0,1,1.08,1.1,1.15,1.15,0,0,1-1.2,1.2,1,1,0,0,1-1.1-1.08A1.17,1.17,0,0,1,379.26,663.12Zm0.7,4.56v11.16H378.4V667.73Z" transform="translate(-195.14 -352.7)"/><path d="M385.12,667.53l0.29,1.63a5.42,5.42,0,0,1,3.86-1.8,2.61,2.61,0,0,1,2.76,1.9,5.51,5.51,0,0,1,4-1.9c2.18,0,3,1.42,3,4v7.46h-1.58V672c0-2.23-.46-3.19-1.85-3.19a5.48,5.48,0,0,0-3.36,1.58c0,0.31,0,.65,0,1v7.46h-1.58V672c0-2.23-.46-3.19-1.82-3.19a5.43,5.43,0,0,0-3.34,1.54v8.54H384V672c0-.84,0-1.82-0.19-4.22Z" transform="translate(-195.14 -352.7)"/><path d="M407,667.44c2.33,0,3.29,1.32,3.29,4.25v2.9c0,0.86,0,1.82.19,4.15l-1.32.19-0.31-1.56a6.18,6.18,0,0,1-4,1.73,2.59,2.59,0,0,1-2.83-2.76,3.11,3.11,0,0,1,1.44-2.64c1-.65,2.64-1,5.23-1.25v-0.24c0-2.5-.53-3.38-2-3.38a6.65,6.65,0,0,0-3.65,1.42l-0.62-1A7.17,7.17,0,0,1,407,667.44Zm1.7,8.69v-2.47c-2.62.24-3.74,0.55-4.34,1a1.83,1.83,0,0,0-.79,1.54,1.48,1.48,0,0,0,1.58,1.66A5.48,5.48,0,0,0,408.66,676.13Z" transform="translate(-195.14 -352.7)"/><path d="M417.5,667.44a5.26,5.26,0,0,1,3.31,1.15l-0.7,1a4.77,4.77,0,0,0-2.62-.84c-1.32,0-2.18.62-2.18,1.61,0,1.15,1.18,1.63,2.45,2.11,1.78,0.65,3.41,1.34,3.41,3.29s-1.68,3.31-4.1,3.31a6.23,6.23,0,0,1-3.84-1.32l0.7-1.08a5.35,5.35,0,0,0,3.1,1.06c1.44,0,2.52-.65,2.52-1.8s-1.42-1.73-2.88-2.33-2.93-1.34-3-3C413.68,668.61,415.43,667.44,417.5,667.44Z" transform="translate(-195.14 -352.7)"/><path d="M431.18,663.12a1,1,0,0,1,1.08,1.1,1.15,1.15,0,0,1-1.2,1.2,1,1,0,0,1-1.1-1.08A1.17,1.17,0,0,1,431.18,663.12Zm0.7,4.56v11.16h-1.56V667.73Z" transform="translate(-195.14 -352.7)"/><path d="M437,667.53l0.36,2.16c0.79-1.44,1.82-2.26,3.12-2.26a3,3,0,0,1,1.51.41l-0.34,1.44a3.82,3.82,0,0,0-1.27-.19,3.41,3.41,0,0,0-2.93,2.18v7.56h-1.58V672c0-.84,0-1.87-0.22-4.22Z" transform="translate(-195.14 -352.7)"/><path d="M451.86,664.39v3.31h3.46V669h-3.46v6.26c0,1.9.31,2.4,1.42,2.4a7.61,7.61,0,0,0,1.85-.29l0.34,1.2a8.27,8.27,0,0,1-2.74.5c-1.73,0-2.42-.86-2.42-3.43V669h-1.7V667.7h1.61l0.38-3.31h1.27Z" transform="translate(-195.14 -352.7)"/><path d="M466.57,667.7a2.44,2.44,0,0,1-.19,1l-3.86,10.15-1.66,0-3.74-10.2a2.63,2.63,0,0,1-.19-1h1.56l2.59,7.34c0.22,0.62.43,1.3,0.6,2h0.1l3.29-9.34h1.51Z" transform="translate(-195.14 -352.7)"/><path d="M470.22,663.12a1,1,0,0,1,1.08,1.1,1.15,1.15,0,0,1-1.2,1.2,1,1,0,0,1-1.1-1.08A1.17,1.17,0,0,1,470.22,663.12Zm0.7,4.56v11.16h-1.56V667.73Z" transform="translate(-195.14 -352.7)"/><path d="M476.05,667.53l0.36,2.16c0.79-1.44,1.82-2.26,3.12-2.26a3,3,0,0,1,1.51.41l-0.34,1.44a3.82,3.82,0,0,0-1.27-.19,3.41,3.41,0,0,0-2.93,2.18v7.56h-1.58V672c0-.84,0-1.87-0.22-4.22Z" transform="translate(-195.14 -352.7)"/><path d="M485.49,664.39v3.31h3.46V669h-3.46v6.26c0,1.9.31,2.4,1.42,2.4a7.6,7.6,0,0,0,1.85-.29l0.34,1.2a8.26,8.26,0,0,1-2.74.5c-1.73,0-2.42-.86-2.42-3.43V669h-1.7V667.7h1.61l0.38-3.31h1.27Z" transform="translate(-195.14 -352.7)"/><path d="M492.57,663.12a1,1,0,0,1,1.08,1.1,1.15,1.15,0,0,1-1.2,1.2,1,1,0,0,1-1.1-1.08A1.17,1.17,0,0,1,492.57,663.12Zm0.7,4.56v11.16H491.7V667.73Z" transform="translate(-195.14 -352.7)"/><path d="M498.4,667.53l0.29,1.58a5.89,5.89,0,0,1,4.06-1.75c2.45,0,3.24,1.44,3.24,3.89v7.58H504.4v-7c0-2.09-.41-3.12-2-3.12a5.63,5.63,0,0,0-3.55,1.54v8.54h-1.58V672c0-.84,0-1.94-0.22-4.22Z" transform="translate(-195.14 -352.7)"/><path d="M510.71,663.12a1,1,0,0,1,1.08,1.1,1.15,1.15,0,0,1-1.2,1.2,1,1,0,0,1-1.1-1.08A1.17,1.17,0,0,1,510.71,663.12Zm0.7,4.56v11.16h-1.56V667.73Z" transform="translate(-195.14 -352.7)"/><path d="M516.56,667.53l0.29,1.63a5.42,5.42,0,0,1,3.86-1.8,2.61,2.61,0,0,1,2.76,1.9,5.51,5.51,0,0,1,4-1.9c2.18,0,3,1.42,3,4v7.46H528.9V672c0-2.23-.46-3.19-1.85-3.19a5.48,5.48,0,0,0-3.36,1.58c0,0.31,0,.65,0,1v7.46h-1.58V672c0-2.23-.46-3.19-1.82-3.19a5.43,5.43,0,0,0-3.34,1.54v8.54h-1.58V672c0-.84,0-1.82-0.19-4.22Z" transform="translate(-195.14 -352.7)"/><path d="M538.4,667.44c2.33,0,3.29,1.32,3.29,4.25v2.9c0,0.86,0,1.82.19,4.15l-1.32.19-0.31-1.56a6.18,6.18,0,0,1-4,1.73,2.59,2.59,0,0,1-2.83-2.76,3.11,3.11,0,0,1,1.44-2.64c1-.65,2.64-1,5.23-1.25v-0.24c0-2.5-.53-3.38-2-3.38a6.65,6.65,0,0,0-3.65,1.42l-0.62-1A7.17,7.17,0,0,1,538.4,667.44Zm1.7,8.69v-2.47c-2.62.24-3.74,0.55-4.34,1a1.83,1.83,0,0,0-.79,1.54,1.48,1.48,0,0,0,1.58,1.66A5.48,5.48,0,0,0,540.11,676.13Z" transform="translate(-195.14 -352.7)"/><path d="M548.94,667.44a5.26,5.26,0,0,1,3.31,1.15l-0.7,1a4.77,4.77,0,0,0-2.62-.84c-1.32,0-2.18.62-2.18,1.61,0,1.15,1.18,1.63,2.45,2.11,1.78,0.65,3.41,1.34,3.41,3.29s-1.68,3.31-4.1,3.31a6.23,6.23,0,0,1-3.84-1.32l0.7-1.08a5.35,5.35,0,0,0,3.1,1.06c1.44,0,2.52-.65,2.52-1.8s-1.42-1.73-2.88-2.33-2.93-1.34-3-3C545.12,668.61,546.88,667.44,548.94,667.44Z" transform="translate(-195.14 -352.7)"/><path d="M396.81,824.34v8.21a4.46,4.46,0,0,1,3.34-1.66c2.81,0,4.3,2.52,4.3,5.76,0,3-1.54,6-5.26,6a12.77,12.77,0,0,1-3.94-.62V824.39Zm4.7,16.23a4.77,4.77,0,0,0,1.3-3.77c0-2.71-1-4.54-2.88-4.54a4.71,4.71,0,0,0-3.12,1.63v7.06a9.84,9.84,0,0,0,2.5.31A3.19,3.19,0,0,0,401.51,840.56Z" transform="translate(-195.14 -352.7)"/><path d="M411.81,831c2.33,0,3.29,1.32,3.29,4.25v2.9c0,0.86,0,1.82.19,4.15l-1.32.19-0.31-1.56a6.18,6.18,0,0,1-4,1.73,2.59,2.59,0,0,1-2.83-2.76,3.11,3.11,0,0,1,1.44-2.64c1-.65,2.64-1,5.23-1.25v-0.24c0-2.5-.53-3.38-2-3.38a6.65,6.65,0,0,0-3.65,1.42l-0.62-1A7.17,7.17,0,0,1,411.81,831Zm1.7,8.69v-2.47c-2.62.24-3.74,0.55-4.34,1a1.83,1.83,0,0,0-.79,1.54,1.48,1.48,0,0,0,1.58,1.66A5.48,5.48,0,0,0,413.51,839.65Z" transform="translate(-195.14 -352.7)"/><path d="M420.54,824.34v15.82c0,0.77.22,1.08,0.72,1.08a2.82,2.82,0,0,0,.89-0.17l0.36,1.2a4.55,4.55,0,0,1-1.73.36c-1.15,0-1.8-.7-1.8-2v-16.2Z" transform="translate(-195.14 -352.7)"/><path d="M429.37,830.89a4.65,4.65,0,0,1,2.59.79v-7.3l1.58,0v14.09c0,0.77,0,1.68.19,3.84l-1.32.19-0.31-1.63a5,5,0,0,1-3.62,1.87c-2.45,0-4.18-2.4-4.18-5.57C424.31,834.13,425.84,830.89,429.37,830.89Zm2.59,8.69V833a4.81,4.81,0,0,0-2.59-.72,3,3,0,0,0-2.21.77,5.22,5.22,0,0,0-1.22,3.77c0,2.57,1,4.51,2.81,4.51A5,5,0,0,0,432,839.58Z" transform="translate(-195.14 -352.7)"/><path d="M439,831.23v7c0,2.14.6,3.12,2,3.12,1.1,0,2.09-.55,3.34-1.73v-8.35H446V838c0,1.06,0,2.57.22,4.75-1.68.79-2.52,1.66-2.52,2.5a1.12,1.12,0,0,0,1.3,1.15,4.09,4.09,0,0,0,1.54-.36l0.38,1.13a5.57,5.57,0,0,1-2.3.55,2.21,2.21,0,0,1-2.5-2.16c0-1.22,1.08-2.3,2.66-3.22l-0.24-1.51a5.2,5.2,0,0,1-3.79,1.82c-2.33,0-3.26-1.46-3.26-3.89v-7.58H439Z" transform="translate(-195.14 -352.7)"/><path d="M457.33,838.48a3.57,3.57,0,0,1-2.06-3.41,4,4,0,0,1,4.3-4.1,4.56,4.56,0,0,1,2.35.6,4.16,4.16,0,0,1,2.93-1.3l0.07,1.37a7.15,7.15,0,0,0-2.18.58,3.84,3.84,0,0,1,1,2.66,4,4,0,0,1-4.32,4,5,5,0,0,1-1.06-.1,2,2,0,0,0-.5,1.22c0,1,.94,1.13,2.45,1.15,2.66,0,4.44.84,4.44,3.1,0,2.64-2.45,4.18-5.45,4.18-2.69,0-4.63-1.25-4.61-3.38a4.07,4.07,0,0,1,2.09-3.41,1.64,1.64,0,0,1-.38-1.13A3,3,0,0,1,457.33,838.48Zm5.09,7.8a2.32,2.32,0,0,0,.82-1.8c0-1.66-1.46-1.92-3.53-1.94a6.93,6.93,0,0,1-2-.24,3.11,3.11,0,0,0-1.58,2.59c0,1.51,1.32,2.26,3.36,2.26A4.49,4.49,0,0,0,462.42,846.28Zm-3-14a2.49,2.49,0,0,0-2.69,2.66,2.71,2.71,0,0,0,5.42.1A2.5,2.5,0,0,0,459.47,832.24Z" transform="translate(-195.14 -352.7)"/><path d="M471.54,831c2.33,0,3.29,1.32,3.29,4.25v2.9c0,0.86,0,1.82.19,4.15l-1.32.19-0.31-1.56a6.18,6.18,0,0,1-4,1.73,2.59,2.59,0,0,1-2.83-2.76,3.11,3.11,0,0,1,1.44-2.64c1-.65,2.64-1,5.23-1.25v-0.24c0-2.5-.53-3.38-2-3.38a6.65,6.65,0,0,0-3.65,1.42l-0.62-1A7.17,7.17,0,0,1,471.54,831Zm1.7,8.69v-2.47c-2.62.24-3.74,0.55-4.34,1a1.83,1.83,0,0,0-.79,1.54,1.48,1.48,0,0,0,1.58,1.66A5.48,5.48,0,0,0,473.24,839.65Z" transform="translate(-195.14 -352.7)"/><path d="M479.92,831.06l0.29,1.63a5.42,5.42,0,0,1,3.87-1.8,2.61,2.61,0,0,1,2.76,1.9,5.51,5.51,0,0,1,4-1.9c2.18,0,3,1.42,3,4v7.46h-1.58v-6.89c0-2.23-.46-3.19-1.85-3.19a5.48,5.48,0,0,0-3.36,1.58c0,0.31,0,.65,0,1v7.46h-1.58v-6.89c0-2.23-.46-3.19-1.82-3.19a5.43,5.43,0,0,0-3.34,1.54v8.54h-1.58v-6.89c0-.84,0-1.82-0.19-4.22Z" transform="translate(-195.14 -352.7)"/><path d="M506.1,831.23a2.45,2.45,0,0,1-.22,1l-4.2,11.26c-1.42,3.48-2.9,4.85-4.68,4.85a6.84,6.84,0,0,1-.89-0.07v-1.27c2.06,0,3.26-1.42,4.56-4.58h-0.29l-3.74-10.18a2.63,2.63,0,0,1-.19-1H498l2.62,7.34c0.22,0.62.41,1.3,0.58,2h0.1l3.29-9.34h1.51Z" transform="translate(-195.14 -352.7)"/><path d="M510.37,824.34v8.21a4.46,4.46,0,0,1,3.34-1.66c2.81,0,4.3,2.52,4.3,5.76,0,3-1.54,6-5.26,6a12.76,12.76,0,0,1-3.94-.62V824.39Zm4.7,16.23a4.77,4.77,0,0,0,1.3-3.77c0-2.71-1-4.54-2.88-4.54a4.71,4.71,0,0,0-3.12,1.63v7.06a9.84,9.84,0,0,0,2.5.31A3.19,3.19,0,0,0,515.08,840.56Z" transform="translate(-195.14 -352.7)"/><path d="M525.37,831c2.33,0,3.29,1.32,3.29,4.25v2.9c0,0.86,0,1.82.19,4.15l-1.32.19-0.31-1.56a6.18,6.18,0,0,1-4,1.73,2.59,2.59,0,0,1-2.83-2.76,3.11,3.11,0,0,1,1.44-2.64c1-.65,2.64-1,5.23-1.25v-0.24c0-2.5-.53-3.38-2-3.38a6.64,6.64,0,0,0-3.65,1.42l-0.62-1A7.17,7.17,0,0,1,525.37,831Zm1.7,8.69v-2.47c-2.62.24-3.74,0.55-4.34,1a1.84,1.84,0,0,0-.79,1.54,1.48,1.48,0,0,0,1.58,1.66A5.48,5.48,0,0,0,527.08,839.65Z" transform="translate(-195.14 -352.7)"/><path d="M314.88,854.73c-0.33.78-.62,1.42-0.86,2.07-0.95,2.66-2.84,3.33-5.17,1.8-9-5.93-18.07-11.91-27.15-17.8-8.31-5.39-16.69-10.65-25-16-7.38-4.76-14.71-9.59-22.09-14.35-5.27-3.4-10.6-6.69-15.87-10.09-7.09-4.57-14.16-9.14-21.19-13.8-2.85-1.89-2.85-2-1.68-5.24,1.84-5.06,3.76-10.1,5.67-15.13a2.75,2.75,0,0,1,3.63-1.7c10.5,3.86,21,7.69,31.49,11.58,11.37,4.22,22.71,8.5,34.07,12.73q16,5.94,32,11.84L309,803a17,17,0,0,0,.88-1.9c0.83-2.51,2.06-3.21,4.52-2.31,7.53,2.77,15,5.61,22.56,8.4,5.82,2.15,11.66,4.25,17.48,6.4,2,0.73,2.53,1.71,2.3,3.81Q355,834.17,353.14,851c-0.47,4.39-1,8.78-1.45,13.17-0.25,2.33-1.83,3.41-4.12,2.59-6.89-2.48-13.75-5-20.62-7.57Zm-7.75-46.26L205.92,770.93c-1.21,3.31-2.29,6.58-3.63,9.75a1.91,1.91,0,0,0,.89,2.75c5.13,3.28,10.28,6.53,15.39,9.83,8.36,5.4,16.69,10.85,25.06,16.23,6.71,4.31,13.48,8.5,20.18,12.82,9.44,6.09,18.84,12.25,28.27,18.36,5.77,3.74,11.56,7.46,17.75,11.46a7.28,7.28,0,0,0-.21-1.89c-0.74-1.61-1.63-3.14-2.36-4.76-2.24-4.94-4.3-10-6.7-14.82a4.39,4.39,0,0,1-.24-3.84C302.55,820.83,304.77,814.83,307.13,808.47Zm39.07,51.6c0.45-4.24.86-8.14,1.29-12,1-9.15,2-18.31,3.09-27.45,0.19-1.61-.2-2.4-1.9-2.94-3.9-1.24-7.7-2.81-11.54-4.24-7.08-2.63-14.17-5.24-21.24-7.88-0.94-.35-1.31-0.34-1.73.82-2.52,7-5.2,13.85-7.78,20.78a3,3,0,0,0-.09,2c2.54,5.72,5.1,11.43,7.81,17.07,0.55,1.15.9,2.48,2.6,3.08,7.57,2.64,15.06,5.55,22.58,8.34C341.53,858.45,343.8,859.22,346.2,860.07Z" transform="translate(-195.14 -352.7)"/><path class="cls-1" d="M307.13,808.47c-2.36,6.36-4.58,12.37-6.81,18.37a4.39,4.39,0,0,0,.24,3.84c2.4,4.86,4.47,9.88,6.7,14.82,0.73,1.61,1.62,3.15,2.36,4.76a7.28,7.28,0,0,1,.21,1.89c-6.19-4-12-7.72-17.75-11.46-9.43-6.12-18.82-12.28-28.27-18.36-6.7-4.32-13.48-8.51-20.18-12.82-8.37-5.38-16.7-10.83-25.06-16.23-5.11-3.3-10.26-6.55-15.39-9.83a1.91,1.91,0,0,1-.89-2.75c1.34-3.17,2.42-6.45,3.63-9.75Zm-92.75-24.93c1.89-.35,2.92-1,3.3-2.42a2.39,2.39,0,0,0-1.2-3,34.18,34.18,0,0,0-3.93-1.51,2.29,2.29,0,0,0-3,1.51c-0.33.79-.25,2.36,0.29,2.8A28,28,0,0,0,214.37,783.53Z" transform="translate(-195.14 -352.7)"/><path class="cls-1" d="M346.2,860.07c-2.4-.85-4.67-1.62-6.91-2.45-7.52-2.79-15-5.7-22.58-8.34-1.7-.59-2-1.93-2.6-3.08-2.71-5.64-5.28-11.35-7.81-17.07a3,3,0,0,1,.09-2c2.58-6.93,5.27-13.83,7.78-20.78,0.42-1.16.79-1.17,1.73-.82,7.07,2.64,14.16,5.26,21.24,7.88,3.84,1.43,7.64,3,11.54,4.24,1.7,0.54,2.08,1.33,1.9,2.94-1.07,9.15-2.08,18.3-3.09,27.45C347.05,851.92,346.65,855.83,346.2,860.07Zm-31.8-29.39c0.25,0.65.5,1.42,0.82,2.15,1.24,2.81,2.43,5.65,3.79,8.4,0.63,1.27,1.38,2.93,2.51,3.42,4.61,2,9.36,3.7,14.11,5.36a2.72,2.72,0,0,0,3.51-3.26c-0.14-.75-0.5-1.46-0.68-2.21a35.82,35.82,0,0,1-1.41-6.33,19.42,19.42,0,0,1,4.32-13.07,4,4,0,0,0,.27-2.6c-0.24-1.95-2.06-2-3.42-2.55-4.81-1.85-9.63-3.67-14.47-5.43-2-.71-3.35,0-4.1,2-1,2.54-1.9,5.09-2.85,7.64Z" transform="translate(-195.14 -352.7)"/><path d="M214.37,783.53a28,28,0,0,1-4.5-2.6c-0.54-.44-0.62-2-0.29-2.8a2.29,2.29,0,0,1,3-1.51,34.18,34.18,0,0,1,3.93,1.51,2.39,2.39,0,0,1,1.2,3C217.29,782.48,216.26,783.18,214.37,783.53Z" transform="translate(-195.14 -352.7)"/><path d="M314.4,830.67l2.4-6.47c0.95-2.55,1.89-5.1,2.85-7.64,0.75-2,2.13-2.71,4.1-2,4.84,1.76,9.66,3.58,14.47,5.43,1.36,0.52,3.18.61,3.42,2.55a4,4,0,0,1-.27,2.6A19.42,19.42,0,0,0,337,838.21a35.82,35.82,0,0,0,1.41,6.33c0.18,0.75.54,1.46,0.68,2.21a2.72,2.72,0,0,1-3.51,3.26c-4.75-1.66-9.5-3.35-14.11-5.36-1.13-.49-1.88-2.15-2.51-3.42-1.37-2.75-2.55-5.59-3.79-8.4C314.89,832.09,314.64,831.33,314.4,830.67Zm17.33,11.69a28.41,28.41,0,0,1,2.82-17.54L324.25,821c-1.14,3.09-2.27,6.13-3.36,9.18a1.75,1.75,0,0,0,.09,1.15c1,2.45,2.07,4.89,3.17,7.3a2.63,2.63,0,0,0,1.13,1.32C327.31,840.8,329.4,841.51,331.73,842.36Z" transform="translate(-195.14 -352.7)"/><path class="cls-1" d="M331.73,842.36c-2.32-.85-4.41-1.56-6.45-2.41a2.63,2.63,0,0,1-1.13-1.32c-1.1-2.41-2.14-4.86-3.17-7.3a1.75,1.75,0,0,1-.09-1.15c1.09-3.05,2.22-6.08,3.36-9.18l10.29,3.82A28.41,28.41,0,0,0,331.73,842.36Z" transform="translate(-195.14 -352.7)"/><path id="Chevron_Right" data-name="Chevron Right" class="cls-2" d="M221.31,439.58l8.89-8.89a1,1,0,0,0-1.41-1.41l-8.18,8.19-8.18-8.18a1,1,0,0,0-1.41,1.41l8.89,8.89A1,1,0,0,0,221.31,439.58Z" transform="translate(-195.14 -352.7)"/><path id="Chevron_Right-2" data-name="Chevron Right" class="cls-2" d="M219.9,587.59l8.89-8.89a1,1,0,0,0-1.41-1.41l-8.18,8.19L211,577.29a1,1,0,1,0-1.41,1.41l8.89,8.89A1,1,0,0,0,219.9,587.59Z" transform="translate(-195.14 -352.7)"/><path id="Chevron_Right-3" data-name="Chevron Right" class="cls-2" d="M225.18,745.9l8.89-8.89a1,1,0,0,0-1.41-1.41l-8.18,8.19-8.18-8.18a1,1,0,0,0-1.41,1.41l8.89,8.89A1,1,0,0,0,225.18,745.9Z" transform="translate(-195.14 -352.7)"/><path id="Chevron_Right-4" data-name="Chevron Right" class="cls-2" d="M225.18,884.54l8.89-8.89a1,1,0,1,0-1.41-1.41l-8.18,8.19-8.18-8.18a1,1,0,0,0-1.41,1.41l8.89,8.89A1,1,0,0,0,225.18,884.54Z" transform="translate(-195.14 -352.7)"/><path class="cls-3" d="M261.1,483a3,3,0,1,0,4.23,0A3.21,3.21,0,0,0,261.1,483Zm10.83-2.11-8.19-8.19a6.15,6.15,0,0,0-8.45,0L196.92,531a5.9,5.9,0,0,0,0,8.45l8.19,8.19a6.23,6.23,0,0,0,4.23,1.85,5.26,5.26,0,0,0,4.23-1.85l58.37-58.37A5.75,5.75,0,0,0,271.93,480.86ZM269,486.67l-58.11,58.11a2.07,2.07,0,0,1-2.91,0l-8.19-8.19a2.07,2.07,0,0,1,0-2.91l4.49-4.49,2.64,2.64a1.91,1.91,0,0,0,2.64,0,2.07,2.07,0,0,0,0-2.91L207,526.29l7.66-7.66,2.64,2.64a1.91,1.91,0,0,0,2.64,0,2.07,2.07,0,0,0,0-2.91l-2.64-2.64,7.66-7.66,2.64,2.64a1.91,1.91,0,0,0,2.64,0,2.07,2.07,0,0,0,0-2.91l-2.64-2.64,7.66-7.66,2.64,2.64a1.91,1.91,0,0,0,2.64,0,2.07,2.07,0,0,0,0-2.91l-2.64-2.64,7.66-7.66,2.64,2.64a1.91,1.91,0,0,0,2.64,0,2.07,2.07,0,0,0,0-2.91L248.16,484l9.24-9.24a1.91,1.91,0,0,1,2.64,0l9,9a2,2,0,0,1,.53,1.32A1.94,1.94,0,0,1,269,486.67Z" transform="translate(-195.14 -352.7)"/><path d="M287.25,508.55c2.66,0,4,2,4,4.44a10.9,10.9,0,0,1-.17,1.78h-7.15c0.1,2.81,1.49,4.1,3.46,4.1a8.74,8.74,0,0,0,3.17-.62l0.43,1.13a9.17,9.17,0,0,1-3.89.89c-2.66,0-4.78-1.92-4.78-5.66C282.31,511.22,284.23,508.55,287.25,508.55Zm-3.29,5h5.64c0-.26,0-0.58,0-0.86,0-1.61-.86-2.83-2.5-2.83C285.31,509.9,284.18,511.29,284,513.59Z" transform="translate(-195.14 -352.7)"/><path d="M295.7,508.7l0.36,2.16c0.79-1.44,1.82-2.26,3.12-2.26a3,3,0,0,1,1.51.41l-0.34,1.44a3.8,3.8,0,0,0-1.27-.19,3.41,3.41,0,0,0-2.93,2.18V520h-1.58v-6.89c0-.84,0-1.87-0.22-4.22Z" transform="translate(-195.14 -352.7)"/><path d="M307,508.53a4.65,4.65,0,0,1,2.59.79V502l1.58,0v14.09c0,0.77,0,1.68.19,3.84l-1.32.19-0.31-1.63a5,5,0,0,1-3.62,1.87c-2.45,0-4.18-2.4-4.18-5.57C301.89,511.77,303.43,508.53,307,508.53Zm2.59,8.69v-6.6a4.81,4.81,0,0,0-2.59-.72,3,3,0,0,0-2.21.77,5.22,5.22,0,0,0-1.22,3.77c0,2.57,1,4.51,2.81,4.51A5,5,0,0,0,309.55,517.22Z" transform="translate(-195.14 -352.7)"/><path d="M323.63,508.87a2.45,2.45,0,0,1-.19,1L319.58,520l-1.66,0-3.74-10.2a2.63,2.63,0,0,1-.19-1h1.56l2.59,7.34c0.22,0.62.43,1.3,0.6,2h0.1l3.29-9.34h1.51Z" transform="translate(-195.14 -352.7)"/><path d="M330.33,508.55c2.66,0,4,2,4,4.44a10.9,10.9,0,0,1-.17,1.78H327c0.1,2.81,1.49,4.1,3.46,4.1a8.74,8.74,0,0,0,3.17-.62l0.43,1.13a9.17,9.17,0,0,1-3.89.89c-2.66,0-4.78-1.92-4.78-5.66C325.38,511.22,327.3,508.55,330.33,508.55Zm-3.29,5h5.64c0-.26,0-0.58,0-0.86,0-1.61-.86-2.83-2.5-2.83C328.38,509.9,327.26,511.29,327,513.59Zm3.12-9.31a1,1,0,0,1,1.08,1.1,1.15,1.15,0,0,1-1.2,1.2,1,1,0,0,1-1.1-1.08A1.17,1.17,0,0,1,330.16,504.28Z" transform="translate(-195.14 -352.7)"/><path d="M341,508.6a5.26,5.26,0,0,1,3.31,1.15l-0.7,1a4.76,4.76,0,0,0-2.62-.84c-1.32,0-2.18.62-2.18,1.61,0,1.15,1.18,1.63,2.45,2.11,1.78,0.65,3.41,1.34,3.41,3.29s-1.68,3.31-4.1,3.31a6.22,6.22,0,0,1-3.84-1.32l0.7-1.08a5.35,5.35,0,0,0,3.1,1.06c1.44,0,2.52-.65,2.52-1.8s-1.42-1.73-2.88-2.33-2.93-1.34-3-3C337.14,509.78,338.9,508.6,341,508.6Z" transform="translate(-195.14 -352.7)"/><path d="M355,508.7l0.29,1.63a5.42,5.42,0,0,1,3.86-1.8,2.61,2.61,0,0,1,2.76,1.9,5.52,5.52,0,0,1,4-1.9c2.18,0,3,1.42,3,4V520h-1.58v-6.89c0-2.23-.46-3.19-1.85-3.19a5.48,5.48,0,0,0-3.36,1.58c0,0.31,0,.65,0,1V520h-1.58v-6.89c0-2.23-.46-3.19-1.82-3.19a5.43,5.43,0,0,0-3.34,1.54V520H353.8v-6.89c0-.84,0-1.82-0.19-4.22Z" transform="translate(-195.14 -352.7)"/><path d="M376.79,508.6c2.33,0,3.29,1.32,3.29,4.25v2.9c0,0.86,0,1.82.19,4.15l-1.32.19-0.31-1.56a6.18,6.18,0,0,1-4,1.73,2.59,2.59,0,0,1-2.83-2.76,3.11,3.11,0,0,1,1.44-2.64c1-.65,2.64-1,5.23-1.25v-0.24c0-2.5-.53-3.38-2-3.38a6.65,6.65,0,0,0-3.65,1.42l-0.62-1A7.17,7.17,0,0,1,376.79,508.6Zm1.7,8.69v-2.47c-2.62.24-3.74,0.55-4.34,1a1.84,1.84,0,0,0-.79,1.54,1.48,1.48,0,0,0,1.58,1.66A5.48,5.48,0,0,0,378.5,517.29Z" transform="translate(-195.14 -352.7)"/><path d="M386.06,505.55v3.31h3.46v1.32h-3.46v6.26c0,1.9.31,2.4,1.42,2.4a7.56,7.56,0,0,0,1.85-.29l0.34,1.2a8.29,8.29,0,0,1-2.74.5c-1.73,0-2.42-.86-2.42-3.43v-6.65h-1.7v-1.32h1.61l0.38-3.31h1.27Z" transform="translate(-195.14 -352.7)"/><path d="M396.33,508.6c2.33,0,3.29,1.32,3.29,4.25v2.9c0,0.86,0,1.82.19,4.15l-1.32.19-0.31-1.56a6.18,6.18,0,0,1-4,1.73,2.59,2.59,0,0,1-2.83-2.76,3.11,3.11,0,0,1,1.44-2.64c1-.65,2.64-1,5.23-1.25v-0.24c0-2.5-.53-3.38-2-3.38a6.65,6.65,0,0,0-3.65,1.42l-0.62-1A7.17,7.17,0,0,1,396.33,508.6Zm1.7,8.69v-2.47c-2.62.24-3.74,0.55-4.34,1a1.84,1.84,0,0,0-.79,1.54,1.48,1.48,0,0,0,1.58,1.66A5.48,5.48,0,0,0,398,517.29Z" transform="translate(-195.14 -352.7)"/><path d="M411.83,508.87a2.45,2.45,0,0,1-.19,1L407.78,520l-1.66,0-3.74-10.2a2.63,2.63,0,0,1-.19-1h1.56l2.59,7.34c0.22,0.62.43,1.3,0.6,2H407l3.29-9.34h1.51Z" transform="translate(-195.14 -352.7)"/><path d="M415.48,504.28a1,1,0,0,1,1.08,1.1,1.15,1.15,0,0,1-1.2,1.2,1,1,0,0,1-1.1-1.08A1.17,1.17,0,0,1,415.48,504.28Zm0.7,4.56V520h-1.56V508.89Z" transform="translate(-195.14 -352.7)"/><path d="M421.34,508.7l0.29,1.63a5.42,5.42,0,0,1,3.86-1.8,2.61,2.61,0,0,1,2.76,1.9,5.52,5.52,0,0,1,4-1.9c2.18,0,3,1.42,3,4V520h-1.58v-6.89c0-2.23-.46-3.19-1.85-3.19a5.48,5.48,0,0,0-3.36,1.58c0,0.31,0,.65,0,1V520h-1.58v-6.89c0-2.23-.46-3.19-1.82-3.19a5.43,5.43,0,0,0-3.34,1.54V520h-1.58v-6.89c0-.84,0-1.82-0.19-4.22Z" transform="translate(-195.14 -352.7)"/><path d="M443.18,508.6c2.33,0,3.29,1.32,3.29,4.25v2.9c0,0.86,0,1.82.19,4.15l-1.32.19L445,518.54a6.17,6.17,0,0,1-4,1.73,2.59,2.59,0,0,1-2.83-2.76,3.11,3.11,0,0,1,1.44-2.64c1-.65,2.64-1,5.23-1.25v-0.24c0-2.5-.53-3.38-2-3.38a6.65,6.65,0,0,0-3.65,1.42l-0.62-1A7.17,7.17,0,0,1,443.18,508.6Zm1.7,8.69v-2.47c-2.62.24-3.74,0.55-4.34,1a1.83,1.83,0,0,0-.79,1.54,1.48,1.48,0,0,0,1.58,1.66A5.49,5.49,0,0,0,444.88,517.29Z" transform="translate(-195.14 -352.7)"/><path d="M453.71,508.6a5.26,5.26,0,0,1,3.31,1.15l-0.7,1a4.76,4.76,0,0,0-2.62-.84c-1.32,0-2.18.62-2.18,1.61,0,1.15,1.18,1.63,2.45,2.11,1.78,0.65,3.41,1.34,3.41,3.29s-1.68,3.31-4.1,3.31a6.22,6.22,0,0,1-3.84-1.32l0.7-1.08a5.35,5.35,0,0,0,3.1,1.06c1.44,0,2.52-.65,2.52-1.8s-1.42-1.73-2.88-2.33-2.93-1.34-3-3C449.89,509.78,451.65,508.6,453.71,508.6Z" transform="translate(-195.14 -352.7)"/><path d="M195.14,931.56h65.35v42H340.1v103h-145v-145Zm100.57,63.23H260.65v42h35.06v-42Zm4.72,42h35.08v-42H300.43v42ZM199.7,1072H335.47v-9.21H199.7V1072Zm56.18-135.74H199.74v79.52h56.13V936.23Zm4.73,121.69h74.89v-16.27H260.6v16.27Zm-60.92-21.09h56.15v-16.26H199.68v16.26Zm0,4.78v16.32h56.11v-16.32H199.72ZM260.61,990h74.89V978.39H260.61V990Z" transform="translate(-195.14 -352.7)"/><path class="cls-1" d="M295.71,994.79v42H260.65v-42h35.06ZM286.43,1018h4.5v-9.1h-4.5v9.1Z" transform="translate(-195.14 -352.7)"/><path class="cls-1" d="M300.43,1036.84v-42h35.08v42H300.43Zm9.2-18.78v-9.14h-4.41v9.14h4.41Z" transform="translate(-195.14 -352.7)"/><path class="cls-1" d="M199.7,1072v-9.21H335.47V1072H199.7Z" transform="translate(-195.14 -352.7)"/><path class="cls-1" d="M255.87,936.23v79.52H199.74V936.23h56.13ZM251.13,941H204.49v70h46.63V941Z" transform="translate(-195.14 -352.7)"/><path class="cls-1" d="M260.6,1057.92v-16.27h74.89v16.27H260.6Zm30.54-4.78H305v-4.41H291.14v4.41Z" transform="translate(-195.14 -352.7)"/><path class="cls-1" d="M199.68,1036.83v-16.26h56.15v16.26H199.68Zm35-9.15H220.89v4.41h13.82v-4.41Z" transform="translate(-195.14 -352.7)"/><path class="cls-1" d="M199.72,1041.61h56.11v16.32H199.72v-16.32Zm35,11.6v-4.49H220.91v4.49h13.77Z" transform="translate(-195.14 -352.7)"/><path class="cls-1" d="M260.61,990V978.39h74.89V990H260.61ZM305,987.6v-4.46h-13.8v4.46H305Z" transform="translate(-195.14 -352.7)"/><path d="M286.43,1018v-9.1h4.5v9.1h-4.5Z" transform="translate(-195.14 -352.7)"/><path d="M309.63,1018.06h-4.41v-9.14h4.41v9.14Z" transform="translate(-195.14 -352.7)"/><path d="M251.13,941v70H204.49V941h46.63Zm-4.62,4.6h-37.4v60.78h37.4V945.59Z" transform="translate(-195.14 -352.7)"/><path d="M291.14,1053.14v-4.41H305v4.41H291.14Z" transform="translate(-195.14 -352.7)"/><path d="M234.72,1027.68v4.41H220.89v-4.41h13.82Z" transform="translate(-195.14 -352.7)"/><path d="M234.68,1053.21H220.91v-4.49h13.77v4.49Z" transform="translate(-195.14 -352.7)"/><path d="M305,987.6h-13.8v-4.46H305v4.46Z" transform="translate(-195.14 -352.7)"/><path class="cls-1" d="M246.51,945.59v60.78h-37.4V945.59h37.4Z" transform="translate(-195.14 -352.7)"/><path d="M364.68,1011.36c3.26,0,5.4,1.2,5.4,3.91a4,4,0,0,1-2.42,3.84,3.81,3.81,0,0,1,3.34,4c0,2.86-2,4.82-6.1,4.82a29.75,29.75,0,0,1-4.1-.36v-15.87A25.11,25.11,0,0,1,364.68,1011.36Zm2.38,6.74a2.73,2.73,0,0,0,1.32-2.5c0-2.11-1.49-2.83-3.74-2.83a15,15,0,0,0-2.23.19v5.59l2.42,0A4.28,4.28,0,0,0,367.06,1018.1Zm1,7.68a3.26,3.26,0,0,0,1.27-2.69c0-2-1.39-3.14-4.46-3.14-0.77,0-1.61,0-2.42,0v6.38c1,0.1,1.82.17,2.64,0.17A4.92,4.92,0,0,0,368,1025.78Z" transform="translate(-195.14 -352.7)"/><path d="M378.34,1016.28c2.33,0,3.29,1.32,3.29,4.25v2.9c0,0.86,0,1.82.19,4.15l-1.32.19-0.31-1.56a6.18,6.18,0,0,1-4,1.73,2.59,2.59,0,0,1-2.83-2.76,3.12,3.12,0,0,1,1.44-2.64c1-.65,2.64-1,5.23-1.25v-0.24c0-2.5-.53-3.38-2-3.38a6.65,6.65,0,0,0-3.65,1.42l-0.62-1A7.17,7.17,0,0,1,378.34,1016.28ZM380,1025v-2.47c-2.62.24-3.74,0.55-4.34,1a1.84,1.84,0,0,0-.79,1.54,1.48,1.48,0,0,0,1.58,1.66A5.48,5.48,0,0,0,380,1025Z" transform="translate(-195.14 -352.7)"/><path d="M387.07,1009.65v15.82c0,0.77.22,1.08,0.72,1.08a2.82,2.82,0,0,0,.89-0.17l0.36,1.2a4.57,4.57,0,0,1-1.73.36c-1.15,0-1.8-.7-1.8-2v-16.2Z" transform="translate(-195.14 -352.7)"/><path d="M395.91,1016.21a4.65,4.65,0,0,1,2.59.79v-7.3l1.58,0v14.09c0,0.77,0,1.68.19,3.84l-1.32.19-0.31-1.63A5,5,0,0,1,395,1028c-2.45,0-4.18-2.4-4.18-5.57C390.84,1019.45,392.38,1016.21,395.91,1016.21Zm2.59,8.69v-6.6a4.81,4.81,0,0,0-2.59-.72,3,3,0,0,0-2.21.77,5.22,5.22,0,0,0-1.22,3.77c0,2.57,1,4.51,2.81,4.51A5,5,0,0,0,398.5,1024.89Z" transform="translate(-195.14 -352.7)"/><path d="M405.55,1016.54v7c0,2.14.6,3.12,2,3.12,1.1,0,2.09-.55,3.34-1.73v-8.35h1.56v6.82c0,1.06,0,2.57.22,4.75-1.68.79-2.52,1.66-2.52,2.5a1.12,1.12,0,0,0,1.3,1.15,4.09,4.09,0,0,0,1.54-.36l0.38,1.13a5.59,5.59,0,0,1-2.3.55,2.21,2.21,0,0,1-2.5-2.16c0-1.22,1.08-2.3,2.66-3.22l-0.24-1.51a5.2,5.2,0,0,1-3.79,1.82c-2.33,0-3.26-1.46-3.26-3.89v-7.58h1.58Z" transform="translate(-195.14 -352.7)"/><path d="M423.65,1016.37l0.29,1.63a5.42,5.42,0,0,1,3.86-1.8,2.61,2.61,0,0,1,2.76,1.9,5.52,5.52,0,0,1,4-1.9c2.18,0,3,1.42,3,4v7.46H436v-6.89c0-2.23-.46-3.19-1.85-3.19a5.49,5.49,0,0,0-3.36,1.58c0,0.31,0,.65,0,1v7.46h-1.58v-6.89c0-2.23-.46-3.19-1.82-3.19a5.43,5.43,0,0,0-3.34,1.54v8.54H422.5v-6.89c0-.84,0-1.82-0.19-4.22Z" transform="translate(-195.14 -352.7)"/><path d="M445.75,1016.21c3,0,4.75,2.45,4.75,5.76,0,2.9-1.54,6-5,6-3,0-4.78-2.42-4.78-5.76C440.76,1019.4,442.34,1016.21,445.75,1016.21Zm-0.14,1.39a2.89,2.89,0,0,0-2.06.77,5.29,5.29,0,0,0-1.18,3.67c0,2.66,1.13,4.61,3.31,4.61a2.77,2.77,0,0,0,2.06-.82,5.19,5.19,0,0,0,1.15-3.65C448.9,1019.54,447.77,1017.6,445.61,1017.6Z" transform="translate(-195.14 -352.7)"/><path d="M455,1016.37l0.29,1.58a5.89,5.89,0,0,1,4.06-1.75c2.45,0,3.24,1.44,3.24,3.89v7.58H461v-7c0-2.09-.41-3.12-2-3.12a5.63,5.63,0,0,0-3.55,1.54v8.54h-1.58v-6.89c0-.84,0-1.94-0.22-4.22Z" transform="translate(-195.14 -352.7)"/><path d="M468.48,1013.23v3.31h3.46v1.32h-3.46v6.26c0,1.9.31,2.4,1.42,2.4a7.56,7.56,0,0,0,1.85-.29l0.34,1.2a8.29,8.29,0,0,1-2.74.5c-1.73,0-2.42-.86-2.42-3.43v-6.65h-1.7v-1.32h1.61l0.38-3.31h1.27Z" transform="translate(-195.14 -352.7)"/><path d="M478.75,1016.28c2.33,0,3.29,1.32,3.29,4.25v2.9c0,0.86,0,1.82.19,4.15l-1.32.19-0.31-1.56a6.18,6.18,0,0,1-4,1.73,2.59,2.59,0,0,1-2.83-2.76,3.12,3.12,0,0,1,1.44-2.64c1-.65,2.64-1,5.23-1.25v-0.24c0-2.5-.53-3.38-2-3.38a6.65,6.65,0,0,0-3.65,1.42l-0.62-1A7.17,7.17,0,0,1,478.75,1016.28Zm1.7,8.69v-2.47c-2.62.24-3.74,0.55-4.34,1a1.84,1.84,0,0,0-.79,1.54,1.48,1.48,0,0,0,1.58,1.66A5.48,5.48,0,0,0,480.46,1025Z" transform="translate(-195.14 -352.7)"/><path d="M494.26,1016.54a2.45,2.45,0,0,1-.19,1l-3.86,10.15-1.66,0-3.74-10.2a2.63,2.63,0,0,1-.19-1h1.56l2.59,7.34c0.22,0.62.43,1.3,0.6,2h0.1l3.29-9.34h1.51Z" transform="translate(-195.14 -352.7)"/><path d="M497.9,1012a1,1,0,0,1,1.08,1.1,1.15,1.15,0,0,1-1.2,1.2,1,1,0,0,1-1.1-1.08A1.17,1.17,0,0,1,497.9,1012Zm0.7,4.56v11.16H497v-11.11Z" transform="translate(-195.14 -352.7)"/><path d="M503.76,1016.37L504,1018a5.42,5.42,0,0,1,3.86-1.8,2.61,2.61,0,0,1,2.76,1.9,5.51,5.51,0,0,1,4-1.9c2.18,0,3,1.42,3,4v7.46H516.1v-6.89c0-2.23-.46-3.19-1.85-3.19a5.49,5.49,0,0,0-3.36,1.58c0,0.31,0,.65,0,1v7.46h-1.58v-6.89c0-2.23-.46-3.19-1.82-3.19a5.43,5.43,0,0,0-3.34,1.54v8.54h-1.58v-6.89c0-.84,0-1.82-0.19-4.22Z" transform="translate(-195.14 -352.7)"/><path d="M525.6,1016.28c2.33,0,3.29,1.32,3.29,4.25v2.9c0,0.86,0,1.82.19,4.15l-1.32.19-0.31-1.56a6.18,6.18,0,0,1-4,1.73,2.59,2.59,0,0,1-2.83-2.76,3.12,3.12,0,0,1,1.44-2.64c1-.65,2.64-1,5.23-1.25v-0.24c0-2.5-.53-3.38-2-3.38a6.64,6.64,0,0,0-3.65,1.42l-0.62-1A7.17,7.17,0,0,1,525.6,1016.28Zm1.7,8.69v-2.47c-2.62.24-3.74,0.55-4.34,1a1.84,1.84,0,0,0-.79,1.54,1.48,1.48,0,0,0,1.58,1.66A5.48,5.48,0,0,0,527.3,1025Z" transform="translate(-195.14 -352.7)"/><path d="M536.13,1016.28a5.26,5.26,0,0,1,3.31,1.15l-0.7,1a4.77,4.77,0,0,0-2.62-.84c-1.32,0-2.18.62-2.18,1.61,0,1.15,1.18,1.63,2.45,2.11,1.78,0.65,3.41,1.34,3.41,3.29s-1.68,3.31-4.1,3.31a6.23,6.23,0,0,1-3.84-1.32l0.7-1.08a5.35,5.35,0,0,0,3.1,1.06c1.44,0,2.52-.65,2.52-1.8s-1.42-1.73-2.88-2.33-2.93-1.34-3-3C532.32,1017.45,534.07,1016.28,536.13,1016.28Z" transform="translate(-195.14 -352.7)"/></svg>