<svg id="Layer_1" data-name="Layer 1" xmlns="http://www.w3.org/2000/svg" viewBox="0 0 362.26 627.43"><defs><style>.cls-1{fill:#fff;}.cls-2{fill:#afbabd;}.cls-3{fill:#262324;}</style></defs><title>prototype-mobile</title><path d="M231.16,407.33a5.26,5.26,0,0,1,3.31,1.15l-0.7,1a4.76,4.76,0,0,0-2.62-.84c-1.32,0-2.18.62-2.18,1.61,0,1.15,1.18,1.63,2.45,2.11,1.78,0.65,3.41,1.34,3.41,3.29s-1.68,3.31-4.1,3.31a6.22,6.22,0,0,1-3.84-1.32l0.7-1.08a5.35,5.35,0,0,0,3.1,1.06c1.44,0,2.52-.65,2.52-1.8s-1.42-1.73-2.88-2.33-2.93-1.34-3-3C227.34,408.5,229.1,407.33,231.16,407.33Z" transform="translate(-186.67 -400.7)"/><path d="M239.46,407.57v7.06c0,2.11.6,3,2,3a5.17,5.17,0,0,0,3.34-1.7v-8.38h1.56v6.82c0,1.06,0,1.66.22,4.22l-1.32.19L245,417.22a5.43,5.43,0,0,1-3.86,1.85c-2.28,0-3.24-1.46-3.24-3.89v-7.56Z" transform="translate(-186.67 -400.7)"/><path d="M253.74,407.33a5.26,5.26,0,0,1,3.31,1.15l-0.7,1a4.76,4.76,0,0,0-2.62-.84c-1.32,0-2.18.62-2.18,1.61,0,1.15,1.18,1.63,2.45,2.11,1.78,0.65,3.41,1.34,3.41,3.29s-1.68,3.31-4.1,3.31a6.22,6.22,0,0,1-3.84-1.32l0.7-1.08a5.35,5.35,0,0,0,3.1,1.06c1.44,0,2.52-.65,2.52-1.8s-1.42-1.73-2.88-2.33-2.93-1.34-3-3C249.93,408.5,251.68,407.33,253.74,407.33Z" transform="translate(-186.67 -400.7)"/><path d="M261.45,403a1,1,0,0,1,1.08,1.1,1.15,1.15,0,0,1-1.2,1.2,1,1,0,0,1-1.1-1.08A1.17,1.17,0,0,1,261.45,403Zm0.7,4.56v11.16h-1.56V407.62Z" transform="translate(-186.67 -400.7)"/><path d="M268.19,404.28v3.31h3.46v1.32h-3.46v6.26c0,1.9.31,2.4,1.42,2.4a7.56,7.56,0,0,0,1.85-.29l0.34,1.2a8.29,8.29,0,0,1-2.74.5c-1.73,0-2.42-.86-2.42-3.43v-6.65h-1.7v-1.32h1.61l0.38-3.31h1.27Z" transform="translate(-186.67 -400.7)"/><path d="M275.27,403a1,1,0,0,1,1.08,1.1,1.15,1.15,0,0,1-1.2,1.2,1,1,0,0,1-1.1-1.08A1.17,1.17,0,0,1,275.27,403Zm0.7,4.56v11.16h-1.56V407.62Z" transform="translate(-186.67 -400.7)"/><path d="M288.61,407.59a2,2,0,0,1-.5.84l-3.77,4.15,4.06,5.21a3,3,0,0,1,.55.94h-1.73l-3.89-5-1.8,1.92v3.12H280v-18l1.58,0v12.94l5.47-6h1.61Z" transform="translate(-186.67 -400.7)"/><path d="M292.38,403a1,1,0,0,1,1.08,1.1,1.15,1.15,0,0,1-1.2,1.2,1,1,0,0,1-1.1-1.08A1.17,1.17,0,0,1,292.38,403Zm0.7,4.56v11.16h-1.56V407.62Z" transform="translate(-186.67 -400.7)"/><path d="M298.24,407.42l0.29,1.63a5.42,5.42,0,0,1,3.86-1.8,2.61,2.61,0,0,1,2.76,1.9,5.52,5.52,0,0,1,4-1.9c2.18,0,3,1.42,3,4v7.46h-1.58v-6.89c0-2.23-.46-3.19-1.85-3.19a5.48,5.48,0,0,0-3.36,1.58c0,0.31,0,.65,0,1v7.46h-1.58v-6.89c0-2.23-.46-3.19-1.82-3.19a5.43,5.43,0,0,0-3.34,1.54v8.54h-1.58v-6.89c0-.84,0-1.82-0.19-4.22Z" transform="translate(-186.67 -400.7)"/><path d="M320.08,407.33c2.33,0,3.29,1.32,3.29,4.25v2.9c0,0.86,0,1.82.19,4.15l-1.32.19-0.31-1.56a6.18,6.18,0,0,1-4,1.73,2.59,2.59,0,0,1-2.83-2.76,3.11,3.11,0,0,1,1.44-2.64c1-.65,2.64-1,5.23-1.25V412.1c0-2.5-.53-3.38-2-3.38a6.65,6.65,0,0,0-3.65,1.42l-0.62-1A7.17,7.17,0,0,1,320.08,407.33Zm1.7,8.69v-2.47c-2.62.24-3.74,0.55-4.34,1a1.84,1.84,0,0,0-.79,1.54,1.48,1.48,0,0,0,1.58,1.66A5.48,5.48,0,0,0,321.78,416Z" transform="translate(-186.67 -400.7)"/><path d="M330.61,407.33a5.26,5.26,0,0,1,3.31,1.15l-0.7,1a4.76,4.76,0,0,0-2.62-.84c-1.32,0-2.18.62-2.18,1.61,0,1.15,1.18,1.63,2.45,2.11,1.78,0.65,3.41,1.34,3.41,3.29s-1.68,3.31-4.1,3.31a6.22,6.22,0,0,1-3.84-1.32l0.7-1.08a5.35,5.35,0,0,0,3.1,1.06c1.44,0,2.52-.65,2.52-1.8s-1.42-1.73-2.88-2.33-2.93-1.34-3-3C326.8,408.5,328.55,407.33,330.61,407.33Z" transform="translate(-186.67 -400.7)"/><path d="M346.77,407.33a5.26,5.26,0,0,1,3.31,1.15l-0.7,1a4.76,4.76,0,0,0-2.62-.84c-1.32,0-2.18.62-2.18,1.61,0,1.15,1.18,1.63,2.45,2.11,1.78,0.65,3.41,1.34,3.41,3.29s-1.68,3.31-4.1,3.31a6.22,6.22,0,0,1-3.84-1.32l0.7-1.08a5.35,5.35,0,0,0,3.1,1.06c1.44,0,2.52-.65,2.52-1.8s-1.42-1.73-2.88-2.33-2.93-1.34-3-3C342.95,408.5,344.7,407.33,346.77,407.33Z" transform="translate(-186.67 -400.7)"/><path d="M355.07,407.57v7.06c0,2.11.6,3,2,3a5.17,5.17,0,0,0,3.34-1.7v-8.38H362v6.82c0,1.06,0,1.66.22,4.22l-1.32.19-0.31-1.61a5.43,5.43,0,0,1-3.86,1.85c-2.28,0-3.24-1.46-3.24-3.89v-7.56Z" transform="translate(-186.67 -400.7)"/><path d="M373.45,407.57v7.06c0,2.11.6,3,2,3a5.17,5.17,0,0,0,3.34-1.7v-8.38h1.56v6.82c0,1.06,0,1.66.22,4.22l-1.32.19L379,417.22a5.43,5.43,0,0,1-3.86,1.85c-2.28,0-3.24-1.46-3.24-3.89v-7.56Z" transform="translate(-186.67 -400.7)"/><path d="M391.79,407.59l0.26,1.2-6.7,8.64h6.58l0,1.3h-8.33l-0.19-1.2,6.65-8.64h-6.26l0-1.3h8Zm-7.25-5.26,0.86-.77,2.54,2.76,2.59-2.76,0.82,0.77-2.83,3.36-1.18.1Z" transform="translate(-186.67 -400.7)"/><path d="M398.53,407.33a5.26,5.26,0,0,1,3.31,1.15l-0.7,1a4.76,4.76,0,0,0-2.62-.84c-1.32,0-2.18.62-2.18,1.61,0,1.15,1.18,1.63,2.45,2.11,1.78,0.65,3.41,1.34,3.41,3.29s-1.68,3.31-4.1,3.31a6.22,6.22,0,0,1-3.84-1.32l0.7-1.08a5.35,5.35,0,0,0,3.1,1.06c1.44,0,2.52-.65,2.52-1.8s-1.42-1.73-2.88-2.33-2.93-1.34-3-3C394.72,408.5,396.47,407.33,398.53,407.33Z" transform="translate(-186.67 -400.7)"/><path d="M409.43,407.33c2.33,0,3.29,1.32,3.29,4.25v2.9c0,0.86,0,1.82.19,4.15l-1.32.19-0.31-1.56a6.18,6.18,0,0,1-4,1.73,2.59,2.59,0,0,1-2.83-2.76,3.11,3.11,0,0,1,1.44-2.64c1-.65,2.64-1,5.23-1.25V412.1c0-2.5-.53-3.38-2-3.38a6.65,6.65,0,0,0-3.65,1.42l-0.62-1A7.17,7.17,0,0,1,409.43,407.33Zm1.7,8.69v-2.47c-2.62.24-3.74,0.55-4.34,1A1.84,1.84,0,0,0,406,416a1.48,1.48,0,0,0,1.58,1.66A5.48,5.48,0,0,0,411.13,416Z" transform="translate(-186.67 -400.7)"/><path d="M425.29,407.59a2,2,0,0,1-.5.84L421,412.58l4.06,5.21a3,3,0,0,1,.55.94H423.9l-3.89-5-1.8,1.92v3.12h-1.58v-18l1.58,0v12.94l5.47-6h1.61Z" transform="translate(-186.67 -400.7)"/><path d="M432,407.26c3,0,4.75,2.45,4.75,5.76,0,2.9-1.54,6-5,6-3,0-4.78-2.42-4.78-5.76C427,410.45,428.58,407.26,432,407.26Zm-0.14,1.39a2.89,2.89,0,0,0-2.06.77,5.29,5.29,0,0,0-1.18,3.67c0,2.66,1.13,4.61,3.31,4.61a2.77,2.77,0,0,0,2.06-.82,5.19,5.19,0,0,0,1.15-3.65C435.13,410.59,434,408.65,431.84,408.65Z" transform="translate(-186.67 -400.7)"/><path d="M448.21,407.59a2.45,2.45,0,0,1-.19,1l-3.86,10.15-1.66,0-3.74-10.2a2.63,2.63,0,0,1-.19-1h1.56l2.59,7.34c0.22,0.62.43,1.3,0.6,2h0.1l3.29-9.34h1.51Z" transform="translate(-186.67 -400.7)"/><path d="M452.46,407.57v7.06c0,2.11.6,3,2,3a5.17,5.17,0,0,0,3.34-1.7v-8.38h1.56v6.82c0,1.06,0,1.66.22,4.22l-1.32.19L458,417.22a5.43,5.43,0,0,1-3.86,1.85c-2.28,0-3.24-1.46-3.24-3.89v-7.56Z" transform="translate(-186.67 -400.7)"/><path d="M252.66,702.61q-16.31,0-32.62,0a9,9,0,0,1-9.3-8.75c-0.19-5-.11-10-0.11-15q0-19.4,0-38.8a9.42,9.42,0,0,1,6.28-9.14A9,9,0,0,1,228,636.1a1.55,1.55,0,0,0,1.75,1.12q28.13,0,56.27,0c1.75,0,2.18.43,2.18,2.14q0,30.5,0,61c0,1.91-.34,2.27-2.22,2.27h-33.3Zm-23.93-62.43c0,0.43,0,.75,0,1.07q0,25.67,0,51.33c0,1.18-.46,1.82-1.34,1.89s-1.45-.49-1.59-1.65a6,6,0,0,0-8-5.19c-3,.89-4.63,3.66-4.1,7.14,0.45,3,2.83,4.92,6.17,4.93h64.36c0.34,0,.67,0,1,0V640.18H228.73Zm-2.91,46.68v-1.28q0-15.48,0-31c0-5,0-10.1,0-15.15a5.92,5.92,0,0,0-6.12-6.18c-3.61,0-6,2.47-6,6.18q0,23.16,0,46.31c0,0.3,0,.6.06,1C217.79,683.65,221.77,683.69,225.82,686.86Z" transform="translate(-186.67 -400.7)"/><path d="M249.48,705.9h19.86q8.58,0,17.16.06c1.26,0,1.72.49,1.73,1.78q0,6.95,0,13.89c0,1.28-.53,1.78-1.84,1.78H212.67c-1.41,0-1.9-.49-1.9-1.92q0-6.75,0-13.51c0-1.58.42-2,2-2h14.75l19.08-.06h2.89Zm15.63,3c0,0.31-.06.56-0.06,0.81,0,1.58,0,3.15,0,4.73a1.4,1.4,0,0,1-1.41,1.51,1.46,1.46,0,0,1-1.48-1.47c0-.35,0-0.71,0-1.06q0-2.25,0-4.5H259.4c0,0.84,0,1.61,0,2.38a1.5,1.5,0,0,1-1.5,1.74,1.44,1.44,0,0,1-1.4-1.71c0-.79,0-1.59,0-2.42h-2.78c0,0.83,0,1.59,0,2.36,0,1.16-.53,1.77-1.46,1.76s-1.44-.64-1.46-1.77c0-.79,0-1.57,0-2.36H248c0,0.4,0,.74,0,1.09,0,1.51,0,3,0,4.54a1.33,1.33,0,0,1-1.12,1.38,1.3,1.3,0,0,1-1.59-.76,2.85,2.85,0,0,1-.18-1.12c0-1.7,0-3.39,0-5.1h-2.9c0,0.84,0,1.61,0,2.38a1.47,1.47,0,1,1-2.9,0c0-.8,0-1.59,0-2.42h-2.75c0,0.89,0,1.72,0,2.55a1.45,1.45,0,0,1-1.46,1.58,1.41,1.41,0,0,1-1.44-1.58c0-.83,0-1.66,0-2.55h-2.79c0,0.39,0,.73,0,1.07,0,1.51,0,3,0,4.54a1.38,1.38,0,0,1-1.38,1.43,1.45,1.45,0,0,1-1.49-1.35,9.31,9.31,0,0,1,0-1.06c0-1.53,0-3.07,0-4.61h-2.91c0,0.88,0,1.68,0,2.48a1.43,1.43,0,0,1-1.39,1.62,1.46,1.46,0,0,1-1.5-1.62c0-.83,0-1.65,0-2.49h-2.74c0,0.9,0,1.73,0,2.56a1.45,1.45,0,0,1-1.48,1.56,1.42,1.42,0,0,1-1.42-1.59c0-.83,0-1.65,0-2.54h-2.8v11.5h71.52V708.93h-3c0,0.39,0,.74,0,1.08,0,1.51.07,3,0,4.53a1.83,1.83,0,0,1-.91,1.29,1.74,1.74,0,0,1-1.47-.29,1.83,1.83,0,0,1-.47-1.28c-0.05-1.76,0-3.52,0-5.32h-2.74c0,0.89,0,1.72,0,2.55a1.45,1.45,0,0,1-1.47,1.57,1.41,1.41,0,0,1-1.43-1.58c0-.83,0-1.66,0-2.52h-2.79c0,0.86,0,1.62,0,2.39a1.45,1.45,0,0,1-1.41,1.71,1.5,1.5,0,0,1-1.49-1.74c0-.79,0-1.58,0-2.39h-2.84Z" transform="translate(-186.67 -400.7)"/><path d="M195.14,674.2q0-18.77,0-37.53a6.34,6.34,0,0,1,4.59-6.09c3.59-1,7.34,2.13,7.35,6.13,0,7.36,0,14.73,0,22.09q0,26.39,0,52.77a5.09,5.09,0,0,1-.44,2c-1.29,2.87-2.66,5.7-4,8.55a1.68,1.68,0,0,1-1.54,1.25,1.7,1.7,0,0,1-1.51-1.28c-1.35-2.91-2.74-5.81-4.07-8.73a4.14,4.14,0,0,1-.35-1.66Q195.12,693,195.14,674.2Zm3-33.31V710.1h6V640.88h-6Zm6.05-3c0-1.64.1-3.21-1.42-4.14a3.05,3.05,0,0,0-3.46.1c-1.46,1-1.25,2.52-1.2,4h6.08Zm-5.59,75.25,2.54,5.4,2.54-5.4h-5.08Z" transform="translate(-186.67 -400.7)"/><path class="cls-1" d="M198.57,713.12h5.08l-2.54,5.4Z" transform="translate(-186.67 -400.7)"/><path d="M256.27,644.64H277.6c1.78,0,2.14.38,2.13,2.14,0,4.21,0,8.43,0,12.64,0,1.64-.41,2.05-2,2.05H235.22c-0.29,0-.58,0-0.87,0a1.43,1.43,0,0,1-1.56-1.56q0-6.85,0-13.7c0-1.1.59-1.56,1.85-1.56h21.62ZM235.71,658.5h41V647.63h-41V658.5Z" transform="translate(-186.67 -400.7)"/><path d="M270.62,678.93c-2.44,0-4.88,0-7.33,0a1.49,1.49,0,0,1-1.72-1.6,1.47,1.47,0,0,1,1.63-1.31c5,0,10,0,14.94,0a1.45,1.45,0,1,1,0,2.9C275.64,678.95,273.13,678.93,270.62,678.93Z" transform="translate(-186.67 -400.7)"/><path d="M241.81,678.93c-2.44,0-4.88,0-7.32,0a2.2,2.2,0,0,1-1.48-.81,1.51,1.51,0,0,1,.08-1.39,1.78,1.78,0,0,1,1.28-.65c4.95,0,9.89,0,14.84,0a1.45,1.45,0,1,1,0,2.9C246.75,679,244.28,678.93,241.81,678.93Z" transform="translate(-186.67 -400.7)"/><path d="M270.59,695.22c-2.44,0-4.89,0-7.33,0a2.2,2.2,0,0,1-1.48-.81,1.51,1.51,0,0,1,.07-1.39,1.77,1.77,0,0,1,1.28-.64c5,0,10,0,14.95,0a1.46,1.46,0,1,1,0,2.9c-2.51,0-5,0-7.52,0h0Z" transform="translate(-186.67 -400.7)"/><path d="M270.63,670.92H263.4c-1.14,0-1.8-.52-1.83-1.39s0.66-1.51,1.83-1.51H278c1.14,0,1.76.53,1.77,1.45s-0.62,1.44-1.76,1.45h-7.33Z" transform="translate(-186.67 -400.7)"/><path d="M270.72,684.17H278c1.16,0,1.77.5,1.77,1.43a1.48,1.48,0,0,1-1.76,1.47H263.41c-1.16,0-1.87-.6-1.84-1.51s0.69-1.4,1.83-1.4h7.33Z" transform="translate(-186.67 -400.7)"/><path d="M241.82,692.31H249c1.14,0,1.76.53,1.75,1.45a1.5,1.5,0,0,1-1.78,1.45H234.55a1.51,1.51,0,0,1-1.76-1.48c0-.88.67-1.42,1.8-1.42h7.23Z" transform="translate(-186.67 -400.7)"/><path d="M241.86,670.92h-7.33a1.47,1.47,0,1,1,0-2.9h14.55a1.47,1.47,0,1,1,0,2.9h-7.23Z" transform="translate(-186.67 -400.7)"/><path d="M241.75,684.18H249c1.18,0,1.79.48,1.81,1.39s-0.62,1.51-1.81,1.52H234.62c-1.17,0-1.86-.59-1.83-1.51s0.68-1.39,1.83-1.39h7.13Z" transform="translate(-186.67 -400.7)"/><path d="M327,655.69c4.13,0,6.17,1.73,6.17,4.85,0,3.34-2.28,5.5-6.43,5.5a16.45,16.45,0,0,1-1.8-.1V672h-1.61v-16A23.81,23.81,0,0,1,327,655.69Zm2.52,8.38a3.42,3.42,0,0,0,1.94-3.36c0-2.45-1.51-3.55-4.37-3.55a17.07,17.07,0,0,0-2.16.17v7.2q0.83,0.07,1.66.07A6.65,6.65,0,0,0,329.51,664.07Z" transform="translate(-186.67 -400.7)"/><path d="M337.07,660.73l0.36,2.16c0.79-1.44,1.82-2.26,3.12-2.26a3,3,0,0,1,1.51.41l-0.34,1.44a3.82,3.82,0,0,0-1.27-.19,3.41,3.41,0,0,0-2.93,2.18V672h-1.58v-6.89c0-.84,0-1.87-0.22-4.22Z" transform="translate(-186.67 -400.7)"/><path d="M348.25,660.57c3,0,4.75,2.45,4.75,5.76,0,2.9-1.54,6-5,6-3,0-4.78-2.42-4.78-5.76C343.26,663.76,344.84,660.57,348.25,660.57ZM348.11,662a2.89,2.89,0,0,0-2.06.77,5.29,5.29,0,0,0-1.18,3.67c0,2.67,1.13,4.61,3.31,4.61a2.77,2.77,0,0,0,2.06-.82,5.19,5.19,0,0,0,1.15-3.65C351.39,663.9,350.27,662,348.11,662Z" transform="translate(-186.67 -400.7)"/><path d="M358.23,657.59v3.31h3.46v1.32h-3.46v6.26c0,1.9.31,2.4,1.42,2.4a7.61,7.61,0,0,0,1.85-.29l0.34,1.2a8.27,8.27,0,0,1-2.74.5c-1.73,0-2.42-.86-2.42-3.43v-6.65H355V660.9h1.61l0.38-3.31h1.27Z" transform="translate(-186.67 -400.7)"/><path d="M368.77,660.57c3,0,4.75,2.45,4.75,5.76,0,2.9-1.54,6-5,6-3,0-4.78-2.42-4.78-5.76C363.78,663.76,365.36,660.57,368.77,660.57ZM368.63,662a2.89,2.89,0,0,0-2.06.77,5.29,5.29,0,0,0-1.18,3.67c0,2.67,1.13,4.61,3.31,4.61a2.77,2.77,0,0,0,2.06-.82,5.19,5.19,0,0,0,1.15-3.65C371.91,663.9,370.79,662,368.63,662Z" transform="translate(-186.67 -400.7)"/><path d="M378.75,657.59v3.31h3.46v1.32h-3.46v6.26c0,1.9.31,2.4,1.42,2.4a7.61,7.61,0,0,0,1.85-.29l0.34,1.2a8.27,8.27,0,0,1-2.74.5c-1.73,0-2.42-.86-2.42-3.43v-6.65h-1.7V660.9h1.61l0.38-3.31h1.27Z" transform="translate(-186.67 -400.7)"/><path d="M385.83,656.32a1,1,0,0,1,1.08,1.1,1.15,1.15,0,0,1-1.2,1.2,1,1,0,0,1-1.1-1.08A1.17,1.17,0,0,1,385.83,656.32Zm0.7,4.56V672H385V660.93Z" transform="translate(-186.67 -400.7)"/><path d="M391.66,660.73l0.29,1.56a4.86,4.86,0,0,1,3.53-1.73c2.59,0,4.3,2.42,4.3,5.59,0,3-1.58,6.22-5,6.22a4.68,4.68,0,0,1-2.64-.77v6.19h-1.58V665.17c0-.86,0-1.9-0.19-4.25Zm5.26,9.5a5.32,5.32,0,0,0,1.22-3.79c0-2.5-1-4.49-2.9-4.49a4.79,4.79,0,0,0-3.12,1.51v6.86a5.2,5.2,0,0,0,2.57.67A3,3,0,0,0,396.92,670.24Z" transform="translate(-186.67 -400.7)"/><path d="M404.55,660.9v7c0,2.14.6,3.12,2,3.12,1.1,0,2.09-.55,3.34-1.73V660.9h1.56v6.82c0,1.06,0,2.57.22,4.75-1.68.79-2.52,1.66-2.52,2.5a1.12,1.12,0,0,0,1.3,1.15,4.09,4.09,0,0,0,1.54-.36l0.38,1.13a5.57,5.57,0,0,1-2.3.55,2.21,2.21,0,0,1-2.5-2.16c0-1.22,1.08-2.3,2.66-3.22L410,670.55a5.2,5.2,0,0,1-3.79,1.82c-2.33,0-3.26-1.46-3.26-3.89V660.9h1.58Z" transform="translate(-186.67 -400.7)"/><path d="M424.81,660.64a5.26,5.26,0,0,1,3.31,1.15l-0.7,1a4.77,4.77,0,0,0-2.62-.84c-1.32,0-2.18.62-2.18,1.61,0,1.15,1.18,1.63,2.45,2.11,1.78,0.65,3.41,1.34,3.41,3.29s-1.68,3.31-4.1,3.31a6.23,6.23,0,0,1-3.84-1.32l0.7-1.08a5.35,5.35,0,0,0,3.1,1.06c1.44,0,2.52-.65,2.52-1.8s-1.42-1.73-2.88-2.33-2.93-1.34-3-3C421,661.81,422.74,660.64,424.81,660.64Z" transform="translate(-186.67 -400.7)"/><path d="M433.11,660.88v7.06c0,2.11.6,3,2,3a5.17,5.17,0,0,0,3.34-1.7V660.9H440v6.82c0,1.06,0,1.66.22,4.22l-1.32.19-0.31-1.61a5.43,5.43,0,0,1-3.86,1.85c-2.28,0-3.24-1.46-3.24-3.89v-7.56Z" transform="translate(-186.67 -400.7)"/><path d="M452.72,660.9a2,2,0,0,1-.5.84l-3.77,4.15,4.06,5.21a3,3,0,0,1,.55.94h-1.73l-3.89-5-1.8,1.92V672h-1.58v-18l1.58,0V667l5.47-6h1.61Z" transform="translate(-186.67 -400.7)"/><path d="M457.09,660.88v7.06c0,2.11.6,3,2,3a5.17,5.17,0,0,0,3.34-1.7V660.9H464v6.82c0,1.06,0,1.66.22,4.22l-1.32.19-0.31-1.61a5.43,5.43,0,0,1-3.86,1.85c-2.28,0-3.24-1.46-3.24-3.89v-7.56Z" transform="translate(-186.67 -400.7)"/><path d="M469.18,660.73l0.36,2.16c0.79-1.44,1.82-2.26,3.12-2.26a3,3,0,0,1,1.51.41l-0.34,1.44a3.82,3.82,0,0,0-1.27-.19,3.41,3.41,0,0,0-2.93,2.18V672h-1.58v-6.89c0-.84,0-1.87-0.22-4.22Z" transform="translate(-186.67 -400.7)"/><path d="M477.42,656.32a1,1,0,0,1,1.08,1.1,1.15,1.15,0,0,1-1.2,1.2,1,1,0,0,1-1.1-1.08A1.17,1.17,0,0,1,477.42,656.32Zm0.7,4.56V672h-1.56V660.93Z" transform="translate(-186.67 -400.7)"/><path d="M483.27,660.73l0.29,1.63a5.42,5.42,0,0,1,3.86-1.8,2.61,2.61,0,0,1,2.76,1.9,5.51,5.51,0,0,1,4-1.9c2.18,0,3,1.42,3,4V672h-1.58v-6.89c0-2.23-.46-3.19-1.85-3.19a5.48,5.48,0,0,0-3.36,1.58c0,0.31,0,.65,0,1V672h-1.58v-6.89c0-2.23-.46-3.19-1.82-3.19a5.43,5.43,0,0,0-3.34,1.54V672h-1.58v-6.89c0-.84,0-1.82-0.19-4.22Z" transform="translate(-186.67 -400.7)"/><path d="M505.11,660.64c2.33,0,3.29,1.32,3.29,4.25v2.9c0,0.86,0,1.82.19,4.15l-1.32.19L507,670.58a6.18,6.18,0,0,1-4,1.73,2.59,2.59,0,0,1-2.83-2.76,3.11,3.11,0,0,1,1.44-2.64c1-.65,2.64-1,5.23-1.25v-0.24c0-2.5-.53-3.38-2-3.38a6.64,6.64,0,0,0-3.65,1.42l-0.62-1A7.17,7.17,0,0,1,505.11,660.64Zm1.7,8.69v-2.47c-2.62.24-3.74,0.55-4.34,1a1.84,1.84,0,0,0-.79,1.54,1.48,1.48,0,0,0,1.58,1.66A5.48,5.48,0,0,0,506.82,669.33Z" transform="translate(-186.67 -400.7)"/><path d="M515.65,660.64a5.26,5.26,0,0,1,3.31,1.15l-0.7,1a4.77,4.77,0,0,0-2.62-.84c-1.32,0-2.18.62-2.18,1.61,0,1.15,1.18,1.63,2.45,2.11,1.78,0.65,3.41,1.34,3.41,3.29s-1.68,3.31-4.1,3.31a6.23,6.23,0,0,1-3.84-1.32l0.7-1.08a5.35,5.35,0,0,0,3.1,1.06c1.44,0,2.52-.65,2.52-1.8s-1.42-1.73-2.88-2.33-2.93-1.34-3-3C511.83,661.81,513.58,660.64,515.65,660.64Z" transform="translate(-186.67 -400.7)"/><path d="M523.93,668.68a7.83,7.83,0,0,1,.19,1.68,6.16,6.16,0,0,1-2.66,5.11l-0.7-.62a5.94,5.94,0,0,0,1.78-4.39,13.08,13.08,0,0,0-.12-1.66Z" transform="translate(-186.67 -400.7)"/><path d="M327,689.44c2.33,0,3.29,1.32,3.29,4.25v2.9c0,0.86,0,1.82.19,4.15l-1.32.19-0.31-1.56a6.18,6.18,0,0,1-4,1.73,2.59,2.59,0,0,1-2.83-2.76,3.11,3.11,0,0,1,1.44-2.64c1-.65,2.64-1,5.23-1.25v-0.24c0-2.5-.53-3.38-2-3.38a6.65,6.65,0,0,0-3.65,1.42l-0.62-1A7.17,7.17,0,0,1,327,689.44Zm1.7,8.69v-2.47c-2.62.24-3.74,0.55-4.34,1a1.83,1.83,0,0,0-.79,1.54,1.48,1.48,0,0,0,1.58,1.66A5.48,5.48,0,0,0,328.74,698.13Z" transform="translate(-186.67 -400.7)"/><path d="M335.39,689.53l0.29,1.56a4.86,4.86,0,0,1,3.53-1.73c2.59,0,4.3,2.42,4.3,5.59,0,3-1.58,6.22-5,6.22a4.68,4.68,0,0,1-2.64-.77v6.19h-1.58V694c0-.86,0-1.9-0.19-4.25Zm5.26,9.5a5.32,5.32,0,0,0,1.22-3.79c0-2.5-1-4.49-2.9-4.49a4.79,4.79,0,0,0-3.12,1.51v6.86a5.2,5.2,0,0,0,2.57.67A3,3,0,0,0,340.64,699Z" transform="translate(-186.67 -400.7)"/><path d="M348.73,686.39v3.31h3.46V691h-3.46v6.26c0,1.9.31,2.4,1.42,2.4a7.61,7.61,0,0,0,1.85-.29l0.34,1.2a8.27,8.27,0,0,1-2.74.5c-1.73,0-2.42-.86-2.42-3.43V691h-1.7V689.7h1.61l0.38-3.31h1.27Z" transform="translate(-186.67 -400.7)"/><path d="M359,689.44c2.33,0,3.29,1.32,3.29,4.25v2.9c0,0.86,0,1.82.19,4.15l-1.32.19-0.31-1.56a6.18,6.18,0,0,1-4,1.73,2.59,2.59,0,0,1-2.83-2.76,3.11,3.11,0,0,1,1.44-2.64c1-.65,2.64-1,5.23-1.25v-0.24c0-2.5-.53-3.38-2-3.38a6.65,6.65,0,0,0-3.65,1.42l-0.62-1A7.17,7.17,0,0,1,359,689.44Zm1.7,8.69v-2.47c-2.62.24-3.74,0.55-4.34,1a1.83,1.83,0,0,0-.79,1.54,1.48,1.48,0,0,0,1.58,1.66A5.48,5.48,0,0,0,360.71,698.13Z" transform="translate(-186.67 -400.7)"/><path d="M367.35,689.53l0.36,2.16c0.79-1.44,1.82-2.26,3.12-2.26a3,3,0,0,1,1.51.41L372,691.29a3.82,3.82,0,0,0-1.27-.19,3.41,3.41,0,0,0-2.93,2.18v7.56h-1.58V694c0-.84,0-1.87-0.22-4.22Z" transform="translate(-186.67 -400.7)"/><path d="M375.58,685.12a1,1,0,0,1,1.08,1.1,1.15,1.15,0,0,1-1.2,1.2,1,1,0,0,1-1.1-1.08A1.17,1.17,0,0,1,375.58,685.12Zm0.7,4.56v11.16h-1.56V689.73Z" transform="translate(-186.67 -400.7)"/><path d="M381.44,689.53l0.29,1.63a5.42,5.42,0,0,1,3.86-1.8,2.61,2.61,0,0,1,2.76,1.9,5.51,5.51,0,0,1,4-1.9c2.18,0,3,1.42,3,4v7.46h-1.58V694c0-2.23-.46-3.19-1.85-3.19a5.48,5.48,0,0,0-3.36,1.58c0,0.31,0,.65,0,1v7.46H387V694c0-2.23-.46-3.19-1.82-3.19a5.43,5.43,0,0,0-3.34,1.54v8.54h-1.58V694c0-.84,0-1.82-0.19-4.22Z" transform="translate(-186.67 -400.7)"/><path d="M403.28,689.44c2.33,0,3.29,1.32,3.29,4.25v2.9c0,0.86,0,1.82.19,4.15l-1.32.19-0.31-1.56a6.18,6.18,0,0,1-4,1.73,2.59,2.59,0,0,1-2.83-2.76,3.11,3.11,0,0,1,1.44-2.64c1-.65,2.64-1,5.23-1.25v-0.24c0-2.5-.53-3.38-2-3.38a6.65,6.65,0,0,0-3.65,1.42l-0.62-1A7.17,7.17,0,0,1,403.28,689.44Zm1.7,8.69v-2.47c-2.62.24-3.74,0.55-4.34,1a1.83,1.83,0,0,0-.79,1.54,1.48,1.48,0,0,0,1.58,1.66A5.48,5.48,0,0,0,405,698.13Z" transform="translate(-186.67 -400.7)"/><path d="M413.82,689.44a5.26,5.26,0,0,1,3.31,1.15l-0.7,1a4.77,4.77,0,0,0-2.62-.84c-1.32,0-2.18.62-2.18,1.61,0,1.15,1.18,1.63,2.45,2.11,1.78,0.65,3.41,1.34,3.41,3.29s-1.68,3.31-4.1,3.31a6.23,6.23,0,0,1-3.84-1.32l0.7-1.08a5.35,5.35,0,0,0,3.1,1.06c1.44,0,2.52-.65,2.52-1.8s-1.42-1.73-2.88-2.33-2.93-1.34-3-3C410,690.61,411.75,689.44,413.82,689.44Z" transform="translate(-186.67 -400.7)"/><path d="M427.5,685.12a1,1,0,0,1,1.08,1.1,1.15,1.15,0,0,1-1.2,1.2,1,1,0,0,1-1.1-1.08A1.17,1.17,0,0,1,427.5,685.12Zm0.7,4.56v11.16h-1.56V689.73Z" transform="translate(-186.67 -400.7)"/><path d="M433.33,689.53l0.36,2.16c0.79-1.44,1.82-2.26,3.12-2.26a3,3,0,0,1,1.51.41L438,691.29a3.82,3.82,0,0,0-1.27-.19,3.41,3.41,0,0,0-2.93,2.18v7.56H432.2V694c0-.84,0-1.87-0.22-4.22Z" transform="translate(-186.67 -400.7)"/><path d="M448.18,686.39v3.31h3.46V691h-3.46v6.26c0,1.9.31,2.4,1.42,2.4a7.61,7.61,0,0,0,1.85-.29l0.34,1.2a8.27,8.27,0,0,1-2.74.5c-1.73,0-2.42-.86-2.42-3.43V691h-1.7V689.7h1.61l0.38-3.31h1.27Z" transform="translate(-186.67 -400.7)"/><path d="M462.9,689.7a2.44,2.44,0,0,1-.19,1l-3.86,10.15-1.66,0-3.74-10.2a2.63,2.63,0,0,1-.19-1h1.56L457.4,697c0.22,0.62.43,1.3,0.6,2h0.1l3.29-9.34h1.51Z" transform="translate(-186.67 -400.7)"/><path d="M466.54,685.12a1,1,0,0,1,1.08,1.1,1.15,1.15,0,0,1-1.2,1.2,1,1,0,0,1-1.1-1.08A1.17,1.17,0,0,1,466.54,685.12Zm0.7,4.56v11.16h-1.56V689.73Z" transform="translate(-186.67 -400.7)"/><path d="M472.37,689.53l0.36,2.16c0.79-1.44,1.82-2.26,3.12-2.26a3,3,0,0,1,1.51.41L477,691.29a3.82,3.82,0,0,0-1.27-.19,3.41,3.41,0,0,0-2.93,2.18v7.56h-1.58V694c0-.84,0-1.87-0.22-4.22Z" transform="translate(-186.67 -400.7)"/><path d="M481.81,686.39v3.31h3.46V691h-3.46v6.26c0,1.9.31,2.4,1.42,2.4a7.62,7.62,0,0,0,1.85-.29l0.34,1.2a8.27,8.27,0,0,1-2.74.5c-1.73,0-2.42-.86-2.42-3.43V691h-1.7V689.7h1.61l0.38-3.31h1.27Z" transform="translate(-186.67 -400.7)"/><path d="M488.89,685.12a1,1,0,0,1,1.08,1.1,1.15,1.15,0,0,1-1.2,1.2,1,1,0,0,1-1.1-1.08A1.17,1.17,0,0,1,488.89,685.12Zm0.7,4.56v11.16H488V689.73Z" transform="translate(-186.67 -400.7)"/><path d="M494.72,689.53l0.29,1.58a5.89,5.89,0,0,1,4.06-1.75c2.45,0,3.24,1.44,3.24,3.89v7.58h-1.58v-7c0-2.09-.41-3.12-2-3.12a5.63,5.63,0,0,0-3.55,1.54v8.54h-1.58V694c0-.84,0-1.94-0.22-4.22Z" transform="translate(-186.67 -400.7)"/><path d="M507,685.12a1,1,0,0,1,1.08,1.1,1.15,1.15,0,0,1-1.2,1.2,1,1,0,0,1-1.1-1.08A1.17,1.17,0,0,1,507,685.12Zm0.7,4.56v11.16h-1.56V689.73Z" transform="translate(-186.67 -400.7)"/><path d="M512.89,689.53l0.29,1.63a5.42,5.42,0,0,1,3.87-1.8,2.61,2.61,0,0,1,2.76,1.9,5.51,5.51,0,0,1,4-1.9c2.18,0,3,1.42,3,4v7.46h-1.58V694c0-2.23-.46-3.19-1.85-3.19a5.48,5.48,0,0,0-3.36,1.58c0,0.31,0,.65,0,1v7.46h-1.58V694c0-2.23-.46-3.19-1.82-3.19a5.43,5.43,0,0,0-3.34,1.54v8.54h-1.58V694c0-.84,0-1.82-0.19-4.22Z" transform="translate(-186.67 -400.7)"/><path d="M534.73,689.44c2.33,0,3.29,1.32,3.29,4.25v2.9c0,0.86,0,1.82.19,4.15l-1.32.19-0.31-1.56a6.18,6.18,0,0,1-4,1.73,2.59,2.59,0,0,1-2.83-2.76,3.11,3.11,0,0,1,1.44-2.64c1-.65,2.64-1,5.23-1.25v-0.24c0-2.5-.53-3.38-2-3.38a6.64,6.64,0,0,0-3.65,1.42l-0.62-1A7.17,7.17,0,0,1,534.73,689.44Zm1.7,8.69v-2.47c-2.62.24-3.74,0.55-4.34,1a1.84,1.84,0,0,0-.79,1.54,1.48,1.48,0,0,0,1.58,1.66A5.48,5.48,0,0,0,536.43,698.13Z" transform="translate(-186.67 -400.7)"/><path d="M545.26,689.44a5.26,5.26,0,0,1,3.31,1.15l-0.7,1a4.77,4.77,0,0,0-2.62-.84c-1.32,0-2.18.62-2.18,1.61,0,1.15,1.18,1.63,2.45,2.11,1.78,0.65,3.41,1.34,3.41,3.29s-1.68,3.31-4.1,3.31a6.23,6.23,0,0,1-3.84-1.32l0.7-1.08a5.35,5.35,0,0,0,3.1,1.06c1.44,0,2.52-.65,2.52-1.8s-1.42-1.73-2.88-2.33-2.93-1.34-3-3C541.45,690.61,543.2,689.44,545.26,689.44Z" transform="translate(-186.67 -400.7)"/><path d="M327.2,821.76c3.26,0,5.4,1.2,5.4,3.91a4,4,0,0,1-2.42,3.84,3.81,3.81,0,0,1,3.34,4c0,2.86-2,4.82-6.1,4.82a29.61,29.61,0,0,1-4.1-.36V822.12A25.22,25.22,0,0,1,327.2,821.76Zm2.38,6.74a2.73,2.73,0,0,0,1.32-2.5c0-2.11-1.49-2.83-3.74-2.83a15,15,0,0,0-2.23.19V829l2.42,0A4.28,4.28,0,0,0,329.58,828.5Zm1,7.68a3.26,3.26,0,0,0,1.27-2.69c0-2-1.39-3.14-4.46-3.14-0.77,0-1.61,0-2.42,0v6.38c1,0.1,1.82.17,2.64,0.17A4.92,4.92,0,0,0,330.54,836.18Z" transform="translate(-186.67 -400.7)"/><path d="M340.86,826.68c2.33,0,3.29,1.32,3.29,4.25v2.9c0,0.86,0,1.82.19,4.15l-1.32.19-0.31-1.56a6.18,6.18,0,0,1-4,1.73,2.59,2.59,0,0,1-2.83-2.76,3.11,3.11,0,0,1,1.44-2.64c1-.65,2.64-1,5.23-1.25v-0.24c0-2.5-.53-3.38-2-3.38a6.65,6.65,0,0,0-3.65,1.42l-0.62-1A7.17,7.17,0,0,1,340.86,826.68Zm1.7,8.69v-2.47c-2.62.24-3.74,0.55-4.34,1a1.84,1.84,0,0,0-.79,1.54A1.48,1.48,0,0,0,339,837,5.48,5.48,0,0,0,342.56,835.37Z" transform="translate(-186.67 -400.7)"/><path d="M349.59,820.05v15.82c0,0.77.22,1.08,0.72,1.08a2.85,2.85,0,0,0,.89-0.17l0.36,1.2a4.55,4.55,0,0,1-1.73.36c-1.15,0-1.8-.7-1.8-2V820.1Z" transform="translate(-186.67 -400.7)"/><path d="M358.43,826.61a4.65,4.65,0,0,1,2.59.79v-7.3l1.58,0v14.09c0,0.77,0,1.68.19,3.84l-1.32.19-0.31-1.63a5,5,0,0,1-3.62,1.87c-2.45,0-4.18-2.4-4.18-5.57C353.36,829.85,354.9,826.61,358.43,826.61Zm2.59,8.69v-6.6a4.81,4.81,0,0,0-2.59-.72,3,3,0,0,0-2.21.77,5.22,5.22,0,0,0-1.22,3.77c0,2.57,1,4.51,2.81,4.51A5,5,0,0,0,361,835.29Z" transform="translate(-186.67 -400.7)"/><path d="M368.07,826.94v7c0,2.14.6,3.12,2,3.12,1.1,0,2.09-.55,3.34-1.73v-8.35H375v6.82c0,1.06,0,2.57.22,4.75-1.68.79-2.52,1.66-2.52,2.5a1.12,1.12,0,0,0,1.3,1.15,4.07,4.07,0,0,0,1.54-.36l0.38,1.13a5.59,5.59,0,0,1-2.3.55,2.21,2.21,0,0,1-2.5-2.16c0-1.22,1.08-2.3,2.66-3.22l-0.24-1.51a5.2,5.2,0,0,1-3.79,1.82c-2.33,0-3.26-1.46-3.26-3.89v-7.58h1.58Z" transform="translate(-186.67 -400.7)"/><path d="M386.38,834.19a3.57,3.57,0,0,1-2.06-3.41,4,4,0,0,1,4.3-4.1,4.56,4.56,0,0,1,2.35.6,4.17,4.17,0,0,1,2.93-1.3l0.07,1.37a7.15,7.15,0,0,0-2.18.58,3.85,3.85,0,0,1,1,2.66,4,4,0,0,1-4.32,4,4.92,4.92,0,0,1-1.06-.1,2,2,0,0,0-.5,1.22c0,1,.94,1.13,2.45,1.15,2.66,0,4.44.84,4.44,3.1,0,2.64-2.45,4.18-5.45,4.18-2.69,0-4.63-1.25-4.61-3.38a4.07,4.07,0,0,1,2.09-3.41,1.64,1.64,0,0,1-.38-1.13A3,3,0,0,1,386.38,834.19Zm5.09,7.8a2.32,2.32,0,0,0,.82-1.8c0-1.66-1.46-1.92-3.53-1.94a6.9,6.9,0,0,1-2-.24,3.12,3.12,0,0,0-1.58,2.59c0,1.51,1.32,2.26,3.36,2.26A4.49,4.49,0,0,0,391.47,842Zm-3-14a2.49,2.49,0,0,0-2.69,2.66,2.71,2.71,0,0,0,5.42.1A2.5,2.5,0,0,0,388.52,828Z" transform="translate(-186.67 -400.7)"/><path d="M400.59,826.68c2.33,0,3.29,1.32,3.29,4.25v2.9c0,0.86,0,1.82.19,4.15l-1.32.19-0.31-1.56a6.18,6.18,0,0,1-4,1.73,2.59,2.59,0,0,1-2.83-2.76,3.11,3.11,0,0,1,1.44-2.64c1-.65,2.64-1,5.23-1.25v-0.24c0-2.5-.53-3.38-2-3.38a6.65,6.65,0,0,0-3.65,1.42l-0.62-1A7.17,7.17,0,0,1,400.59,826.68Zm1.7,8.69v-2.47c-2.62.24-3.74,0.55-4.34,1a1.84,1.84,0,0,0-.79,1.54,1.48,1.48,0,0,0,1.58,1.66A5.48,5.48,0,0,0,402.3,835.37Z" transform="translate(-186.67 -400.7)"/><path d="M409,826.77l0.29,1.63a5.42,5.42,0,0,1,3.86-1.8,2.61,2.61,0,0,1,2.76,1.9,5.52,5.52,0,0,1,4-1.9c2.18,0,3,1.42,3,4v7.46h-1.58v-6.89c0-2.23-.46-3.19-1.85-3.19a5.48,5.48,0,0,0-3.36,1.58c0,0.31,0,.65,0,1v7.46h-1.58v-6.89c0-2.23-.46-3.19-1.82-3.19a5.43,5.43,0,0,0-3.34,1.54v8.54h-1.58v-6.89c0-.84,0-1.82-0.19-4.22Z" transform="translate(-186.67 -400.7)"/><path d="M435.15,826.94a2.45,2.45,0,0,1-.22,1l-4.2,11.26c-1.42,3.48-2.9,4.85-4.68,4.85a7,7,0,0,1-.89-0.07v-1.27c2.06,0,3.26-1.42,4.56-4.58h-0.29L425.7,827.9a2.63,2.63,0,0,1-.19-1h1.56l2.62,7.34c0.22,0.62.41,1.3,0.58,2h0.1l3.29-9.34h1.51Z" transform="translate(-186.67 -400.7)"/><path d="M439.42,820.05v8.21a4.46,4.46,0,0,1,3.34-1.66c2.81,0,4.3,2.52,4.3,5.76,0,3-1.54,6-5.26,6a12.74,12.74,0,0,1-3.94-.62V820.1Zm4.7,16.22a4.77,4.77,0,0,0,1.3-3.77c0-2.71-1-4.54-2.88-4.54a4.71,4.71,0,0,0-3.12,1.63v7.06a9.89,9.89,0,0,0,2.5.31A3.19,3.19,0,0,0,444.13,836.28Z" transform="translate(-186.67 -400.7)"/><path d="M454.42,826.68c2.33,0,3.29,1.32,3.29,4.25v2.9c0,0.86,0,1.82.19,4.15l-1.32.19-0.31-1.56a6.18,6.18,0,0,1-4,1.73,2.59,2.59,0,0,1-2.83-2.76,3.11,3.11,0,0,1,1.44-2.64c1-.65,2.64-1,5.23-1.25v-0.24c0-2.5-.53-3.38-2-3.38a6.65,6.65,0,0,0-3.65,1.42l-0.62-1A7.17,7.17,0,0,1,454.42,826.68Zm1.7,8.69v-2.47c-2.62.24-3.74,0.55-4.34,1a1.84,1.84,0,0,0-.79,1.54,1.48,1.48,0,0,0,1.58,1.66A5.48,5.48,0,0,0,456.13,835.37Z" transform="translate(-186.67 -400.7)"/><path d="M268.22,851.07c-0.21.51-.41,0.93-0.56,1.36-0.62,1.74-1.86,2.18-3.39,1.18-5.94-3.89-11.86-7.82-17.82-11.68-5.45-3.54-11-7-16.42-10.51-4.84-3.12-9.65-6.3-14.5-9.42-3.46-2.23-7-4.39-10.41-6.62-4.65-3-9.3-6-13.91-9.06-1.87-1.24-1.87-1.32-1.1-3.44,1.21-3.32,2.47-6.63,3.72-9.93a1.8,1.8,0,0,1,2.38-1.12c6.89,2.53,13.79,5,20.67,7.6,7.46,2.77,14.91,5.58,22.36,8.35q10.48,3.9,21,7.77l4.14,1.53a11.17,11.17,0,0,0,.58-1.25c0.55-1.65,1.35-2.11,3-1.51,4.94,1.82,9.87,3.68,14.8,5.51,3.82,1.41,7.66,2.79,11.48,4.2a2,2,0,0,1,1.51,2.5q-1.18,11-2.37,22.08c-0.31,2.88-.64,5.76-1,8.64a1.84,1.84,0,0,1-2.7,1.7c-4.52-1.63-9-3.31-13.53-5Zm-5.09-30.36L196.7,796.07c-0.79,2.17-1.5,4.32-2.38,6.4a1.25,1.25,0,0,0,.58,1.8c3.37,2.15,6.74,4.29,10.1,6.45,5.49,3.54,11,7.12,16.45,10.65,4.4,2.83,8.85,5.58,13.25,8.42,6.2,4,12.37,8,18.55,12.05,3.79,2.46,7.59,4.9,11.65,7.52a4.78,4.78,0,0,0-.14-1.24c-0.49-1.05-1.07-2.06-1.55-3.12-1.47-3.24-2.82-6.54-4.4-9.73a2.88,2.88,0,0,1-.16-2.52Zm25.64,33.87c0.3-2.78.56-5.34,0.85-7.91,0.67-6,1.33-12,2-18a1.5,1.5,0,0,0-1.24-1.93c-2.56-.81-5.05-1.85-7.58-2.78-4.65-1.73-9.3-3.44-13.94-5.17-0.62-.23-0.86-0.22-1.14.54-1.65,4.57-3.41,9.09-5.11,13.64a2,2,0,0,0-.06,1.32c1.67,3.75,3.35,7.5,5.13,11.2a3,3,0,0,0,1.71,2c5,1.74,9.88,3.64,14.82,5.47C285.71,853.51,287.2,854,288.77,854.57Z" transform="translate(-186.67 -400.7)"/><path class="cls-1" d="M263.13,820.7l-4.47,12.05a2.88,2.88,0,0,0,.16,2.52c1.57,3.19,2.93,6.49,4.4,9.73,0.48,1.06,1.06,2.07,1.55,3.12a4.78,4.78,0,0,1,.14,1.24c-4.07-2.62-7.86-5.07-11.65-7.52-6.19-4-12.35-8.06-18.55-12.05-4.4-2.83-8.85-5.59-13.25-8.42-5.49-3.53-11-7.11-16.45-10.65-3.36-2.17-6.74-4.3-10.1-6.45a1.25,1.25,0,0,1-.58-1.8c0.88-2.08,1.59-4.23,2.38-6.4Zm-60.88-16.36c1.24-.23,1.92-0.69,2.16-1.59a1.57,1.57,0,0,0-.79-2,22.43,22.43,0,0,0-2.58-1,1.5,1.5,0,0,0-1.94,1,2,2,0,0,0,.19,1.84A18.4,18.4,0,0,0,202.25,804.34Z" transform="translate(-186.67 -400.7)"/><path class="cls-1" d="M288.77,854.57c-1.57-.56-3.06-1.06-4.54-1.61-4.94-1.83-9.85-3.74-14.82-5.47a3,3,0,0,1-1.71-2c-1.78-3.7-3.46-7.45-5.13-11.2a2,2,0,0,1,.06-1.32c1.69-4.55,3.46-9.08,5.11-13.64,0.28-.76.52-0.77,1.14-0.54,4.64,1.74,9.29,3.45,13.94,5.17,2.52,0.94,5,2,7.58,2.78a1.5,1.5,0,0,1,1.24,1.93c-0.7,6-1.36,12-2,18C289.33,849.23,289.07,851.79,288.77,854.57ZM267.9,835.28c0.16,0.43.33,0.93,0.54,1.41,0.81,1.84,1.59,3.71,2.49,5.51a4.67,4.67,0,0,0,1.65,2.25c3,1.32,6.14,2.43,9.26,3.52a1.79,1.79,0,0,0,2.31-2.14c-0.09-.49-0.33-1-0.45-1.45a23.51,23.51,0,0,1-.93-4.15,12.75,12.75,0,0,1,2.83-8.58,2.62,2.62,0,0,0,.18-1.71c-0.16-1.28-1.35-1.33-2.25-1.68-3.16-1.21-6.32-2.41-9.5-3.56a1.9,1.9,0,0,0-2.69,1.31c-0.63,1.67-1.25,3.34-1.87,5Z" transform="translate(-186.67 -400.7)"/><path d="M202.25,804.34a18.4,18.4,0,0,1-3-1.71,2,2,0,0,1-.19-1.84,1.5,1.5,0,0,1,1.94-1,22.43,22.43,0,0,1,2.58,1,1.57,1.57,0,0,1,.79,2C204.17,803.65,203.49,804.11,202.25,804.34Z" transform="translate(-186.67 -400.7)"/><path d="M267.9,835.28l1.57-4.25c0.62-1.67,1.24-3.35,1.87-5a1.9,1.9,0,0,1,2.69-1.31c3.18,1.15,6.34,2.35,9.5,3.56,0.89,0.34,2.09.4,2.25,1.68a2.62,2.62,0,0,1-.18,1.71,12.75,12.75,0,0,0-2.83,8.58,23.51,23.51,0,0,0,.93,4.15c0.12,0.49.36,1,.45,1.45a1.79,1.79,0,0,1-2.31,2.14c-3.12-1.09-6.24-2.2-9.26-3.52a4.67,4.67,0,0,1-1.65-2.25c-0.9-1.8-1.68-3.67-2.49-5.51C268.23,836.21,268.06,835.71,267.9,835.28ZM279.27,843a18.65,18.65,0,0,1,1.85-11.51l-6.75-2.51c-0.75,2-1.49,4-2.21,6a1.15,1.15,0,0,0,.06.75c0.67,1.61,1.36,3.21,2.08,4.79a1.73,1.73,0,0,0,.74.87C276.38,841.93,277.75,842.4,279.27,843Z" transform="translate(-186.67 -400.7)"/><path class="cls-1" d="M279.27,843c-1.53-.56-2.9-1-4.23-1.58a1.73,1.73,0,0,1-.74-0.87c-0.72-1.58-1.41-3.19-2.08-4.79a1.15,1.15,0,0,1-.06-0.75c0.71-2,1.46-4,2.21-6l6.75,2.51A18.65,18.65,0,0,0,279.27,843Z" transform="translate(-186.67 -400.7)"/><path id="Chevron_Right" data-name="Chevron Right" class="cls-2" d="M341.31,459.58l8.89-8.89a1,1,0,0,0-1.41-1.41l-8.18,8.19-8.18-8.18a1,1,0,0,0-1.41,1.41l8.89,8.89A1,1,0,0,0,341.31,459.58Z" transform="translate(-186.67 -400.7)"/><path id="Chevron_Right-2" data-name="Chevron Right" class="cls-2" d="M339.9,607.59l8.89-8.89a1,1,0,0,0-1.41-1.41l-8.18,8.19L331,597.29a1,1,0,1,0-1.41,1.41l8.89,8.89A1,1,0,0,0,339.9,607.59Z" transform="translate(-186.67 -400.7)"/><path id="Chevron_Right-3" data-name="Chevron Right" class="cls-2" d="M345.18,765.9l8.89-8.89a1,1,0,1,0-1.41-1.41l-8.18,8.19-8.18-8.18a1,1,0,0,0-1.41,1.41l8.89,8.89A1,1,0,0,0,345.18,765.9Z" transform="translate(-186.67 -400.7)"/><path id="Chevron_Right-4" data-name="Chevron Right" class="cls-2" d="M345.18,904.54l8.89-8.89a1,1,0,0,0-1.41-1.41l-8.18,8.19-8.18-8.18a1,1,0,0,0-1.41,1.41l8.89,8.89A1,1,0,0,0,345.18,904.54Z" transform="translate(-186.67 -400.7)"/><path class="cls-3" d="M276,501.11a3.63,3.63,0,1,0,5.08.8A3.9,3.9,0,0,0,276,501.11Zm13.41-.48-8.28-11.39a7.48,7.48,0,0,0-10.16-1.6l-81.22,59.05a7.18,7.18,0,0,0-1.6,10.16l8.28,11.39a7.58,7.58,0,0,0,4.73,3,6.39,6.39,0,0,0,5.43-1.42l81.22-59.05A7,7,0,0,0,289.36,500.63Zm-4.59,6.43-80.85,58.78a2.52,2.52,0,0,1-3.49-.55l-8.28-11.39a2.52,2.52,0,0,1,.55-3.49l6.25-4.54,2.67,3.68a2.33,2.33,0,0,0,3.17.5,2.52,2.52,0,0,0,.55-3.49l-2.67-3.68,10.66-7.75L216,538.8a2.33,2.33,0,0,0,3.17.5,2.52,2.52,0,0,0,.55-3.49l-2.67-3.68,10.66-7.75,2.67,3.68a2.33,2.33,0,0,0,3.17.5,2.52,2.52,0,0,0,.55-3.49l-2.67-3.68,10.66-7.75,2.67,3.68a2.33,2.33,0,0,0,3.17.5,2.52,2.52,0,0,0,.55-3.49l-2.67-3.68,10.66-7.75,2.67,3.68a2.33,2.33,0,0,0,3.17.5,2.52,2.52,0,0,0,.55-3.49l-2.67-3.68,12.86-9.35a2.33,2.33,0,0,1,3.17.5l9.08,12.5a2.45,2.45,0,0,1,.38,1.69A2.36,2.36,0,0,1,284.77,507.06Z" transform="translate(-186.67 -400.7)"/><path d="M332.29,513.92l0,1.42h-7.32v5.74h6v1.42h-6v6.1h7.37l0,1.42h-9V513.92h9Z" transform="translate(-186.67 -400.7)"/><path d="M336.56,518.7l0.36,2.16c0.79-1.44,1.82-2.26,3.12-2.26a3,3,0,0,1,1.51.41l-0.34,1.44a3.8,3.8,0,0,0-1.27-.19,3.41,3.41,0,0,0-2.93,2.18V530h-1.58v-6.89c0-.84,0-1.87-0.22-4.22Z" transform="translate(-186.67 -400.7)"/><path d="M347.82,518.53a4.65,4.65,0,0,1,2.59.79V512l1.58,0v14.09c0,0.77,0,1.68.19,3.84l-1.32.19-0.31-1.63a5,5,0,0,1-3.62,1.87c-2.45,0-4.18-2.4-4.18-5.57C342.75,521.77,344.29,518.53,347.82,518.53Zm2.59,8.69v-6.6a4.81,4.81,0,0,0-2.59-.72,3,3,0,0,0-2.21.77,5.22,5.22,0,0,0-1.22,3.77c0,2.57,1,4.51,2.81,4.51A5,5,0,0,0,350.41,527.22Z" transform="translate(-186.67 -400.7)"/><path d="M364.5,518.87a2.45,2.45,0,0,1-.19,1L360.44,530l-1.66,0L355,519.83a2.63,2.63,0,0,1-.19-1h1.56l2.59,7.34c0.22,0.62.43,1.3,0.6,2h0.1l3.29-9.34h1.51Z" transform="translate(-186.67 -400.7)"/><path d="M371.19,518.55c2.66,0,4,2,4,4.44a10.9,10.9,0,0,1-.17,1.78h-7.15c0.1,2.81,1.49,4.1,3.46,4.1a8.74,8.74,0,0,0,3.17-.62l0.43,1.13a9.17,9.17,0,0,1-3.89.89c-2.66,0-4.78-1.92-4.78-5.66C366.25,521.22,368.17,518.55,371.19,518.55Zm-3.29,5h5.64c0-.26,0-0.58,0-0.86,0-1.61-.86-2.83-2.5-2.83C369.25,519.9,368.12,521.29,367.9,523.59Zm3.12-9.31a1,1,0,0,1,1.08,1.1,1.15,1.15,0,0,1-1.2,1.2,1,1,0,0,1-1.1-1.08A1.17,1.17,0,0,1,371,514.28Z" transform="translate(-186.67 -400.7)"/><path d="M381.83,518.6a5.26,5.26,0,0,1,3.31,1.15l-0.7,1a4.76,4.76,0,0,0-2.62-.84c-1.32,0-2.18.62-2.18,1.61,0,1.15,1.18,1.63,2.45,2.11,1.78,0.65,3.41,1.34,3.41,3.29s-1.68,3.31-4.1,3.31a6.22,6.22,0,0,1-3.84-1.32l0.7-1.08a5.35,5.35,0,0,0,3.1,1.06c1.44,0,2.52-.65,2.52-1.8s-1.42-1.73-2.88-2.33-2.93-1.34-3-3C378,519.78,379.76,518.6,381.83,518.6Z" transform="translate(-186.67 -400.7)"/><path d="M395.82,518.7l0.29,1.63a5.42,5.42,0,0,1,3.86-1.8,2.61,2.61,0,0,1,2.76,1.9,5.52,5.52,0,0,1,4-1.9c2.18,0,3,1.42,3,4V530h-1.58v-6.89c0-2.23-.46-3.19-1.85-3.19a5.48,5.48,0,0,0-3.36,1.58c0,0.31,0,.65,0,1V530h-1.58v-6.89c0-2.23-.46-3.19-1.82-3.19a5.43,5.43,0,0,0-3.34,1.54V530h-1.58v-6.89c0-.84,0-1.82-0.19-4.22Z" transform="translate(-186.67 -400.7)"/><path d="M417.66,518.6c2.33,0,3.29,1.32,3.29,4.25v2.9c0,0.86,0,1.82.19,4.15l-1.32.19-0.31-1.56a6.18,6.18,0,0,1-4,1.73,2.59,2.59,0,0,1-2.83-2.76,3.11,3.11,0,0,1,1.44-2.64c1-.65,2.64-1,5.23-1.25v-0.24c0-2.5-.53-3.38-2-3.38a6.65,6.65,0,0,0-3.65,1.42l-0.62-1A7.17,7.17,0,0,1,417.66,518.6Zm1.7,8.69v-2.47c-2.62.24-3.74,0.55-4.34,1a1.84,1.84,0,0,0-.79,1.54,1.48,1.48,0,0,0,1.58,1.66A5.48,5.48,0,0,0,419.36,527.29Z" transform="translate(-186.67 -400.7)"/><path d="M426.92,515.55v3.31h3.46v1.32h-3.46v6.26c0,1.9.31,2.4,1.42,2.4a7.56,7.56,0,0,0,1.85-.29l0.34,1.2a8.29,8.29,0,0,1-2.74.5c-1.73,0-2.42-.86-2.42-3.43v-6.65h-1.7v-1.32h1.61l0.38-3.31h1.27Z" transform="translate(-186.67 -400.7)"/><path d="M437.19,518.6c2.33,0,3.29,1.32,3.29,4.25v2.9c0,0.86,0,1.82.19,4.15l-1.32.19L439,528.54a6.18,6.18,0,0,1-4,1.73,2.59,2.59,0,0,1-2.83-2.76,3.11,3.11,0,0,1,1.44-2.64c1-.65,2.64-1,5.23-1.25v-0.24c0-2.5-.53-3.38-2-3.38a6.65,6.65,0,0,0-3.65,1.42l-0.62-1A7.17,7.17,0,0,1,437.19,518.6Zm1.7,8.69v-2.47c-2.62.24-3.74,0.55-4.34,1a1.84,1.84,0,0,0-.79,1.54,1.48,1.48,0,0,0,1.58,1.66A5.48,5.48,0,0,0,438.9,527.29Z" transform="translate(-186.67 -400.7)"/><path d="M452.7,518.87a2.45,2.45,0,0,1-.19,1L448.64,530,447,530l-3.74-10.2a2.63,2.63,0,0,1-.19-1h1.56l2.59,7.34c0.22,0.62.43,1.3,0.6,2h0.1l3.29-9.34h1.51Z" transform="translate(-186.67 -400.7)"/><path d="M456.34,514.28a1,1,0,0,1,1.08,1.1,1.15,1.15,0,0,1-1.2,1.2,1,1,0,0,1-1.1-1.08A1.17,1.17,0,0,1,456.34,514.28Zm0.7,4.56V530h-1.56V518.89Z" transform="translate(-186.67 -400.7)"/><path d="M462.2,518.7l0.29,1.63a5.42,5.42,0,0,1,3.86-1.8,2.61,2.61,0,0,1,2.76,1.9,5.52,5.52,0,0,1,4-1.9c2.18,0,3,1.42,3,4V530h-1.58v-6.89c0-2.23-.46-3.19-1.85-3.19a5.48,5.48,0,0,0-3.36,1.58c0,0.31,0,.65,0,1V530h-1.58v-6.89c0-2.23-.46-3.19-1.82-3.19a5.43,5.43,0,0,0-3.34,1.54V530H461v-6.89c0-.84,0-1.82-0.19-4.22Z" transform="translate(-186.67 -400.7)"/><path d="M484,518.6c2.33,0,3.29,1.32,3.29,4.25v2.9c0,0.86,0,1.82.19,4.15l-1.32.19-0.31-1.56a6.17,6.17,0,0,1-4,1.73,2.59,2.59,0,0,1-2.83-2.76,3.11,3.11,0,0,1,1.44-2.64c1-.65,2.64-1,5.23-1.25v-0.24c0-2.5-.53-3.38-2-3.38a6.65,6.65,0,0,0-3.65,1.42l-0.62-1A7.17,7.17,0,0,1,484,518.6Zm1.7,8.69v-2.47c-2.62.24-3.74,0.55-4.34,1a1.83,1.83,0,0,0-.79,1.54,1.48,1.48,0,0,0,1.58,1.66A5.49,5.49,0,0,0,485.74,527.29Z" transform="translate(-186.67 -400.7)"/><path d="M494.58,518.6a5.26,5.26,0,0,1,3.31,1.15l-0.7,1a4.76,4.76,0,0,0-2.62-.84c-1.32,0-2.18.62-2.18,1.61,0,1.15,1.18,1.63,2.45,2.11,1.78,0.65,3.41,1.34,3.41,3.29s-1.68,3.31-4.1,3.31a6.22,6.22,0,0,1-3.84-1.32l0.7-1.08a5.35,5.35,0,0,0,3.1,1.06c1.44,0,2.52-.65,2.52-1.8s-1.42-1.73-2.88-2.33-2.93-1.34-3-3C490.76,519.78,492.51,518.6,494.58,518.6Z" transform="translate(-186.67 -400.7)"/><path d="M195.14,931.56h43.52v28h53v68.58H195.14V931.56Zm67,42.11H238.76v28h23.35v-28Zm3.14,28h23.36v-28H265.26v28Zm-67.08,23.39h90.42v-6.13H198.17v6.13Zm37.41-90.39H198.2v53h37.38v-53Zm3.15,81H288.6v-10.83H238.73v10.83Zm-40.57-14h37.39V990.83H198.16v10.83Zm0,3.18v10.87h37.37v-10.87H198.19Zm40.54-34.38H288.6v-7.72H238.73v7.72Z" transform="translate(-186.67 -400.7)"/><path class="cls-1" d="M262.11,973.67v28H238.76v-28h23.35Zm-6.18,15.47h3v-6.06h-3v6.06Z" transform="translate(-186.67 -400.7)"/><path class="cls-1" d="M265.26,1001.67v-28h23.36v28H265.26Zm6.13-12.5v-6.09h-2.94v6.09h2.94Z" transform="translate(-186.67 -400.7)"/><path class="cls-1" d="M198.17,1025.06v-6.13h90.42v6.13H198.17Z" transform="translate(-186.67 -400.7)"/><path class="cls-1" d="M235.58,934.67v53H198.2v-53h37.38Zm-3.16,3.18H201.37v46.62h31.05V937.85Z" transform="translate(-186.67 -400.7)"/><path class="cls-1" d="M238.73,1015.71v-10.83H288.6v10.83H238.73Zm20.34-3.18h9.2v-2.94h-9.2v2.94Z" transform="translate(-186.67 -400.7)"/><path class="cls-1" d="M198.16,1001.66V990.83h37.39v10.83H198.16Zm23.33-6.1h-9.2v2.94h9.2v-2.94Z" transform="translate(-186.67 -400.7)"/><path class="cls-1" d="M198.19,1004.85h37.37v10.87H198.19v-10.87Zm23.28,7.72v-3H212.3v3h9.17Z" transform="translate(-186.67 -400.7)"/><path class="cls-1" d="M238.73,970.46v-7.72H288.6v7.72H238.73Zm29.53-1.58v-3h-9.19v3h9.19Z" transform="translate(-186.67 -400.7)"/><path d="M255.94,989.15v-6.06h3v6.06h-3Z" transform="translate(-186.67 -400.7)"/><path d="M271.38,989.17h-2.94v-6.09h2.94v6.09Z" transform="translate(-186.67 -400.7)"/><path d="M232.42,937.85v46.62H201.37V937.85h31.05Zm-3.08,3.06H204.44v40.48h24.91V940.91Z" transform="translate(-186.67 -400.7)"/><path d="M259.07,1012.53v-2.94h9.2v2.94h-9.2Z" transform="translate(-186.67 -400.7)"/><path d="M221.49,995.57v2.94h-9.2v-2.94h9.2Z" transform="translate(-186.67 -400.7)"/><path d="M221.47,1012.57H212.3v-3h9.17v3Z" transform="translate(-186.67 -400.7)"/><path d="M268.27,968.88h-9.19v-3h9.19v3Z" transform="translate(-186.67 -400.7)"/><path class="cls-1" d="M229.35,940.91v40.48H204.44V940.91h24.91Z" transform="translate(-186.67 -400.7)"/><path d="M327.2,971.36c3.26,0,5.4,1.2,5.4,3.91a4,4,0,0,1-2.42,3.84,3.81,3.81,0,0,1,3.34,4c0,2.86-2,4.82-6.1,4.82a29.75,29.75,0,0,1-4.1-.36V971.72A25.11,25.11,0,0,1,327.2,971.36Zm2.38,6.74a2.73,2.73,0,0,0,1.32-2.5c0-2.11-1.49-2.83-3.74-2.83a15,15,0,0,0-2.23.19v5.59l2.42,0A4.28,4.28,0,0,0,329.58,978.1Zm1,7.68a3.26,3.26,0,0,0,1.27-2.69c0-2-1.39-3.14-4.46-3.14-0.77,0-1.61,0-2.42,0v6.38c1,0.1,1.82.17,2.64,0.17A4.92,4.92,0,0,0,330.54,985.78Z" transform="translate(-186.67 -400.7)"/><path d="M340.86,976.28c2.33,0,3.29,1.32,3.29,4.25v2.9c0,0.86,0,1.82.19,4.15l-1.32.19-0.31-1.56a6.18,6.18,0,0,1-4,1.73,2.59,2.59,0,0,1-2.83-2.76,3.12,3.12,0,0,1,1.44-2.64c1-.65,2.64-1,5.23-1.25v-0.24c0-2.5-.53-3.38-2-3.38a6.65,6.65,0,0,0-3.65,1.42l-0.62-1A7.17,7.17,0,0,1,340.86,976.28Zm1.7,8.69v-2.47c-2.62.24-3.74,0.55-4.34,1a1.84,1.84,0,0,0-.79,1.54,1.48,1.48,0,0,0,1.58,1.66A5.48,5.48,0,0,0,342.56,985Z" transform="translate(-186.67 -400.7)"/><path d="M349.59,969.65v15.82c0,0.77.22,1.08,0.72,1.08a2.82,2.82,0,0,0,.89-0.17l0.36,1.2a4.57,4.57,0,0,1-1.73.36c-1.15,0-1.8-.7-1.8-2V969.7Z" transform="translate(-186.67 -400.7)"/><path d="M358.43,976.21A4.65,4.65,0,0,1,361,977v-7.3l1.58,0v14.09c0,0.77,0,1.68.19,3.84l-1.32.19-0.31-1.63a5,5,0,0,1-3.62,1.87c-2.45,0-4.18-2.4-4.18-5.57C353.36,979.45,354.9,976.21,358.43,976.21Zm2.59,8.69v-6.6a4.81,4.81,0,0,0-2.59-.72,3,3,0,0,0-2.21.77,5.22,5.22,0,0,0-1.22,3.77c0,2.57,1,4.51,2.81,4.51A5,5,0,0,0,361,984.89Z" transform="translate(-186.67 -400.7)"/><path d="M368.07,976.54v7c0,2.14.6,3.12,2,3.12,1.1,0,2.09-.55,3.34-1.73v-8.35H375v6.82c0,1.06,0,2.57.22,4.75-1.68.79-2.52,1.66-2.52,2.5a1.12,1.12,0,0,0,1.3,1.15,4.09,4.09,0,0,0,1.54-.36l0.38,1.13a5.59,5.59,0,0,1-2.3.55,2.21,2.21,0,0,1-2.5-2.16c0-1.22,1.08-2.3,2.66-3.22l-0.24-1.51a5.2,5.2,0,0,1-3.79,1.82c-2.33,0-3.26-1.46-3.26-3.89v-7.58h1.58Z" transform="translate(-186.67 -400.7)"/><path d="M386.17,976.37l0.29,1.63a5.42,5.42,0,0,1,3.86-1.8,2.61,2.61,0,0,1,2.76,1.9,5.52,5.52,0,0,1,4-1.9c2.18,0,3,1.42,3,4v7.46h-1.58v-6.89c0-2.23-.46-3.19-1.85-3.19a5.49,5.49,0,0,0-3.36,1.58c0,0.31,0,.65,0,1v7.46h-1.58v-6.89c0-2.23-.46-3.19-1.82-3.19a5.43,5.43,0,0,0-3.34,1.54v8.54H385v-6.89c0-.84,0-1.82-0.19-4.22Z" transform="translate(-186.67 -400.7)"/><path d="M408.27,976.21c3,0,4.75,2.45,4.75,5.76,0,2.9-1.54,6-5,6-3,0-4.78-2.42-4.78-5.76C403.28,979.4,404.86,976.21,408.27,976.21Zm-0.14,1.39a2.89,2.89,0,0,0-2.06.77,5.29,5.29,0,0,0-1.18,3.67c0,2.66,1.13,4.61,3.31,4.61a2.77,2.77,0,0,0,2.06-.82,5.19,5.19,0,0,0,1.15-3.65C411.42,979.54,410.29,977.6,408.13,977.6Z" transform="translate(-186.67 -400.7)"/><path d="M417.49,976.37l0.29,1.58a5.89,5.89,0,0,1,4.06-1.75c2.45,0,3.24,1.44,3.24,3.89v7.58h-1.58v-7c0-2.09-.41-3.12-2-3.12a5.63,5.63,0,0,0-3.55,1.54v8.54h-1.58v-6.89c0-.84,0-1.94-0.22-4.22Z" transform="translate(-186.67 -400.7)"/><path d="M431,973.23v3.31h3.46v1.32H431v6.26c0,1.9.31,2.4,1.42,2.4a7.56,7.56,0,0,0,1.85-.29l0.34,1.2a8.29,8.29,0,0,1-2.74.5c-1.73,0-2.42-.86-2.42-3.43v-6.65h-1.7v-1.32h1.61l0.38-3.31H431Z" transform="translate(-186.67 -400.7)"/><path d="M441.27,976.28c2.33,0,3.29,1.32,3.29,4.25v2.9c0,0.86,0,1.82.19,4.15l-1.32.19-0.31-1.56a6.18,6.18,0,0,1-4,1.73,2.59,2.59,0,0,1-2.83-2.76,3.12,3.12,0,0,1,1.44-2.64c1-.65,2.64-1,5.23-1.25v-0.24c0-2.5-.53-3.38-2-3.38a6.65,6.65,0,0,0-3.65,1.42l-0.62-1A7.17,7.17,0,0,1,441.27,976.28ZM443,985v-2.47c-2.62.24-3.74,0.55-4.34,1a1.84,1.84,0,0,0-.79,1.54,1.48,1.48,0,0,0,1.58,1.66A5.48,5.48,0,0,0,443,985Z" transform="translate(-186.67 -400.7)"/><path d="M456.78,976.54a2.45,2.45,0,0,1-.19,1l-3.86,10.15-1.66,0-3.74-10.2a2.63,2.63,0,0,1-.19-1h1.56l2.59,7.34c0.22,0.62.43,1.3,0.6,2H452l3.29-9.34h1.51Z" transform="translate(-186.67 -400.7)"/><path d="M460.42,972a1,1,0,0,1,1.08,1.1,1.15,1.15,0,0,1-1.2,1.2,1,1,0,0,1-1.1-1.08A1.17,1.17,0,0,1,460.42,972Zm0.7,4.56v11.16h-1.56V976.57Z" transform="translate(-186.67 -400.7)"/><path d="M466.28,976.37l0.29,1.63a5.42,5.42,0,0,1,3.86-1.8,2.61,2.61,0,0,1,2.76,1.9,5.52,5.52,0,0,1,4-1.9c2.18,0,3,1.42,3,4v7.46h-1.58v-6.89c0-2.23-.46-3.19-1.85-3.19a5.49,5.49,0,0,0-3.36,1.58c0,0.31,0,.65,0,1v7.46h-1.58v-6.89c0-2.23-.46-3.19-1.82-3.19a5.43,5.43,0,0,0-3.34,1.54v8.54h-1.58v-6.89c0-.84,0-1.82-0.19-4.22Z" transform="translate(-186.67 -400.7)"/><path d="M488.12,976.28c2.33,0,3.29,1.32,3.29,4.25v2.9c0,0.86,0,1.82.19,4.15l-1.32.19L490,986.21a6.18,6.18,0,0,1-4,1.73,2.59,2.59,0,0,1-2.83-2.76,3.12,3.12,0,0,1,1.44-2.64c1-.65,2.64-1,5.23-1.25v-0.24c0-2.5-.53-3.38-2-3.38a6.65,6.65,0,0,0-3.65,1.42l-0.62-1A7.17,7.17,0,0,1,488.12,976.28Zm1.7,8.69v-2.47c-2.62.24-3.74,0.55-4.34,1a1.83,1.83,0,0,0-.79,1.54,1.48,1.48,0,0,0,1.58,1.66A5.48,5.48,0,0,0,489.82,985Z" transform="translate(-186.67 -400.7)"/><path d="M498.65,976.28a5.26,5.26,0,0,1,3.31,1.15l-0.7,1a4.76,4.76,0,0,0-2.62-.84c-1.32,0-2.18.62-2.18,1.61,0,1.15,1.18,1.63,2.45,2.11,1.78,0.65,3.41,1.34,3.41,3.29s-1.68,3.31-4.1,3.31a6.23,6.23,0,0,1-3.84-1.32l0.7-1.08a5.35,5.35,0,0,0,3.1,1.06c1.44,0,2.52-.65,2.52-1.8s-1.42-1.73-2.88-2.33-2.93-1.34-3-3C494.84,977.45,496.59,976.28,498.65,976.28Z" transform="translate(-186.67 -400.7)"/></svg>