<svg id="Layer_1" data-name="Layer 1" xmlns="http://www.w3.org/2000/svg" viewBox="0 0 512 277.56"><defs><style>.cls-1{fill:#fff;}</style></defs><title>scroll-down</title><path class="cls-1" d="M225,159c2.91-7.39,7.18-13.55,15.3-15.79,8.68-2.39,16,.18,22.26,6.5q46.76,46.9,93.64,93.68L477.79,365c0.93,0.93,1.92,1.81,4.42,4.17,1.05-1.79,1.76-3.83,3.13-5.2Q592,257.12,698.76,150.41c8.54-8.54,17.91-10.33,27.09-5.51,5.87,3.09,8.63,8.46,11.15,14.1v9c-3.59,5.09-6.54,10.82-10.87,15.17Q612.66,297,498.9,410.6c-12.32,12.32-23.56,12.28-35.81,0Q349.62,297.1,236.22,183.53c-4.45-4.47-7.51-10.32-11.22-15.53v-9Z" transform="translate(-225 -142.27)"/></svg>